<?xml version="1.0" encoding="utf-8"?>
<!-- Generator: Adobe Illustrator 19.2.1, SVG Export Plug-In . SVG Version: 6.00 Build 0)  -->
<svg version="1.1" id="Ebene_1" xmlns="http://www.w3.org/2000/svg" xmlns:xlink="http://www.w3.org/1999/xlink" x="0px" y="0px"
	 width="38px" height="38px" viewBox="0 0 38 38" style="enable-background:new 0 0 38 38;" xml:space="preserve">
<style type="text/css">
	.st0{fill:none;}
	.st1{fill:#3B4654;}
</style>
<g>
	<rect class="st0" width="38" height="38"/>
	<path class="st1" d="M1,27h14v-4H1V27z M17,27h4v-4h-4V27z M1,7v4h26V7H1z M1,19h16h5l5-3.4V15H1V19z"/>
	<g>
		<rect x="17" y="21" class="st1" width="4" height="7"/>
		<polygon class="st1" points="23,21 23,28 31,33 31,16 		"/>
	</g>
	<path class="st1" d="M36.8,21.5c-0.4-0.7-1-1.5-1.6-1.9c-0.2-0.1-0.3-0.1-0.4-0.1c-0.1,0-0.3,0.1-0.4,0.2l-0.8,1
		c-0.2,0.2-0.1,0.5,0.1,0.7c0.1,0.1,0.2,0.2,0.3,0.2c0.1,0.1,0.1,0.1,0.2,0.2c0.7,0.6,1.1,1.2,1.2,2.4c0.1,0.9-0.1,1.9-0.6,2.5
		c-0.2,0.2-0.8,0.7-1.1,1c-0.1,0.1-0.2,0.2-0.2,0.3s0,0.3,0.1,0.4l0.8,1c0.1,0.1,0.2,0.2,0.4,0.2c0.1,0,0.2,0,0.3-0.1
		c0.5-0.3,1-0.8,1.2-1.1C37.8,26.5,38,23.7,36.8,21.5z"/>
</g>
</svg>
