<?xml version="1.0" encoding="utf-8"?>
<!-- Generator: Adobe Illustrator 19.2.1, SVG Export Plug-In . SVG Version: 6.00 Build 0)  -->
<svg version="1.1" id="Ebene_1" xmlns="http://www.w3.org/2000/svg" xmlns:xlink="http://www.w3.org/1999/xlink" x="0px" y="0px"
	 width="38px" height="38px" viewBox="0 0 38 38" style="enable-background:new 0 0 38 38;" xml:space="preserve">
<style type="text/css">
	.st0{fill:none;}
	.st1{fill:#3B4654;}
</style>
<g>
	<rect class="st0" width="38" height="38"/>
	<path class="st1" d="M0,32h15v-5H0V32z M0,24h15v-5H0V24z M25,15v-4h-6v5h6.1C25.1,15.7,25,15.3,25,15z M19,32h15v-5H19V32z M0,16
		h15v-5H0V16z M29,19H19v5h15v-5H29z"/>
	<path class="st1" d="M38,13c0,1.1-0.9,2-2,2h-7c-1.1,0-2-0.9-2-2V8c0-1.1,0.9-2,2-2h7c1.1,0,2,0.9,2,2V13z"/>
</g>
</svg>
