<?xml version="1.0" encoding="utf-8"?>
<!-- Generator: Adobe Illustrator 20.0.0, SVG Export Plug-In . SVG Version: 6.00 Build 0)  -->
<svg version="1.1" id="Ebene_1" xmlns="http://www.w3.org/2000/svg" xmlns:xlink="http://www.w3.org/1999/xlink" x="0px" y="0px"
	 width="140px" height="90px" viewBox="0 0 140 90" style="enable-background:new 0 0 140 90;" xml:space="preserve">
<style type="text/css">
	.st0{fill:none;}
	.st1{fill:#3B4654;}
	.st2{fill:#196FA3;}
	.st3{fill:none;stroke:#196FA3;stroke-width:4;stroke-miterlimit:10;}
</style>
<rect class="st0" width="140" height="90"/>
<path class="st1" d="M90,53h10V30H85v38h5V53z M107.1667,73L113,76.6842V73H107.1667z M74,17H59v51h15V17z M20,73v6h92.5l-9.5-6H20z
	 M48,41H33v27h15V41z"/>
<g>
	<polygon class="st2" points="104,55 123,43 123,83 104,71 	"/>
	<path class="st3" d="M132,54.0326c2.295,2.2949,3.7144,5.4654,3.7144,8.9674S134.295,69.6724,132,71.9674"/>
	<rect x="92" y="55" class="st2" width="10" height="16"/>
	<path class="st3" d="M127,58.6544c1.1121,1.1121,1.8,2.6485,1.8,4.3456c0,1.6971-0.6879,3.2335-1.8,4.3456"/>
</g>
</svg>
