<?xml version="1.0" encoding="utf-8"?>
<!-- Generator: Adobe Illustrator 20.0.0, SVG Export Plug-In . SVG Version: 6.00 Build 0)  -->
<svg version="1.1" id="Ebene_1" xmlns="http://www.w3.org/2000/svg" xmlns:xlink="http://www.w3.org/1999/xlink" x="0px" y="0px"
	 width="140px" height="90px" viewBox="0 0 140 90" style="enable-background:new 0 0 140 90;" xml:space="preserve">
<style type="text/css">
	.st0{fill:none;}
	.st1{fill:#3B4654;}
	.st2{fill:#196FA3;}
	.st3{fill:none;stroke:#196FA3;stroke-width:4;stroke-miterlimit:10;}
</style>
<rect class="st0" width="140" height="90"/>
<path class="st1" d="M68,15.4328C64.85,12.2164,59.6,9,51.2,9C34.4,9,26,21.8656,26,21.8656V69c0,0,8.1383-5.5751,25.2003-5.5751
	c8.4484,0,13.6718,2.338,16.7997,3.3997V15.4328z"/>
<polygon class="st2" points="104,57 104,73 123,85 123,45 "/>
<path class="st3" d="M132,56.0326c2.295,2.2949,3.7144,5.4654,3.7144,8.9674S134.295,71.6724,132,73.9674"/>
<rect x="92" y="57" class="st2" width="10" height="16"/>
<path class="st3" d="M127,60.6544c1.1121,1.1121,1.8,2.6485,1.8,4.3456c0,1.6971-0.6879,3.2335-1.8,4.3456"/>
<path class="st1" d="M90,55h13l10-6.5V21.8656C113,21.8656,104.6,9,87.8,9c-8.4,0-13.65,3.2164-16.8,6.4328v51.3918
	c3.1279-1.0617,8.3513-3.3997,16.7997-3.3997c0.7582,0,1.4773,0.0234,2.2003,0.0445V55z"/>
</svg>
