<?xml version="1.0" encoding="utf-8"?>
<!-- Generator: Adobe Illustrator 20.0.0, SVG Export Plug-In . SVG Version: 6.00 Build 0)  -->
<svg version="1.1" id="Ebene_1" xmlns="http://www.w3.org/2000/svg" xmlns:xlink="http://www.w3.org/1999/xlink" x="0px" y="0px"
	 width="140px" height="90px" viewBox="0 0 140 90" style="enable-background:new 0 0 140 90;" xml:space="preserve">
<style type="text/css">
	.st0{fill:none;}
	.st1{fill:#196FA3;}
	.st2{fill:#3B4654;}
</style>
<rect class="st0" width="140" height="90"/>
<g>
	<g>
		<path class="st1" d="M49.9014,23l7.9726-11.8451c0.1534-0.228,0.1677-0.5211,0.0372-0.7626S57.5266,10,57.25,10h-16.5
			c-0.2766,0-0.5308,0.1508-0.6613,0.3923s-0.1162,0.5346,0.0372,0.7626L48.0986,23l-7.9727,11.8451
			c-0.1534,0.2279-0.1677,0.521-0.0372,0.7626C40.2192,35.8492,40.4734,36,40.75,36h16.5c0.2766,0,0.5307-0.1508,0.6612-0.3923
			c0.1305-0.2416,0.1162-0.5347-0.0372-0.7626L49.9014,23z"/>
		<path class="st1" d="M84.4028,75.0279C86.145,78.0008,89.338,80,93,80c3.6808,0,6.8884-2.0192,8.6245-5.0175l-8.5957-12.8939
			L84.4028,75.0279z M95.1854,60.0012l7.6726,11.5092c0.0858-0.5334,0.142-1.0768,0.142-1.6348
			C103,65.045,99.6558,61.0115,95.1854,60.0012z M83,69.8756c0,0.5596,0.0565,1.1048,0.1428,1.6397L90.8195,60
			C86.3466,61.0084,83,65.0433,83,69.8756z"/>
		<polygon class="st2" points="74.723,44 74.7229,44.0001 65.5536,44.0001 51,44.0001 51,36 47,36 47,44.0001 25,44.0001 
			25,52.0001 85,52.0001 85,52 91,52 91,60 95,60 95,52 115,52 115,44 		"/>
	</g>
	<rect x="91" y="80" class="st2" width="4" height="8"/>
	<rect x="47" y="2" class="st2" width="4" height="8"/>
</g>
</svg>
