<?xml version="1.0" encoding="UTF-8" standalone="no"?>
<!-- Generator: Adobe Illustrator 19.2.1, SVG Export Plug-In . SVG Version: 6.00 Build 0)  -->

<svg
   xmlns:dc="http://purl.org/dc/elements/1.1/"
   xmlns:cc="http://creativecommons.org/ns#"
   xmlns:rdf="http://www.w3.org/1999/02/22-rdf-syntax-ns#"
   xmlns:svg="http://www.w3.org/2000/svg"
   xmlns="http://www.w3.org/2000/svg"
   xmlns:sodipodi="http://sodipodi.sourceforge.net/DTD/sodipodi-0.dtd"
   xmlns:inkscape="http://www.inkscape.org/namespaces/inkscape"
   version="1.1"
   id="Ebene_1"
   x="0px"
   y="0px"
   width="140"
   height="100"
   viewBox="0 0 140 100"
   xml:space="preserve"
   inkscape:version="0.91 r13725"
   sodipodi:docname="boothConveyor.svg"><metadata
     id="metadata37"><rdf:RDF><cc:Work
         rdf:about=""><dc:format>image/svg+xml</dc:format><dc:type
           rdf:resource="http://purl.org/dc/dcmitype/StillImage" /><dc:title></dc:title></cc:Work></rdf:RDF></metadata><defs
     id="defs35" /><sodipodi:namedview
     pagecolor="#ffffff"
     bordercolor="#666666"
     borderopacity="1"
     objecttolerance="10"
     gridtolerance="10"
     guidetolerance="10"
     inkscape:pageopacity="0"
     inkscape:pageshadow="2"
     inkscape:window-width="1643"
     inkscape:window-height="808"
     id="namedview33"
     showgrid="false"
     inkscape:zoom="2.5"
     inkscape:cx="70"
     inkscape:cy="45"
     inkscape:window-x="0"
     inkscape:window-y="0"
     inkscape:window-maximized="0"
     inkscape:current-layer="Ebene_1" /><style
     type="text/css"
     id="style3">
	.st0{fill:none;}
	.st1{fill:#3B4654;}
	.st2{fill:#196FA3;}
</style><rect
     class="st0"
     width="140"
     height="90"
     id="rect5"
     x="0"
     y="10"
     style="fill:none" /><g
     id="g7"
     transform="translate(0,10)"><rect
       x="40"
       y="35"
       class="st1"
       width="7"
       height="18"
       id="rect9"
       style="fill:#3b4654" /><path
       class="st1"
       d="m 70,59 0,4 3.4,0 4,-4 -7.4,0 z m 7,3.2 -0.8,0.8 0.8,0 0,-0.8 z m 4,-1.2 -2,0 0,2 2,0 0,-2 z m -41,-8 7,0 0,-18 -7,0 0,18 z M 70.6,65.8 71.4,65 70,65 c -1.1,0 -2,-0.9 -2,-2 l 0,-4 c 0,-1.1 0.9,-2 2,-2 l 10.5,0 C 80,55.1 80.5,53.1 82,51.6 L 92.5,41.1 c 0.4,-0.4 0.9,-0.6 1.4,-0.6 0.1,0 0.1,0 0.2,0 l 0.1,0 c -0.2,-0.7 -0.3,-1.3 -0.3,-2 0,-1.9 0.7,-3.6 2,-4.9 L 96,33.5 c 1.3,-1.3 3.1,-2 4.9,-2 1.8,0 3.6,0.7 4.9,2 l 0.1,0.1 0,-11.6 -44.9,0 0,38.1 c 2.6,1.2 4.8,3.3 6,5.9 l 3.5,0 c 0,-0.1 0,-0.1 0.1,-0.2 z M 34,59 l 19,0 0,-6 -2,0 0,-8 2,0 0,-23 -19,0 0,37 z m 4,-26 11,0 0,22 -11,0 0,-22 z M 79,65.7 79.8,65 79,65 79,65.7 Z M 100.7,49.2 90.1,59.8 c -1.1,1.1 -2.5,1.7 -4.1,1.7 -0.4,0 -0.7,0 -1.1,-0.1 l 0,4.6 21,0 0,-12.5 -4.9,-4.9 c 0,0.2 -0.2,0.5 -0.3,0.6 z m 7.3,6.3 0,12.5 -2,0 -21,0 0,4 c 0,1.1 -0.9,2 -2,2 l -4,0 c -1.1,0 -2,-0.9 -2,-2 l 0,-1.4 -0.8,0.8 c -0.4,0.4 -0.9,0.6 -1.4,0.6 -0.5,0 -1,-0.2 -1.4,-0.6 l -2.8,-2.8 c -0.2,-0.2 -0.3,-0.4 -0.4,-0.7 l -2.4,0 c 0.2,1 0.4,2 0.4,3 l 0,1 c 0,1.4 -0.3,2.7 -0.7,4 l 44.5,0 0,-13.1 c 0,-0.7 0.4,-1.3 0.9,-1.7 0.2,-0.1 0.3,-0.2 0.5,-0.2 -0.1,-0.1 -0.3,-0.2 -0.4,-0.4 l -5,-5 z m -31,9.5 -2.8,0 -1,1 3.8,0 0,-1 z m -52,-53 0,47 7,0 0,-39 23,0 0,39 1.1,0 c 1,0 2,0.1 2.9,0.4 l 0,-6.4 -2,0 0,-8 2,0 0,-23 0,-2 2,0 45,0 2,0 0,15.6 6,6 0,-29.6 -89,0 z m 49.8,58 2,-2 -4,0 2,2 z M 83,64.6 81.6,66 83,66 83,64.6 Z m -4,7.4 4,0 0,-4 -3.4,0 -0.6,0.6 0,3.4 z"
       id="path11"
       inkscape:connector-curvature="0"
       style="fill:#3b4654" /><g
       id="g13"><rect
         x="70"
         y="59"
         class="st1"
         width="11"
         height="4"
         id="rect15"
         style="fill:#3b4654" /><rect
         x="79"
         y="61"
         class="st1"
         width="4"
         height="11"
         id="rect17"
         style="fill:#3b4654" /><polygon
         class="st1"
         points="81.2,59 83,60.8 82.9,61.8 74.7,70 72,67.2 80.2,59.1 "
         id="polygon19"
         style="fill:#3b4654" /><path
         class="st1"
         d="M 95.1,43.9 C 94.6,43.5 94.3,43 93.9,42.5 L 83.5,52.7 c -1.5,1.5 -1.5,3.8 0,5.3 l 0.1,0.1 c 1.5,1.5 3.8,1.5 5.3,0 l 10.5,-10.2 -4.3,-4 z"
         id="path21"
         inkscape:connector-curvature="0"
         style="fill:#3b4654" /><path
         class="st1"
         d="m 126.2,53 c 0.7,3 0,6.1 -2.1,8.4 -1.6,1.6 -3.7,2.5 -6,2.5 -1.4,0 -2.8,-0.4 -4,-1 l 0,18.1 22,0 c 0,0 0,-3 0,-14.9 C 136,56.6 126.2,53 126.2,53 Z"
         id="path23"
         inkscape:connector-curvature="0"
         style="fill:#3b4654" /><path
         class="st1"
         d="M 121.6,52 104.5,34.9 C 102.6,33 99.4,33 97.4,34.9 L 97.3,35 c -1.9,1.9 -1.9,5.1 0,7.1 l 17.1,17.1 c 1.9,1.9 5.1,1.9 7.1,0 l 0.1,-0.1 c 1.9,-2 1.9,-5.1 0,-7.1 z m -20.4,-9.6 c -2,0 -3.7,-1.6 -3.7,-3.7 0,-2.1 1.6,-3.7 3.7,-3.7 2.1,0 3.7,1.6 3.7,3.7 0,2.1 -1.7,3.7 -3.7,3.7 z"
         id="path25"
         inkscape:connector-curvature="0"
         style="fill:#3b4654" /></g><g
       id="g27"><path
         class="st2"
         d="m 56,63 c 4.4,0 8,3.6 8,8 l 0,1 c 0,4.4 -3.6,8 -8,8 L 11,80 C 6.6,80 3,76.4 3,72 l 0,-1 c 0,-4.4 3.6,-8 8,-8 l 45,0 m 0,-2 -45,0 C 5.5,61 1,65.5 1,71 l 0,1 c 0,5.5 4.5,10 10,10 l 45,0 c 5.5,0 10,-4.5 10,-10 l 0,-1 C 66,65.5 61.5,61 56,61 l 0,0 z"
         id="path29"
         inkscape:connector-curvature="0"
         style="fill:#196fa3" /><path
         class="st2"
         d="m 56,65 -45,0 c -3.3,0 -6,2.7 -6,6 l 0,1 c 0,3.3 2.7,6 6,6 l 45,0 c 3.3,0 6,-2.7 6,-6 l 0,-1 c 0,-3.3 -2.7,-6 -6,-6 z M 13.5,75.8 c -2.3,0 -4.2,-1.9 -4.2,-4.2 0,-2.3 1.9,-4.2 4.2,-4.2 2.3,0 4.2,1.9 4.2,4.2 0.1,2.2 -1.9,4.2 -4.2,4.2 z m 20,0 c -2.3,0 -4.2,-1.9 -4.2,-4.2 0,-2.3 1.9,-4.2 4.2,-4.2 2.3,0 4.2,1.9 4.2,4.2 0.1,2.2 -1.9,4.2 -4.2,4.2 z m 20,0 c -2.3,0 -4.2,-1.9 -4.2,-4.2 0,-2.3 1.9,-4.2 4.2,-4.2 2.3,0 4.2,1.9 4.2,4.2 0.1,2.2 -1.9,4.2 -4.2,4.2 z"
         id="path31"
         inkscape:connector-curvature="0"
         style="fill:#196fa3" /></g></g></svg>