<?xml version="1.0" encoding="UTF-8" standalone="no"?>
<!-- Generator: Adobe Illustrator 19.2.1, SVG Export Plug-In . SVG Version: 6.00 Build 0)  -->

<svg
   xmlns:dc="http://purl.org/dc/elements/1.1/"
   xmlns:cc="http://creativecommons.org/ns#"
   xmlns:rdf="http://www.w3.org/1999/02/22-rdf-syntax-ns#"
   xmlns:svg="http://www.w3.org/2000/svg"
   xmlns="http://www.w3.org/2000/svg"
   xmlns:sodipodi="http://sodipodi.sourceforge.net/DTD/sodipodi-0.dtd"
   xmlns:inkscape="http://www.inkscape.org/namespaces/inkscape"
   version="1.1"
   id="Ebene_1"
   x="0px"
   y="0px"
   width="140"
   height="100"
   viewBox="0 0 140 100"
   xml:space="preserve"
   inkscape:version="0.91 r13725"
   sodipodi:docname="dry.svg"><metadata
     id="metadata3425"><rdf:RDF><cc:Work
         rdf:about=""><dc:format>image/svg+xml</dc:format><dc:type
           rdf:resource="http://purl.org/dc/dcmitype/StillImage" /><dc:title></dc:title></cc:Work></rdf:RDF></metadata><defs
     id="defs3423" /><sodipodi:namedview
     pagecolor="#ffffff"
     bordercolor="#666666"
     borderopacity="1"
     objecttolerance="10"
     gridtolerance="10"
     guidetolerance="10"
     inkscape:pageopacity="0"
     inkscape:pageshadow="2"
     inkscape:window-width="640"
     inkscape:window-height="480"
     id="namedview3421"
     showgrid="false"
     fit-margin-top="10"
     fit-margin-left="0"
     fit-margin-right="0"
     fit-margin-bottom="0"
     inkscape:zoom="2.5"
     inkscape:cx="70"
     inkscape:cy="45"
     inkscape:window-x="194"
     inkscape:window-y="99"
     inkscape:window-maximized="0"
     inkscape:current-layer="Ebene_1" /><style
     type="text/css"
     id="style3395">
	.st0{fill:none;}
	.st1{fill:#3B4654;}
	.st2{fill:#196FA3;}
</style><rect
     class="st0"
     width="140"
     height="90"
     id="rect3397"
     x="0"
     y="10"
     style="fill:none" /><g
     id="g3399"
     transform="translate(0,10)"><g
       id="g3401"><path
         class="st1"
         d="m 76,14 0,40.5 c 4.2,2.2 7,6.5 7,11.5 0,7.2 -5.8,13 -13,13 -7.2,0 -13,-5.8 -13,-13 0,-5 2.8,-9.4 7,-11.5 L 64,14 76,14 m 0,-4 -12,0 c -2.2,0 -4,1.8 -4,4 l 0,38.3 c -4.4,3.2 -7,8.2 -7,13.7 0,9.4 7.6,17 17,17 9.4,0 17,-7.6 17,-17 0,-5.5 -2.6,-10.6 -7,-13.7 L 80,14 c 0,-2.2 -1.8,-4 -4,-4 l 0,0 z"
         id="path3403"
         inkscape:connector-curvature="0"
         style="fill:#3b4654" /><circle
         class="st2"
         cx="70"
         cy="66"
         r="11"
         id="circle3405"
         style="fill:#196fa3" /><rect
         x="66"
         y="32"
         class="st2"
         width="8"
         height="31"
         id="rect3407"
         style="fill:#196fa3" /></g><g
       id="g3409"><rect
         x="84"
         y="13"
         class="st1"
         width="16"
         height="4"
         id="rect3411"
         style="fill:#3b4654" /><rect
         x="84"
         y="29"
         class="st1"
         width="16"
         height="4"
         id="rect3413"
         style="fill:#3b4654" /><rect
         x="84"
         y="21"
         class="st1"
         width="10"
         height="4"
         id="rect3415"
         style="fill:#3b4654" /><rect
         x="84"
         y="45"
         class="st1"
         width="16"
         height="4"
         id="rect3417"
         style="fill:#3b4654" /><rect
         x="84"
         y="37"
         class="st1"
         width="10"
         height="4"
         id="rect3419"
         style="fill:#3b4654" /></g></g></svg>