<?xml version="1.0" encoding="UTF-8" standalone="no"?>
<!-- Generator: Adobe Illustrator 19.2.1, SVG Export Plug-In . SVG Version: 6.00 Build 0)  -->

<svg
   xmlns:dc="http://purl.org/dc/elements/1.1/"
   xmlns:cc="http://creativecommons.org/ns#"
   xmlns:rdf="http://www.w3.org/1999/02/22-rdf-syntax-ns#"
   xmlns:svg="http://www.w3.org/2000/svg"
   xmlns="http://www.w3.org/2000/svg"
   xmlns:sodipodi="http://sodipodi.sourceforge.net/DTD/sodipodi-0.dtd"
   xmlns:inkscape="http://www.inkscape.org/namespaces/inkscape"
   version="1.1"
   id="Ebene_1"
   x="0px"
   y="0px"
   width="140"
   height="100"
   viewBox="0 0 140 100"
   xml:space="preserve"
   inkscape:version="0.91 r13725"
   sodipodi:docname="dryConveyor.svg"><metadata
     id="metadata33"><rdf:RDF><cc:Work
         rdf:about=""><dc:format>image/svg+xml</dc:format><dc:type
           rdf:resource="http://purl.org/dc/dcmitype/StillImage" /><dc:title></dc:title></cc:Work></rdf:RDF></metadata><defs
     id="defs31" /><sodipodi:namedview
     pagecolor="#ffffff"
     bordercolor="#666666"
     borderopacity="1"
     objecttolerance="10"
     gridtolerance="10"
     guidetolerance="10"
     inkscape:pageopacity="0"
     inkscape:pageshadow="2"
     inkscape:window-width="1403"
     inkscape:window-height="701"
     id="namedview29"
     showgrid="false"
     inkscape:zoom="2.5"
     inkscape:cx="70"
     inkscape:cy="45"
     inkscape:window-x="0"
     inkscape:window-y="0"
     inkscape:window-maximized="0"
     inkscape:current-layer="Ebene_1" /><style
     type="text/css"
     id="style3">
	.st0{fill:none;}
	.st1{fill:#3B4654;}
	.st2{fill:#196FA3;}
</style><rect
     class="st0"
     width="140"
     height="90"
     id="rect5"
     x="0"
     y="10"
     style="fill:none" /><g
     id="g7"
     transform="translate(0,10)"><g
       id="g9"><rect
         x="84"
         y="13"
         class="st1"
         width="16"
         height="4"
         id="rect11"
         style="fill:#3b4654" /><rect
         x="84"
         y="29"
         class="st1"
         width="16"
         height="4"
         id="rect13"
         style="fill:#3b4654" /><rect
         x="84"
         y="21"
         class="st1"
         width="10"
         height="4"
         id="rect15"
         style="fill:#3b4654" /><rect
         x="84"
         y="45"
         class="st1"
         width="16"
         height="4"
         id="rect17"
         style="fill:#3b4654" /><rect
         x="84"
         y="37"
         class="st1"
         width="10"
         height="4"
         id="rect19"
         style="fill:#3b4654" /></g><path
       class="st1"
       d="M 80,52.3 80,14 c 0,-2.2 -1.8,-4 -4,-4 l -12,0 c -2.2,0 -4,1.8 -4,4 l 0,38.3 c -2.4,1.7 -4.3,4 -5.5,6.7 l 1.5,0 c 1,0 1.9,0.1 2.8,0.3 1.2,-2 3,-3.7 5.2,-4.9 l 0,-4.4 0,-18 0,-2 0,-16 12,0 0,16 0,2 0,18.1 0,4.4 c 3.5,1.8 6,5.1 6.7,9 l 0,0 c 0.1,0.4 0.1,0.7 0.2,1.1 0,0.1 0,0.2 0,0.3 0,0.4 0.1,0.8 0.1,1.2 0,7.2 -5.8,13 -13,13 -1.3,0 -2.6,-0.2 -3.8,-0.6 -0.8,1.2 -1.8,2.3 -2.9,3.2 2.1,0.9 4.3,1.4 6.7,1.4 9.4,0 17,-7.6 17,-17 0,-5.7 -2.8,-10.7 -7,-13.8 z M 66,32 66,55.8 c -2.1,0.8 -3.9,2.3 -5.2,4.2 4.3,1.8 7.3,6.1 7.3,11 l 0,1 c 0,1.6 -0.3,3.2 -0.9,4.6 0.9,0.3 1.8,0.4 2.8,0.4 6.1,0 11,-4.9 11,-11 0,-4.7 -2.9,-8.6 -7,-10.2 L 74,32 66,32 Z"
       id="path21"
       inkscape:connector-curvature="0"
       style="fill:#3b4654" /><g
       id="g23"><path
         class="st2"
         d="m 56,63 c 4.4,0 8,3.6 8,8 l 0,1 c 0,4.4 -3.6,8 -8,8 L 11,80 C 6.6,80 3,76.4 3,72 l 0,-1 c 0,-4.4 3.6,-8 8,-8 l 45,0 m 0,-2 -45,0 C 5.5,61 1,65.5 1,71 l 0,1 c 0,5.5 4.5,10 10,10 l 45,0 c 5.5,0 10,-4.5 10,-10 l 0,-1 C 66,65.5 61.5,61 56,61 l 0,0 z"
         id="path25"
         inkscape:connector-curvature="0"
         style="fill:#196fa3" /><path
         class="st2"
         d="m 56,65 -45,0 c -3.3,0 -6,2.7 -6,6 l 0,1 c 0,3.3 2.7,6 6,6 l 45,0 c 3.3,0 6,-2.7 6,-6 l 0,-1 c 0,-3.3 -2.7,-6 -6,-6 z M 13.5,75.8 c -2.3,0 -4.2,-1.9 -4.2,-4.2 0,-2.3 1.9,-4.2 4.2,-4.2 2.3,0 4.2,1.9 4.2,4.2 0.1,2.2 -1.9,4.2 -4.2,4.2 z m 20,0 c -2.3,0 -4.2,-1.9 -4.2,-4.2 0,-2.3 1.9,-4.2 4.2,-4.2 2.3,0 4.2,1.9 4.2,4.2 0.1,2.2 -1.9,4.2 -4.2,4.2 z m 20,0 c -2.3,0 -4.2,-1.9 -4.2,-4.2 0,-2.3 1.9,-4.2 4.2,-4.2 2.3,0 4.2,1.9 4.2,4.2 0.1,2.2 -1.9,4.2 -4.2,4.2 z"
         id="path27"
         inkscape:connector-curvature="0"
         style="fill:#196fa3" /></g></g></svg>