<?xml version="1.0" encoding="UTF-8" standalone="no"?>
<!-- Generator: Adobe Illustrator 19.2.1, SVG Export Plug-In . SVG Version: 6.00 Build 0)  -->

<svg
   xmlns:dc="http://purl.org/dc/elements/1.1/"
   xmlns:cc="http://creativecommons.org/ns#"
   xmlns:rdf="http://www.w3.org/1999/02/22-rdf-syntax-ns#"
   xmlns:svg="http://www.w3.org/2000/svg"
   xmlns="http://www.w3.org/2000/svg"
   xmlns:sodipodi="http://sodipodi.sourceforge.net/DTD/sodipodi-0.dtd"
   xmlns:inkscape="http://www.inkscape.org/namespaces/inkscape"
   version="1.1"
   id="Ebene_1"
   x="0px"
   y="0px"
   width="140"
   height="100"
   viewBox="0 0 140 100"
   xml:space="preserve"
   inkscape:version="0.91 r13725"
   sodipodi:docname="exhaustAirConveyor.svg"><metadata
     id="metadata43"><rdf:RDF><cc:Work
         rdf:about=""><dc:format>image/svg+xml</dc:format><dc:type
           rdf:resource="http://purl.org/dc/dcmitype/StillImage" /><dc:title></dc:title></cc:Work></rdf:RDF></metadata><defs
     id="defs41" /><sodipodi:namedview
     pagecolor="#ffffff"
     bordercolor="#666666"
     borderopacity="1"
     objecttolerance="10"
     gridtolerance="10"
     guidetolerance="10"
     inkscape:pageopacity="0"
     inkscape:pageshadow="2"
     inkscape:window-width="1426"
     inkscape:window-height="688"
     id="namedview39"
     showgrid="false"
     inkscape:zoom="2.5"
     inkscape:cx="70"
     inkscape:cy="45"
     inkscape:window-x="0"
     inkscape:window-y="0"
     inkscape:window-maximized="0"
     inkscape:current-layer="Ebene_1" /><style
     type="text/css"
     id="style3">
	.st0{opacity:0.3;fill:none;}
	.st1{fill:#3B4654;}
	.st2{fill:#196FA3;}
	.st3{fill:none;stroke:#3B4654;stroke-width:4;stroke-linecap:round;stroke-linejoin:round;stroke-miterlimit:10;}
</style><rect
     x="0"
     class="st0"
     width="140"
     height="90"
     id="rect5"
     y="10"
     style="opacity:0.3;fill:none" /><g
     id="g7"
     transform="translate(0,10)"><g
       id="g9"><g
         id="g11"><path
           class="st1"
           d="m 34,59 19,0 0,-6 -2,0 0,-8 2,0 0,-23 -19,0 0,37 z m 4,-26 11,0 0,22 -11,0 0,-22 z m 2,20 7,0 0,-18 -7,0 0,18 z m -15,-41 0,47 7,0 0,-39 23,0 0,39 1.1,0 c 1,0 2,0.1 2.9,0.4 l 0,-6.4 -2,0 0,-8 2,0 0,-25 45.8,0 c 2.8,-1.7 5.9,-2.9 9.2,-3.6 l 0,-4.4 -89,0 z m 82.2,32 1.8,0 0,9 -2,0 0,15 -39.3,0 c 0.2,1 0.4,2 0.4,3 l 0,1 c 0,1.4 -0.3,2.7 -0.7,4 l 46.6,0 0,-42.6 c -0.7,0.4 -1.4,0.8 -2,1.3 -3.2,2.6 -4.6,5.4 -4.8,9.3 z m -2.2,3.5 c -0.5,0.3 -1.2,0.5 -1.8,0.5 -0.1,0 -0.1,0 -0.2,0 -1.9,-0.1 -3.4,-1.4 -3.7,-3.1 -0.1,0.1 -0.1,0.2 -0.2,0.3 -0.5,1.7 -2.1,2.9 -4,2.8 -0.3,0 -0.5,0 -0.8,-0.1 -0.6,0.1 -1.5,0.1 -3.1,0.1 -0.7,0 -1.5,0 -2.3,0 -0.2,0.2 -0.3,0.4 -0.5,0.6 -0.2,0.2 -0.3,0.3 -0.5,0.5 0.1,1.7 0.1,4.7 -0.2,6 -0.9,3.5 -4.2,6 -7.8,6 -0.7,0 -1.4,-0.1 -2.1,-0.3 -4.3,-1.2 -6.9,-5.6 -5.7,-9.9 0.4,-1.4 2,-4 2.8,-5.5 -0.1,-0.4 -0.2,-0.8 -0.3,-1.2 -1.5,-0.8 -4.2,-2.3 -5.2,-3.3 -3.2,-3.2 -3.2,-8.3 0,-11.4 1.5,-1.5 3.6,-2.4 5.7,-2.4 2.2,0 4.2,0.8 5.7,2.4 1,1 2.6,3.8 3.4,5.3 0.4,0.1 0.7,0.2 1.1,0.3 1.4,-0.9 4.2,-2.5 5.5,-2.9 0.7,-0.2 1.4,-0.3 2.1,-0.3 0.4,0 0.8,0 1.1,0.1 1.7,-3.7 4.2,-6.9 7.3,-9.5 0.2,-0.1 0.4,-0.3 0.6,-0.4 l -40.9,0 0,38.1 c 2.6,1.2 4.8,3.3 6,5.9 l 38,0 0,-18.6 z"
           id="path13"
           inkscape:connector-curvature="0"
           style="fill:#3b4654" /></g></g><g
       id="g15"><g
         id="g17"><path
           class="st2"
           d="m 56,63 c 4.4,0 8,3.6 8,8 l 0,1 c 0,4.4 -3.6,8 -8,8 L 11,80 C 6.6,80 3,76.4 3,72 l 0,-1 c 0,-4.4 3.6,-8 8,-8 l 45,0 m 0,-2 -45,0 C 5.5,61 1,65.5 1,71 l 0,1 c 0,5.5 4.5,10 10,10 l 45,0 c 5.5,0 10,-4.5 10,-10 l 0,-1 C 66,65.5 61.5,61 56,61 l 0,0 z"
           id="path19"
           inkscape:connector-curvature="0"
           style="fill:#196fa3" /></g><g
         id="g21"><g
           id="g23"><path
             class="st2"
             d="m 56,65 -45,0 c -3.3,0 -6,2.7 -6,6 l 0,1 c 0,3.3 2.7,6 6,6 l 45,0 c 3.3,0 6,-2.7 6,-6 l 0,-1 c 0,-3.3 -2.7,-6 -6,-6 z M 13.5,75.8 c -2.3,0 -4.2,-1.9 -4.2,-4.2 0,-2.3 1.9,-4.2 4.2,-4.2 2.3,0 4.2,1.9 4.2,4.2 0.1,2.2 -1.9,4.2 -4.2,4.2 z m 20,0 c -2.3,0 -4.2,-1.9 -4.2,-4.2 0,-2.3 1.9,-4.2 4.2,-4.2 2.3,0 4.2,1.9 4.2,4.2 0.1,2.2 -1.9,4.2 -4.2,4.2 z m 20,0 c -2.3,0 -4.2,-1.9 -4.2,-4.2 0,-2.3 1.9,-4.2 4.2,-4.2 2.3,0 4.2,1.9 4.2,4.2 0.1,2.2 -1.9,4.2 -4.2,4.2 z"
             id="path25"
             inkscape:connector-curvature="0"
             style="fill:#196fa3" /></g></g></g><g
       id="g27"><g
         id="g29"><path
           class="st1"
           d="m 81.6,41.6 c -0.8,0.8 -0.8,2 0,2.8 0.8,0.8 2,0.8 2.8,0 0.8,-0.8 0.8,-2 0,-2.8 -0.8,-0.8 -2,-0.8 -2.8,0 z m 11.6,-7.8 c -0.6,0 -1.2,0 -1.9,0.2 -1,0.3 -3.7,1.8 -5.9,3.2 -0.8,-0.4 -1.7,-0.7 -2.6,-0.7 -1.2,-2.3 -2.8,-5 -3.5,-5.8 -2.4,-2.4 -6.2,-2.4 -8.6,0 l 0,0 0,0 c -2.4,2.4 -2.4,6.2 0,8.6 0.7,0.7 3.5,2.3 5.7,3.5 0,0.9 0.2,1.9 0.7,2.7 -1.4,2.1 -2.9,4.8 -3.2,5.8 -0.9,3.2 1.1,6.5 4.3,7.4 3.2,0.9 6.5,-1.1 7.4,-4.3 0.3,-1 0.3,-4.1 0.1,-6.5 0.4,-0.3 0.8,-0.6 1.2,-0.9 0.4,-0.4 0.7,-0.8 0.9,-1.2 1.2,0.1 2.6,0.1 3.9,0.1 -0.4,-0.6 -0.6,-1.4 -0.5,-2.1 0.2,-3.6 0.9,-6.9 2,-10 z m -7.8,11.6 c -1.3,1.3 -3.4,1.3 -4.7,0 -1.3,-1.3 -1.3,-3.4 0,-4.7 1.3,-1.3 3.4,-1.3 4.7,0 1.3,1.3 1.3,3.4 0,4.7 z"
           id="path31"
           inkscape:connector-curvature="0"
           style="fill:#3b4654" /></g></g><g
       id="g33"><path
         class="st3"
         d="m 103.2,44 c 0.2,-5.5 2.4,-9.3 6.3,-12.4 3.9,-3.1 9.4,-4.9 15.2,-4.1 l 0.3,-7.6 c -8.1,-1 -15.7,1.2 -21.2,5.7 C 98.5,30 95.5,36.5 95.2,44"
         id="path35"
         inkscape:connector-curvature="0"
         style="fill:none;stroke:#3b4654;stroke-width:4;stroke-linecap:round;stroke-linejoin:round;stroke-miterlimit:10" /><polygon
         class="st1"
         points="122,7.9 122,40 140,23.9 "
         id="polygon37"
         style="fill:#3b4654" /></g></g></svg>