<?xml version="1.0" encoding="utf-8"?>
<!-- Generator: Adobe Illustrator 20.0.0, SVG Export Plug-In . SVG Version: 6.00 Build 0)  -->
<svg version="1.1" id="Ebene_1" xmlns="http://www.w3.org/2000/svg" xmlns:xlink="http://www.w3.org/1999/xlink" x="0px" y="0px"
	 width="140px" height="90px" viewBox="0 0 140 90" style="enable-background:new 0 0 140 90;" xml:space="preserve">
<style type="text/css">
	.st0{fill:none;}
	.st1{fill:#3B4654;}
	.st2{fill:#196FA3;}
</style>
<rect class="st0" width="140" height="90"/>
<path class="st1" d="M87.8,9c-8.4,0-13.65,3.2164-16.8,6.4328v51.3918c3.1279-1.0617,8.3513-3.3997,16.7997-3.3997
	c7.9395,0,13.9219,1.2083,18.076,2.4991l-8.0576-7.5768c-0.751,0.2889-1.7467,0.54-2.9402,0.54l-0.1415-0.0012l-0.1132-0.0018
	l-0.1123-0.0146l-0.17-0.0222c-0.3539-0.0452-0.7148-0.111-1.1482-0.2101c-0.0809-0.0191-0.1614-0.04-0.2399-0.0628
	c-0.8102-0.2112-1.5817-0.5095-2.2938-0.8869c-0.084-0.0426-0.1653-0.0874-0.2278-0.1234l-0.054-0.0305l-0.0322-0.0171
	l-0.0316-0.0182c-0.259-0.1495-0.5295-0.3214-0.7955-0.5052c-0.0951-0.065-0.1891-0.1324-0.3068-0.2185
	c-0.3208-0.2379-0.8136-0.6686-0.9091-0.7526l-0.0687-0.0604l-0.0629-0.0663l-0.4952-0.5233
	c-0.1392-0.1528-0.2783-0.3116-0.3826-0.441c-0.0813-0.1019-0.1621-0.2072-0.2034-0.264c-0.178-0.2344-0.3539-0.4898-0.5391-0.783
	l-0.0355-0.0563l-0.019-0.0308c-0.0634-0.1003-0.1221-0.1984-0.1398-0.2322c-0.4086-0.7142-0.7377-1.4937-0.9531-2.2569
	c-0.037-0.1176-0.0693-0.2376-0.0978-0.363c-0.0884-0.3472-0.1575-0.7003-0.2009-1.0255l-0.0211-0.1317l-0.0215-0.1631
	l-0.0015-0.0461c-0.0825-0.7531-0.08-1.5178,0.0076-2.2761l0.0017-0.0525l0.0194-0.1293l0.0072-0.0486l0.0096-0.0482l0.2279-1.1379
	l0.0138-0.0687l0.0186-0.0676c0.3425-1.5413,1.8008-4.4579,1.8008-4.4579l2.0471,1.8541l4.5568,4.0969l0.8689-0.7164l-4.2826-4.1486
	l-2.1393-2.0723l2.7279-1.1959l0.6223-0.2728l0.0255-0.0112l0.0258-0.0105c0.4897-0.1986,0.9529-0.3521,1.4277-0.4722l0.177-0.0436
	l0.2402-0.0581h0.0232c0.2457-0.0518,0.4967-0.0957,0.7493-0.131l0.063-0.012l0.1862-0.0356h0.1406
	C95.0137,38.0209,95.4059,38,95.7938,38c0.4314,0,0.8644,0.0263,1.324,0.0804l0.0253,0.0029l0.0253,0.0037l0.0333,0.005
	c0.3844,0.0494,0.7606,0.1181,1.1091,0.2007c0.0994,0.0212,0.1958,0.0445,0.2894,0.0706c0.8218,0.2131,1.6108,0.5203,2.3302,0.905
	c0.1146,0.0599,0.2256,0.1235,0.3085,0.1735c0.2489,0.1401,0.5035,0.2997,0.8121,0.5097l0.0728,0.0505l0.0419,0.0299
	c0.0797,0.0553,0.156,0.1105,0.2124,0.1536c0.3512,0.2634,0.678,0.5374,0.9781,0.8209l0.1493,0.1423l0.2196,0.2157l0.0239,0.0418
	c0.1686,0.1816,0.3429,0.3835,0.5393,0.626l0.1135,0.1467l0.0588,0.0768c0.1989,0.2583,0.3708,0.5165,0.5679,0.8248l0.014,0.022
	l0.0134,0.0223l0.0491,0.0813l0.0966,0.1613c0.4297,0.7475,0.7626,1.5395,0.9834,2.3336c0.0248,0.0857,0.0468,0.1729,0.0671,0.265
	c0.0933,0.3691,0.1647,0.7283,0.2076,1.0443l0.0083,0.0479l0.0073,0.0419l0.0055,0.0422l0.0072,0.0552l0.0023,0.0206
	c0.1448,1.3222-0.0579,2.3167-0.3448,3.0412L113,56.7043V21.8656C113,21.8656,104.6,9,87.8,9z M104.5023,47.4355l-0.0045-0.0346
	l-0.0153-0.0876c-0.032-0.2484-0.0942-0.5641-0.1771-0.8879c-0.0126-0.0589-0.0258-0.114-0.0414-0.168
	c-0.1808-0.6498-0.4501-1.2911-0.7963-1.8932l-0.0768-0.1277l-0.0474-0.0785c-0.1641-0.2566-0.3076-0.4742-0.4679-0.6825
	l-0.0607-0.079l-0.1086-0.1404c-0.2009-0.2473-0.3856-0.4557-0.5729-0.6456l-0.0079-0.0139l-0.1493-0.1423
	c-0.2407-0.2274-0.5121-0.4545-0.8069-0.6751c-0.0372-0.0295-0.1-0.0737-0.1638-0.1176l-0.022-0.0162l-0.0728-0.0505
	c-0.2203-0.1498-0.4421-0.2924-0.6757-0.4228c-0.0359-0.0241-0.132-0.0792-0.2317-0.1313
	c-0.5983-0.3199-1.2495-0.5729-1.9253-0.7464c-0.0597-0.0172-0.1215-0.0319-0.1852-0.0455c-0.3219-0.0759-0.634-0.1328-0.9467-0.173
	l-0.0625-0.009C96.4885,40.0201,96.139,40,95.7938,40c-0.3512,0-0.7059,0.0209-1.0559,0.0622h-0.0627l-0.1143,0.0219
	c-0.2909,0.0392-0.5773,0.0918-0.8541,0.1569h-0.0045l-0.177,0.0436c-0.3728,0.0943-0.7506,0.2198-1.1545,0.3837l-0.6223,0.2728
	l5.8894,5.7051l-3.9238,3.2351l-5.8374-5.2483l-0.1743,0.5216c-0.1741,0.3911-0.3075,0.7587-0.4077,1.1241l-0.2279,1.1379
	l-0.0024,0.0163l-0.0004,0.0204c-0.0825,0.6599-0.0851,1.325-0.0074,1.9793l0.0012,0.0377l0.0258,0.1602
	c0.0331,0.257,0.0907,0.5536,0.1669,0.8484c0.0194,0.0889,0.042,0.1729,0.0688,0.2551c0.1691,0.6099,0.4349,1.2471,0.7728,1.8376
	c0.025,0.0463,0.0649,0.1105,0.1052,0.1739l0.0096,0.0161l0.0355,0.0564c0.1375,0.2175,0.2817,0.4315,0.4401,0.64
	c0.0482,0.0659,0.111,0.1473,0.174,0.2263c0.0771,0.0956,0.1877,0.2206,0.2977,0.3414l0.4683,0.4941c0,0,0.5096,0.4479,0.78,0.6484
	c0.088,0.0643,0.1655,0.1201,0.244,0.1738c0.2159,0.1492,0.4399,0.2934,0.6667,0.4243l0.0021,0.0011l0.0881,0.049
	c0.0581,0.0333,0.1163,0.0657,0.1755,0.0953c0.5786,0.3083,1.2311,0.5612,1.9082,0.7353c0.0531,0.0161,0.1082,0.0305,0.1636,0.0435
	c0.3593,0.0821,0.6606,0.137,0.9434,0.173l0.1754,0.0229c0.0364,0.0006,0.0726,0.0009,0.1085,0.0009
	c2.0433,0,3.2849-0.9612,3.2849-0.9612l12.6344,11.8806C112.2609,68.5007,113,69,113,69v-9.5504l-9.3928-8.8324
	C103.6851,50.3698,104.7455,49.6551,104.5023,47.4355z M26,21.8656V69c0,0,8.1382-5.5751,25.2003-5.5751
	c8.4484,0,13.6718,2.338,16.7997,3.3997V15.4328C64.85,12.2164,59.6,9,51.2,9C34.4,9,26,21.8656,26,21.8656z"/>
<path class="st2" d="M131.9436,73.5673l-0.0013-0.0377l-0.0257-0.1602c-0.033-0.257-0.0907-0.5536-0.1668-0.8484
	c-0.0194-0.0889-0.042-0.1729-0.0689-0.2551c-0.169-0.6099-0.4348-1.2471-0.7728-1.8376c-0.0251-0.0463-0.0649-0.1106-0.1052-0.1739
	l-0.0097-0.0161l-0.0355-0.0564c-0.1375-0.2175-0.2818-0.4314-0.44-0.64c-0.0482-0.0659-0.111-0.1472-0.1741-0.2262
	c-0.0771-0.0957-0.1877-0.2206-0.2977-0.3414l-0.4682-0.4942c0,0-0.5097-0.4479-0.78-0.6483
	c-0.088-0.0643-0.1656-0.1201-0.244-0.1738c-0.216-0.1492-0.4399-0.2934-0.6668-0.4242l-0.002-0.0011l-0.0882-0.049
	c-0.0581-0.0333-0.1163-0.0657-0.1756-0.0952c-0.5786-0.3083-1.231-0.5611-1.9082-0.7353
	c-0.0531-0.0161-0.1081-0.0305-0.1635-0.0435c-0.3592-0.0821-0.6606-0.137-0.9434-0.173l-0.0981-0.0205l-0.0772-0.0024
	c-2.6017-0.1843-3.3187,0.4526-3.5882,0.5224l-17.0353-16.0188c0.0779-0.2475,1.1384-0.9622,0.8951-3.1817l-0.0044-0.0346
	l-0.0153-0.0876c-0.032-0.2484-0.0942-0.5641-0.1771-0.8879c-0.0126-0.0589-0.0257-0.114-0.0413-0.168
	c-0.1808-0.6498-0.4501-1.2912-0.7963-1.8933l-0.0768-0.1278l-0.0474-0.0785c-0.164-0.2566-0.3076-0.4742-0.4679-0.6825
	l-0.0606-0.0791l-0.1087-0.1405c-0.2008-0.2472-0.3856-0.4556-0.5728-0.6456l-0.0079-0.0139l-0.1493-0.1423
	c-0.2407-0.2273-0.5121-0.4545-0.8068-0.6751c-0.0372-0.0295-0.1-0.0737-0.1639-0.1176l-0.0219-0.0162l-0.0728-0.0505
	c-0.2203-0.1499-0.4422-0.2924-0.6757-0.4228c-0.0359-0.0241-0.1319-0.0792-0.2317-0.1314
	c-0.5982-0.3199-1.2494-0.5728-1.9252-0.7464c-0.0597-0.0172-0.1215-0.0319-0.1852-0.0456
	c-0.3219-0.0759-0.6341-0.1327-0.9467-0.173l-0.0624-0.009C96.4885,40.0201,96.1391,40,95.7939,40
	c-0.3513,0-0.706,0.0209-1.056,0.0622h-0.0628l-0.1142,0.0218c-0.2909,0.0392-0.5772,0.0918-0.8541,0.1569h-0.0045l-0.1771,0.0436
	c-0.3728,0.0943-0.7505,0.2199-1.1545,0.3837l-0.6224,0.2728l5.8895,5.7051l-3.9239,3.2351l-5.8374-5.2483l-0.1743,0.5216
	c-0.1741,0.3911-0.3075,0.7587-0.4077,1.1241l-0.2279,1.1379l-0.0024,0.0163l-0.0004,0.0204
	c-0.0825,0.6599-0.085,1.325-0.0074,1.9793l0.0013,0.0377l0.0257,0.1602c0.033,0.257,0.0907,0.5536,0.1668,0.8484
	c0.0194,0.0889,0.042,0.1729,0.0689,0.2551c0.169,0.6099,0.4348,1.2471,0.7728,1.8376c0.0251,0.0463,0.0649,0.1106,0.1052,0.1739
	l0.0097,0.0161l0.0355,0.0564c0.1375,0.2175,0.2818,0.4314,0.4401,0.64c0.0482,0.0659,0.111,0.1472,0.1741,0.2262
	c0.0771,0.0957,0.1877,0.2206,0.2977,0.3414l0.4682,0.4942c0,0,0.5097,0.4479,0.78,0.6483c0.088,0.0643,0.1656,0.1201,0.244,0.1738
	c0.216,0.1492,0.4399,0.2934,0.6668,0.4242l0.002,0.0011l0.0882,0.049c0.0581,0.0333,0.1163,0.0657,0.1756,0.0952
	c0.5786,0.3083,1.231,0.5611,1.9082,0.7353c0.0531,0.0161,0.1081,0.0305,0.1635,0.0435c0.3592,0.0821,0.6606,0.137,0.9434,0.173
	l0.1753,0.0229c2.1079,0.035,3.3934-0.9603,3.3934-0.9603l17.0353,16.0188c0,0-1.0524,1.7983-0.7003,3.6196l0.0044,0.0346
	l0.0153,0.0876c0.032,0.2484,0.0942,0.5641,0.1771,0.8879c0.0126,0.0589,0.0257,0.114,0.0413,0.168
	c0.1808,0.6498,0.4501,1.2912,0.7963,1.8933l0.0768,0.1278l0.0474,0.0785c0.164,0.2566,0.3076,0.4742,0.4679,0.6825l0.0606,0.0791
	l0.1087,0.1404c0.2008,0.2472,0.3856,0.4557,0.5728,0.6456l0.0079,0.0139l0.1493,0.1423c0.2407,0.2273,0.5121,0.4545,0.8068,0.6751
	c0.0372,0.0295,0.1,0.0737,0.1639,0.1176l0.0219,0.0162l0.0728,0.0505c0.2203,0.1498,0.4422,0.2924,0.6757,0.4228
	c0.0359,0.0241,0.1319,0.0792,0.2317,0.1314c0.5982,0.3198,1.2494,0.5728,1.9252,0.7464c0.0597,0.0172,0.1215,0.0319,0.1852,0.0455
	c0.3219,0.0759,0.6341,0.1328,0.9467,0.173l0.0624,0.009c0.3956,0.0468,0.745,0.0669,1.0902,0.0669
	c0.3513,0,0.706-0.0209,1.056-0.0622h0.0628l0.1142-0.0218c0.2909-0.0392,0.5772-0.0918,0.8541-0.1569h0.0045l0.1771-0.0436
	c0.3728-0.0943,0.7505-0.2199,1.1545-0.3837l0.6136-0.2332l-5.8354-5.7585l3.7514-3.187l5.8915,5.1416l0.2474-0.4492
	c0.1741-0.3911,0.3075-0.7587,0.4077-1.1241l0.2279-1.1379l0.0024-0.0163l0.0004-0.0204
	C132.0187,74.8867,132.0212,74.2216,131.9436,73.5673z"/>
</svg>
