<?xml version="1.0" encoding="UTF-8" standalone="no"?>
<!-- Generator: Adobe Illustrator 19.2.1, SVG Export Plug-In . SVG Version: 6.00 Build 0)  -->

<svg
   xmlns:dc="http://purl.org/dc/elements/1.1/"
   xmlns:cc="http://creativecommons.org/ns#"
   xmlns:rdf="http://www.w3.org/1999/02/22-rdf-syntax-ns#"
   xmlns:svg="http://www.w3.org/2000/svg"
   xmlns="http://www.w3.org/2000/svg"
   xmlns:sodipodi="http://sodipodi.sourceforge.net/DTD/sodipodi-0.dtd"
   xmlns:inkscape="http://www.inkscape.org/namespaces/inkscape"
   version="1.1"
   id="Ebene_1"
   x="0px"
   y="0px"
   width="140"
   height="100"
   viewBox="0 0 140 100"
   xml:space="preserve"
   inkscape:version="0.91 r13725"
   sodipodi:docname="pvcSupplyConveyor.svg"><metadata
     id="metadata29"><rdf:RDF><cc:Work
         rdf:about=""><dc:format>image/svg+xml</dc:format><dc:type
           rdf:resource="http://purl.org/dc/dcmitype/StillImage" /><dc:title></dc:title></cc:Work></rdf:RDF></metadata><defs
     id="defs27" /><sodipodi:namedview
     pagecolor="#ffffff"
     bordercolor="#666666"
     borderopacity="1"
     objecttolerance="10"
     gridtolerance="10"
     guidetolerance="10"
     inkscape:pageopacity="0"
     inkscape:pageshadow="2"
     inkscape:window-width="1392"
     inkscape:window-height="670"
     id="namedview25"
     showgrid="false"
     inkscape:zoom="2.5"
     inkscape:cx="70"
     inkscape:cy="45"
     inkscape:window-x="0"
     inkscape:window-y="0"
     inkscape:window-maximized="0"
     inkscape:current-layer="Ebene_1" /><style
     type="text/css"
     id="style3">
	.st0{fill:none;}
	.st1{fill:#3B4654;}
	.st2{fill:#196FA3;}
</style><rect
     class="st0"
     width="140"
     height="90"
     id="rect5"
     x="0"
     y="10"
     style="fill:none" /><g
     id="g7"
     transform="translate(0,10)"><path
       class="st1"
       d="m 98,18 c 0,1.1 -0.9,2 -2,2 l -52,0 c -1.1,0 -2,-0.9 -2,-2 l 0,0 c 0,-1.1 0.9,-2 2,-2 l 52,0 c 1.1,0 2,0.9 2,2 l 0,0 z"
       id="path9"
       inkscape:connector-curvature="0"
       style="fill:#3b4654" /><path
       class="st1"
       d="m 98,43 c 0,1.1 -0.9,2 -2,2 l -52,0 c -1.1,0 -2,-0.9 -2,-2 l 0,0 c 0,-1.1 0.9,-2 2,-2 l 52,0 c 1.1,0 2,0.9 2,2 l 0,0 z"
       id="path11"
       inkscape:connector-curvature="0"
       style="fill:#3b4654" /><path
       class="st1"
       d="m 91,46 -42,0 0,13 7,0 c 3,0 5.8,1.1 7.9,3 L 91,62 91,46 Z M 67.9,73 91,73 91,68 67.6,68 c 0.2,1 0.4,2 0.4,3 l 0,1 c 0,0.3 0,0.7 -0.1,1 z M 91,67 91,63 64.9,63 c 1,1.2 1.9,2.5 2.4,4 L 91,67 Z m 0,-31.4 c -0.9,0.1 -2.2,0.3 -3.5,0.3 -1.1,0 -2.3,-0.1 -3.1,-0.5 -2.5,-1.3 -3.8,-2.7 -7.1,-3.2 -0.3,0 -0.6,-0.1 -0.9,-0.1 -3.6,0 -10.7,1.9 -13.7,2.2 -0.1,0 -0.3,0 -0.4,0 C 59.4,34.3 57.1,32 54.8,32 54.4,32 54,32.1 53.7,32.2 52.2,32.7 50,33 49,33.3 l 0,6.7 42,0 0,-4.4 z m -46,9.4 3,0 0,-4 -3,0 0,4 z m 4,0 42,0 0,-4 -42,0 0,4 z m -4,14 3,0 0,-13 -3,0 0,13 z m 0,-19 3,0 0,-6.9 c 0,-0.4 0.3,-0.8 0.7,-1 0.4,-0.1 0.9,-0.2 1.6,-0.3 1,-0.2 2.2,-0.4 3,-0.7 0.5,-0.2 1,-0.3 1.5,-0.3 1.3,0 2.6,0.6 3.8,1.2 1.2,0.6 2.4,1.1 3.7,1.1 0.1,0 0.2,0 0.3,0 1.2,-0.1 3.2,-0.5 5.2,-0.9 3,-0.6 6.3,-1.3 8.5,-1.3 0.4,0 0.8,0 1.1,0.1 2.7,0.4 4.1,1.3 5.7,2.2 0.5,0.3 1.1,0.7 1.8,1 0.4,0.2 1.1,0.4 2.6,0.4 1.1,0 2.3,-0.1 3.2,-0.2 l 0.2,0 0.1,0 c 0.2,0 0.5,0.1 0.7,0.3 0.2,0.2 0.3,0.5 0.3,0.7 l 0,4.6 3,0 0,-19 -50,0 0,19 z m 47,5 3,0 0,-4 -3,0 0,4 z m -47,-25 50,0 0,-4 -50,0 0,4 z m 0,-7 0,2 50,0 0,-2 -50,0 z m 47,60 c 0,0.6 -0.4,1 -1,1 l -23.2,0 c -0.2,1.1 -0.5,2.1 -0.9,3 l 28.1,0 0,-9 -3,0 0,5 z m 0,-6 3,0 0,-4 -3,0 0,4 z m 0,-5 3,0 0,-16 -3,0 0,16 z"
       id="path13"
       inkscape:connector-curvature="0"
       style="fill:#3b4654" /><path
       class="st1"
       d="m 49,59 7,0 c 3,0 5.8,1.1 7.9,3 l 27.1,0 0,-16 -42,0 0,13 z m 18.3,8 23.7,0 0,-4 -26.1,0 c 1.1,1.2 1.9,2.5 2.4,4 z m 0.7,4 0,1 c 0,0.3 0,0.7 -0.1,1 l 23.1,0 0,-5 -23.4,0 c 0.3,1 0.4,2 0.4,3 z M 84.5,35.2 C 82,33.9 80.7,32.5 77.4,32 74.2,31.6 66,33.9 62.7,34.1 c -3.5,0.3 -6.2,-3.2 -9,-2.1 -1.4,0.5 -3.6,0.8 -4.6,1.1 l 0,6.9 42,0 0,-4.6 C 89.4,35.6 86.2,36 84.5,35.2 Z M 49,45 l 42,0 0,-4 -42,0 0,4 z"
       id="path15"
       inkscape:connector-curvature="0"
       style="fill:#3b4654" /><path
       class="st1"
       d="m 96,63 -31.1,0 c 1,1.2 1.9,2.5 2.4,4 L 96,67 c 1.1,0 2,-0.9 2,-2 0,-1.1 -0.9,-2 -2,-2 z"
       id="path17"
       inkscape:connector-curvature="0"
       style="fill:#3b4654" /><g
       id="g19"><path
         class="st2"
         d="m 56,63 c 4.4,0 8,3.6 8,8 l 0,1 c 0,4.4 -3.6,8 -8,8 L 11,80 C 6.6,80 3,76.4 3,72 l 0,-1 c 0,-4.4 3.6,-8 8,-8 l 45,0 m 0,-2 -45,0 C 5.5,61 1,65.5 1,71 l 0,1 c 0,5.5 4.5,10 10,10 l 45,0 c 5.5,0 10,-4.5 10,-10 l 0,-1 C 66,65.5 61.5,61 56,61 l 0,0 z"
         id="path21"
         inkscape:connector-curvature="0"
         style="fill:#196fa3" /><path
         class="st2"
         d="m 56,65 -45,0 c -3.3,0 -6,2.7 -6,6 l 0,1 c 0,3.3 2.7,6 6,6 l 45,0 c 3.3,0 6,-2.7 6,-6 l 0,-1 c 0,-3.3 -2.7,-6 -6,-6 z M 13.5,75.8 c -2.3,0 -4.2,-1.9 -4.2,-4.2 0,-2.3 1.9,-4.2 4.2,-4.2 2.3,0 4.2,1.9 4.2,4.2 0.1,2.2 -1.9,4.2 -4.2,4.2 z m 20,0 c -2.3,0 -4.2,-1.9 -4.2,-4.2 0,-2.3 1.9,-4.2 4.2,-4.2 2.3,0 4.2,1.9 4.2,4.2 0.1,2.2 -1.9,4.2 -4.2,4.2 z m 20,0 c -2.3,0 -4.2,-1.9 -4.2,-4.2 0,-2.3 1.9,-4.2 4.2,-4.2 2.3,0 4.2,1.9 4.2,4.2 0.1,2.2 -1.9,4.2 -4.2,4.2 z"
         id="path23"
         inkscape:connector-curvature="0"
         style="fill:#196fa3" /></g></g></svg>