<?xml version="1.0" encoding="utf-8"?>
<!-- Generator: Adobe Illustrator 20.0.0, SVG Export Plug-In . SVG Version: 6.00 Build 0)  -->
<svg version="1.1" id="Ebene_1" xmlns="http://www.w3.org/2000/svg" xmlns:xlink="http://www.w3.org/1999/xlink" x="0px" y="0px"
	 width="140px" height="90px" viewBox="0 0 140 90" style="enable-background:new 0 0 140 90;" xml:space="preserve">
<style type="text/css">
	.st0{opacity:0.3;fill:none;}
	.st1{fill:#196FA3;}
	.st2{fill:#3B4654;}
</style>
<rect x="0" y="0" class="st0" width="140" height="90"/>
<g>
	<path class="st1" d="M59.1577,64.0791c-0.918,0-1.8115-0.3613-2.4751-1.0254L44.2905,50.6611l-4.6689,2.4404
		c-1.7129,0.8945-3.8286,0.2334-4.7231-1.4805c-0.8955-1.7129-0.2329-3.8271,1.48-4.7227l6.9473-3.6318
		c1.356-0.709,3.0146-0.4556,4.0967,0.627l10.3179,10.3184l9.9688-27.5381c0.4751-1.312,1.6836-2.2163,3.0767-2.3022
		c1.3813-0.083,2.7026,0.6646,3.3345,1.9087l11.0664,21.7842l13.4717-26.9458c0.8652-1.7275,2.9658-2.4297,4.6963-1.5649
		c1.7285,0.8643,2.4297,2.9668,1.5654,4.6958L88.3418,57.4072c-0.5918,1.1816-1.7979,1.9307-3.1201,1.9346
		c-0.0029,0-0.0068,0-0.0107,0c-1.3174,0-2.5234-0.7402-3.1201-1.915L71.54,36.6562l-9.0913,25.1143
		c-0.4077,1.126-1.3618,1.9648-2.5308,2.2246C59.6655,64.0518,59.4106,64.0791,59.1577,64.0791z"/>
	<path class="st2" d="M38,68V32.9741l8.7095-5.2251l13.1528,19.7285c0.3481,0.5225,0.9219,0.8516,1.5488,0.8877
		c0.0386,0.002,0.0771,0.0029,0.1152,0.0029c0.5854,0,1.144-0.2568,1.5254-0.7061L82.002,25.3149l8.6611,12.7061
		c0.3721,0.5464,0.9912,0.8735,1.6523,0.8735h11.8428c1.1045,0,2-0.8955,2-2s-0.8955-2-2-2H93.373l-9.5449-14.0029
		c-0.3516-0.5161-0.9238-0.8379-1.5469-0.8706c-0.623-0.0425-1.2275,0.2275-1.6309,0.7036L61.7178,43.0498L48.98,23.9434
		c-0.5923-0.8877-1.7788-1.1533-2.6929-0.6055L38,28.3099V15h-8v61h5.9474H38h68.9474v-8H38z"/>
</g>
</svg>
