<?xml version="1.0" encoding="UTF-8" standalone="no"?>
<!-- Generator: Adobe Illustrator 19.2.1, SVG Export Plug-In . SVG Version: 6.00 Build 0)  -->

<svg
   xmlns:dc="http://purl.org/dc/elements/1.1/"
   xmlns:cc="http://creativecommons.org/ns#"
   xmlns:rdf="http://www.w3.org/1999/02/22-rdf-syntax-ns#"
   xmlns:svg="http://www.w3.org/2000/svg"
   xmlns="http://www.w3.org/2000/svg"
   xmlns:sodipodi="http://sodipodi.sourceforge.net/DTD/sodipodi-0.dtd"
   xmlns:inkscape="http://www.inkscape.org/namespaces/inkscape"
   version="1.1"
   id="Ebene_1"
   x="0px"
   y="0px"
   width="140"
   height="100"
   viewBox="0 0 140 100"
   xml:space="preserve"
   inkscape:version="0.91 r13725"
   sodipodi:docname="supplyAirConveyor.svg"><metadata
     id="metadata29"><rdf:RDF><cc:Work
         rdf:about=""><dc:format>image/svg+xml</dc:format><dc:type
           rdf:resource="http://purl.org/dc/dcmitype/StillImage" /><dc:title></dc:title></cc:Work></rdf:RDF></metadata><defs
     id="defs27" /><sodipodi:namedview
     pagecolor="#ffffff"
     bordercolor="#666666"
     borderopacity="1"
     objecttolerance="10"
     gridtolerance="10"
     guidetolerance="10"
     inkscape:pageopacity="0"
     inkscape:pageshadow="2"
     inkscape:window-width="742"
     inkscape:window-height="480"
     id="namedview25"
     showgrid="false"
     inkscape:zoom="2.5"
     inkscape:cx="70"
     inkscape:cy="45"
     inkscape:window-x="0"
     inkscape:window-y="0"
     inkscape:window-maximized="0"
     inkscape:current-layer="Ebene_1" /><style
     type="text/css"
     id="style3">
	.st0{fill:none;}
	.st1{fill:#3B4654;}
	.st2{fill:none;stroke:#3B4654;stroke-width:4;stroke-linecap:round;stroke-linejoin:round;stroke-miterlimit:10;}
	.st3{fill:#196FA3;}
</style><rect
     class="st0"
     width="140"
     height="90"
     id="rect5"
     x="0"
     y="10"
     style="fill:none" /><g
     id="g7"
     transform="translate(0,10)"><path
       class="st1"
       d="m 34,36.9 c 0.5,0 1,0.2 1.3,0.5 l 2.7,2.4 0,-6.8 11,0 0,16.6 2,1.8 0,-6.4 2,0 0,-23 -19,0 0,14.9 z M 53,66 53,56.8 42.6,66 53,66 Z m -6,-31 -7,0 0,6.6 7,6.3 0,-12.9 z m 58,-13 -44,0 0,44 44,0 0,-44 z M 95,47.7 c -0.5,0.1 -1.3,0.3 -3.8,0.3 -0.7,0 -1.5,0 -2.3,0 -0.2,0.2 -0.3,0.4 -0.5,0.6 -0.2,0.2 -0.3,0.3 -0.5,0.5 0.1,1.7 0.1,4.7 -0.2,6 -0.9,3.5 -4.2,6 -7.8,6 -0.7,0 -1.4,-0.1 -2.1,-0.3 -4.3,-1.2 -6.9,-5.6 -5.7,-9.9 0.4,-1.4 2,-4 2.8,-5.5 -0.1,-0.4 -0.2,-0.8 -0.3,-1.2 -1.5,-0.8 -4.2,-2.3 -5.2,-3.3 -3.2,-3.2 -3.2,-8.3 0,-11.4 1.5,-1.5 3.6,-2.4 5.7,-2.4 2.2,0 4.2,0.8 5.7,2.4 1,1 2.6,3.8 3.4,5.3 0.4,0.1 0.7,0.2 1.1,0.3 1.4,-0.9 4.2,-2.5 5.5,-2.9 0.7,-0.2 1.4,-0.3 2.1,-0.3 3.7,0 6.9,2.5 7.8,6 1.2,4.2 -1.4,8.6 -5.7,9.8 z M 25,12 25,44.9 c 2,1.4 4.5,2.2 7,2.6 l 0,-8.6 0,-18.9 23,0 0,47 2.1,0 c 0.7,0 1.3,0.1 1.9,0.2 l 0,-14.2 -2,0 0,-8 2,0 0,-25 48,0 0,24 2,0 0,9 -2,0 0,15 -45.1,0 c 3.4,1.5 5.9,4.4 6.8,8 l 45.3,0 0,-64 -89,0 z m 0,55 7,0 0,-3.8 c -2.4,-0.1 -4.7,-0.4 -7,-1 l 0,4.8 z"
       id="path9"
       inkscape:connector-curvature="0"
       style="fill:#3b4654" /><path
       class="st1"
       d="m 81.6,41.6 c -0.8,0.8 -0.8,2 0,2.8 0.8,0.8 2,0.8 2.8,0 0.8,-0.8 0.8,-2 0,-2.8 -0.8,-0.8 -2,-0.8 -2.8,0 z m 17.2,-3.3 c -0.9,-3.2 -4.2,-5.1 -7.4,-4.3 -1,0.3 -3.7,1.8 -5.9,3.2 -0.8,-0.4 -1.7,-0.7 -2.6,-0.7 -1.2,-2.3 -2.8,-5 -3.5,-5.8 -2.4,-2.4 -6.2,-2.4 -8.6,0 l 0,0 0,0 c -2.4,2.4 -2.4,6.2 0,8.6 0.7,0.7 3.5,2.3 5.7,3.5 0,0.9 0.2,1.9 0.7,2.7 -1.4,2.1 -2.9,4.8 -3.2,5.8 -0.9,3.2 1.1,6.5 4.3,7.4 3.2,0.9 6.5,-1.1 7.4,-4.3 0.3,-1 0.3,-4.1 0.1,-6.5 0.4,-0.3 0.8,-0.6 1.2,-0.9 0.4,-0.4 0.7,-0.8 0.9,-1.2 2.5,0.1 5.6,0.1 6.6,-0.1 3.2,-0.8 5.2,-4.2 4.3,-7.4 z m -13.4,7.1 c -1.3,1.3 -3.4,1.3 -4.7,0 -1.3,-1.3 -1.3,-3.4 0,-4.7 1.3,-1.3 3.4,-1.3 4.7,0 1.3,1.3 1.3,3.4 0,4.7 z"
       id="path11"
       inkscape:connector-curvature="0"
       style="fill:#3b4654" /><g
       id="g13"><path
         class="st2"
         d="m 15.2,34.9 c 0.2,5.5 2.4,9.3 6.3,12.4 3.9,3.1 9.4,4.9 15.2,4.1 L 37,59 C 28.9,60 21.3,57.8 15.8,53.3 10.5,49 7.6,42.5 7.3,34.9"
         id="path15"
         inkscape:connector-curvature="0"
         style="fill:none;stroke:#3b4654;stroke-width:4;stroke-linecap:round;stroke-linejoin:round;stroke-miterlimit:10" /><polygon
         class="st1"
         points="34,38.9 34,67 38.5,67 52,55 "
         id="polygon17"
         style="fill:#3b4654" /></g><g
       id="g19"><path
         class="st3"
         d="m 57,71 c 4.4,0 8,3.6 8,8 l 0,1 c 0,4.4 -3.6,8 -8,8 L 12,88 C 7.6,88 4,84.4 4,80 l 0,-1 c 0,-4.4 3.6,-8 8,-8 l 45,0 m 0,-2 -45,0 C 6.5,69 2,73.5 2,79 l 0,1 c 0,5.5 4.5,10 10,10 l 45,0 c 5.5,0 10,-4.5 10,-10 l 0,-1 C 67,73.5 62.5,69 57,69 l 0,0 z"
         id="path21"
         inkscape:connector-curvature="0"
         style="fill:#196fa3" /><path
         class="st3"
         d="m 57,73 -45,0 c -3.3,0 -6,2.7 -6,6 l 0,1 c 0,3.3 2.7,6 6,6 l 45,0 c 3.3,0 6,-2.7 6,-6 l 0,-1 c 0,-3.3 -2.7,-6 -6,-6 z M 14.5,83.8 c -2.3,0 -4.2,-1.9 -4.2,-4.2 0,-2.3 1.9,-4.2 4.2,-4.2 2.3,0 4.2,1.9 4.2,4.2 0.1,2.2 -1.9,4.2 -4.2,4.2 z m 20,0 c -2.3,0 -4.2,-1.9 -4.2,-4.2 0,-2.3 1.9,-4.2 4.2,-4.2 2.3,0 4.2,1.9 4.2,4.2 0.1,2.2 -1.9,4.2 -4.2,4.2 z m 20,0 c -2.3,0 -4.2,-1.9 -4.2,-4.2 0,-2.3 1.9,-4.2 4.2,-4.2 2.3,0 4.2,1.9 4.2,4.2 0.1,2.2 -1.9,4.2 -4.2,4.2 z"
         id="path23"
         inkscape:connector-curvature="0"
         style="fill:#196fa3" /></g></g></svg>