<?xml version="1.0" encoding="UTF-8" standalone="no"?>
<!-- Generator: Adobe Illustrator 19.2.1, SVG Export Plug-In . SVG Version: 6.00 Build 0)  -->

<svg
   xmlns:dc="http://purl.org/dc/elements/1.1/"
   xmlns:cc="http://creativecommons.org/ns#"
   xmlns:rdf="http://www.w3.org/1999/02/22-rdf-syntax-ns#"
   xmlns:svg="http://www.w3.org/2000/svg"
   xmlns="http://www.w3.org/2000/svg"
   xmlns:sodipodi="http://sodipodi.sourceforge.net/DTD/sodipodi-0.dtd"
   xmlns:inkscape="http://www.inkscape.org/namespaces/inkscape"
   version="1.1"
   id="Ebene_1"
   x="0px"
   y="0px"
   width="140"
   height="100"
   viewBox="0 0 140 100"
   xml:space="preserve"
   inkscape:version="0.91 r13725"
   sodipodi:docname="supplyAir.svg"><metadata
     id="metadata3494"><rdf:RDF><cc:Work
         rdf:about=""><dc:format>image/svg+xml</dc:format><dc:type
           rdf:resource="http://purl.org/dc/dcmitype/StillImage" /><dc:title></dc:title></cc:Work></rdf:RDF></metadata><defs
     id="defs3492" /><sodipodi:namedview
     pagecolor="#ffffff"
     bordercolor="#666666"
     borderopacity="1"
     objecttolerance="10"
     gridtolerance="10"
     guidetolerance="10"
     inkscape:pageopacity="0"
     inkscape:pageshadow="2"
     inkscape:window-width="640"
     inkscape:window-height="480"
     id="namedview3490"
     showgrid="false"
     fit-margin-top="10"
     fit-margin-left="0"
     fit-margin-right="0"
     fit-margin-bottom="0"
     inkscape:zoom="2.5"
     inkscape:cx="70"
     inkscape:cy="45"
     inkscape:window-x="147"
     inkscape:window-y="81"
     inkscape:window-maximized="0"
     inkscape:current-layer="Ebene_1" /><style
     type="text/css"
     id="style3474">
	.st0{fill:none;}
	.st1{fill:#3B4654;}
	.st2{fill:#196FA3;}
	.st3{fill:none;stroke:#196FA3;stroke-width:4;stroke-linecap:round;stroke-linejoin:round;stroke-miterlimit:10;}
</style><rect
     class="st0"
     width="140"
     height="90"
     id="rect3476"
     x="0"
     y="10"
     style="fill:none" /><g
     id="g3478"
     transform="translate(0,10)"><path
       class="st1"
       d="m 25,76 7,0 0,-3.6 c -2.4,-0.1 -4.7,-0.4 -7,-1 l 0,4.6 z m 24,-21 -4.2,0 8.2,7.3 0,-9.3 -2,0 0,-8 2,0 0,-23 -19,0 0,24 c 0.5,0 1,0.2 1.3,0.5 l 2.7,2.4 0,-15.9 11,0 0,22 z m -2,-2 0,-18 -7,0 0,15.7 2.6,2.3 4.4,0 z M 25,12 25,54 c 2,1.4 4.5,2.2 7,2.6 l 0,-8.6 0,-28 23,0 0,48 -4.3,0 -9,8 72.3,0 0,-64 -89,0 z m 84,41 -2,0 0,15 -48,0 0,-15 -2,0 0,-8 2,0 0,-25 48,0 0,24 2,0 0,9 z m -56,12.9 0,0 0,0 0,0 z m 8,0.1 44,0 0,-44 -44,0 0,44 z M 69.4,29.4 C 70.9,27.9 73,27 75.1,27 c 2.2,0 4.2,0.8 5.7,2.4 1,1 2.6,3.8 3.4,5.3 0.4,0.1 0.7,0.2 1.1,0.3 1.4,-0.9 4.2,-2.5 5.5,-2.9 0.7,-0.2 1.4,-0.3 2.1,-0.3 3.7,0 6.9,2.5 7.8,6 1.2,4.3 -1.4,8.8 -5.7,9.9 -0.5,0.1 -1.3,0.3 -3.8,0.3 -0.7,0 -1.5,0 -2.3,0 -0.2,0.2 -0.3,0.4 -0.5,0.6 -0.2,0.2 -0.3,0.3 -0.5,0.5 0.1,1.7 0.1,4.7 -0.2,6 -0.9,3.5 -4.2,6 -7.8,6 -0.7,0 -1.4,-0.1 -2.1,-0.3 -4.3,-1.2 -6.9,-5.6 -5.7,-9.9 0.4,-1.4 2,-4 2.8,-5.5 -0.1,-0.4 -0.2,-0.8 -0.3,-1.2 -1.5,-0.8 -4.2,-2.3 -5.2,-3.3 -3.2,-3.2 -3.2,-8.4 0,-11.5 z"
       id="path3480"
       inkscape:connector-curvature="0"
       style="fill:#3b4654" /><path
       class="st2"
       d="m 81.6,41.6 c -0.8,0.8 -0.8,2 0,2.8 0.8,0.8 2,0.8 2.8,0 0.8,-0.8 0.8,-2 0,-2.8 -0.8,-0.8 -2,-0.8 -2.8,0 z m 17.2,-3.3 c -0.9,-3.2 -4.2,-5.1 -7.4,-4.3 -1,0.3 -3.7,1.8 -5.9,3.2 -0.8,-0.4 -1.7,-0.7 -2.6,-0.7 -1.2,-2.3 -2.8,-5 -3.5,-5.8 -2.4,-2.4 -6.2,-2.4 -8.6,0 l 0,0 0,0 c -2.4,2.4 -2.4,6.2 0,8.6 0.7,0.7 3.5,2.3 5.7,3.5 0,0.9 0.2,1.9 0.7,2.7 -1.4,2.1 -2.9,4.8 -3.2,5.8 -0.9,3.2 1.1,6.5 4.3,7.4 3.2,0.9 6.5,-1.1 7.4,-4.3 0.3,-1 0.3,-4.1 0.1,-6.5 0.4,-0.3 0.8,-0.6 1.2,-0.9 0.4,-0.4 0.7,-0.8 0.9,-1.2 2.5,0.1 5.6,0.1 6.6,-0.1 3.2,-0.8 5.2,-4.2 4.3,-7.4 z m -13.4,7.1 c -1.3,1.3 -3.4,1.3 -4.7,0 -1.3,-1.3 -1.3,-3.4 0,-4.7 1.3,-1.3 3.4,-1.3 4.7,0 1.3,1.3 1.3,3.4 0,4.7 z"
       id="path3482"
       inkscape:connector-curvature="0"
       style="fill:#196fa3" /><g
       id="g3484"><path
         class="st3"
         d="m 15.2,44 c 0.2,5.5 2.4,9.3 6.3,12.4 3.9,3.1 9.4,4.9 15.2,4.1 L 37,68.1 C 28.9,69.1 21.3,66.9 15.8,62.4 10.5,58 7.5,51.5 7.2,44"
         id="path3486"
         inkscape:connector-curvature="0"
         style="fill:none;stroke:#196fa3;stroke-width:4;stroke-linecap:round;stroke-linejoin:round;stroke-miterlimit:10" /><polygon
         class="st2"
         points="34,80.1 34,48 52,64.1 "
         id="polygon3488"
         style="fill:#196fa3" /></g></g></svg>