<?xml version="1.0" encoding="utf-8"?>
<!-- Generator: Adobe Illustrator 20.0.0, SVG Export Plug-In . SVG Version: 6.00 Build 0)  -->
<svg version="1.1" id="Ebene_1" xmlns="http://www.w3.org/2000/svg" xmlns:xlink="http://www.w3.org/1999/xlink" x="0px" y="0px"
	 width="140px" height="90px" viewBox="0 0 140 90" style="enable-background:new 0 0 140 90;" xml:space="preserve">
<style type="text/css">
	.st0{fill:none;}
	.st1{fill:#3B4654;}
	.st2{fill:#196FA3;}
</style>
<rect class="st0" width="140" height="90"/>
<path class="st1" d="M56,25H44v12h12V25z M54.8118,28.4517l-4.1221,6.0238c-0.1948,0.2781-0.5089,0.4652-0.8519,0.512
	C49.777,34.9977,49.7128,35,49.6526,35c-0.2968,0-0.5818-0.0984-0.8019-0.2762l-3.5883-2.8749L45,31.6385l0.2357-0.2401
	l1.2272-1.2497l0.1922-0.1957l0.2141,0.1714l2.5075,2.0081l3.3593-4.904L52.8925,27l0.2418,0.1349l1.5751,0.8795L55,28.1767
	L54.8118,28.4517z M92.4615,41.0899c0.1577-0.158,0.3425-0.2791,0.5385-0.3752V9H75v6H52V9H34v69h59V56.9141l-2.851,2.8564
	c-1.0811,1.0831-2.5225,1.6796-4.0588,1.6796c-0.3705,0-0.7345-0.0385-1.0902-0.1062V72c0,1.1046-0.8954,2-2,2h-4
	c-1.1046,0-2-0.8954-2-2v-1.4216l-0.8358,0.8358C75.7892,71.7892,75.2804,72,74.75,72s-1.0392-0.2108-1.4142-0.5858l-2.75-2.75
	c-0.7811-0.781-0.7811-2.0474,0-2.8284L71.4216,65H70c-1.1046,0-2-0.8954-2-2v-4c0-1.1046,0.8954-2,2-2h10.4788
	c-0.2366-0.9883-0.207-2.0247,0.0798-3H63v-4h20.5685L92.4615,41.0899z M58,61H42V45h16V61z M58,39H42V23h16V39z M63,29h22v4H63V29z
	 M79,65.7499L79.75,65H79V65.7499z M56,47H44v12h12V47z M70,59v4h3.4216l4-4H70z M77,62.2499L76.25,63H77V62.2499z M81,61h-2v2h2V61
	z M79,72h4v-7.4216l-4,4V72z M72,67.25L74.75,70L77,67.75V65h-2.75L72,67.25z"/>
<rect x="54" y="7" class="st1" width="19" height="6"/>
<g>
	<polygon class="st2" points="83,60.8334 81.1665,59 81,59.0087 81,59 70,59 70,63 76.2499,63 72,67.25 74.75,70 79,65.7499 79,72 
		83,72 83,61 82.9913,61 	"/>
	<path class="st2" d="M95.0612,43.9c-0.4565-0.4274-0.8439-0.9-1.1842-1.3972l-10.4175,10.154
		c-1.4538,1.4567-1.4538,3.8402,0,5.2969l0.0537,0.0537c1.4539,1.4567,3.8329,1.4567,5.2868,0L99.25,47.821L95.0612,43.9z"/>
	<path class="st2" d="M126.1912,53c0.7272,2.9581,0.0369,6.1394-2.1455,8.3616c-1.575,1.6036-3.7043,2.4867-5.9957,2.4867
		c-1.4031,0-2.7818-0.3755-4.0499-1.0078V81h22c0,0,0-3.0333,0-14.9333C136,56.5778,126.1912,53,126.1912,53z"/>
	<path class="st2" d="M121.5697,52.0205l-17.1166-17.1166c-1.9445-1.9445-5.1265-1.9445-7.071,0L97.325,34.961
		c-1.9445,1.9446-1.9445,5.1265,0,7.0711l17.1166,17.1166c1.9445,1.9445,5.1265,1.9445,7.071,0l0.0571-0.0571
		C123.5143,57.147,123.5143,53.965,121.5697,52.0205z M101.1579,42.421c-2.0347,0-3.6842-1.6495-3.6842-3.6842
		s1.6495-3.6842,3.6842-3.6842s3.6842,1.6495,3.6842,3.6842S103.1926,42.421,101.1579,42.421z"/>
</g>
</svg>
