<?xml version="1.0" encoding="UTF-8" standalone="no"?>
<!-- Generator: Adobe Illustrator 19.2.1, SVG Export Plug-In . SVG Version: 6.00 Build 0)  -->

<svg
   xmlns:dc="http://purl.org/dc/elements/1.1/"
   xmlns:cc="http://creativecommons.org/ns#"
   xmlns:rdf="http://www.w3.org/1999/02/22-rdf-syntax-ns#"
   xmlns:svg="http://www.w3.org/2000/svg"
   xmlns="http://www.w3.org/2000/svg"
   xmlns:sodipodi="http://sodipodi.sourceforge.net/DTD/sodipodi-0.dtd"
   xmlns:inkscape="http://www.inkscape.org/namespaces/inkscape"
   version="1.1"
   id="Ebene_1"
   x="0px"
   y="0px"
   width="140"
   height="100"
   viewBox="0 0 140 100"
   xml:space="preserve"
   inkscape:version="0.91 r13725"
   sodipodi:docname="wet.svg"><metadata
     id="metadata3511"><rdf:RDF><cc:Work
         rdf:about=""><dc:format>image/svg+xml</dc:format><dc:type
           rdf:resource="http://purl.org/dc/dcmitype/StillImage" /><dc:title></dc:title></cc:Work></rdf:RDF></metadata><defs
     id="defs3509" /><sodipodi:namedview
     pagecolor="#ffffff"
     bordercolor="#666666"
     borderopacity="1"
     objecttolerance="10"
     gridtolerance="10"
     guidetolerance="10"
     inkscape:pageopacity="0"
     inkscape:pageshadow="2"
     inkscape:window-width="640"
     inkscape:window-height="480"
     id="namedview3507"
     showgrid="false"
     fit-margin-top="10"
     fit-margin-left="0"
     fit-margin-right="0"
     fit-margin-bottom="0"
     inkscape:zoom="2.5"
     inkscape:cx="70"
     inkscape:cy="45"
     inkscape:window-x="0"
     inkscape:window-y="0"
     inkscape:window-maximized="0"
     inkscape:current-layer="Ebene_1" /><style
     type="text/css"
     id="style3497">
	.st0{fill:none;}
	.st1{fill:#196FA3;}
	.st2{fill:#3B4654;}
</style><rect
     class="st0"
     width="140"
     height="90"
     id="rect3499"
     x="0"
     y="10"
     style="fill:none" /><g
     id="g3501"
     transform="translate(0,10)"><path
       class="st1"
       d="m 85.6,30 c 0,0 -2.7,4 -5.8,9.4 C 82.6,46 84,51.1 84,54.7 84,62.6 80,69 74.7,73.4 78,76.4 82.3,78 85.6,78 91.7,78 101,72.1 101,62.9 101,53.8 85.6,30 85.6,30 Z"
       id="path3503"
       inkscape:connector-curvature="0"
       style="fill:#196fa3" /><path
       class="st2"
       d="M 58.6,6 C 58.6,6 36,40.8 36,55 36,69.2 49.8,77 58.6,77 67.4,77 81,68.2 81,54.7 81,41.2 58.6,6 58.6,6 Z m 9.6,57.7 c -0.3,0.2 -0.6,0.3 -0.9,0.3 -0.4,0 -0.9,-0.2 -1.2,-0.6 -0.5,-0.6 -0.4,-1.6 0.2,-2.1 1.6,-1.3 4.2,-3.9 4.2,-7.6 0,-1.2 -0.5,-3.7 -2.8,-8.9 -0.3,-0.8 0,-1.6 0.8,-2 0.8,-0.3 1.6,0 2,0.8 2.1,4.6 3.1,7.9 3.1,10.1 -0.1,4.9 -3.4,8.4 -5.4,10 z"
       id="path3505"
       inkscape:connector-curvature="0"
       style="fill:#3b4654" /></g></svg>