<?xml version="1.0" encoding="UTF-8" standalone="no"?>
<!-- Generator: Adobe Illustrator 19.2.1, SVG Export Plug-In . SVG Version: 6.00 Build 0)  -->

<svg
   xmlns:dc="http://purl.org/dc/elements/1.1/"
   xmlns:cc="http://creativecommons.org/ns#"
   xmlns:rdf="http://www.w3.org/1999/02/22-rdf-syntax-ns#"
   xmlns:svg="http://www.w3.org/2000/svg"
   xmlns="http://www.w3.org/2000/svg"
   xmlns:sodipodi="http://sodipodi.sourceforge.net/DTD/sodipodi-0.dtd"
   xmlns:inkscape="http://www.inkscape.org/namespaces/inkscape"
   version="1.1"
   id="Ebene_1"
   x="0px"
   y="0px"
   width="140"
   height="100"
   viewBox="0 0 140 100"
   xml:space="preserve"
   inkscape:version="0.91 r13725"
   sodipodi:docname="workingArea.svg"><metadata
     id="metadata3555"><rdf:RDF><cc:Work
         rdf:about=""><dc:format>image/svg+xml</dc:format><dc:type
           rdf:resource="http://purl.org/dc/dcmitype/StillImage" /><dc:title></dc:title></cc:Work></rdf:RDF></metadata><defs
     id="defs3553" /><sodipodi:namedview
     pagecolor="#ffffff"
     bordercolor="#666666"
     borderopacity="1"
     objecttolerance="10"
     gridtolerance="10"
     guidetolerance="10"
     inkscape:pageopacity="0"
     inkscape:pageshadow="2"
     inkscape:window-width="640"
     inkscape:window-height="480"
     id="namedview3551"
     showgrid="false"
     fit-margin-top="10"
     fit-margin-left="0"
     fit-margin-right="0"
     fit-margin-bottom="0"
     inkscape:zoom="2.5"
     inkscape:cx="70"
     inkscape:cy="45"
     inkscape:window-x="0"
     inkscape:window-y="0"
     inkscape:window-maximized="0"
     inkscape:current-layer="Ebene_1" /><style
     type="text/css"
     id="style3533">
	.st0{fill:none;}
	.st1{fill:#3B4654;}
	.st2{fill:#196FA3;}
</style><rect
     class="st0"
     width="140"
     height="90"
     id="rect3535"
     x="0"
     y="10"
     style="fill:none" /><path
     class="st1"
     d="m 47,45 -7,0 0,18 7,0 0,-18 z m 6,10 0,-23 -19,0 0,44 19,0 0,-13 -2,0 0,-8 2,0 z m -4,10 -11,0 0,-22 11,0 0,22 z"
     id="path3537"
     inkscape:connector-curvature="0"
     style="fill:#3b4654" /><rect
     x="77"
     y="55"
     class="st1"
     width="2"
     height="8"
     id="rect3539"
     style="fill:#3b4654" /><rect
     x="40"
     y="45"
     class="st1"
     width="7"
     height="18"
     id="rect3541"
     style="fill:#3b4654" /><path
     class="st1"
     d="m 47,45 -7,0 0,18 7,0 0,-18 z m -22,-23 0,64 58.9,0 0,-3.1 C 82,82.3 80.1,80.8 79.9,78 l -18.9,0 -2,0 0,-2 0,-13 -2,0 0,-8 2,0 0,-23 0,-2 2,0 45,0 2,0 0,25 2,0 0,8 -2,0 0,4.3 c 0.1,0.5 0.1,1 0.2,1.5 0.1,0.8 0,2.9 0,5.7 0,1.2 0,2.3 0,3 0,3.1 -2,4.8 -4,5.4 l 0,3.1 9.9,0 0,-64 -89.1,0 z m 30,56 -23,0 0,-48 23,0 0,48 z m -2,-15 -2,0 0,-8 2,0 0,-23 -19,0 0,44 19,0 0,-13 z m -4,2 -11,0 0,-22 11,0 0,22 z m 57,-33 -45,0 0,44 18.8,0 c 0,-2.3 0,-6.5 0,-7.4 l 0,-0.4 c 0.1,-1.1 0.1,-2.2 0.8,-4.2 0.7,-2.2 3.2,-3.5 5.5,-4.7 0.7,-0.4 1.4,-0.7 1.9,-1.1 0.3,-0.2 0.5,-0.4 0.6,-0.6 0.2,-0.3 0.5,-0.5 0.9,-0.7 C 88.5,56 87.9,54.8 87.6,53.3 87.2,51 87,49.3 87,48.2 87,47 87.5,45.6 87.8,45 c 1.2,-2.2 3.5,-3.5 6.3,-3.5 4.1,0 5.9,2.7 6.4,3.5 0.7,1.2 0.7,2.4 0.7,2.9 0,0.7 -0.2,3.1 -0.7,5.5 -0.3,1.4 -1.1,2.6 -2.1,3.5 0.2,0.1 0.4,0.3 0.6,0.5 0.1,0.1 0.6,0.5 0.9,0.7 0.5,0.3 1.1,0.7 1.8,1.1 1.6,0.9 3.3,1.8 4.4,3 l 0,-30.2 -0.1,0 z"
     id="path3543"
     inkscape:connector-curvature="0"
     style="fill:#3b4654" /><g
     id="g3545"
     transform="translate(0,10)"><path
       class="st2"
       d="M 97.6,49.5 C 97.4,49.3 97.2,49.2 97.1,49 96,49.7 95,50.2 93.7,50.2 c -1.2,0 -2.4,-0.4 -3.5,-1.1 -0.1,0.2 -0.3,0.3 -0.4,0.5 l 3.7,11.2 4.1,-11.3 z m 8.4,9.7 c -0.1,-1.3 -0.2,-2.4 -1,-4.3 -0.7,-1.7 -3.8,-3.1 -5.8,-4.3 L 95,62 94,62 92,62 88.2,50.7 c -2.1,1.2 -5,2.5 -5.5,4.2 -0.6,1.9 -0.6,2.8 -0.7,4 -0.1,1.2 0,8.7 0,8.7 0,3.7 4,3.7 4,3.7 l 0,18.7 15.9,0 0,-18.6 c 0,0 4,0 4,-3.7 0,-2.1 0.2,-7.3 0.1,-8.5 z"
       id="path3547"
       inkscape:connector-curvature="0"
       style="fill:#196fa3" /><path
       class="st2"
       d="m 89.6,43.3 c 0.4,2.3 2.2,3.7 4.3,3.7 2.1,0 3.9,-1.5 4.5,-3.7 0.5,-2.2 0.7,-4.4 0.7,-5 0,-0.5 -0.1,-1.2 -0.5,-1.9 C 98.2,35.8 97,34 94,34 c -3,0 -4.1,1.7 -4.5,2.4 -0.2,0.3 -0.5,1.3 -0.5,2.2 0,0.9 0.1,2.4 0.6,4.7 z"
       id="path3549"
       inkscape:connector-curvature="0"
       style="fill:#196fa3" /></g></svg>