<?xml version="1.0" encoding="utf-8"?>
<!-- Generator: Adobe Illustrator 19.2.1, SVG Export Plug-In . SVG Version: 6.00 Build 0)  -->
<svg version="1.1" id="Ebene_1" xmlns="http://www.w3.org/2000/svg" xmlns:xlink="http://www.w3.org/1999/xlink" x="0px" y="0px"
	 width="38px" height="38px" viewBox="0 0 38 38" style="enable-background:new 0 0 38 38;" xml:space="preserve">
<style type="text/css">
	.st0{fill:none;}
	.st1{fill:#3B4654;}
</style>
<rect x="0" class="st0" width="38" height="38"/>
<g>
	<rect x="15" y="28" class="st1" width="5" height="5"/>
	<path class="st1" d="M19.8,25h-4.7c0-0.6,0-0.7,0-0.9c0-1.4,0.2-2.6,0.7-3.6c0.4-0.9,1.9-2,3.2-3.1c1.3-1.2,2.1-1.9,2.3-2.3
		c0.4-0.6,0.6-1.2,0.6-1.9c0-1-0.3-1.8-1-2.5c-0.7-0.7-1.6-1-2.8-1c-1.1,0-2.1,0.4-2.9,1.1c-0.8,0.7-1.3,1.8-1.6,3.3l-4.1-0.6
		c0.1-2.1,0.9-3.9,2.4-5.3C13.4,6.7,15.4,6,17.9,6c2.6,0,4.8,0.7,6.3,2.2s2.3,3.2,2.3,5.2c0,1.1-0.3,2.1-0.8,3.1
		c-0.6,1-1.9,2.3-3.8,4c-0.9,0.9-1.5,1.6-1.8,2.1C19.9,23,19.8,23.6,19.8,25z"/>
</g>
</svg>
