<?xml version="1.0" encoding="utf-8"?>
<!-- Generator: Adobe Illustrator 19.2.1, SVG Export Plug-In . SVG Version: 6.00 Build 0)  -->
<svg version="1.1" id="Ebene_1" xmlns="http://www.w3.org/2000/svg" xmlns:xlink="http://www.w3.org/1999/xlink" x="0px" y="0px"
	 width="44px" height="38px" viewBox="0 0 44 38" style="enable-background:new 0 0 44 38;" xml:space="preserve">
<style type="text/css">
	.st0{fill:none;}
	.st1{fill:#3B4654;}
</style>
<g>
	<rect class="st0" width="44" height="38"/>
	<g>
		<path class="st1" d="M13.6,20.3c-0.9,0.9-1.2,1.4-2.6,1.4l0,0V32h4V20C14.3,20.1,13.8,20.2,13.6,20.3z"/>
		<path class="st1" d="M31,18.1c0,0-1,0.9-5.2,0.9s-3.2-2.9-9.5-2.9S11.1,18,11.1,18V7.8c0,0-1-1.8,5.3-1.8s5.3,2.9,9.5,2.9
			S31,8,31,8V18.1z"/>
	</g>
	<polygon class="st1" points="40,34 36,29 44,29 	"/>
</g>
</svg>
