<?xml version="1.0" encoding="utf-8"?>
<!-- Generator: Adobe Illustrator 19.2.1, SVG Export Plug-In . SVG Version: 6.00 Build 0)  -->
<svg version="1.1" id="Ebene_1" xmlns="http://www.w3.org/2000/svg" xmlns:xlink="http://www.w3.org/1999/xlink" x="0px" y="0px"
	 width="38px" height="38px" viewBox="0 0 38 38" style="enable-background:new 0 0 38 38;" xml:space="preserve">
<style type="text/css">
	.st0{fill:none;}
	.st1{fill:#3B4654;}
</style>
<g>
	<rect x="0" class="st0" width="38" height="38"/>
	<path class="st1" d="M33,22v-5h-4c-0.2-0.9-0.6-1.7-1.1-2.5l3.2-3.2l-3.4-3.4l-3.2,3.2c-0.8-0.5-1.5-0.9-2.5-1.1V6h-5v4
		c-0.9,0.2-1.7,0.6-2.5,1.1l-3.2-3.2l-3.4,3.4l3.2,3.2c-0.5,0.8-0.9,1.5-1.1,2.5H6v5h4c0.2,0.9,0.6,1.7,1.1,2.5l-3.2,3.2l3.4,3.4
		l3.2-3.2c0.8,0.5,1.5,0.9,2.5,1.1v4h5v-4c0.9-0.2,1.7-0.6,2.5-1.1l3.2,3.2l3.4-3.4l-3.2-3.2c0.5-0.8,0.9-1.5,1.1-2.5H33z
		 M19.5,25.6c-3.3,0-6.1-2.7-6.1-6.1s2.7-6.1,6.1-6.1s6.1,2.7,6.1,6.1S22.8,25.6,19.5,25.6z"/>
</g>
</svg>
