<?xml version="1.0" encoding="utf-8"?>
<!-- Generator: Adobe Illustrator 19.2.1, SVG Export Plug-In . SVG Version: 6.00 Build 0)  -->
<svg version="1.1" id="Ebene_1" xmlns="http://www.w3.org/2000/svg" xmlns:xlink="http://www.w3.org/1999/xlink" x="0px" y="0px"
	 width="44px" height="38px" viewBox="0 0 44 38" style="enable-background:new 0 0 44 38;" xml:space="preserve">
<style type="text/css">
	.st0{fill:none;}
	.st1{fill:#3B4654;}
</style>
<g>
	<rect class="st0" width="44" height="38"/>
	<g>
		<path class="st1" d="M31.1,28c-0.5-1.9-5.5-3.4-7.4-4.7c-0.6-0.4-1-0.9-1.2-1.3c-1.1,0.7-2.3,1.3-3.6,1.3c-1.2,0-2.4-0.6-3.5-1.3
			c-0.3,0.4-0.6,0.9-1.1,1.3c-2,1.3-7,2.8-7.4,4.7C6.4,29.9,6,32,6,32h26C32,32,31.5,29.9,31.1,28z M18.8,25.3
			c1.1,0,2.1-0.2,3.1-0.7L20.1,30h-2.6l-1.8-5.3l0,0C16.6,25.1,17.7,25.3,18.8,25.3z M8.6,28.5c0.4-0.6,2.6-1.6,3.7-2.1
			c0.5-0.2,1-0.5,1.5-0.7l1.5,4.3h-7C8.4,29.5,8.5,29,8.6,28.5z M22.2,30l1.5-4.4c0.5,0.3,1.1,0.5,1.7,0.8c1.2,0.5,3.3,1.5,3.7,2.1
			c0.1,0.5,0.2,1,0.4,1.5H22.2z"/>
		<path class="st1" d="M18.7,9c1.9,0,2.7,1.2,2.8,1.4c0.1,0.3,0.2,0.7,0.2,0.9c0,0.4-0.1,2.5-0.6,4.5c-0.3,1.3-1.3,2.1-2.5,2.1
			s-2.1-0.8-2.3-2c-0.5-2.6-0.5-3.9-0.5-4.4s0.2-1.1,0.3-1.2C16.2,9.9,16.9,9,18.7,9 M18.7,7c-2.9,0-4.1,1.7-4.5,2.4
			c-0.2,0.3-0.5,1.3-0.5,2.2s0.1,2.4,0.6,4.7c0.4,2.3,2.2,3.7,4.3,3.7s3.9-1.5,4.5-3.7c0.5-2.2,0.7-4.4,0.7-5c0-0.5-0.1-1.2-0.5-1.9
			C22.9,8.8,21.6,7,18.7,7L18.7,7z"/>
		<polygon class="st1" points="40,34 36,29 44,29 		"/>
	</g>
</g>
</svg>
