<?xml version="1.0" encoding="utf-8"?>
<!-- Generator: Adobe Illustrator 19.2.1, SVG Export Plug-In . SVG Version: 6.00 Build 0)  -->
<svg version="1.1" id="Ebene_1" xmlns="http://www.w3.org/2000/svg" xmlns:xlink="http://www.w3.org/1999/xlink" x="0px" y="0px"
	 width="44px" height="38px" viewBox="0 0 44 38" style="enable-background:new 0 0 44 38;" xml:space="preserve">
<style type="text/css">
	.st0{fill:none;}
	.st1{fill:#3B4654;}
</style>
<g>
	<rect class="st0" width="44" height="38"/>
	<path class="st1" d="M22.4,22.1c-1.1,0.7-2.3,1.2-3.6,1.2c-1.2,0-2.4-0.4-3.5-1.1c-0.1,0.1-0.2,0.3-0.4,0.4l3.3,9.4h1.2l3.3-9.5
		C22.6,22.4,22.5,22.2,22.4,22.1z M31.1,28c-0.4-1.7-4.4-3.1-6.7-4.3L21.5,32H32C32,32,31.5,29.9,31.1,28z M6.7,28
		c-0.5,1.9-0.9,4-0.9,4H16l-2.8-8.2C10.9,25,7.1,26.3,6.7,28z"/>
	<path class="st1" d="M14.3,16.3c0.4,2.3,2.2,3.7,4.3,3.7s3.9-1.5,4.5-3.7c0.5-2.2,0.7-4.4,0.7-5c0-0.5-0.1-1.2-0.5-1.9
		C22.9,8.8,21.6,7,18.7,7s-4.1,1.7-4.5,2.4c-0.2,0.3-0.5,1.3-0.5,2.2C13.7,12.5,13.8,14,14.3,16.3z"/>
	<polygon class="st1" points="40,34 36,29 44,29 	"/>
</g>
</svg>
