<?xml version="1.0" encoding="UTF-8" standalone="no"?>
<!-- Generator: Adobe Illustrator 20.0.0, SVG Export Plug-In . SVG Version: 6.00 Build 0)  -->

<svg
   xmlns:dc="http://purl.org/dc/elements/1.1/"
   xmlns:cc="http://creativecommons.org/ns#"
   xmlns:rdf="http://www.w3.org/1999/02/22-rdf-syntax-ns#"
   xmlns:svg="http://www.w3.org/2000/svg"
   xmlns="http://www.w3.org/2000/svg"
   xmlns:sodipodi="http://sodipodi.sourceforge.net/DTD/sodipodi-0.dtd"
   xmlns:inkscape="http://www.inkscape.org/namespaces/inkscape"
   version="1.1"
   id="Ebene_1"
   x="0px"
   y="0px"
   width="38px"
   height="38px"
   viewBox="0 0 38 38"
   style="enable-background:new 0 0 38 38;"
   xml:space="preserve"
   inkscape:version="0.91 r13725"
   sodipodi:docname="Werkbank.svg"><metadata
     id="metadata17"><rdf:RDF><cc:Work
         rdf:about=""><dc:format>image/svg+xml</dc:format><dc:type
           rdf:resource="http://purl.org/dc/dcmitype/StillImage" /></cc:Work></rdf:RDF></metadata><defs
     id="defs15" /><sodipodi:namedview
     pagecolor="#ffffff"
     bordercolor="#666666"
     borderopacity="1"
     objecttolerance="10"
     gridtolerance="10"
     guidetolerance="10"
     inkscape:pageopacity="0"
     inkscape:pageshadow="2"
     inkscape:window-width="1264"
     inkscape:window-height="773"
     id="namedview13"
     showgrid="false"
     inkscape:zoom="6.2105263"
     inkscape:cx="19"
     inkscape:cy="19"
     inkscape:window-x="323"
     inkscape:window-y="130"
     inkscape:window-maximized="0"
     inkscape:current-layer="g5" /><style
     type="text/css"
     id="style3">
	.st0{fill:none;}
	.st1{fill:#3B4654;}
</style><g
     id="g5"><rect
       class="st0"
       width="38"
       height="38"
       id="rect7" /><path
       class="st1"
       d="M26.806,15.37c0,0,0.828,0.648,2.187,0.625l0.113-0.015c0.182-0.023,0.376-0.059,0.608-0.113   c0.036-0.008,0.071-0.018,0.105-0.028c0.436-0.113,0.857-0.278,1.23-0.479c0.038-0.019,0.076-0.04,0.113-0.062l0.057-0.032   l0.001-0.001c0.146-0.085,0.291-0.179,0.43-0.276c0.051-0.035,0.101-0.071,0.157-0.113c0.174-0.13,0.503-0.422,0.503-0.422   l0.302-0.322c0.071-0.079,0.142-0.16,0.192-0.222c0.041-0.051,0.081-0.104,0.112-0.147c0.102-0.136,0.195-0.275,0.284-0.417   l0.023-0.037l0.006-0.01c0.026-0.041,0.052-0.083,0.068-0.113c0.218-0.385,0.389-0.799,0.498-1.197   c0.017-0.054,0.032-0.108,0.044-0.166c0.049-0.192,0.086-0.385,0.107-0.552l0.017-0.104l0.001-0.024   c0.05-0.426,0.048-0.859-0.005-1.289V9.841L33.957,9.83L33.81,9.088c-0.065-0.238-0.151-0.477-0.263-0.732l-0.112-0.34   l-3.762,3.417l-2.529-2.107l3.795-3.715l-0.401-0.178c-0.26-0.107-0.504-0.188-0.744-0.25L29.68,5.155h-0.003   c-0.178-0.042-0.363-0.077-0.55-0.102l-0.074-0.014h-0.04C28.788,5.014,28.559,5,28.333,5c-0.222,0-0.448,0.013-0.702,0.043   l-0.04,0.006c-0.201,0.026-0.403,0.063-0.61,0.113C26.94,5.171,26.9,5.18,26.862,5.192c-0.435,0.113-0.855,0.278-1.241,0.486   c-0.064,0.034-0.126,0.07-0.149,0.086c-0.15,0.085-0.293,0.178-0.435,0.275L24.99,6.072l-0.014,0.011   C24.935,6.112,24.894,6.14,24.87,6.16c-0.19,0.144-0.365,0.292-0.52,0.44l-0.096,0.093L24.247,6.7   c-0.121,0.124-0.24,0.259-0.369,0.42l-0.07,0.091l-0.039,0.052c-0.103,0.136-0.196,0.277-0.302,0.444l-0.031,0.051l-0.049,0.083   c-0.223,0.392-0.397,0.81-0.513,1.233c-0.01,0.035-0.018,0.071-0.027,0.109c-0.053,0.211-0.094,0.416-0.114,0.578l-0.01,0.057   L22.72,9.841c-0.157,1.445,0.527,1.911,0.577,2.072L12.319,22.344c-0.174-0.045-0.636-0.46-2.312-0.34l-0.05,0.002l-0.063,0.013   c-0.182,0.023-0.376,0.059-0.608,0.113C9.25,22.14,9.215,22.15,9.181,22.16c-0.436,0.113-0.857,0.278-1.23,0.479   c-0.038,0.019-0.076,0.04-0.113,0.062l-0.057,0.032L7.78,22.734c-0.146,0.085-0.291,0.179-0.43,0.276   c-0.051,0.035-0.101,0.071-0.157,0.113c-0.174,0.131-0.503,0.422-0.503,0.422l-0.302,0.322c-0.071,0.079-0.142,0.16-0.192,0.222   c-0.041,0.051-0.081,0.104-0.112,0.147c-0.102,0.136-0.195,0.275-0.284,0.417L5.778,24.69L5.772,24.7   c-0.026,0.041-0.052,0.083-0.068,0.113c-0.218,0.385-0.389,0.799-0.498,1.197c-0.017,0.054-0.032,0.108-0.044,0.166   c-0.049,0.192-0.086,0.385-0.107,0.552l-0.017,0.104l-0.001,0.025c-0.05,0.426-0.048,0.859,0.005,1.289v0.013l0.002,0.011   l0.147,0.741c0.065,0.238,0.151,0.477,0.263,0.732l0.159,0.293l3.797-3.348l2.418,2.075l-3.761,3.75l0.395,0.152   c0.26,0.107,0.504,0.188,0.744,0.25l0.114,0.028h0.003c0.178,0.042,0.363,0.077,0.55,0.102l0.074,0.014h0.04   C10.212,32.986,10.441,33,10.667,33c0.222,0,0.448-0.013,0.702-0.043l0.04-0.006c0.201-0.026,0.403-0.063,0.61-0.113   c0.041-0.009,0.081-0.018,0.119-0.03c0.435-0.113,0.855-0.278,1.241-0.486c0.064-0.034,0.126-0.07,0.149-0.086   c0.15-0.085,0.293-0.178,0.435-0.275l0.047-0.033l0.014-0.01c0.041-0.029,0.082-0.057,0.106-0.077   c0.19-0.144,0.365-0.292,0.52-0.44l0.096-0.093l0.005-0.009c0.121-0.124,0.24-0.259,0.369-0.42l0.07-0.091l0.039-0.052   c0.103-0.136,0.196-0.277,0.302-0.444l0.031-0.051l0.049-0.083c0.223-0.392,0.397-0.81,0.513-1.233   c0.01-0.035,0.018-0.071,0.027-0.109c0.053-0.211,0.094-0.416,0.114-0.578l0.01-0.057l0.003-0.023   c0.227-1.186-0.451-2.357-0.451-2.357L26.806,15.37z"
       id="path9" /></g></svg>