<?xml version="1.0" encoding="utf-8"?>
<!-- Generator: Adobe Illustrator 19.2.1, SVG Export Plug-In . SVG Version: 6.00 Build 0)  -->
<svg version="1.1" id="Ebene_1" xmlns="http://www.w3.org/2000/svg" xmlns:xlink="http://www.w3.org/1999/xlink" x="0px" y="0px"
	 width="38px" height="38px" viewBox="0 0 38 38" style="enable-background:new 0 0 38 38;" xml:space="preserve">
<style type="text/css">
	.st0{fill:none;}
	.st1{fill:#3B4654;}
</style>
<g>
	<rect class="st0" width="38" height="38"/>
	<path class="st1" d="M2,5v20h14l0.3-2H4V7h25v13.4c0.3-0.4,0.7-0.8,1.1-1c0.3-0.1,0.6-0.2,0.9-0.3V5H2z M6,21h10.7
		c0.1-0.3,0.2-0.5,0.4-0.8l0,0c0.3-0.4,0.6-0.6,1-0.8c0.7-0.4,1.7-0.6,2.7-0.6s2,0.2,2.8,0.6c0.7,0.3,1.2,0.9,1.5,1.6H27V9H6V21z
		 M7,32h7.9v-0.1l0.7-4.9H11L7,32z"/>
	<g>
		<path class="st1" d="M20.5,32c-1.7,0-2.7,1.1-2.8,1.5c0.1,0.4,1,1.5,2.8,1.5s2.7-1.1,2.8-1.5C23.3,33.1,22.3,32,20.5,32z"/>
		<path class="st1" d="M20.5,30.9c1.5,0,2.8,0.5,3.6,1.3l-0.7-9.5v-0.5c0-0.1,0-0.1,0-0.1l0,0l0,0l0,0c-0.1-0.2-0.2-0.4-0.5-0.5
			c-0.4-0.2-1.1-0.4-1.9-0.4s-1.4,0.2-1.8,0.4c-0.1,0-0.3,0.1-0.3,0.3l0,0c-0.1,0.1-0.1,0.2-0.1,0.3l0,0l0,0v0.1l-0.1,0.6L17,32.1
			C17.8,31.4,19,30.9,20.5,30.9z"/>
		<path class="st1" d="M33,32c1.7,0,2.7,1.1,2.8,1.5c-0.1,0.4-1,1.5-2.8,1.5s-2.7-1.1-2.8-1.5C30.3,33.1,31.3,32,33,32z"/>
		<path class="st1" d="M33.2,30.9c-1.5,0-2.8,0.5-3.6,1.3l0.7-9.5v-0.5c0-0.1,0-0.1,0-0.1l0,0l0,0l0,0c0.1-0.2,0.2-0.4,0.5-0.5
			c0.4-0.2,1.1-0.4,1.9-0.4s1.4,0.2,1.8,0.4c0.1,0,0.3,0.1,0.3,0.3l0,0c0.1,0.1,0.1,0.2,0.1,0.3l0,0l0,0v0.1l0.1,0.6l1.5,9.5
			C36,31.4,34.8,30.9,33.2,30.9z"/>
		<polygon class="st1" points="28.9,25 25.1,25 25.4,29 28.6,29 		"/>
	</g>
</g>
</svg>
