<?xml version="1.0" encoding="utf-8"?>
<!-- Generator: Adobe Illustrator 19.2.1, SVG Export Plug-In . SVG Version: 6.00 Build 0)  -->
<svg version="1.1" id="Ebene_1" xmlns="http://www.w3.org/2000/svg" xmlns:xlink="http://www.w3.org/1999/xlink" x="0px" y="0px"
	 width="38px" height="38px" viewBox="0 0 38 38" style="enable-background:new 0 0 38 38;" xml:space="preserve">
<style type="text/css">
	.st0{fill:none;}
	.st1{fill:#3B4654;}
</style>
<g>
	<rect class="st0" width="38" height="38"/>
	<g>
		<path class="st1" d="M15,29v-2h-4l-4,5h10v-1C15.9,31,15,30.1,15,29z M6,21h9v-4c0-1.1,0.9-2,2-2h10V9H6V21z M17.3,31h-0.2
			C17.1,31.1,17.2,31.1,17.3,31z M19,31v1h3.3c-0.2-0.3-0.3-0.6-0.3-1H19z M2,5v20h13v-2H4V7h25v8h2V5H2z"/>
		<path class="st1" d="M32,19v8H19v-8H32 M34,17H17v12h17V17L34,17z"/>
		<rect x="24" y="29" class="st1" width="2" height="2"/>
		<rect x="19" y="31" class="st1" width="13" height="2"/>
		<rect x="19" y="19" class="st1" width="3" height="8"/>
		<rect x="24" y="19" class="st1" width="2" height="8"/>
		<rect x="28" y="19" class="st1" width="2" height="8"/>
	</g>
</g>
</svg>
