<?xml version="1.0" encoding="UTF-8" standalone="no"?>
<!-- Generator: Adobe Illustrator 19.2.1, SVG Export Plug-In . SVG Version: 6.00 Build 0)  -->

<svg
   xmlns:dc="http://purl.org/dc/elements/1.1/"
   xmlns:cc="http://creativecommons.org/ns#"
   xmlns:rdf="http://www.w3.org/1999/02/22-rdf-syntax-ns#"
   xmlns:svg="http://www.w3.org/2000/svg"
   xmlns="http://www.w3.org/2000/svg"
   xmlns:sodipodi="http://sodipodi.sourceforge.net/DTD/sodipodi-0.dtd"
   xmlns:inkscape="http://www.inkscape.org/namespaces/inkscape"
   version="1.1"
   id="Ebene_1"
   x="0px"
   y="0px"
   width="38px"
   height="38px"
   viewBox="0 0 38 38"
   style="enable-background:new 0 0 38 38;"
   xml:space="preserve"
   inkscape:version="0.91 r13725"
   sodipodi:docname="chronologie.svg"><metadata
     id="metadata23"><rdf:RDF><cc:Work
         rdf:about=""><dc:format>image/svg+xml</dc:format><dc:type
           rdf:resource="http://purl.org/dc/dcmitype/StillImage" /></cc:Work></rdf:RDF></metadata><defs
     id="defs21" /><sodipodi:namedview
     pagecolor="#ffffff"
     bordercolor="#666666"
     borderopacity="1"
     objecttolerance="10"
     gridtolerance="10"
     guidetolerance="10"
     inkscape:pageopacity="0"
     inkscape:pageshadow="2"
     inkscape:window-width="1680"
     inkscape:window-height="988"
     id="namedview19"
     showgrid="false"
     inkscape:zoom="14.478011"
     inkscape:cx="11.571837"
     inkscape:cy="18.580573"
     inkscape:window-x="1358"
     inkscape:window-y="-8"
     inkscape:window-maximized="1"
     inkscape:current-layer="g5" /><style
     type="text/css"
     id="style3">
	.st0{fill:none;}
	.st1{fill:#3B4654;}
</style><g
     id="g5"><rect
       class="st0"
       width="38"
       height="38"
       id="rect7" /><path
       class="st1"
       d="m 4,27 14,0 C 18,27 17.859437,26.115392 17.98127,25.000864 18.103107,23.886336 18.5,23 18.5,23 L 4,23 Z m 0,-20 0,4 26,0 0,-4 z m 17,12 c 0,0 1.296093,-1.465201 3.939561,-2.197802 C 27.583029,16.069598 30,16.8 30,16.8 l 0,-1.8 -26,0 0,4 16,0"
       id="path9"
       inkscape:connector-curvature="0"
       style="fill:#3b4654"
       sodipodi:nodetypes="cczccccccccczccccc" /></g><path
     style="fill:#3b4654"
     inkscape:connector-curvature="0"
     id="path21364-3"
     d="m 27.5,18 c -4.457144,0 -8,3.542857 -8,8 0,4.457143 3.542856,8 8,8 4.457143,0 8,-3.542857 8,-8 0,-4.457143 -3.542857,-8 -8,-8 z m 3.657143,9.142857 -3.657143,0 -0.914286,0 -0.228571,0 0,-5.714286 1.142857,0 0,4.571429 3.657143,0 0,1.142857 z"
     class="st1" /></svg>