<?xml version="1.0" encoding="UTF-8" standalone="no"?>
<!-- Generator: Adobe Illustrator 19.2.1, SVG Export Plug-In . SVG Version: 6.00 Build 0)  -->

<svg
   xmlns:dc="http://purl.org/dc/elements/1.1/"
   xmlns:cc="http://creativecommons.org/ns#"
   xmlns:rdf="http://www.w3.org/1999/02/22-rdf-syntax-ns#"
   xmlns:svg="http://www.w3.org/2000/svg"
   xmlns="http://www.w3.org/2000/svg"
   xmlns:sodipodi="http://sodipodi.sourceforge.net/DTD/sodipodi-0.dtd"
   xmlns:inkscape="http://www.inkscape.org/namespaces/inkscape"
   version="1.1"
   id="Ebene_1"
   x="0px"
   y="0px"
   width="38px"
   height="38px"
   viewBox="0 0 38 38"
   style="enable-background:new 0 0 38 38;"
   xml:space="preserve"
   inkscape:version="0.91 r13725"
   sodipodi:docname="copy.svg"><metadata
     id="metadata17"><rdf:RDF><cc:Work
         rdf:about=""><dc:format>image/svg+xml</dc:format><dc:type
           rdf:resource="http://purl.org/dc/dcmitype/StillImage" /></cc:Work></rdf:RDF></metadata><defs
     id="defs15" /><sodipodi:namedview
     pagecolor="#ffffff"
     bordercolor="#666666"
     borderopacity="1"
     objecttolerance="10"
     gridtolerance="10"
     guidetolerance="10"
     inkscape:pageopacity="0"
     inkscape:pageshadow="2"
     inkscape:window-width="1680"
     inkscape:window-height="988"
     id="namedview13"
     showgrid="false"
     inkscape:zoom="6.2105263"
     inkscape:cx="19"
     inkscape:cy="19"
     inkscape:window-x="1358"
     inkscape:window-y="-8"
     inkscape:window-maximized="1"
     inkscape:current-layer="Ebene_1" /><style
     type="text/css"
     id="style3">
	.st0{fill:none;}
	.st1{fill:#3B4654;}
</style><rect
     y="0"
     x="0"
     class="st0"
     width="38"
     height="38"
     id="rect7"
     style="fill:none" /><path
     inkscape:connector-curvature="0"
     class="st1"
     d="M 8.9999998,8.0000002 8.9999998,28 16,28 l 0,-5 4,0 0,-4 5,0 0,-10.9999998 -16.0000002,0 z M 22,25 l -4,0 0,3 7,0 0,-7 -3,0 0,4 z"
     id="path11"
     style="fill:#3b4654" /><polygon
     class="st1"
     points="22,29 22,33 26,33 26,29 30,29 30,25 26,25 26,21 22,21 22,25 18,25 18,29 "
     id="polygon13"
     style="fill:#3b4654" /></svg>