<?xml version="1.0" encoding="UTF-8" standalone="no"?>
<!-- Generator: Adobe Illustrator 19.2.1, SVG Export Plug-In . SVG Version: 6.00 Build 0)  -->

<svg
   xmlns:dc="http://purl.org/dc/elements/1.1/"
   xmlns:cc="http://creativecommons.org/ns#"
   xmlns:rdf="http://www.w3.org/1999/02/22-rdf-syntax-ns#"
   xmlns:svg="http://www.w3.org/2000/svg"
   xmlns="http://www.w3.org/2000/svg"
   xmlns:sodipodi="http://sodipodi.sourceforge.net/DTD/sodipodi-0.dtd"
   xmlns:inkscape="http://www.inkscape.org/namespaces/inkscape"
   version="1.1"
   id="Ebene_1"
   x="0px"
   y="0px"
   width="38px"
   height="38px"
   viewBox="0 0 38 38"
   style="enable-background:new 0 0 38 38;"
   xml:space="preserve"
   inkscape:version="0.91 r13725"
   sodipodi:docname="download.svg"><metadata
     id="metadata19"><rdf:RDF><cc:Work
         rdf:about=""><dc:format>image/svg+xml</dc:format><dc:type
           rdf:resource="http://purl.org/dc/dcmitype/StillImage" /><dc:title></dc:title></cc:Work></rdf:RDF></metadata><defs
     id="defs17" /><sodipodi:namedview
     pagecolor="#ffffff"
     bordercolor="#666666"
     borderopacity="1"
     objecttolerance="10"
     gridtolerance="10"
     guidetolerance="10"
     inkscape:pageopacity="0"
     inkscape:pageshadow="2"
     inkscape:window-width="1429"
     inkscape:window-height="907"
     id="namedview15"
     showgrid="false"
     inkscape:zoom="6.2105264"
     inkscape:cx="-16.367675"
     inkscape:cy="18.805937"
     inkscape:window-x="2080"
     inkscape:window-y="221"
     inkscape:window-maximized="0"
     inkscape:current-layer="g4138" /><style
     type="text/css"
     id="style3">
	.st0{fill:none;}
	.st1{fill:#3B4654;}
</style><g
     id="g5"><g
       id="g4138"
       transform="matrix(-1,0,0,-1,38,38)"><rect
         id="rect7"
         height="38"
         width="38"
         class="st0"
         x="0"
         y="0"
         style="fill:none" /><path
         sodipodi:nodetypes="ccccc"
         inkscape:connector-curvature="0"
         id="polygon9"
         d="M 33,6 C 16.920877,6.01806 18.927766,6 6,6 l 0,3 c 17.146206,0.02948 9.613721,0 27,0 z"
         style="fill:#3b4654" /><polygon
         style="fill:#3b4654"
         transform="matrix(0,0.5,-0.5,0,29,5.1025556)"
         id="polygon3341"
         points="26,9 26,29 12,19 "
         class="st1" /><path
         sodipodi:nodetypes="ccccc"
         inkscape:connector-curvature="0"
         id="polygon9-7"
         d="m 21.006551,29.013405 c -0.01806,-6.193438 0,-5.42042 0,-10.4 l -3,0 c -0.02948,6.604468 0,3.703066 0,10.4 z"
         style="fill:#3b4654" /><path
         style="fill:#3b4654"
         d="m 33.007,16.913 c -0.01806,-6.193438 0,-5.42042 0,-10.4 l -3,0 c -0.02948,6.604468 0,3.703066 0,10.4 z"
         id="path4144"
         inkscape:connector-curvature="0"
         sodipodi:nodetypes="ccccc" /><path
         sodipodi:nodetypes="ccccc"
         inkscape:connector-curvature="0"
         id="path4146"
         d="m 8.907,16.913 c -0.01806,-6.193438 0,-5.42042 0,-10.4 l -3,0 c -0.02948,6.604468 0,3.703066 0,10.4 z"
         style="fill:#3b4654" /></g></g></svg>