<?xml version="1.0" encoding="UTF-8" standalone="no"?>
<!-- Generator: Adobe Illustrator 19.2.1, SVG Export Plug-In . SVG Version: 6.00 Build 0)  -->

<svg
   xmlns:dc="http://purl.org/dc/elements/1.1/"
   xmlns:cc="http://creativecommons.org/ns#"
   xmlns:rdf="http://www.w3.org/1999/02/22-rdf-syntax-ns#"
   xmlns:svg="http://www.w3.org/2000/svg"
   xmlns="http://www.w3.org/2000/svg"
   xmlns:sodipodi="http://sodipodi.sourceforge.net/DTD/sodipodi-0.dtd"
   xmlns:inkscape="http://www.inkscape.org/namespaces/inkscape"
   version="1.1"
   id="Ebene_1"
   x="0px"
   y="0px"
   width="38px"
   height="38px"
   viewBox="0 0 38 38"
   style="enable-background:new 0 0 38 38;"
   xml:space="preserve"
   inkscape:version="0.91 r13725"
   sodipodi:docname="messagesActive.svg"><metadata
     id="metadata23"><rdf:RDF><cc:Work
         rdf:about=""><dc:format>image/svg+xml</dc:format><dc:type
           rdf:resource="http://purl.org/dc/dcmitype/StillImage" /></cc:Work></rdf:RDF></metadata><defs
     id="defs21" /><sodipodi:namedview
     pagecolor="#ffffff"
     bordercolor="#666666"
     borderopacity="1"
     objecttolerance="10"
     gridtolerance="10"
     guidetolerance="10"
     inkscape:pageopacity="0"
     inkscape:pageshadow="2"
     inkscape:window-width="1680"
     inkscape:window-height="988"
     id="namedview19"
     showgrid="false"
     inkscape:zoom="6.2105263"
     inkscape:cx="19"
     inkscape:cy="19"
     inkscape:window-x="1358"
     inkscape:window-y="-8"
     inkscape:window-maximized="1"
     inkscape:current-layer="Ebene_1" /><style
     type="text/css"
     id="style3">
	.st0{fill:none;}
	.st1{fill:#3B4654;}
</style><g
     id="g5"><rect
       class="st0"
       width="38"
       height="38"
       id="rect7" /><path
       class="st1"
       d="M1,27h14v-4H1V27z M17,27h4v-4h-4V27z M1,7v4h26V7H1z M1,19h16h5l5-3.4V15H1V19z"
       id="path9" /><g
       id="g11"><rect
         x="17"
         y="21"
         class="st1"
         width="4"
         height="7"
         id="rect13" /><polygon
         class="st1"
         points="23,21 23,28 31,33 31,16   "
         id="polygon15" /></g><path
       class="st1"
       d="M36.8,21.5c-0.4-0.7-1-1.5-1.6-1.9c-0.2-0.1-0.3-0.1-0.4-0.1c-0.1,0-0.3,0.1-0.4,0.2l-0.8,1   c-0.2,0.2-0.1,0.5,0.1,0.7c0.1,0.1,0.2,0.2,0.3,0.2c0.1,0.1,0.1,0.1,0.2,0.2c0.7,0.6,1.1,1.2,1.2,2.4c0.1,0.9-0.1,1.9-0.6,2.5   c-0.2,0.2-0.8,0.7-1.1,1c-0.1,0.1-0.2,0.2-0.2,0.3s0,0.3,0.1,0.4l0.8,1c0.1,0.1,0.2,0.2,0.4,0.2c0.1,0,0.2,0,0.3-0.1   c0.5-0.3,1-0.8,1.2-1.1C37.8,26.5,38,23.7,36.8,21.5z"
       id="path17" /></g><polygon
     id="polygon3385"
     points="17,4 8.5,0 0,4 "
     class="st0"
     style="fill:#485767"
     transform="translate(10.5,34)" /></svg>