<?xml version="1.0" encoding="utf-8"?>
<!-- Generator: Adobe Illustrator 19.2.1, SVG Export Plug-In . SVG Version: 6.00 Build 0)  -->
<svg version="1.1" id="Ebene_1" xmlns="http://www.w3.org/2000/svg" xmlns:xlink="http://www.w3.org/1999/xlink" x="0px" y="0px"
	 width="38px" height="38px" viewBox="0 0 38 38" style="enable-background:new 0 0 38 38;" xml:space="preserve">
<style type="text/css">
	.st0{fill:none;}
	.st1{fill:#3B4654;}
</style>
<g>
	<rect class="st0" width="38" height="38"/>
	<path class="st1" d="M6,21h14.8c0-0.1,0-0.1,0-0.2c0-0.9,0.3-1.9,0.6-2.5c0.6-1,2.4-2.6,4.9-2.6c0.2,0,0.4,0,0.6,0V9H6V21z M11,27
		l-4,5h10.2c0.1-0.3,0.1-0.6,0.2-0.8c0.4-1.6,1.9-2.4,3.5-3.1L20,27H11z M2,5v20h19.2c-0.1-0.2-0.2-0.4-0.2-0.7
		c-0.1-0.5-0.1-0.9-0.2-1.3H4V7h25v9.4c0.9,0.4,1.6,1,2,1.5V5H2z"/>
	<g>
		<path class="st1" d="M33.5,31.7c-0.3-1.1-4.3-2.7-4.3-2.7s-0.7,1-2.8,1s-2.6-1-2.6-1s-4,1.6-4.3,2.7C19.3,32.8,19,34,19,34h15
			C34,34,33.7,32.8,33.5,31.7z"/>
		<path class="st1" d="M23.4,24.1c0.3,1.5,1.6,2.9,3,2.9c1.5,0,2.8-1.5,3.1-2.9c0.4-1.4,0.5-2.9,0.5-3.2c0-0.3-0.1-0.8-0.3-1.2
			c-0.2-0.4-1.5-1.6-3.2-1.6s-2.9,1.1-3.1,1.6C23.2,19.8,23,20.4,23,21S23.1,22.6,23.4,24.1z"/>
	</g>
</g>
</svg>
