<?xml version="1.0" encoding="UTF-8" standalone="no"?>
<!-- Generator: Adobe Illustrator 16.0.0, SVG Export Plug-In . SVG Version: 6.00 Build 0)  -->

<svg
   xmlns:dc="http://purl.org/dc/elements/1.1/"
   xmlns:cc="http://creativecommons.org/ns#"
   xmlns:rdf="http://www.w3.org/1999/02/22-rdf-syntax-ns#"
   xmlns:svg="http://www.w3.org/2000/svg"
   xmlns="http://www.w3.org/2000/svg"
   xmlns:sodipodi="http://sodipodi.sourceforge.net/DTD/sodipodi-0.dtd"
   xmlns:inkscape="http://www.inkscape.org/namespaces/inkscape"
   version="1.1"
   id="Capa_1"
   x="0px"
   y="0px"
   width="38"
   height="38"
   viewBox="0 0 35.260215 35.260215"
   xml:space="preserve"
   inkscape:version="0.91 r13725"
   sodipodi:docname="pin.svg"><metadata
     id="metadata41"><rdf:RDF><cc:Work
         rdf:about=""><dc:format>image/svg+xml</dc:format><dc:type
           rdf:resource="http://purl.org/dc/dcmitype/StillImage" /><dc:title /></cc:Work></rdf:RDF></metadata><defs
     id="defs39" /><sodipodi:namedview
     pagecolor="#ffffff"
     bordercolor="#666666"
     borderopacity="1"
     objecttolerance="10"
     gridtolerance="10"
     guidetolerance="10"
     inkscape:pageopacity="0"
     inkscape:pageshadow="2"
     inkscape:window-width="1680"
     inkscape:window-height="988"
     id="namedview37"
     showgrid="false"
     inkscape:zoom="6.426638"
     inkscape:cx="-10.267573"
     inkscape:cy="33.196054"
     inkscape:window-x="1358"
     inkscape:window-y="-8"
     inkscape:window-maximized="1"
     inkscape:current-layer="g3" /><g
     id="g3"
     transform="matrix(0.07466187,0,0,0.07421876,-0.8133411,1.2607397e-5)"><path
       d="m 287.85486,304.47997 c 2.23362,-13.56896 0.16718,-23.85148 -6.19952,-30.85629 l 56.77445,-62.48402 c 3.34315,3.67822 7.64407,5.31946 12.89295,4.91291 5.25434,-0.40137 9.8053,-2.71856 13.64832,-6.94804 3.84496,-4.23163 5.9481,-9.23772 6.31205,-15.01963 0.36902,-5.77635 -1.12239,-10.50887 -4.46588,-14.18747 l -61.72751,-67.91437 c -3.34449,-3.67971 -7.64242,-5.31681 -12.89507,-4.91357 -5.25299,0.40287 -9.80026,2.71899 -13.64561,6.95105 -3.84459,4.23119 -5.94946,9.23621 -6.31476,15.01665 -0.36525,5.77964 1.12453,10.5095 4.46801,14.1881 l -56.77291,62.4823 c -6.36602,-7.00407 -15.7126,-9.27507 -28.04248,-6.81519 -12.32959,2.46106 -23.03889,8.69125 -32.13396,18.70096 -1.92169,2.11496 -2.97438,4.61848 -3.15646,7.50807 -0.18062,2.88947 0.55706,5.26102 2.23569,7.09332 98.76449,108.66439 -15.12998,-16.6456 98.76449,108.66439 1.67158,1.8391 3.82238,2.66009 6.44548,2.45793 2.62688,-0.19887 4.9025,-1.3569 6.82458,-3.47228 9.09507,-10.00716 14.75384,-21.79663 16.98814,-35.36482 z M 245.08075,225.5752 c -1.03386,1.13783 -2.1721,1.75486 -3.41793,1.85088 -1.24437,0.096 -2.31667,-0.35218 -3.21664,-1.34236 -0.8993,-0.98942 -1.30742,-2.16925 -1.22038,-3.53938 0.0866,-1.3689 0.6483,-2.62277 1.68218,-3.76062 l 49.67643,-54.67217 c 1.03465,-1.13871 2.1756,-1.7587 3.41803,-1.85249 1.24356,-0.0943 2.31658,0.35378 3.21587,1.34321 0.89997,0.99019 1.30814,2.16921 1.22116,3.53854 -0.0859,1.36883 -0.64763,2.62351 -1.68227,3.76221 z"
       id="path5"
       inkscape:connector-curvature="0"
       style="fill:#3b4654"
       sodipodi:nodetypes="ccccscsscsscccsccccccscscsscscss" /><path
       d="m 185.24537,278.85427 -57.0139,84.26742 c -2.05602,3.19517 -2.0019,5.97671 0.15683,8.34809 l 0.12223,0.13432 c 0.95524,1.04932 2.16485,1.52093 3.61493,1.40062 1.45155,-0.12337 2.80388,-0.70926 4.05376,-1.75811 l 71.97072,-67.23052 c -22.90457,-25.16182 0,0 -22.90457,-25.16182 z"
       id="path5-2"
       inkscape:connector-curvature="0"
       style="fill:#3b4654"
       sodipodi:nodetypes="cccccccc" /></g><g
     id="g7"
     transform="translate(0,-439.82477)" /><g
     id="g9"
     transform="translate(0,-439.82477)" /><g
     id="g11"
     transform="translate(0,-439.82477)" /><g
     id="g13"
     transform="translate(0,-439.82477)" /><g
     id="g15"
     transform="translate(0,-439.82477)" /><g
     id="g17"
     transform="translate(0,-439.82477)" /><g
     id="g19"
     transform="translate(0,-439.82477)" /><g
     id="g21"
     transform="translate(0,-439.82477)" /><g
     id="g23"
     transform="translate(0,-439.82477)" /><g
     id="g25"
     transform="translate(0,-439.82477)" /><g
     id="g27"
     transform="translate(0,-439.82477)" /><g
     id="g29"
     transform="translate(0,-439.82477)" /><g
     id="g31"
     transform="translate(0,-439.82477)" /><g
     id="g33"
     transform="translate(0,-439.82477)" /><g
     id="g35"
     transform="translate(0,-439.82477)" /></svg>