<?xml version="1.0" encoding="UTF-8" standalone="no"?>
<!-- Generator: Adobe Illustrator 19.0.0, SVG Export Plug-In . SVG Version: 6.00 Build 0)  -->

<svg
   xmlns:dc="http://purl.org/dc/elements/1.1/"
   xmlns:cc="http://creativecommons.org/ns#"
   xmlns:rdf="http://www.w3.org/1999/02/22-rdf-syntax-ns#"
   xmlns:svg="http://www.w3.org/2000/svg"
   xmlns="http://www.w3.org/2000/svg"
   xmlns:sodipodi="http://sodipodi.sourceforge.net/DTD/sodipodi-0.dtd"
   xmlns:inkscape="http://www.inkscape.org/namespaces/inkscape"
   version="1.1"
   id="Capa_1"
   x="0px"
   y="0px"
   viewBox="0 0 21.152344 21.152344"
   xml:space="preserve"
   width="38"
   height="38"
   inkscape:version="0.91 r13725"
   sodipodi:docname="push-button.svg"><metadata
     id="metadata45"><rdf:RDF><cc:Work
         rdf:about=""><dc:format>image/svg+xml</dc:format><dc:type
           rdf:resource="http://purl.org/dc/dcmitype/StillImage" /><dc:title></dc:title></cc:Work></rdf:RDF></metadata><defs
     id="defs43" /><sodipodi:namedview
     pagecolor="#ffffff"
     bordercolor="#666666"
     borderopacity="1"
     objecttolerance="10"
     gridtolerance="10"
     guidetolerance="10"
     inkscape:pageopacity="0"
     inkscape:pageshadow="2"
     inkscape:window-width="1680"
     inkscape:window-height="988"
     id="namedview41"
     showgrid="false"
     inkscape:zoom="10.429825"
     inkscape:cx="27.095107"
     inkscape:cy="17.819091"
     inkscape:window-x="1358"
     inkscape:window-y="-8"
     inkscape:window-maximized="1"
     inkscape:current-layer="Capa_1" /><g
     id="g3"
     transform="matrix(0.07508143,0,0,0.07421875,-0.12298507,6.6883173e-6)"><path
       d="M 88.4,87.996 C 90.925,85.85 91.232,82.063 89.087,79.538 82.801,72.144 79.34,62.719 79.34,53 c 0,-22.607 18.393,-41 41,-41 22.607,0 41,18.393 41,41 0,9.729 -3.467,19.161 -9.761,26.557 -2.148,2.523 -1.843,6.311 0.681,8.458 1.129,0.961 2.511,1.431 3.886,1.431 1.698,0 3.386,-0.717 4.572,-2.111 8.14,-9.565 12.622,-21.759 12.622,-34.335 0,-29.225 -23.775,-53 -53,-53 -29.225,0 -53,23.775 -53,53 0,12.563 4.476,24.748 12.602,34.31 2.147,2.525 5.931,2.831 8.458,0.686 z"
       id="path5"
       inkscape:connector-curvature="0"
       style="fill:#3b4654" /><path
       d="m 120.186,41.201 c 13.228,0 23.812,8.105 27.313,19.879 0.761,-2.562 1.176,-5.271 1.176,-8.08 0,-15.649 -12.685,-28.335 -28.335,-28.335 -15.648,0 -28.334,12.686 -28.334,28.335 0,2.623 0.364,5.16 1.031,7.571 3.654,-11.495 14.115,-19.37 27.149,-19.37 z"
       id="path7"
       inkscape:connector-curvature="0"
       style="fill:#3b4654" /><path
       d="m 234.21,169.856 c -3.769,-22.452 -19.597,-26.04 -27.034,-26.462 -2.342,-0.133 -4.516,-1.32 -5.801,-3.282 -5.388,-8.225 -12.609,-10.4 -18.742,-10.4 -4.405,0 -8.249,1.122 -10.449,1.932 -0.275,0.102 -0.559,0.15 -0.837,0.15 -0.87,0 -1.701,-0.47 -2.163,-1.262 -5.472,-9.387 -13.252,-11.809 -19.822,-11.809 -3.824,0 -7.237,0.82 -9.548,1.564 -0.241,0.077 -0.764,0.114 -1.001,0.114 -1.256,0 -2.637,-1.03 -2.637,-2.376 l 0,-48.272 c 0,-11.035 -8.224,-16.552 -16.5,-16.552 -8.276,0 -16.5,5.517 -16.5,16.552 l 0,84.912 c 0,4.989 -3.811,8.074 -7.918,8.074 -2.495,0 -4.899,-1.138 -6.552,-3.678 L 80.769,146.78 C 77.261,140.992 72.193,138.592 67.144,138.591 55.732,138.59 44.57,150.849 52.5,163.935 l 62.491,119.692 c 0.408,0.782 1.225,1.373 2.108,1.373 l 87.757,0 c 1.253,0 2.289,-1.075 2.365,-2.325 l 2.196,-35.816 c 0.025,-0.413 0.162,-0.84 0.39,-1.186 21.784,-32.994 28.021,-54.259 24.403,-75.817 z"
       id="path9"
       inkscape:connector-curvature="0"
       style="fill:#3b4654" /></g><g
     id="g11"
     transform="translate(0,-263.84765)" /><g
     id="g13"
     transform="translate(0,-263.84765)" /><g
     id="g15"
     transform="translate(0,-263.84765)" /><g
     id="g17"
     transform="translate(0,-263.84765)" /><g
     id="g19"
     transform="translate(0,-263.84765)" /><g
     id="g21"
     transform="translate(0,-263.84765)" /><g
     id="g23"
     transform="translate(0,-263.84765)" /><g
     id="g25"
     transform="translate(0,-263.84765)" /><g
     id="g27"
     transform="translate(0,-263.84765)" /><g
     id="g29"
     transform="translate(0,-263.84765)" /><g
     id="g31"
     transform="translate(0,-263.84765)" /><g
     id="g33"
     transform="translate(0,-263.84765)" /><g
     id="g35"
     transform="translate(0,-263.84765)" /><g
     id="g37"
     transform="translate(0,-263.84765)" /><g
     id="g39"
     transform="translate(0,-263.84765)" /></svg>