<?xml version="1.0" encoding="UTF-8" standalone="no"?>
<!-- Created with Inkscape (http://www.inkscape.org/) -->

<svg
   xmlns:dc="http://purl.org/dc/elements/1.1/"
   xmlns:cc="http://creativecommons.org/ns#"
   xmlns:rdf="http://www.w3.org/1999/02/22-rdf-syntax-ns#"
   xmlns:svg="http://www.w3.org/2000/svg"
   xmlns="http://www.w3.org/2000/svg"
   xmlns:sodipodi="http://sodipodi.sourceforge.net/DTD/sodipodi-0.dtd"
   xmlns:inkscape="http://www.inkscape.org/namespaces/inkscape"
   id="svg2273"
   sodipodi:version="0.32"
   inkscape:version="0.91 r13725"
   width="38"
   height="38"
   version="1.0"
   sodipodi:docname="qr.svg"
   inkscape:output_extension="org.inkscape.output.svg.inkscape">
  <metadata
     id="metadata2278">
    <rdf:RDF>
      <cc:Work
         rdf:about="">
        <dc:format>image/svg+xml</dc:format>
        <dc:type
           rdf:resource="http://purl.org/dc/dcmitype/StillImage" />
        <dc:title></dc:title>
      </cc:Work>
    </rdf:RDF>
  </metadata>
  <defs
     id="defs2276" />
  <sodipodi:namedview
     inkscape:window-height="740"
     inkscape:window-width="1280"
     inkscape:pageshadow="2"
     inkscape:pageopacity="0.0"
     guidetolerance="10.0"
     gridtolerance="10.0"
     objecttolerance="10.0"
     borderopacity="1.0"
     bordercolor="#666666"
     pagecolor="#ffffff"
     id="base"
     inkscape:zoom="6.1546574"
     inkscape:cx="49.243404"
     inkscape:cy="39.5129"
     inkscape:window-x="-4"
     inkscape:window-y="-4"
     inkscape:current-layer="svg2273"
     showgrid="false"
     fit-margin-top="0"
     fit-margin-left="0"
     fit-margin-right="0"
     fit-margin-bottom="0"
     inkscape:window-maximized="1" />
  <path
     style="fill:#000000;fill-opacity:1"
     d="M 9.5172417,31.5 6.5,31.5 l 0,-3.017242 0,-3.017244 3.0172417,0 3.0172413,0 0,3.017244 0,3.017242 -3.0172413,0 z m 0,-0.862059 2.1551723,0 0,-2.155183 0,-2.155175 -2.1551723,0 -2.155173,0 0,2.155175 0,2.155183 2.155173,0 z m 0,-0.862082 -1.2931053,0 0,-1.293101 0,-1.293093 1.2931053,0 1.2931033,0 0,1.293093 0,1.293101 -1.2931033,0 z M 13.827586,31.5 l -0.431032,0 0,-2.155174 0,-2.155161 0.431032,0 0.431039,0 0,0.862068 0,0.862065 0.431028,0 0.431034,0 0,0.431028 0,0.431033 -0.431034,0 -0.431028,0 0,0.862082 0,0.862059 -0.431036,0 z m 2.155173,0 -0.862072,0 0,-0.431021 0,-0.431038 0.43104,0 0.431032,0 0,-0.862082 0,-0.862061 0.862065,0 0.862075,0 0,0.431028 0,0.431033 -0.431038,0 -0.431037,0 0,0.862082 0,0.862059 -0.862065,0 z m 5.603455,0 -0.431038,0 0,-0.431021 0,-0.431038 -0.431035,0 -0.431041,0 0,-0.431043 0,-0.431039 -0.431031,0 -0.431046,0 0,0.431039 0,0.431043 -0.431023,0 -0.431023,0 0,-0.431043 0,-0.431039 0.431023,0 0.431023,0 0,-0.431033 0,-0.431028 0.431046,0 0.431031,0 0,-0.43104 0,-0.431025 -0.862077,0 -0.862046,0 0,-0.431041 0,-0.431027 -0.431046,0 -0.431032,0 0,0.431027 0,0.431041 -0.431038,0 -0.431037,0 0,-0.862068 0,-0.862082 0.431037,0 0.431038,0 0,-0.43103 0,-0.431039 -0.431038,0 -0.431037,0 0,-0.431028 0,-0.431039 -0.862065,0 -0.862072,0 0,0.862067 0,0.862069 0.43104,0 0.431032,0 0,0.431031 0,0.431051 -0.431032,0 -0.43104,0 0,-0.431051 0,-0.431031 -0.862062,0 -0.862071,0 0,-0.862069 0,-0.862067 0.862071,0 0.862062,0 0,-0.43103 0,-0.431053 -1.293098,0 -1.293106,0 0,0.431053 0,0.43103 -0.431035,0 -0.431034,0 0,-0.43103 0,-0.431053 0.431034,0 0.431035,0 0,-0.431029 0,-0.431027 -0.431035,0 -0.431034,0 0,-0.431041 0,-0.431025 0.431034,0 0.431035,0 0,-0.43104 0,-0.431028 -1.293104,0 -1.2931029,0 0,0.431028 0,0.43104 -0.4310344,0 -0.4310347,0 0,0.431025 0,0.431041 -0.4310336,0 -0.4310348,0 0,-0.862066 0,-0.862068 -0.4310363,0 -0.4310336,0 0,1.724134 0,1.724139 -0.4310342,0 -0.4310345,0 0,-1.724139 0,-1.724134 0.4310345,0 0.4310342,0 0,-0.431033 0,-0.431039 -0.4310342,0 -0.4310345,0 0,-2.155161 0,-2.155183 0.8620687,0 0.8620699,0 0,-0.431025 0,-0.431041 -0.8620699,0 -0.8620687,0 0,-0.862078 0,-0.862061 2.1551734,0 2.1551716,0 0,0.43103 0,0.431031 0.431034,0 0.431035,0 0,-0.431031 0,-0.43103 2.155175,0 2.15517,0 0,0.43103 0,0.431031 -0.431032,0 -0.43104,0 0,0.862078 0,0.862066 0.43104,0 0.431032,0 0,-0.431025 0,-0.431041 0.862065,0 0.862075,0 0,0.431041 0,0.431025 -0.431038,0 -0.431037,0 0,0.862068 0,0.862072 1.724153,0 1.724123,0 0,0.431043 0,0.431038 1.293114,0 1.293094,0 0,-0.431038 0,-0.431043 0.431028,0 0.43105,0 0,-0.431039 0,-0.431033 -0.43105,0 -0.431028,0 0,-0.431028 0,-0.43104 0.431028,0 0.43105,0 0,-0.431025 0,-0.431041 -0.862078,0 -0.862068,0 0,-0.431027 0,-0.431051 -0.431026,0 -0.431038,0 0,0.431051 0,0.431027 -0.862076,0 -0.862077,0 0,-0.431027 0,-0.431051 -0.431023,0 -0.431023,0 0,-0.431031 0,-0.43103 -0.431046,0 -0.431032,0 0,0.43103 0,0.431031 -0.431038,0 -0.431037,0 0,-1.2931 0,-1.293096 0.431037,0 0.431038,0 0,-0.431029 0,-0.431054 -0.431038,0 -0.431037,0 0,-0.431029 0,-0.431041 -0.431032,0 -0.431033,0 0,1.293124 0,1.293097 -0.431032,0 -0.43104,0 0,-1.293097 0,-1.293124 -0.862062,0 -0.862071,0 0,-0.431021 0,-0.431039 0.431035,0 0.431036,0 0,-0.431031 0,-0.431029 -0.431036,0 -0.431035,0 0,-0.431046 0,-0.431042 0.431035,0 0.431036,0 0,-0.431032 0,-0.431025 0.431028,0 0.431034,0 0,0.862057 0,0.862088 0.43104,0 0.431032,0 0,-0.431046 0,-0.431042 0.862065,0 0.862075,0 0,0.431042 0,0.431046 -0.431038,0 -0.431037,0 0,0.86206 0,0.86206 1.724153,0 1.724123,0 0,-0.86206 0,-0.86206 0.431041,0 0.431035,0 0,-0.431046 0,-0.431042 -0.862076,0 -0.862077,0 0,-0.431032 0,-0.431025 2.586217,0 2.586208,0 0,0.862057 0,0.862088 -0.431031,0 -0.431031,0 0,-0.431046 0,-0.431042 -0.862078,0 -0.862068,0 0,0.431042 0,0.431046 0.431027,0 0.431041,0 0,0.431029 0,0.431031 0.431028,0 0.43105,0 0,0.431039 0,0.431021 0.431031,0 0.431031,0 0,0.431041 0,0.431029 -0.862062,0 -0.862078,0 0,-0.862071 0,-0.862059 -0.431041,0 -0.431027,0 0,0.431039 0,0.43102 -0.862064,0 -0.862076,0 0,0.431042 0,0.431029 0.431041,0 0.431035,0 0,0.862083 0,0.862068 -0.431035,0 -0.431041,0 0,0.862067 0,0.862061 0.431041,0 0.431035,0 0,-0.431031 0,-0.43103 0.431038,0 0.431026,0 0,-0.862067 0,-0.862068 0.431027,0 0.431041,0 0,0.862068 0,0.862067 -0.431041,0 -0.431027,0 0,0.43103 0,0.431031 0.862068,0 0.862078,0 0,0.431051 0,0.431027 0.431031,0 0.431031,0 0,-0.862056 0,-0.862083 0.431039,0 0.431026,0 0,0.43103 0,0.431053 0.431039,0 0.431031,0 0,-0.431053 0,-0.43103 0.431053,0 0.431028,0 0,0.43103 0,0.431053 0.431028,0 0.431041,0 0,-0.431053 0,-0.43103 0.431027,0 0.431026,0 0,0.43103 0,0.431053 0.431038,0 0.431035,0 0,-0.431053 0,-0.43103 0.431041,0 0.431031,0 0,0.43103 0,0.431053 0.431046,0 0.431023,0 0,0.431029 0,0.431027 -2.155176,0 -2.15516,0 0,0.431041 0,0.431025 1.293096,0 1.293099,0 0,0.43104 0,0.431028 0.431041,0 0.431031,0 0,0.431033 0,0.431039 0.431046,0 0.431023,0 0,0.431043 0,0.431038 -0.862069,0 -0.862072,0 0,0.431021 0,0.431021 0.862072,0 0.862069,0 0,1.29312 0,1.293101 -0.862069,0 -0.862072,0 0,-0.43104 0,-0.431028 -0.431035,0 -0.431038,0 0,-0.862072 0,-0.862081 -0.431026,0 -0.431027,0 0,0.431038 0,0.431043 -0.431041,0 -0.431028,0 0,-0.431043 0,-0.431038 -0.431028,0 -0.431053,0 0,-0.431021 0,-0.431021 -0.431031,0 -0.431039,0 0,-0.431038 0,-0.431043 0.431039,0 0.431031,0 0,-0.431039 0,-0.431033 0.431053,0 0.431028,0 0,-0.431028 0,-0.43104 -0.431028,0 -0.431053,0 0,-0.431025 0,-0.431041 -0.431031,0 -0.431039,0 0,0.862066 0,0.862068 -0.431026,0 -0.431039,0 0,1.293115 0,1.29308 0.431039,0 0.431026,0 0,0.431038 0,0.431043 -0.862065,0 -0.862062,0 0,0.431039 0,0.431033 2.155166,0 2.155181,0 0,0.431028 0,0.43104 0.431027,0 0.431026,0 0,0.431025 0,0.431041 -0.431026,0 -0.431027,0 0,1.724139 0,1.724136 0.431027,0 0.431026,0 0,0.431053 0,0.431029 0.862073,0 0.862072,0 0,0.431027 0,0.431041 0.431046,0 0.431023,0 0,0.431025 0,0.43104 -0.431023,0 -0.431046,0 0,0.862061 0,0.862082 -0.431031,0 -0.431041,0 0,0.431038 0,0.431021 -0.431035,0 -0.431038,0 0,-0.431021 0,-0.431038 -1.293094,0 -1.293109,0 0,-0.431043 0,-0.431039 -0.86207,0 -0.862065,0 0,0.431039 0,0.431043 -0.431031,0 -0.431031,0 0,0.431038 0,0.431021 -0.43105,0 -0.431028,0 0,-0.431021 0,-0.431038 0.431028,0 0.43105,0 0,-0.431043 0,-0.431039 -0.862078,0 -0.862068,0 0,-0.862061 0,-0.862065 -0.431026,0 -0.431038,0 0,0.431025 0,0.43104 -0.431035,0 -0.431041,0 0,0.431028 0,0.431033 0.431041,0 0.431035,0 0,0.431039 0,0.431043 0.431038,0 0.431026,0 0,0.431038 0,0.431021 -0.431026,0 z m 7.75861,-0.862059 0.431035,0 0,-0.431043 0,-0.431039 -0.431035,0 -0.431038,0 0,-0.431033 0,-0.431028 0.431038,0 0.431035,0 0,-0.43104 0,-0.431025 -0.431035,0 -0.431038,0 0,0.431025 0,0.43104 -0.431026,0 -0.431027,0 0,-0.43104 0,-0.431025 -0.431041,0 -0.431028,0 0,0.431025 0,0.43104 0.431028,0 0.431041,0 0,0.431028 0,0.431033 0.431027,0 0.431026,0 0,0.431039 0,0.431043 0.431038,0 z m -4.310337,-1.724143 1.293096,0 0,-0.43104 0,-0.431025 -1.293096,0 -1.293101,0 0,-0.431041 0,-0.431027 -0.43105,0 -0.431028,0 0,-0.431051 0,-0.431031 -0.862068,0 -0.862064,0 0,-0.43103 0,-0.431039 0.862064,0 0.862068,0 0,-0.431028 0,-0.431039 0.431028,0 0.43105,0 0,-0.43103 0,-0.431031 1.293101,0 1.293096,0 0,-0.431051 0,-0.431027 0.862081,0 0.862069,0 0,-0.431041 0,-0.431025 -0.862069,0 -0.862081,0 0,0.431025 0,0.431041 -0.86207,0 -0.862065,0 0,-0.431041 0,-0.431025 -1.293112,0 -1.293096,0 0,-0.43104 0,-0.431028 0.431027,0 0.431041,0 0,-0.431033 0,-0.431039 -0.431041,0 -0.431027,0 0,-0.431043 0,-0.431038 -1.72414,0 -1.724123,0 0,0.431038 0,0.431043 -0.431046,0 -0.431032,0 0,0.431039 0,0.431033 -0.431038,0 -0.431037,0 0,-0.862072 0,-0.862081 0.431037,0 0.431038,0 0,-0.431021 0,-0.431021 -0.431038,0 -0.431037,0 0,-0.431038 0,-0.431043 -0.431032,0 -0.431033,0 0,-0.431039 0,-0.431033 -0.431032,0 -0.43104,0 0,0.431033 0,0.431039 0.43104,0 0.431032,0 0,0.431043 0,0.431038 -0.431032,0 -0.43104,0 0,0.862042 0,0.862081 0.43104,0 0.431032,0 0,0.862072 0,0.862068 -0.431032,0 -0.43104,0 0,-0.43104 0,-0.431028 -0.431034,0 -0.431028,0 0,-1.724153 0,-1.724123 -0.431039,0 -0.431032,0 0,-0.431039 0,-0.431033 0.431032,0 0.431039,0 0,-1.293093 0,-1.293119 -1.293108,0 -1.293103,0 0,0.431051 0,0.431027 -0.431035,0 -0.431034,0 0,-0.431027 0,-0.431051 -0.431035,0 -0.4310339,0 0,0.431051 0,0.431027 -0.4310344,0 -0.4310347,0 0,-0.431027 0,-0.431051 -0.4310336,0 -0.431037,0 0,0.431051 0,0.431027 0.431037,0 0.4310336,0 0,0.431041 0,0.431025 -0.4310336,0 -0.431037,0 0,0.43104 0,0.431028 -0.4310341,0 -0.4310336,0 0,0.862072 0,0.862081 0.8620677,0 0.8620706,0 0,-0.431038 0,-0.431043 0.4310347,0 0.4310344,0 0,1.293102 0,1.293102 -0.4310344,0 -0.4310347,0 0,-0.431043 0,-0.431038 -0.8620706,0 -0.8620677,0 0,0.431038 0,0.431043 0.4310336,0 0.4310341,0 0,0.431039 0,0.431033 0.8620706,0 0.8620691,0 0,-0.431033 0,-0.431039 1.2931029,0 1.293104,0 0,0.431039 0,0.431033 0.862071,0 0.862071,0 0,0.431028 0,0.43104 -0.431039,0 -0.431032,0 0,0.431025 0,0.431041 1.293099,0 1.293106,0 0,-0.431041 0,-0.431025 0.862065,0 0.862075,0 0,0.431025 0,0.431041 -0.431038,0 -0.431037,0 0,0.862056 0,0.862083 1.293107,0 1.293092,0 0,0.431039 0,0.431028 0.431046,0 0.431031,0 0,0.431039 0,0.43103 0.431041,0 0.431035,0 0,0.431031 0,0.431051 0.431038,0 0.431026,0 0,0.431027 0,0.431041 0.862068,0 0.862056,0 0,0.431025 0,0.43104 1.293123,0 z m -4.310346,-3.448284 -0.431041,0 0,-0.431028 0,-0.431039 -0.431031,0 -0.431046,0 0,-0.43103 0,-0.431031 -0.431023,0 -0.431023,0 0,-0.431051 0,-0.431027 0.431023,0 0.431023,0 0,-0.431041 0,-0.431025 0.431046,0 0.431031,0 0,-0.43104 0,-0.431028 -0.862077,0 -0.862046,0 0,-0.431033 0,-0.431039 1.724123,0 1.72414,0 0,0.431039 0,0.431033 -0.431026,0 -0.431038,0 0,1.293093 0,1.293097 0.431038,0 0.431026,0 0,0.431053 0,0.43103 -0.431026,0 -0.431038,0 0,0.431039 0,0.431028 -0.431035,0 z m 0,-0.862067 0.431035,0 0,-0.43103 0,-0.431053 -0.431035,0 -0.431041,0 0,0.431053 0,0.43103 0.431041,0 z m -8.620693,-5.172426 -0.431034,0 0,-0.431021 0,-0.431021 0.431034,0 0.431035,0 0,-0.431038 0,-0.431043 -0.862069,0 -0.862069,0 0,-0.431039 0,-0.431033 -0.431035,0 -0.4310339,0 0,-0.431028 0,-0.43104 0.8620689,0 0.862069,0 0,-0.431025 0,-0.431041 0.862069,0 0.862071,0 0,0.431041 0,0.431025 -0.862071,0 -0.862069,0 0,0.43104 0,0.431028 0.431034,0 0.431035,0 0,0.431033 0,0.431039 0.431034,0 0.431037,0 0,0.431043 0,0.431038 -0.431037,0 -0.431034,0 0,0.431021 0,0.431021 -0.431035,0 z m -3.4482746,-1.724123 -0.4310348,0 0,-0.431039 0,-0.431033 0.4310348,0 0.4310336,0 0,0.431033 0,0.431039 -0.4310336,0 z M 19,27.189665 l 0.431023,0 0,-0.431051 0,-0.431031 -0.431023,0 -0.431023,0 0,0.431031 0,0.431051 0.431023,0 z m 6.896552,0 1.293112,0 0,-1.293112 0,-1.293106 -1.293112,0 -1.293104,0 0,1.293106 0,1.293112 1.293104,0 z m 0,-0.862082 -0.431039,0 0,-0.43103 0,-0.431039 0.431039,0 0.431031,0 0,0.431039 0,0.43103 -0.431031,0 z m -2.586216,-6.896562 0.43105,0 0,-0.431021 0,-0.431021 -0.43105,0 -0.431028,0 0,0.431021 0,0.431021 0.431028,0 z m 5.60345,-0.862042 0.862073,0 0,-0.862081 0,-0.862072 -1.293099,0 -1.293096,0 0,0.431033 0,0.431039 0.431028,0 0.431041,0 0,0.431043 0,0.431038 0.862053,0 z m -4.741369,-1.724153 0.431031,0 0,-0.431028 0,-0.43104 -0.431031,0 -0.431031,0 0,0.43104 0,0.431028 0.431031,0 z m 2.586219,-1.724134 0.431028,0 0,-0.431027 0,-0.431051 -0.431028,0 -0.431053,0 0,0.431051 0,0.431027 0.431053,0 z M 19,13.396553 l 0.431023,0 0,-0.431039 0,-0.431028 0.431046,0 0.431031,0 0,-0.431038 0,-0.43103 -0.431031,0 -0.431046,0 0,0.43103 0,0.431038 -0.431023,0 -0.431023,0 0,-0.431038 0,-0.43103 -0.431046,0 -0.431032,0 0,0.43103 0,0.431038 0.431032,0 0.431046,0 0,0.431028 0,0.431039 0.431023,0 z m -3.448273,-3.448289 0.431032,0 0,-0.43102 0,-0.431039 -0.431032,0 -0.43104,0 0,0.431039 0,0.43102 0.43104,0 z m 6.034487,-0.862059 0.431026,0 0,-0.431031 0,-0.431029 -0.431026,0 -0.431038,0 0,0.431029 0,0.431031 0.431038,0 z m 8.620686,16.379309 -0.431041,0 0,-0.431028 0,-0.431039 -0.431035,0 -0.431038,0 0,-0.43103 0,-0.431031 0.431038,0 0.431035,0 0,0.431031 0,0.43103 0.431041,0 0.431031,0 0,-0.862061 0,-0.862078 0.431046,0 0.431023,0 0,0.862078 0,0.862061 -0.431023,0 -0.431046,0 0,0.431039 0,0.431028 -0.431031,0 z m -21.5517266,-0.862067 -0.4310348,0 0,-0.43103 0,-0.431053 0.4310348,0 0.4310336,0 0,0.431053 0,0.43103 -0.4310336,0 z m 12.9310406,-6.896549 -0.431038,0 0,-0.431039 0,-0.431033 -0.431035,0 -0.431041,0 0,-0.431028 0,-0.43104 0.431041,0 0.431035,0 0,0.43104 0,0.431028 0.431038,0 0.431026,0 0,0.431033 0,0.431039 -0.431026,0 z M 19,16.844826 l -0.431023,0 0,-0.431028 0,-0.43104 0.431023,0 0.431023,0 0,0.43104 0,0.431028 -0.431023,0 z m -9.4827583,-4.31034 -3.0172417,0 0,-3.017242 0,-3.017244 3.0172417,0 3.0172413,0 0,3.017244 0,3.017242 -3.0172413,0 z m 0,-0.862068 2.1551723,0 0,-2.155174 0,-2.155187 -2.1551723,0 -2.155173,0 0,2.155187 0,2.155174 2.155173,0 z m 0,-0.862083 -1.2931053,0 0,-1.293091 0,-1.293099 1.2931053,0 1.2931033,0 0,1.293099 0,1.293091 -1.2931033,0 z m 4.3103443,1.724151 -0.431032,0 0,-0.862068 0,-0.862083 0.431032,0 0.431039,0 0,0.862083 0,0.862068 -0.431039,0 z m 10.344831,0 -0.431053,0 0,-0.431038 0,-0.43103 0.431053,0 0.431031,0 0,0.43103 0,0.431038 -0.431031,0 z m 4.310343,0 -3.017247,0 0,-3.017242 0,-3.017244 3.017247,0 3.01724,0 0,3.017244 0,3.017242 -3.01724,0 z m 0,-0.862068 2.155171,0 0,-2.155174 0,-2.155187 -2.155171,0 -2.155177,0 0,2.155187 0,2.155174 2.155177,0 z m 0,-0.862083 -1.293096,0 0,-1.293091 0,-1.293099 1.293096,0 1.293099,0 0,1.293099 0,1.293091 -1.293099,0 z M 19,9.086205 l -0.431023,0 0,-0.431031 0,-0.431029 0.431023,0 0.431023,0 0,0.431029 0,0.431031 -0.431023,0 z"
     id="path2282"
     inkscape:connector-curvature="0" />
</svg>
