<?xml version="1.0" encoding="UTF-8" standalone="no"?>
<!-- Generator: Adobe Illustrator 19.2.1, SVG Export Plug-In . SVG Version: 6.00 Build 0)  -->

<svg
   xmlns:dc="http://purl.org/dc/elements/1.1/"
   xmlns:cc="http://creativecommons.org/ns#"
   xmlns:rdf="http://www.w3.org/1999/02/22-rdf-syntax-ns#"
   xmlns:svg="http://www.w3.org/2000/svg"
   xmlns="http://www.w3.org/2000/svg"
   xmlns:sodipodi="http://sodipodi.sourceforge.net/DTD/sodipodi-0.dtd"
   xmlns:inkscape="http://www.inkscape.org/namespaces/inkscape"
   version="1.1"
   id="Ebene_1"
   x="0px"
   y="0px"
   width="19"
   height="19"
   viewBox="0 0 19 19"
   xml:space="preserve"
   inkscape:version="0.91 r13725"
   sodipodi:docname="qrBlock.svg"><metadata
     id="metadata19"><rdf:RDF><cc:Work
         rdf:about=""><dc:format>image/svg+xml</dc:format><dc:type
           rdf:resource="http://purl.org/dc/dcmitype/StillImage" /><dc:title></dc:title></cc:Work></rdf:RDF></metadata><defs
     id="defs17" /><sodipodi:namedview
     pagecolor="#ffffff"
     bordercolor="#666666"
     borderopacity="1"
     objecttolerance="10"
     gridtolerance="10"
     guidetolerance="10"
     inkscape:pageopacity="0"
     inkscape:pageshadow="2"
     inkscape:window-width="1429"
     inkscape:window-height="837"
     id="namedview15"
     showgrid="false"
     inkscape:zoom="12"
     inkscape:cx="-14.57518"
     inkscape:cy="9.1869369"
     inkscape:window-x="1965"
     inkscape:window-y="171"
     inkscape:window-maximized="0"
     inkscape:current-layer="g5" /><style
     type="text/css"
     id="style3">
	.st0{fill:none;}
	.st1{fill:#3B4654;}
</style><g
     id="g5"
     transform="translate(0,-19)"><rect
       style="fill:none"
       y="19"
       x="0"
       class="st0"
       width="19"
       height="19"
       id="rect7" /><path
       style="fill:#000000;fill-opacity:1"
       d="m 3.5853818,35.416667 -1.9098496,0 0,-1.70977 0,-1.709772 1.9098496,0 1.9098496,0 0,1.709772 0,1.70977 -1.9098496,0 z m 0,-0.4885 1.3641786,0 0,-1.22127 0,-1.221266 -1.3641786,0 -1.3641785,0 0,1.221266 0,1.22127 1.3641785,0 z m 0,-0.488513 -0.8185084,0 0,-0.732757 0,-0.732753 0.8185084,0 0.8185066,0 0,0.732753 0,0.732757 -0.8185066,0 z m 2.7283562,0.977013 -0.2728337,0 0,-1.221265 0,-1.221258 0.2728337,0 0.2728383,0 0,0.488505 0,0.488504 0.2728319,0 0.2728355,0 0,0.244249 0,0.244252 -0.2728355,0 -0.2728319,0 0,0.488513 0,0.4885 -0.2728365,0 z m 1.3641786,0 -0.5456729,0 0,-0.244245 0,-0.244255 0.2728392,0 0.2728337,0 0,-0.488513 0,-0.488501 0.5456692,0 0.5456747,0 0,0.244249 0,0.244252 -0.2728373,0 -0.2728374,0 0,0.488513 0,0.4885 -0.5456692,0 z m 3.5468674,0 -0.272838,0 0,-0.244245 0,-0.244255 -0.272836,0 -0.27284,0 0,-0.244258 0,-0.244255 -0.272833,0 -0.2728437,0 0,0.244255 0,0.244258 -0.272828,0 -0.272828,0 0,-0.244258 0,-0.244255 0.272828,0 0.272828,0 0,-0.244252 0,-0.244249 0.2728437,0 0.272833,0 0,-0.244256 0,-0.244248 -0.5456767,0 -0.545656,0 0,-0.244257 0,-0.244248 -0.2728431,0 -0.2728337,0 0,0.244248 0,0.244257 -0.2728373,0 -0.2728374,0 0,-0.488505 0,-0.488513 0.2728374,0 0.2728373,0 0,-0.24425 0,-0.244256 -0.2728373,0 -0.2728374,0 0,-0.244249 0,-0.244256 -0.5456692,0 -0.5456729,0 0,0.488505 0,0.488506 0.2728392,0 0.2728337,0 0,0.244251 0,0.244262 -0.2728337,0 -0.2728392,0 0,-0.244262 0,-0.244251 -0.5456674,0 -0.545672,0 0,-0.488506 0,-0.488505 0.545672,0 0.5456674,0 0,-0.24425 0,-0.244263 -0.8185039,0 -0.8185084,0 0,0.244263 0,0.24425 -0.2728355,0 -0.2728355,0 0,-0.24425 0,-0.244263 0.2728355,0 0.2728355,0 0,-0.24425 0,-0.244248 -0.2728355,0 -0.2728355,0 0,-0.244257 0,-0.244248 0.2728355,0 0.2728355,0 0,-0.244255 0,-0.244249 -0.8185075,0 -0.8185066,0 0,0.244249 0,0.244255 -0.2728355,0 -0.2728355,0 0,0.244248 0,0.244257 -0.2728356,0 -0.2728355,0 0,-0.488505 0,-0.488504 -0.2728373,0 -0.2728346,0 0,0.977009 0,0.977011 -0.2728356,0 -0.2728355,0 0,-0.977011 0,-0.977009 0.2728355,0 0.2728356,0 0,-0.244252 0,-0.244256 -0.2728356,0 -0.2728355,0 0,-1.221258 0,-1.22127 0.5456711,0 0.5456719,0 0,-0.244248 0,-0.244257 -0.5456719,0 -0.5456711,0 0,-0.488511 0,-0.4885 1.3641785,0 1.3641777,0 0,0.24425 0,0.24425 0.2728355,0 0.2728365,0 0,-0.24425 0,-0.24425 1.3641794,0 1.3641768,0 0,0.24425 0,0.24425 -0.2728337,0 -0.2728392,0 0,0.488511 0,0.488505 0.2728392,0 0.2728337,0 0,-0.244248 0,-0.244257 0.5456692,0 0.5456747,0 0,0.244257 0,0.244248 -0.2728373,0 -0.2728374,0 0,0.488504 0,0.488508 1.0913515,0 1.0913327,0 0,0.244258 0,0.244255 0.818514,0 0.818501,0 0,-0.244255 0,-0.244258 0.272832,0 0.272845,0 0,-0.244256 0,-0.244252 -0.272845,0 -0.272832,0 0,-0.244249 0,-0.244255 0.272832,0 0.272845,0 0,-0.244248 0,-0.244257 -0.545677,0 -0.545671,0 0,-0.244248 0,-0.244263 -0.27283,0 -0.272838,0 0,0.244263 0,0.244248 -0.545676,0 -0.5456767,0 0,-0.244248 0,-0.244263 -0.272828,0 -0.272828,0 0,-0.24425 0,-0.24425 -0.2728431,0 -0.2728337,0 0,0.24425 0,0.24425 -0.2728373,0 -0.2728374,0 0,-0.732756 0,-0.732754 0.2728374,0 0.2728373,0 0,-0.24425 0,-0.244264 -0.2728373,0 -0.2728374,0 0,-0.24425 0,-0.244257 -0.2728346,0 -0.2728346,0 0,0.732771 0,0.732755 -0.2728337,0 -0.2728392,0 0,-0.732755 0,-0.732771 -0.5456674,0 -0.545672,0 0,-0.244245 0,-0.244255 0.2728355,0 0.2728365,0 0,-0.244251 0,-0.24425 -0.2728365,0 -0.2728355,0 0,-0.244259 0,-0.244257 0.2728355,0 0.2728365,0 0,-0.244252 0,-0.244247 0.2728319,0 0.2728355,0 0,0.488499 0,0.488516 0.2728392,0 0.2728337,0 0,-0.244259 0,-0.244257 0.5456692,0 0.5456747,0 0,0.244257 0,0.244259 -0.2728373,0 -0.2728374,0 0,0.488501 0,0.4885 1.0913515,0 1.0913327,0 0,-0.4885 0,-0.488501 0.27284,0 0.272836,0 0,-0.244259 0,-0.244257 -0.545676,0 -0.5456767,0 0,-0.244252 0,-0.244247 1.6370207,0 1.637015,0 0,0.488499 0,0.488516 -0.272834,0 -0.272833,0 0,-0.244259 0,-0.244257 -0.545677,0 -0.545671,0 0,0.244257 0,0.244259 0.272831,0 0.27284,0 0,0.24425 0,0.244251 0.272832,0 0.272845,0 0,0.244255 0,0.244245 0.272833,0 0.272834,0 0,0.244257 0,0.24425 -0.545667,0 -0.545677,0 0,-0.488507 0,-0.4885 -0.27284,0 -0.272831,0 0,0.244255 0,0.244245 -0.545668,0 -0.545676,0 0,0.244257 0,0.24425 0.27284,0 0.272836,0 0,0.488514 0,0.488505 -0.272836,0 -0.27284,0 0,0.488505 0,0.4885 0.27284,0 0.272836,0 0,-0.24425 0,-0.24425 0.272838,0 0.27283,0 0,-0.488505 0,-0.488505 0.272831,0 0.27284,0 0,0.488505 0,0.488505 -0.27284,0 -0.272831,0 0,0.24425 0,0.24425 0.545671,0 0.545677,0 0,0.244263 0,0.244248 0.272833,0 0.272834,0 0,-0.488498 0,-0.488513 0.272838,0 0.27283,0 0,0.24425 0,0.244263 0.272839,0 0.272833,0 0,-0.244263 0,-0.24425 0.272847,0 0.272832,0 0,0.24425 0,0.244263 0.272832,0 0.272839,0 0,-0.244263 0,-0.24425 0.272831,0 0.27283,0 0,0.24425 0,0.244263 0.272839,0 0.272836,0 0,-0.244263 0,-0.24425 0.272839,0 0.272834,0 0,0.24425 0,0.244263 0.272843,0 0.272828,0 0,0.24425 0,0.244248 -1.36418,0 -1.364171,0 0,0.244257 0,0.244248 0.818502,0 0.818505,0 0,0.244255 0,0.244249 0.272839,0 0.272834,0 0,0.244252 0,0.244256 0.272843,0 0.272828,0 0,0.244258 0,0.244255 -0.545671,0 -0.545673,0 0,0.244245 0,0.244245 0.545673,0 0.545671,0 0,0.732769 0,0.732756 -0.545671,0 -0.545673,0 0,-0.244255 0,-0.244249 -0.272836,0 -0.272839,0 0,-0.488508 0,-0.488513 -0.27283,0 -0.272831,0 0,0.244255 0,0.244258 -0.272839,0 -0.272832,0 0,-0.244258 0,-0.244255 -0.272832,0 -0.272847,0 0,-0.244245 0,-0.244245 -0.272833,0 -0.272839,0 0,-0.244255 0,-0.244258 0.272839,0 0.272833,0 0,-0.244256 0,-0.244252 0.272847,0 0.272832,0 0,-0.244249 0,-0.244255 -0.272832,0 -0.272847,0 0,-0.244248 0,-0.244257 -0.272833,0 -0.272839,0 0,0.488505 0,0.488504 -0.27283,0 -0.272838,0 0,0.732766 0,0.732745 0.272838,0 0.27283,0 0,0.244255 0,0.244258 -0.545668,0 -0.545667,0 0,0.244256 0,0.244252 1.364174,0 1.364183,0 0,0.244249 0,0.244255 0.272831,0 0.27283,0 0,0.244248 0,0.244257 -0.27283,0 -0.272831,0 0,0.977011 0,0.977011 0.272831,0 0.27283,0 0,0.244264 0,0.244249 0.545675,0 0.545673,0 0,0.244248 0,0.244257 0.272843,0 0.272828,0 0,0.244248 0,0.244256 -0.272828,0 -0.272843,0 0,0.488501 0,0.488513 -0.272834,0 -0.272839,0 0,0.244255 0,0.244245 -0.272836,0 -0.272839,0 0,-0.244245 0,-0.244255 -0.8185,0 -0.818511,0 0,-0.244258 0,-0.244255 -0.545672,0 -0.545668,0 0,0.244255 0,0.244258 -0.272834,0 -0.272833,0 0,0.244255 0,0.244245 -0.272845,0 -0.272832,0 0,-0.244245 0,-0.244255 0.272832,0 0.272845,0 0,-0.244258 0,-0.244255 -0.545677,0 -0.545671,0 0,-0.488501 0,-0.488504 -0.27283,0 -0.272838,0 0,0.244248 0,0.244256 -0.272836,0 -0.27284,0 0,0.244249 0,0.244252 0.27284,0 0.272836,0 0,0.244255 0,0.244258 0.272838,0 0.27283,0 0,0.244255 0,0.244245 -0.27283,0 z m 4.911035,-0.4885 0.272836,0 0,-0.244258 0,-0.244255 -0.272836,0 -0.272838,0 0,-0.244252 0,-0.244249 0.272838,0 0.272836,0 0,-0.244256 0,-0.244248 -0.272836,0 -0.272838,0 0,0.244248 0,0.244256 -0.272831,0 -0.272831,0 0,-0.244256 0,-0.244248 -0.272839,0 -0.272832,0 0,0.244248 0,0.244256 0.272832,0 0.272839,0 0,0.244249 0,0.244252 0.272831,0 0.272831,0 0,0.244255 0,0.244258 0.272838,0 z m -2.728352,-0.977014 0.818502,0 0,-0.244256 0,-0.244248 -0.818502,0 -0.818505,0 0,-0.244257 0,-0.244248 -0.272845,0 -0.272832,0 0,-0.244262 0,-0.244251 -0.545671,0 -0.545668,0 0,-0.24425 0,-0.244256 0.545668,0 0.545671,0 0,-0.244249 0,-0.244256 0.272832,0 0.272845,0 0,-0.24425 0,-0.24425 0.818505,0 0.818502,0 0,-0.244263 0,-0.244248 0.545679,0 0.545671,0 0,-0.244257 0,-0.244248 -0.545671,0 -0.545679,0 0,0.244248 0,0.244257 -0.545671,0 -0.545669,0 0,-0.244257 0,-0.244248 -0.818512,0 -0.818503,0 0,-0.244255 0,-0.244249 0.272831,0 0.27284,0 0,-0.244252 0,-0.244256 -0.27284,0 -0.272831,0 0,-0.244258 0,-0.244255 -1.091344,0 -1.0913327,0 0,0.244255 0,0.244258 -0.2728431,0 -0.2728337,0 0,0.244256 0,0.244252 -0.2728373,0 -0.2728374,0 0,-0.488508 0,-0.488513 0.2728374,0 0.2728373,0 0,-0.244245 0,-0.244245 -0.2728373,0 -0.2728374,0 0,-0.244255 0,-0.244258 -0.2728346,0 -0.2728346,0 0,-0.244256 0,-0.244252 -0.2728337,0 -0.2728392,0 0,0.244252 0,0.244256 0.2728392,0 0.2728337,0 0,0.244258 0,0.244255 -0.2728337,0 -0.2728392,0 0,0.48849 0,0.488513 0.2728392,0 0.2728337,0 0,0.488508 0,0.488504 -0.2728337,0 -0.2728392,0 0,-0.244255 0,-0.244249 -0.2728355,0 -0.2728319,0 0,-0.977021 0,-0.977003 -0.2728383,0 -0.2728337,0 0,-0.244256 0,-0.244252 0.2728337,0 0.2728383,0 0,-0.732752 0,-0.732768 -0.8185093,0 -0.8185066,0 0,0.244263 0,0.244248 -0.2728365,0 -0.2728355,0 0,-0.244248 0,-0.244263 -0.2728355,0 -0.2728356,0 0,0.244263 0,0.244248 -0.2728355,0 -0.2728355,0 0,-0.244248 0,-0.244263 -0.2728356,0 -0.2728373,0 0,0.244263 0,0.244248 0.2728373,0 0.2728356,0 0,0.244257 0,0.244248 -0.2728356,0 -0.2728373,0 0,0.244255 0,0.244249 -0.2728355,0 -0.2728346,0 0,0.488508 0,0.488513 0.5456701,0 0.5456729,0 0,-0.244255 0,-0.244258 0.2728355,0 0.2728355,0 0,0.732758 0,0.732758 -0.2728355,0 -0.2728355,0 0,-0.244258 0,-0.244255 -0.5456729,0 -0.5456701,0 0,0.244255 0,0.244258 0.2728346,0 0.2728355,0 0,0.244256 0,0.244252 0.5456729,0 0.545671,0 0,-0.244252 0,-0.244256 0.8185066,0 0.8185075,0 0,0.244256 0,0.244252 0.5456729,0 0.545672,0 0,0.244249 0,0.244255 -0.2728383,0 -0.2728337,0 0,0.244248 0,0.244257 0.8185039,0 0.8185084,0 0,-0.244257 0,-0.244248 0.5456692,0 0.5456747,0 0,0.244248 0,0.244257 -0.2728373,0 -0.2728374,0 0,0.488498 0,0.488513 0.8185084,0 0.8184991,0 0,0.244256 0,0.244249 0.2728437,0 0.272833,0 0,0.244256 0,0.24425 0.27284,0 0.272836,0 0,0.244251 0,0.244262 0.272838,0 0.27283,0 0,0.244248 0,0.244257 0.545671,0 0.545663,0 0,0.244248 0,0.244256 0.818519,0 z m -2.728357,-1.954028 -0.27284,0 0,-0.244249 0,-0.244256 -0.272833,0 -0.2728437,0 0,-0.24425 0,-0.24425 -0.272828,0 -0.272828,0 0,-0.244263 0,-0.244248 0.272828,0 0.272828,0 0,-0.244257 0,-0.244248 0.2728437,0 0.272833,0 0,-0.244255 0,-0.244249 -0.5456767,0 -0.545656,0 0,-0.244252 0,-0.244256 1.0913327,0 1.091344,0 0,0.244256 0,0.244252 -0.27283,0 -0.272838,0 0,0.732752 0,0.732755 0.272838,0 0.27283,0 0,0.244263 0,0.24425 -0.27283,0 -0.272838,0 0,0.244256 0,0.244249 -0.272836,0 z m 0,-0.488505 0.272836,0 0,-0.24425 0,-0.244263 -0.272836,0 -0.27284,0 0,0.244263 0,0.24425 0.27284,0 z m -5.4567141,-2.931041 -0.2728355,0 0,-0.244245 0,-0.244245 0.2728355,0 0.2728355,0 0,-0.244255 0,-0.244258 -0.545671,0 -0.545672,0 0,-0.244256 0,-0.244252 -0.2728355,0 -0.2728356,0 0,-0.244249 0,-0.244255 0.5456711,0 0.545672,0 0,-0.244248 0,-0.244257 0.545671,0 0.5456729,0 0,0.244257 0,0.244248 -0.5456729,0 -0.545671,0 0,0.244255 0,0.244249 0.2728355,0 0.2728355,0 0,0.244252 0,0.244256 0.2728356,0 0.2728373,0 0,0.244258 0,0.244255 -0.2728373,0 -0.2728356,0 0,0.244245 0,0.244245 -0.2728355,0 z m -2.1826852,-0.977003 -0.2728355,0 0,-0.244256 0,-0.244252 0.2728355,0 0.2728356,0 0,0.244252 0,0.244256 -0.2728356,0 z m 6.5480546,5.373568 0.272828,0 0,-0.244262 0,-0.244251 -0.272828,0 -0.272828,0 0,0.244251 0,0.244262 0.272828,0 z m 4.3653707,0 0.818512,0 0,-0.732763 0,-0.732761 -0.818512,0 -0.818507,0 0,0.732761 0,0.732763 0.818507,0 z m 0,-0.488513 -0.272838,0 0,-0.24425 0,-0.244256 0.272838,0 0.272833,0 0,0.244256 0,0.24425 -0.272833,0 z m -1.637019,-3.908052 0.272845,0 0,-0.244245 0,-0.244245 -0.272845,0 -0.272832,0 0,0.244245 0,0.244245 0.272832,0 z m 3.546864,-0.48849 0.545674,0 0,-0.488513 0,-0.488508 -0.818505,0 -0.818502,0 0,0.244252 0,0.244256 0.272832,0 0.272839,0 0,0.244258 0,0.244255 0.545662,0 z m -3.001186,-0.977021 0.272834,0 0,-0.244249 0,-0.244255 -0.272834,0 -0.272833,0 0,0.244255 0,0.244249 0.272833,0 z m 1.637022,-0.977009 0.272831,0 0,-0.244248 0,-0.244263 -0.272831,0 -0.272848,0 0,0.244263 0,0.244248 0.272848,0 z m -4.9110517,-0.977011 0.272828,0 0,-0.244256 0,-0.244249 0.2728437,0 0.272833,0 0,-0.244255 0,-0.24425 -0.272833,0 -0.2728437,0 0,0.24425 0,0.244255 -0.272828,0 -0.272828,0 0,-0.244255 0,-0.24425 -0.2728431,0 -0.2728337,0 0,0.24425 0,0.244255 0.2728337,0 0.2728431,0 0,0.244249 0,0.244256 0.272828,0 z m -2.1826824,-1.954031 0.2728337,0 0,-0.244245 0,-0.244255 -0.2728337,0 -0.2728392,0 0,0.244255 0,0.244245 0.2728392,0 z m 3.8197011,-0.4885 0.27283,0 0,-0.244251 0,-0.24425 -0.27283,0 -0.272838,0 0,0.24425 0,0.244251 0.272838,0 z m 5.45671,9.281608 -0.272839,0 0,-0.244249 0,-0.244256 -0.272836,0 -0.272838,0 0,-0.24425 0,-0.24425 0.272838,0 0.272836,0 0,0.24425 0,0.24425 0.272839,0 0.272834,0 0,-0.4885 0,-0.488511 0.272843,0 0.272828,0 0,0.488511 0,0.4885 -0.272828,0 -0.272843,0 0,0.244256 0,0.244249 -0.272834,0 z M 3.0397107,31.50862 l -0.2728355,0 0,-0.24425 0,-0.244263 0.2728355,0 0.2728356,0 0,0.244263 0,0.24425 -0.2728356,0 z m 8.1850733,-3.908044 -0.272838,0 0,-0.244256 0,-0.244252 -0.272836,0 -0.27284,0 0,-0.244249 0,-0.244255 0.27284,0 0.272836,0 0,0.244255 0,0.244249 0.272838,0 0.27283,0 0,0.244252 0,0.244256 -0.27283,0 z m -1.6370187,-0.488508 -0.272828,0 0,-0.244249 0,-0.244255 0.272828,0 0.272828,0 0,0.244255 0,0.244249 -0.272828,0 z m -6.0023835,-2.442525 -1.9098496,0 0,-1.709771 0,-1.709771 1.9098496,0 1.9098496,0 0,1.709771 0,1.709771 -1.9098496,0 z m 0,-0.488505 1.3641786,0 0,-1.221266 0,-1.221272 -1.3641786,0 -1.3641785,0 0,1.221272 0,1.221266 1.3641785,0 z m 0,-0.488514 -0.8185084,0 0,-0.732752 0,-0.732756 0.8185084,0 0.8185066,0 0,0.732756 0,0.732752 -0.8185066,0 z m 2.7283562,0.977019 -0.2728337,0 0,-0.488505 0,-0.488514 0.2728337,0 0.2728383,0 0,0.488514 0,0.488505 -0.2728383,0 z m 6.548057,0 -0.272847,0 0,-0.244255 0,-0.24425 0.272847,0 0.272834,0 0,0.24425 0,0.244255 -0.272834,0 z m 2.728355,0 -1.909852,0 0,-1.709771 0,-1.709771 1.909852,0 1.909849,0 0,1.709771 0,1.709771 -1.909849,0 z m 0,-0.488505 1.364178,0 0,-1.221266 0,-1.221272 -1.364178,0 -1.364181,0 0,1.221272 0,1.221266 1.364181,0 z m 0,-0.488514 -0.818502,0 0,-0.732752 0,-0.732756 0.818502,0 0.818505,0 0,0.732756 0,0.732752 -0.818505,0 z m -6.0023847,-0.977007 -0.272828,0 0,-0.244251 0,-0.24425 0.272828,0 0.272828,0 0,0.24425 0,0.244251 -0.272828,0 z"
       id="path2282"
       inkscape:connector-curvature="0" /></g></svg>