<?xml version="1.0" encoding="UTF-8" standalone="no"?>
<!-- Generator: Adobe Illustrator 19.2.1, SVG Export Plug-In . SVG Version: 6.00 Build 0)  -->

<svg
   xmlns:dc="http://purl.org/dc/elements/1.1/"
   xmlns:cc="http://creativecommons.org/ns#"
   xmlns:rdf="http://www.w3.org/1999/02/22-rdf-syntax-ns#"
   xmlns:svg="http://www.w3.org/2000/svg"
   xmlns="http://www.w3.org/2000/svg"
   xmlns:sodipodi="http://sodipodi.sourceforge.net/DTD/sodipodi-0.dtd"
   xmlns:inkscape="http://www.inkscape.org/namespaces/inkscape"
   version="1.1"
   id="Ebene_1"
   x="0px"
   y="0px"
   width="38px"
   height="38px"
   viewBox="0 0 38 38"
   style="enable-background:new 0 0 38 38;"
   xml:space="preserve"
   inkscape:version="0.91 r13725"
   sodipodi:docname="search.svg"><metadata
     id="metadata23"><rdf:RDF><cc:Work
         rdf:about=""><dc:format>image/svg+xml</dc:format><dc:type
           rdf:resource="http://purl.org/dc/dcmitype/StillImage" /><dc:title></dc:title></cc:Work></rdf:RDF></metadata><defs
     id="defs21" /><sodipodi:namedview
     pagecolor="#ffffff"
     bordercolor="#666666"
     borderopacity="1"
     objecttolerance="10"
     gridtolerance="10"
     guidetolerance="10"
     inkscape:pageopacity="0"
     inkscape:pageshadow="2"
     inkscape:window-width="1758"
     inkscape:window-height="872"
     id="namedview19"
     showgrid="false"
     inkscape:zoom="17.566021"
     inkscape:cx="14.355162"
     inkscape:cy="19.378899"
     inkscape:window-x="0"
     inkscape:window-y="0"
     inkscape:window-maximized="0"
     inkscape:current-layer="g9" /><style
     type="text/css"
     id="style3">
	.st0{fill:none;}
	.st1{fill:#3B4654;}
	.st2{fill:none;stroke:#3B4654;stroke-width:3;stroke-linecap:round;stroke-linejoin:round;stroke-miterlimit:10;}
</style><g
     id="g5"><rect
       x="0.1"
       class="st0"
       width="38"
       height="38"
       id="rect7" /><g
       id="g9"><g
         id="g4151"
         transform="matrix(1.4018213,0,0,1.4018213,-16.314545,-15.602759)"><path
           id="path13"
           d="m 33.4,34.6 c 0.7,0.7 1.4,0.4 2,-0.2 0.6,-0.6 0.9,-1.3 0.2,-2 l -4.9,-4.9 -2.2,2.2 4.9,4.9 z"
           class="st1"
           inkscape:connector-curvature="0"
           style="fill:#3b4654" /><path
           id="path15"
           d="m 22.6,14 c -4.1,0 -7.5,3.4 -7.5,7.5 0,4.1 3.4,7.5 7.5,7.5 4.1,0 7.5,-3.4 7.5,-7.5 0,-4.1 -3.4,-7.5 -7.5,-7.5 z m 0,12.8 c -2.9,0 -5.2,-2.4 -5.2,-5.2 0,-2.9 2.4,-5.2 5.2,-5.2 2.8,0 5.2,2.4 5.2,5.2 0.1,2.9 -2.3,5.2 -5.2,5.2 z"
           class="st1"
           inkscape:connector-curvature="0"
           style="fill:#3b4654" /></g></g></g></svg>