<?xml version="1.0" encoding="UTF-8" standalone="no"?>
<!-- Generator: Adobe Illustrator 19.2.1, SVG Export Plug-In . SVG Version: 6.00 Build 0)  -->

<svg
   xmlns:dc="http://purl.org/dc/elements/1.1/"
   xmlns:cc="http://creativecommons.org/ns#"
   xmlns:rdf="http://www.w3.org/1999/02/22-rdf-syntax-ns#"
   xmlns:svg="http://www.w3.org/2000/svg"
   xmlns="http://www.w3.org/2000/svg"
   xmlns:sodipodi="http://sodipodi.sourceforge.net/DTD/sodipodi-0.dtd"
   xmlns:inkscape="http://www.inkscape.org/namespaces/inkscape"
   version="1.1"
   id="Ebene_1"
   x="0px"
   y="0px"
   width="17"
   height="17"
   viewBox="0 0 17 17"
   xml:space="preserve"
   inkscape:version="0.91 r13725"
   sodipodi:docname="smallDelete.svg"><metadata
     id="metadata3355"><rdf:RDF><cc:Work
         rdf:about=""><dc:format>image/svg+xml</dc:format><dc:type
           rdf:resource="http://purl.org/dc/dcmitype/StillImage" /><dc:title></dc:title></cc:Work></rdf:RDF></metadata><defs
     id="defs3353"><marker
       inkscape:stockid="TriangleOutL"
       orient="auto"
       refY="0"
       refX="0"
       id="TriangleOutL"
       style="overflow:visible"
       inkscape:isstock="true"><path
         id="path4296"
         d="m 5.77,0 -8.65,5 0,-10 8.65,5 z"
         style="fill:#3b4654;fill-opacity:1;fill-rule:evenodd;stroke:#3b4654;stroke-width:1pt;stroke-opacity:1"
         transform="scale(0.8,0.8)"
         inkscape:connector-curvature="0" /></marker><marker
       inkscape:isstock="true"
       style="overflow:visible"
       id="marker10895"
       refX="0"
       refY="0"
       orient="auto"
       inkscape:stockid="Arrow2Lstart"><path
         transform="matrix(1.1,0,0,1.1,1.1,0)"
         d="M 8.7185878,4.0337352 -2.2072895,0.01601326 8.7185884,-4.0017078 c -1.7454984,2.3720609 -1.7354408,5.6174519 -6e-7,8.035443 z"
         style="fill:#3b4654;fill-opacity:1;fill-rule:evenodd;stroke:#3b4654;stroke-width:0.625;stroke-linejoin:round;stroke-opacity:1"
         id="path10897"
         inkscape:connector-curvature="0" /></marker><marker
       inkscape:stockid="Arrow2Lend"
       orient="auto"
       refY="0"
       refX="0"
       id="marker4424"
       style="overflow:visible"
       inkscape:isstock="true"><path
         id="path4426"
         style="fill:#3b4654;fill-opacity:1;fill-rule:evenodd;stroke:#3b4654;stroke-width:0.625;stroke-linejoin:round;stroke-opacity:1"
         d="M 8.7185878,4.0337352 -2.2072895,0.01601326 8.7185884,-4.0017078 c -1.7454984,2.3720609 -1.7354408,5.6174519 -6e-7,8.035443 z"
         transform="matrix(-1.1,0,0,-1.1,-1.1,0)"
         inkscape:connector-curvature="0" /></marker><marker
       inkscape:stockid="Arrow1Lstart"
       orient="auto"
       refY="0"
       refX="0"
       id="Arrow1Lstart"
       style="overflow:visible"
       inkscape:isstock="true"><path
         id="path4154"
         d="M 0,0 5,-5 -12.5,0 5,5 0,0 Z"
         style="fill-rule:evenodd;stroke:#000000;stroke-width:1pt"
         transform="matrix(0.8,0,0,0.8,10,0)"
         inkscape:connector-curvature="0" /></marker><marker
       inkscape:stockid="Arrow2Lend"
       orient="auto"
       refY="0"
       refX="0"
       id="marker4416"
       style="overflow:visible"
       inkscape:isstock="true"><path
         id="path4418"
         style="fill-rule:evenodd;stroke-width:0.625;stroke-linejoin:round"
         d="M 8.7185878,4.0337352 -2.2072895,0.01601326 8.7185884,-4.0017078 c -1.7454984,2.3720609 -1.7354408,5.6174519 -6e-7,8.035443 z"
         transform="matrix(-1.1,0,0,-1.1,-1.1,0)"
         inkscape:connector-curvature="0" /></marker><marker
       inkscape:stockid="Arrow2Lend"
       orient="auto"
       refY="0"
       refX="0"
       id="marker4412"
       style="overflow:visible"
       inkscape:isstock="true"><path
         id="path4414"
         style="fill-rule:evenodd;stroke-width:0.625;stroke-linejoin:round"
         d="M 8.7185878,4.0337352 -2.2072895,0.01601326 8.7185884,-4.0017078 c -1.7454984,2.3720609 -1.7354408,5.6174519 -6e-7,8.035443 z"
         transform="matrix(-1.1,0,0,-1.1,-1.1,0)"
         inkscape:connector-curvature="0" /></marker><marker
       inkscape:stockid="Arrow2Lend"
       orient="auto"
       refY="0"
       refX="0"
       id="Arrow2Lend"
       style="overflow:visible"
       inkscape:isstock="true"><path
         id="path4175"
         style="fill:#3b4654;fill-opacity:1;fill-rule:evenodd;stroke:#3b4654;stroke-width:0.625;stroke-linejoin:round;stroke-opacity:1"
         d="M 8.7185878,4.0337352 -2.2072895,0.01601326 8.7185884,-4.0017078 c -1.7454984,2.3720609 -1.7354408,5.6174519 -6e-7,8.035443 z"
         transform="matrix(-1.1,0,0,-1.1,-1.1,0)"
         inkscape:connector-curvature="0" /></marker><marker
       inkscape:stockid="Arrow2Lend"
       orient="auto"
       refY="0"
       refX="0"
       id="marker4424-5"
       style="overflow:visible"
       inkscape:isstock="true"><path
         inkscape:connector-curvature="0"
         id="path4426-1"
         style="fill:#3b4654;fill-opacity:1;fill-rule:evenodd;stroke:#3b4654;stroke-width:0.625;stroke-linejoin:round;stroke-opacity:1"
         d="M 8.7185878,4.0337352 -2.2072895,0.01601326 8.7185884,-4.0017078 c -1.7454984,2.3720609 -1.7354408,5.6174519 -6e-7,8.035443 z"
         transform="matrix(-1.1,0,0,-1.1,-1.1,0)" /></marker></defs><sodipodi:namedview
     pagecolor="#ffffff"
     bordercolor="#666666"
     borderopacity="1"
     objecttolerance="10"
     gridtolerance="10"
     guidetolerance="10"
     inkscape:pageopacity="0"
     inkscape:pageshadow="2"
     inkscape:window-width="1441"
     inkscape:window-height="771"
     id="namedview3351"
     showgrid="false"
     inkscape:zoom="6.3732651"
     inkscape:cx="-15.044524"
     inkscape:cy="22.021512"
     inkscape:current-layer="Ebene_1"
     inkscape:snap-nodes="true"
     inkscape:window-x="2014"
     inkscape:window-y="205"
     inkscape:window-maximized="0" /><style
     type="text/css"
     id="style3337">
	.st0{fill:none;}
	.st1{fill:#3B4654;}
	.st2{fill:none;stroke:#3B4654;stroke-width:2;stroke-linecap:round;stroke-linejoin:round;stroke-miterlimit:10;}
	.st3{fill:none;stroke:#3B4654;stroke-width:3;stroke-linecap:round;stroke-linejoin:round;stroke-miterlimit:10;}
</style><rect
     style="fill:none"
     y="-21"
     x="0"
     id="rect3341"
     height="38"
     width="38"
     class="st0" /><g
     id="g16125"
     transform="matrix(0.5,0,0,0.5,-0.9519198,-0.16521435)"><rect
       x="13.400001"
       y="-29"
       transform="matrix(0,1,-1,0,0,0)"
       class="st1"
       width="17.6"
       height="20"
       id="rect3345"
       style="fill:#3b4654" /><rect
       style="fill:#3b4654"
       id="rect16121"
       height="20"
       width="3.0000002"
       class="st1"
       transform="matrix(0,1,-1,0,0,0)"
       y="-29"
       x="4.8000002" /><rect
       x="7.4000001"
       y="-33"
       transform="matrix(0,1,-1,0,0,0)"
       class="st1"
       width="3"
       height="28"
       id="rect16123"
       style="fill:#3b4654" /></g></svg>