<?xml version="1.0" encoding="UTF-8" standalone="no"?>
<!-- Generator: Adobe Illustrator 19.2.1, SVG Export Plug-In . SVG Version: 6.00 Build 0)  -->

<svg
   xmlns:dc="http://purl.org/dc/elements/1.1/"
   xmlns:cc="http://creativecommons.org/ns#"
   xmlns:rdf="http://www.w3.org/1999/02/22-rdf-syntax-ns#"
   xmlns:svg="http://www.w3.org/2000/svg"
   xmlns="http://www.w3.org/2000/svg"
   xmlns:sodipodi="http://sodipodi.sourceforge.net/DTD/sodipodi-0.dtd"
   xmlns:inkscape="http://www.inkscape.org/namespaces/inkscape"
   version="1.1"
   id="Ebene_1"
   x="0px"
   y="0px"
   width="38px"
   height="38px"
   viewBox="0 0 38 38"
   style="enable-background:new 0 0 38 38;"
   xml:space="preserve"
   inkscape:version="0.91 r13725"
   sodipodi:docname="duerr_ico_historicalTrending_34_Synchronize_38.svg"><metadata
   id="metadata21370"><rdf:RDF><cc:Work
       rdf:about=""><dc:format>image/svg+xml</dc:format><dc:type
         rdf:resource="http://purl.org/dc/dcmitype/StillImage" /><dc:title></dc:title></cc:Work></rdf:RDF></metadata><defs
   id="defs21368">
	
	
	
</defs><sodipodi:namedview
   pagecolor="#ffffff"
   bordercolor="#666666"
   borderopacity="1"
   objecttolerance="10"
   gridtolerance="10"
   guidetolerance="10"
   inkscape:pageopacity="0"
   inkscape:pageshadow="2"
   inkscape:window-width="640"
   inkscape:window-height="480"
   id="namedview21366"
   showgrid="false"
   inkscape:zoom="11.313709"
   inkscape:cx="5.9973767"
   inkscape:cy="21.904302"
   inkscape:current-layer="Ebene_1" />
<style
   type="text/css"
   id="style21356">
	.st0{fill:none;}
	.st1{fill:#3B4654;}
</style>
<rect
   style="fill:none"
   y="0"
   x="0"
   id="rect21360"
   height="38"
   width="38"
   class="st0" /><path
   style="fill:#3b4654"
   inkscape:connector-curvature="0"
   id="path21364"
   d="M 8.4999992,0.9999999 C 4.3214279,0.9999999 1,4.3214279 1,8.4999999 1,12.678572 4.3214279,16 8.4999992,16 c 4.1785728,0 7.5000018,-3.321428 7.5000018,-7.5000001 0,-4.178572 -3.321429,-7.5 -7.5000018,-7.5 z m 3.4285728,8.571428 -3.4285728,0 -0.857142,0 -0.214286,0 0,-5.357142 1.071428,0 0,4.285714 3.4285728,0 0,1.071428 z"
   class="st1" />
<path
   style="fill:#3b4654"
   inkscape:connector-curvature="0"
   id="path21364-4"
   d="m 27.2,17.599999 c -5.404287,0 -9.7,4.295714 -9.7,9.700001 0,5.404287 4.295713,9.7 9.7,9.7 5.404287,0 9.7,-4.295713 9.7,-9.7 0,-5.404287 -4.295713,-9.700001 -9.7,-9.700001 z m 4.434287,11.085714 -4.434287,0 -1.108573,0 -0.277141,0 0,-6.928573 1.385714,0 0,5.54286 4.434287,0 0,1.385713 z"
   class="st1" /><g
   transform="matrix(0.89343417,0,0,0.89343417,-0.2483543,-1.0416835)"
   id="g5845"><path
     inkscape:connector-curvature="0"
     id="path5280"
     d="m 18.808594,5.0722656 c -0.545313,0.00938 -1.084375,0.051953 -1.609375,0.1269532 l 1.601562,3.5 c 1.2,0 2.499219,0.2011718 3.699219,0.7011718 C 25.1,10.500391 27.000781,12.6 27.800781,15 l 3.798828,0 c -1,-3.9 -3.698828,-7.4 -7.798828,-9 -1.65,-0.675 -3.35625,-0.9558594 -4.992187,-0.9277344 z"
     style="fill:#3b4654" /><polygon
     class="st1"
     points="24,14 35.4,14 29.9,20 "
     id="polygon5282"
     style="fill:#3b4654" /></g></svg>