<?xml version="1.0" encoding="UTF-8" standalone="no"?>
<!-- Generator: Adobe Illustrator 19.2.1, SVG Export Plug-In . SVG Version: 6.00 Build 0)  -->

<svg
   xmlns:dc="http://purl.org/dc/elements/1.1/"
   xmlns:cc="http://creativecommons.org/ns#"
   xmlns:rdf="http://www.w3.org/1999/02/22-rdf-syntax-ns#"
   xmlns:svg="http://www.w3.org/2000/svg"
   xmlns="http://www.w3.org/2000/svg"
   xmlns:sodipodi="http://sodipodi.sourceforge.net/DTD/sodipodi-0.dtd"
   xmlns:inkscape="http://www.inkscape.org/namespaces/inkscape"
   version="1.1"
   id="Ebene_1"
   x="0px"
   y="0px"
   width="38px"
   height="38px"
   viewBox="0 0 38 38"
   style="enable-background:new 0 0 38 38;"
   xml:space="preserve"
   inkscape:version="0.91 r13725"
   sodipodi:docname="duerr_ico_historicalTrending_31_Realtime_38.svg"><metadata
   id="metadata18816"><rdf:RDF><cc:Work
       rdf:about=""><dc:format>image/svg+xml</dc:format><dc:type
         rdf:resource="http://purl.org/dc/dcmitype/StillImage" /><dc:title></dc:title></cc:Work></rdf:RDF></metadata><defs
   id="defs18814">
	
	
	
	
	
<marker
   inkscape:stockid="Arrow2Lend"
   orient="auto"
   refY="0"
   refX="0"
   id="Arrow2Lend"
   style="overflow:visible"
   inkscape:isstock="true"><path
     inkscape:connector-curvature="0"
     id="path4175"
     style="fill:#3b4654;fill-opacity:1;fill-rule:evenodd;stroke:#3b4654;stroke-width:0.625;stroke-linejoin:round;stroke-opacity:1"
     d="M 8.7185878,4.0337352 -2.2072895,0.01601326 8.7185884,-4.0017078 c -1.7454984,2.3720609 -1.7354408,5.6174519 -6e-7,8.035443 z"
     transform="matrix(-1.1,0,0,-1.1,-1.1,0)" /></marker></defs><sodipodi:namedview
   pagecolor="#ffffff"
   bordercolor="#666666"
   borderopacity="1"
   objecttolerance="10"
   gridtolerance="10"
   guidetolerance="10"
   inkscape:pageopacity="0"
   inkscape:pageshadow="2"
   inkscape:window-width="640"
   inkscape:window-height="480"
   id="namedview18812"
   showgrid="false"
   inkscape:zoom="12"
   inkscape:cx="19"
   inkscape:cy="19"
   inkscape:current-layer="Ebene_1" />
<style
   type="text/css"
   id="style18798">
	.st0{fill:none;}
	.st1{fill:#3B4654;}
</style>
<rect
   style="fill:none"
   y="0"
   x="0"
   id="rect18802"
   height="38"
   width="38"
   class="st0" />
<path
   style="opacity:1;fill:#3b4654;fill-opacity:1;fill-rule:evenodd;stroke:#3b4654;stroke-width:0.09341112;stroke-miterlimit:4;stroke-dasharray:none;stroke-opacity:1"
   d="M 18.5 7.046875 A 12.453294 12.453295 0 0 0 6.046875 19.5 A 12.453294 12.453295 0 0 0 18.5 31.953125 A 12.453294 12.453295 0 0 0 30.953125 19.5 A 12.453294 12.453295 0 0 0 18.5 7.046875 z M 18.5 9.0390625 A 10.460768 10.460768 0 0 1 28.960938 19.5 A 10.460768 10.460768 0 0 1 18.5 29.960938 A 10.460768 10.460768 0 0 1 8.0390625 19.5 A 10.460768 10.460768 0 0 1 18.5 9.0390625 z "
   id="path18838" /><g
   id="g11635"
   transform="matrix(0,1,-1,0,32.540146,7.1285065)"><rect
     x="11.019282"
     y="9.0802917"
     class="st1"
     width="3"
     height="13.459854"
     id="rect3343-5"
     style="fill:#3b4654" /><path
     inkscape:connector-curvature="0"
     id="path4422"
     d="m 12.537227,22 c 0,-0.08101 -0.01152,-0.163107 0,-0.243008 0.0064,-0.04466 0.03504,-0.08101 0.05256,-0.121503 0.01752,-0.06076 0.04473,-0.118861 0.05256,-0.182256 0.02231,-0.180424 -0.01569,-0.365415 0,-0.546767 0.0089,-0.102746 0.03504,-0.202507 0.05256,-0.30376 0.01752,-0.283509 0.03893,-0.566733 0.05256,-0.850526 0.0087,-0.181976 0,-0.364512 0,-0.546769 0,-0.101256 -0.01087,-0.203287 0,-0.303759 0.0068,-0.06354 0.04346,-0.119089 0.05256,-0.182255 0.0086,-0.05993 0,-0.121504 0,-0.182256 0,-0.162005 0.0046,-0.3241 0,-0.486016 -0.01286,-0.445727 -0.04051,-0.890786 -0.05256,-1.336542 -0.05663,-2.094151 0.08727,1.188461 -0.05256,-1.397294 -0.0055,-0.101059 0,-0.202507 0,-0.30376 0,-0.182256 0,-0.364511 0,-0.546768 0,-0.06075 0,-0.121504 0,-0.182255 0,-0.0405 0.0058,-0.08156 0,-0.121504 -0.01187,-0.08236 -0.04069,-0.160648 -0.05256,-0.243008 -0.01095,-0.07598 0,-0.356524 0,-0.425263 0,-0.202507 0,-0.405013 0,-0.60752 0,-0.04195 0.008,-0.224536 0,-0.243007 -0.01108,-0.02562 -0.04473,-0.03359 -0.05256,-0.06075 -0.01862,-0.06456 0.01862,-0.178452 0,-0.243008 -0.01239,-0.04296 -0.04018,-0.07854 -0.05256,-0.121503 -0.0097,-0.0335 0.01124,-0.230019 0,-0.243008 -0.01239,-0.01432 -0.04018,0.01431 -0.05256,0 -0.01075,-0.01242 0.01042,-0.158168 0,-0.182256 -0.01108,-0.02562 -0.04149,-0.03513 -0.05257,-0.06075 -0.01679,-0.03882 0.0141,-0.194109 0,-0.243008 -0.01239,-0.04296 -0.04018,-0.07854 -0.05256,-0.121504 -0.0055,-0.01921 0,-0.0405 0,-0.06075 0,-0.0405 0,-0.08101 0,-0.121504 0,-0.101256 0,-0.202507 0,-0.303759 0,-0.04195 0.008,-0.224538 0,-0.243008 -0.01108,-0.02562 -0.04148,-0.03514 -0.05256,-0.06076 -0.0079,-0.01811 0,-0.0405 0,-0.06075 0,-0.02025 0,-0.0405 0,-0.06075 0,-0.101256 0,-0.202506 0,-0.30376 0,-0.0405 0.01108,-0.08308 0,-0.121504 -0.01239,-0.04296 -0.04018,-0.07854 -0.05256,-0.121504 -0.01021,-0.03537 0,-0.322709 0,-0.36451 0,-0.101256 0,-0.202507 0,-0.303761 0,-0.0405 0,-0.08101 0,-0.121504 0,-0.02025 -0.0079,-0.04264 0,-0.06075 0.01108,-0.02562 0.04148,-0.03513 0.05256,-0.06075 0.02103,-0.0486 -0.02103,-0.133654 0,-0.182256 0.01108,-0.02561 0.04148,-0.03513 0.05256,-0.06075 0.01567,-0.03623 -0.01108,-0.08308 0,-0.121504 0.01239,-0.04296 0.04018,-0.07854 0.05256,-0.121504 0.0056,-0.01921 -0.0055,-0.04154 0,-0.06075 0.01239,-0.04296 0.04307,-0.07758 0.05257,-0.121504 0.01158,-0.05354 -0.01555,-0.328571 0,-0.364513 0.01108,-0.02562 0.04148,-0.03513 0.05256,-0.06075 0.008,-0.01849 0,-0.154895 0,-0.182255 0,-0.121504 0,-0.243008 0,-0.3645119 0,-0.283508 0,-0.567017 0,-0.850527"
     style="fill:#3b4654;fill-opacity:1;fill-rule:evenodd;stroke:#3b4654;stroke-width:1.01868582px;stroke-linecap:butt;stroke-linejoin:miter;stroke-opacity:1;marker-end:url(#Arrow2Lend)" /></g></svg>