<?xml version="1.0" encoding="UTF-8" standalone="no"?>
<!-- Generator: Adobe Illustrator 19.2.1, SVG Export Plug-In . SVG Version: 6.00 Build 0)  -->

<svg
   xmlns:dc="http://purl.org/dc/elements/1.1/"
   xmlns:cc="http://creativecommons.org/ns#"
   xmlns:rdf="http://www.w3.org/1999/02/22-rdf-syntax-ns#"
   xmlns:svg="http://www.w3.org/2000/svg"
   xmlns="http://www.w3.org/2000/svg"
   xmlns:sodipodi="http://sodipodi.sourceforge.net/DTD/sodipodi-0.dtd"
   xmlns:inkscape="http://www.inkscape.org/namespaces/inkscape"
   version="1.1"
   id="Ebene_1"
   x="0px"
   y="0px"
   width="38px"
   height="38px"
   viewBox="0 0 38 38"
   style="enable-background:new 0 0 38 38;"
   xml:space="preserve"
   inkscape:version="0.91 r13725"
   sodipodi:docname="duerr_ico_historicalTrending_24_Printer_38.svg"><metadata
   id="metadata3355"><rdf:RDF><cc:Work
       rdf:about=""><dc:format>image/svg+xml</dc:format><dc:type
         rdf:resource="http://purl.org/dc/dcmitype/StillImage" /><dc:title></dc:title></cc:Work></rdf:RDF></metadata><defs
   id="defs3353"><marker
   inkscape:stockid="TriangleOutL"
   orient="auto"
   refY="0.0"
   refX="0.0"
   id="TriangleOutL"
   style="overflow:visible"
   inkscape:isstock="true"><path
     id="path4296"
     d="M 5.77,0.0 L -2.88,5.0 L -2.88,-5.0 L 5.77,0.0 z "
     style="fill-rule:evenodd;stroke:#3b4654;stroke-width:1pt;stroke-opacity:1;fill:#3b4654;fill-opacity:1"
     transform="scale(0.8)" /></marker><marker
   inkscape:isstock="true"
   style="overflow:visible"
   id="marker10895"
   refX="0.0"
   refY="0.0"
   orient="auto"
   inkscape:stockid="Arrow2Lstart"><path
     transform="scale(1.1) translate(1,0)"
     d="M 8.7185878,4.0337352 L -2.2072895,0.016013256 L 8.7185884,-4.0017078 C 6.9730900,-1.6296469 6.9831476,1.6157441 8.7185878,4.0337352 z "
     style="fill-rule:evenodd;stroke-width:0.625;stroke-linejoin:round;stroke:#3b4654;stroke-opacity:1;fill:#3b4654;fill-opacity:1"
     id="path10897" /></marker><marker
   inkscape:stockid="Arrow2Lend"
   orient="auto"
   refY="0.0"
   refX="0.0"
   id="marker4424"
   style="overflow:visible;"
   inkscape:isstock="true"><path
     id="path4426"
     style="fill-rule:evenodd;stroke-width:0.625;stroke-linejoin:round;stroke:#3b4654;stroke-opacity:1;fill:#3b4654;fill-opacity:1"
     d="M 8.7185878,4.0337352 L -2.2072895,0.016013256 L 8.7185884,-4.0017078 C 6.9730900,-1.6296469 6.9831476,1.6157441 8.7185878,4.0337352 z "
     transform="scale(1.1) rotate(180) translate(1,0)" /></marker><marker
   inkscape:stockid="Arrow1Lstart"
   orient="auto"
   refY="0.0"
   refX="0.0"
   id="Arrow1Lstart"
   style="overflow:visible"
   inkscape:isstock="true"><path
     id="path4154"
     d="M 0.0,0.0 L 5.0,-5.0 L -12.5,0.0 L 5.0,5.0 L 0.0,0.0 z "
     style="fill-rule:evenodd;stroke:#000000;stroke-width:1.0pt"
     transform="scale(0.8) translate(12.5,0)" /></marker><marker
   inkscape:stockid="Arrow2Lend"
   orient="auto"
   refY="0.0"
   refX="0.0"
   id="marker4416"
   style="overflow:visible;"
   inkscape:isstock="true"><path
     id="path4418"
     style="fill-rule:evenodd;stroke-width:0.62500000;stroke-linejoin:round;"
     d="M 8.7185878,4.0337352 L -2.2072895,0.016013256 L 8.7185884,-4.0017078 C 6.9730900,-1.6296469 6.9831476,1.6157441 8.7185878,4.0337352 z "
     transform="scale(1.1) rotate(180) translate(1,0)" /></marker><marker
   inkscape:stockid="Arrow2Lend"
   orient="auto"
   refY="0.0"
   refX="0.0"
   id="marker4412"
   style="overflow:visible;"
   inkscape:isstock="true"><path
     id="path4414"
     style="fill-rule:evenodd;stroke-width:0.62500000;stroke-linejoin:round;"
     d="M 8.7185878,4.0337352 L -2.2072895,0.016013256 L 8.7185884,-4.0017078 C 6.9730900,-1.6296469 6.9831476,1.6157441 8.7185878,4.0337352 z "
     transform="scale(1.1) rotate(180) translate(1,0)" /></marker><marker
   inkscape:stockid="Arrow2Lend"
   orient="auto"
   refY="0.0"
   refX="0.0"
   id="Arrow2Lend"
   style="overflow:visible;"
   inkscape:isstock="true"><path
     id="path4175"
     style="fill-rule:evenodd;stroke-width:0.625;stroke-linejoin:round;stroke:#3b4654;stroke-opacity:1;fill:#3b4654;fill-opacity:1"
     d="M 8.7185878,4.0337352 L -2.2072895,0.016013256 L 8.7185884,-4.0017078 C 6.9730900,-1.6296469 6.9831476,1.6157441 8.7185878,4.0337352 z "
     transform="scale(1.1) rotate(180) translate(1,0)" /></marker>
	
	
	
	
	
<marker
   inkscape:stockid="Arrow2Lend"
   orient="auto"
   refY="0"
   refX="0"
   id="marker4424-5"
   style="overflow:visible"
   inkscape:isstock="true"><path
     inkscape:connector-curvature="0"
     id="path4426-1"
     style="fill:#3b4654;fill-opacity:1;fill-rule:evenodd;stroke:#3b4654;stroke-width:0.625;stroke-linejoin:round;stroke-opacity:1"
     d="M 8.7185878,4.0337352 -2.2072895,0.01601326 8.7185884,-4.0017078 c -1.7454984,2.3720609 -1.7354408,5.6174519 -6e-7,8.035443 z"
     transform="matrix(-1.1,0,0,-1.1,-1.1,0)" /></marker></defs><sodipodi:namedview
   pagecolor="#ffffff"
   bordercolor="#666666"
   borderopacity="1"
   objecttolerance="10"
   gridtolerance="10"
   guidetolerance="10"
   inkscape:pageopacity="0"
   inkscape:pageshadow="2"
   inkscape:window-width="640"
   inkscape:window-height="480"
   id="namedview3351"
   showgrid="false"
   inkscape:zoom="18.026316"
   inkscape:cx="21.122181"
   inkscape:cy="18.909101"
   inkscape:current-layer="Ebene_1"
   inkscape:snap-nodes="true" />
<style
   type="text/css"
   id="style3337">
	.st0{fill:none;}
	.st1{fill:#3B4654;}
	.st2{fill:none;stroke:#3B4654;stroke-width:2;stroke-linecap:round;stroke-linejoin:round;stroke-miterlimit:10;}
	.st3{fill:none;stroke:#3B4654;stroke-width:3;stroke-linecap:round;stroke-linejoin:round;stroke-miterlimit:10;}
</style>
<rect
   style="fill:none"
   y="0"
   x="0"
   id="rect3341"
   height="38"
   width="38"
   class="st0" />
<g
   id="g16229"
   transform="translate(0,-2)"><path
     id="rect3345"
     d="m 7.5,13.400391 c -1.385,0 -2.5,1.115 -2.5,2.5 L 5,28.5 C 5,29.885 6.115,31 7.5,31 l 3.455078,0 0,-2 L 8.75,29 C 7.7805,29 7,28.2195 7,27.25 L 7,17.150391 c 0,-0.9695 0.7805,-1.75 1.75,-1.75 l 20.5,0 c 0.9695,0 1.75,0.7805 1.75,1.75 L 31,27.25 C 31,28.2195 30.2195,29 29.25,29 l -2.205078,0 0,2 L 30.5,31 c 1.385,0 2.5,-1.115 2.5,-2.5 l 0,-12.599609 c 0,-1.385 -1.115,-2.5 -2.5,-2.5 l -23,0 z"
     style="fill:#3b4654"
     inkscape:connector-curvature="0" /><path
     id="rect16121"
     d="M 9,22.238281 9,36.5 l 20,0 0,-14.261719 -20,0 z m 2,2 16,0 0,10.261719 -16,0 0,-10.261719 z"
     style="fill:#3b4654"
     inkscape:connector-curvature="0" /><path
     id="rect16185"
     d="m 9,6.2382812 0,7.1562498 2,0 0,-5.1562498 16,0 0,5.1562498 2,0 0,-7.1562498 -20,0 z M 11,18.5 l 0,1.003906 16,0 0,-1.003906 -16,0 z"
     style="fill:#3b4654"
     inkscape:connector-curvature="0" /></g></svg>