<?xml version="1.0" encoding="UTF-8" standalone="no"?>
<!-- Generator: Adobe Illustrator 19.0.0, SVG Export Plug-In . SVG Version: 6.00 Build 0)  -->

<svg
   xmlns:dc="http://purl.org/dc/elements/1.1/"
   xmlns:cc="http://creativecommons.org/ns#"
   xmlns:rdf="http://www.w3.org/1999/02/22-rdf-syntax-ns#"
   xmlns:svg="http://www.w3.org/2000/svg"
   xmlns="http://www.w3.org/2000/svg"
   xmlns:sodipodi="http://sodipodi.sourceforge.net/DTD/sodipodi-0.dtd"
   xmlns:inkscape="http://www.inkscape.org/namespaces/inkscape"
   version="1.1"
   id="Layer_1"
   x="0px"
   y="0px"
   viewBox="0 0 14.375 14.375"
   xml:space="preserve"
   width="20"
   height="20"
   inkscape:version="0.91 r13725"
   sodipodi:docname="clock.svg"><metadata
     id="metadata61"><rdf:RDF><cc:Work
         rdf:about=""><dc:format>image/svg+xml</dc:format><dc:type
           rdf:resource="http://purl.org/dc/dcmitype/StillImage" /><dc:title></dc:title></cc:Work></rdf:RDF></metadata><defs
     id="defs59" /><sodipodi:namedview
     pagecolor="#ffffff"
     bordercolor="#666666"
     borderopacity="1"
     objecttolerance="10"
     gridtolerance="10"
     guidetolerance="10"
     inkscape:pageopacity="0"
     inkscape:pageshadow="2"
     inkscape:window-width="1680"
     inkscape:window-height="988"
     id="namedview57"
     showgrid="false"
     inkscape:zoom="2.6074563"
     inkscape:cx="63.759048"
     inkscape:cy="-59.432152"
     inkscape:window-x="1358"
     inkscape:window-y="-8"
     inkscape:window-maximized="1"
     inkscape:current-layer="Layer_1" /><g
     id="g3"
     transform="matrix(0.0390625,0,0,0.0390625,0,1.1267755e-5)"><g
       id="g5"><g
         id="g7"><path
           d="m 184,60 c 4.4,0 8,-3.6 8,-8 l 0,-4 c 0,-4.4 -3.6,-8 -8,-8 -4.4,0 -8,3.6 -8,8 l 0,4 c 0,4.4 3.6,8 8,8 z"
           id="path9"
           inkscape:connector-curvature="0"
           style="fill:#3b4654" /><path
           d="m 184,308 c -4.4,0 -8,3.6 -8,8 l 0,4 c 0,4.4 3.6,8 8,8 4.4,0 8,-3.6 8,-8 l 0,-4 c 0,-4.4 -3.6,-8 -8,-8 z"
           id="path11"
           inkscape:connector-curvature="0"
           style="fill:#3b4654" /><path
           d="m 52,176 -4,0 c -4.4,0 -8,3.6 -8,8 0,4.4 3.6,8 8,8 l 4,0 c 4.4,0 8,-3.6 8,-8 0,-4.4 -3.6,-8 -8,-8 z"
           id="path13"
           inkscape:connector-curvature="0"
           style="fill:#3b4654" /><path
           d="m 320,176 -4,0 c -4.4,0 -8,3.6 -8,8 0,4.4 3.6,8 8,8 l 4,0 c 4.4,0 8,-3.6 8,-8 0,-4.4 -3.6,-8 -8,-8 z"
           id="path15"
           inkscape:connector-curvature="0"
           style="fill:#3b4654" /><path
           d="m 93.6,82.4 c -3.2,-3.2 -8,-3.2 -11.2,0 -3.2,3.2 -3.2,8 0,11.2 l 2.8,2.8 c 1.6,1.6 3.6,2.4 5.6,2.4 2,0 4,-0.8 5.6,-2.4 3.2,-3.2 3.2,-8 0,-11.2 l -2.8,-2.8 z"
           id="path17"
           inkscape:connector-curvature="0"
           style="fill:#3b4654" /><path
           d="m 85.2,271.6 -2.8,2.8 c -3.2,3.2 -3.2,8 0,11.2 1.6,1.6 3.6,2.4 5.6,2.4 2,0 4,-0.8 5.6,-2.4 l 2.8,-2.8 c 3.2,-3.2 3.2,-8 0,-11.2 -3.2,-3.2 -8,-3.2 -11.2,0 z"
           id="path19"
           inkscape:connector-curvature="0"
           style="fill:#3b4654" /><path
           d="m 274.4,82.4 -2.8,2.8 c -3.2,3.2 -3.2,8 0,11.2 1.6,1.6 3.6,2.4 5.6,2.4 2,0 4,-0.8 5.6,-2.4 l 2.8,-2.8 c 3.2,-3.2 3.2,-8 0,-11.2 -3.2,-3.2 -8,-3.2 -11.2,0 z"
           id="path21"
           inkscape:connector-curvature="0"
           style="fill:#3b4654" /><path
           d="m 192,180.8 0,-72.8 c 0,-4.4 -3.6,-8 -8,-8 -4.4,0 -8,3.6 -8,8 l 0,76 c 0,2 0.8,4 2.4,5.6 l 87.6,87.6 c 1.6,1.6 3.6,2.4 5.6,2.4 2,0 4,-0.8 5.6,-2.4 3.2,-3.2 3.2,-8 0,-11.2 L 192,180.8 Z"
           id="path23"
           inkscape:connector-curvature="0"
           style="fill:#3b4654" /><path
           d="M 184,0 C 82.4,0 0,82.4 0,184 0,285.6 82.4,368 184,368 285.6,368 368,285.6 368,184 368,82.4 285.6,0 184,0 Z m 0,352 C 91.2,352 16,276.8 16,184 16,91.2 91.2,16 184,16 c 92.8,0 168,75.2 168,168 0,92.8 -75.2,168 -168,168 z"
           id="path25"
           inkscape:connector-curvature="0"
           style="fill:#3b4654" /></g></g></g><g
     id="g27"
     transform="translate(0,-353.62499)" /><g
     id="g29"
     transform="translate(0,-353.62499)" /><g
     id="g31"
     transform="translate(0,-353.62499)" /><g
     id="g33"
     transform="translate(0,-353.62499)" /><g
     id="g35"
     transform="translate(0,-353.62499)" /><g
     id="g37"
     transform="translate(0,-353.62499)" /><g
     id="g39"
     transform="translate(0,-353.62499)" /><g
     id="g41"
     transform="translate(0,-353.62499)" /><g
     id="g43"
     transform="translate(0,-353.62499)" /><g
     id="g45"
     transform="translate(0,-353.62499)" /><g
     id="g47"
     transform="translate(0,-353.62499)" /><g
     id="g49"
     transform="translate(0,-353.62499)" /><g
     id="g51"
     transform="translate(0,-353.62499)" /><g
     id="g53"
     transform="translate(0,-353.62499)" /><g
     id="g55"
     transform="translate(0,-353.62499)" /></svg>