<?xml version="1.0" encoding="UTF-8" standalone="no"?>
<!-- Generator: Adobe Illustrator 16.0.0, SVG Export Plug-In . SVG Version: 6.00 Build 0)  -->

<svg
   xmlns:dc="http://purl.org/dc/elements/1.1/"
   xmlns:cc="http://creativecommons.org/ns#"
   xmlns:rdf="http://www.w3.org/1999/02/22-rdf-syntax-ns#"
   xmlns:svg="http://www.w3.org/2000/svg"
   xmlns="http://www.w3.org/2000/svg"
   xmlns:sodipodi="http://sodipodi.sourceforge.net/DTD/sodipodi-0.dtd"
   xmlns:inkscape="http://www.inkscape.org/namespaces/inkscape"
   version="1.1"
   id="Capa_1"
   x="0px"
   y="0px"
   width="20"
   height="20"
   viewBox="0 0 19.140625 19.140625"
   xml:space="preserve"
   inkscape:version="0.91 r13725"
   sodipodi:docname="counter.svg"><metadata
     id="metadata47"><rdf:RDF><cc:Work
         rdf:about=""><dc:format>image/svg+xml</dc:format><dc:type
           rdf:resource="http://purl.org/dc/dcmitype/StillImage" /><dc:title></dc:title></cc:Work></rdf:RDF></metadata><defs
     id="defs45" /><sodipodi:namedview
     pagecolor="#ffffff"
     bordercolor="#666666"
     borderopacity="1"
     objecttolerance="10"
     gridtolerance="10"
     guidetolerance="10"
     inkscape:pageopacity="0"
     inkscape:pageshadow="2"
     inkscape:window-width="1680"
     inkscape:window-height="988"
     id="namedview43"
     showgrid="false"
     inkscape:zoom="10.429825"
     inkscape:cx="11.180117"
     inkscape:cy="26.470761"
     inkscape:window-x="1358"
     inkscape:window-y="-8"
     inkscape:window-maximized="1"
     inkscape:current-layer="g5" /><g
     id="g3"
     transform="translate(0,-470.85939)"><g
       id="g5"><path
         d="m 0,474.68751 0,11.48438 19.140626,0 0,-11.48438 z m 0.80412842,10.5488 0,-9.61326 5.45259788,0 0,9.61326 z m 6.18942158,0 0,-9.61326 5.228255,0 0,9.61326 z m 5.993792,-5.3787 c 0.01236,-2.32531 -0.02608,-2.2153 -0.02867,-4.2346 l 1.809029,0 -0.189102,2.24058 0.10293,-0.0195 c 0.17168,-0.0326 0.34707,-0.0472 0.568711,-0.0472 0.514922,0 1.12875,0.15509 1.12875,0.8938 0,0.59201 -0.436328,0.86165 -0.841719,0.86165 -0.393945,0 -0.748554,-0.16488 -0.895976,-0.26226 l -0.08684,-0.0573 -0.204336,0.93859 0.05309,0.0367 c 0.223125,0.15379 0.645156,0.31818 1.160156,0.31818 1.039297,0 1.793672,-0.80234 1.793672,-1.90779 0,-0.61168 -0.209844,-1.11238 -0.589649,-1.40886 -0.280742,-0.22832 -0.661992,-0.35405 -1.073632,-0.35405 -0.07992,0 -0.146328,0.003 -0.214571,0.0107 l 0.09254,-1.2431 2.764699,0 0,9.61321 -3.061072,0 c 0.06456,-0.54652 0.665198,-1.15733 1.292113,-1.24821 0.158476,-0.0235 0.287617,-0.0235 0.401601,-0.0235 l 0.07894,0 -0.0082,-0.95947 -0.07215,-0.006 c -0.124374,-0.0102 -0.264765,-0.005 -0.416289,0.0163 -0.628906,0.0668 -1.151523,0.33539 -1.55414,0.79922 -0.221992,0.26182 -0.589506,0.86906 -0.604534,1.4218 l -1.434065,0 0,-2.26664 c 0.03949,-1.34412 0.0313,-1.71308 0.02867,-3.11216 z"
         id="path7"
         inkscape:connector-curvature="0"
         style="fill:#3b4654"
         sodipodi:nodetypes="ccccccccccccccccccccsssccccsscsccccccsccccccccc" /><path
         d="m 4.5522659,479.87021 c -0.2807423,-0.22832 -0.6620314,-0.3541 -1.073672,-0.3541 -0.079922,0 -0.1462891,0.003 -0.2145703,0.0108 l 0.099492,-0.84039 1.6414065,0 0,-1.01398 -2.3383987,0 -0.303086,2.85187 0.1029297,-0.0196 c 0.1716015,-0.0326 0.3469922,-0.0472 0.5686719,-0.0472 0.5149219,0 1.1287501,0.1551 1.1287501,0.8938 0,0.59202 -0.4362891,0.86165 -0.8416798,0.86165 -0.3939844,0 -0.7485547,-0.16487 -0.8959375,-0.26221 l -0.086797,-0.0573 -0.2044531,0.93859 0.053125,0.0367 c 0.2231641,0.15384 0.6451172,0.31823 1.1601953,0.31823 1.039297,0 1.7936721,-0.80239 1.7936721,-1.90778 0,-0.61187 -0.2098437,-1.11267 -0.5896485,-1.40902 z"
         id="path9"
         inkscape:connector-curvature="0"
         style="fill:#3b4654" /><path
         d="m 9.6910942,479.45816 c -0.3176952,0 -0.6058205,0.11638 -0.8330858,0.33241 0.1252732,-0.43539 0.4503516,-1.04041 1.2924996,-1.16261 0.158477,-0.0235 0.287578,-0.0235 0.401563,-0.0235 l 0.07895,0 -0.0082,-0.95951 -0.07211,-0.006 c -0.124532,-0.0102 -0.264805,-0.005 -0.416329,0.0163 -0.6288667,0.0669 -1.151523,0.33545 -1.5541014,0.79927 -0.4909374,0.57909 -0.7613279,1.43867 -0.7613279,2.42044 0,1.42791 0.6580079,2.35065 1.6763674,2.35065 0.8960939,0 1.5718359,-0.84445 1.5718359,-1.96415 3.9e-5,-1.06176 -0.565821,-1.80327 -1.3760549,-1.80327 z M 8.81543,480.86067 c 0.1163674,-0.29474 0.3601953,-0.48522 0.62125,-0.48522 0.4064453,0 0.658985,0.36108 0.658985,0.9422 0,0.58275 -0.2438676,0.97425 -0.6068366,0.97425 -0.5131247,0 -0.7071873,-0.60005 -0.7176952,-1.15948 0,-0.11092 0.013947,-0.19693 0.044295,-0.27175 z"
         id="path11"
         inkscape:connector-curvature="0"
         style="fill:#3b4654" /><path
         inkscape:connector-curvature="0"
         style="fill:#3b4654"
         d="m 16.799642,477.20724 c -0.280742,-0.22832 -0.662031,-0.35409 -1.073672,-0.35409 -0.07992,0 -0.146289,0.003 -0.21457,0.0108 l 0.09949,-0.84038 1.641406,0 0,-1.01399 -2.338398,0 -0.303086,2.85186 0.102929,-0.0195 c 0.171602,-0.0326 0.346992,-0.0472 0.568672,-0.0472 0.514922,0 1.12875,0.15509 1.12875,0.89381 0,0.592 -0.436289,0.86164 -0.84168,0.86164 -0.393984,0 -0.748554,-0.16488 -0.895937,-0.26221 l -0.0868,-0.0573 -0.204453,0.93859 0.05312,0.0367 c 0.223164,0.15383 0.645117,0.31823 1.160195,0.31823 1.039297,0 1.793672,-0.80239 1.793672,-1.9078 0,-0.61186 -0.209844,-1.11266 -0.589648,-1.409 z"
         id="path9-8" /></g></g><g
     id="g13"
     transform="translate(0,-470.85939)" /><g
     id="g15"
     transform="translate(0,-470.85939)" /><g
     id="g17"
     transform="translate(0,-470.85939)" /><g
     id="g19"
     transform="translate(0,-470.85939)" /><g
     id="g21"
     transform="translate(0,-470.85939)" /><g
     id="g23"
     transform="translate(0,-470.85939)" /><g
     id="g25"
     transform="translate(0,-470.85939)" /><g
     id="g27"
     transform="translate(0,-470.85939)" /><g
     id="g29"
     transform="translate(0,-470.85939)" /><g
     id="g31"
     transform="translate(0,-470.85939)" /><g
     id="g33"
     transform="translate(0,-470.85939)" /><g
     id="g35"
     transform="translate(0,-470.85939)" /><g
     id="g37"
     transform="translate(0,-470.85939)" /><g
     id="g39"
     transform="translate(0,-470.85939)" /><g
     id="g41"
     transform="translate(0,-470.85939)" /></svg>