<?xml version="1.0" encoding="UTF-8" standalone="no"?>
<!-- Generator: Adobe Illustrator 19.0.0, SVG Export Plug-In . SVG Version: 6.00 Build 0)  -->

<svg
   xmlns:dc="http://purl.org/dc/elements/1.1/"
   xmlns:cc="http://creativecommons.org/ns#"
   xmlns:rdf="http://www.w3.org/1999/02/22-rdf-syntax-ns#"
   xmlns:svg="http://www.w3.org/2000/svg"
   xmlns="http://www.w3.org/2000/svg"
   xmlns:sodipodi="http://sodipodi.sourceforge.net/DTD/sodipodi-0.dtd"
   xmlns:inkscape="http://www.inkscape.org/namespaces/inkscape"
   version="1.1"
   id="Capa_1"
   x="0px"
   y="0px"
   viewBox="0 0 7.4710547 7.4710547"
   xml:space="preserve"
   width="20"
   height="20"
   inkscape:version="0.91 r13725"
   sodipodi:docname="interval.svg"><metadata
     id="metadata83"><rdf:RDF><cc:Work
         rdf:about=""><dc:format>image/svg+xml</dc:format><dc:type
           rdf:resource="http://purl.org/dc/dcmitype/StillImage" /><dc:title></dc:title></cc:Work></rdf:RDF></metadata><defs
     id="defs81" /><sodipodi:namedview
     pagecolor="#ffffff"
     bordercolor="#666666"
     borderopacity="1"
     objecttolerance="10"
     gridtolerance="10"
     guidetolerance="10"
     inkscape:pageopacity="0"
     inkscape:pageshadow="2"
     inkscape:window-width="1680"
     inkscape:window-height="988"
     id="namedview79"
     showgrid="false"
     inkscape:zoom="10.429825"
     inkscape:cx="18.14011"
     inkscape:cy="11.160295"
     inkscape:window-x="1358"
     inkscape:window-y="-8"
     inkscape:window-maximized="1"
     inkscape:current-layer="Capa_1" /><g
     id="g3"
     transform="matrix(0.03906271,0,0,0.03907966,0,-0.00160229)"><circle
       cx="59.768002"
       cy="83.634003"
       r="3.9849999"
       id="circle5"
       style="fill:#3b4654" /><circle
       cx="83.676003"
       cy="83.634003"
       r="3.9849999"
       id="circle7"
       style="fill:#3b4654" /><circle
       cx="107.583"
       cy="83.634003"
       r="3.9849999"
       id="circle9"
       style="fill:#3b4654" /><circle
       cx="35.861"
       cy="107.541"
       r="3.984"
       id="circle11"
       style="fill:#3b4654" /><circle
       cx="59.768002"
       cy="107.541"
       r="3.984"
       id="circle13"
       style="fill:#3b4654" /><circle
       cx="83.676003"
       cy="107.541"
       r="3.984"
       id="circle15"
       style="fill:#3b4654" /><circle
       cx="107.583"
       cy="107.541"
       r="3.984"
       id="circle17"
       style="fill:#3b4654" /><circle
       cx="155.39799"
       cy="107.541"
       r="3.984"
       id="circle19"
       style="fill:#3b4654" /><circle
       cx="131.49001"
       cy="83.634003"
       r="3.9849999"
       id="circle21"
       style="fill:#3b4654" /><circle
       cx="155.39799"
       cy="83.634003"
       r="3.9849999"
       id="circle23"
       style="fill:#3b4654" /><circle
       cx="35.861"
       cy="131.44901"
       r="3.9849999"
       id="circle25"
       style="fill:#3b4654" /><circle
       cx="59.768002"
       cy="131.44901"
       r="3.9849999"
       id="circle27"
       style="fill:#3b4654" /><circle
       cx="83.676003"
       cy="131.44901"
       r="3.9849999"
       id="circle29"
       style="fill:#3b4654" /><circle
       cx="107.583"
       cy="131.44901"
       r="3.9849999"
       id="circle31"
       style="fill:#3b4654" /><circle
       cx="131.49001"
       cy="131.44901"
       r="3.9849999"
       id="circle33"
       style="fill:#3b4654" /><circle
       cx="155.39799"
       cy="131.44901"
       r="3.9849999"
       id="circle35"
       style="fill:#3b4654" /><circle
       cx="35.861"
       cy="155.356"
       r="3.9849999"
       id="circle37"
       style="fill:#3b4654" /><circle
       cx="59.768002"
       cy="155.356"
       r="3.9849999"
       id="circle39"
       style="fill:#3b4654" /><circle
       cx="83.676003"
       cy="155.356"
       r="3.9849999"
       id="circle41"
       style="fill:#3b4654" /><circle
       cx="107.583"
       cy="155.356"
       r="3.9849999"
       id="circle43"
       style="fill:#3b4654" /><path
       d="m 131.49,119.495 c 6.603,0 11.954,-5.351 11.954,-11.954 0,-6.603 -5.351,-11.954 -11.954,-11.954 -6.603,0 -11.954,5.351 -11.954,11.954 0,6.603 5.351,11.954 11.954,11.954 z m 0,-15.938 c 2.199,0 3.985,1.786 3.985,3.984 0,2.198 -1.786,3.984 -3.985,3.984 -2.199,0 -3.984,-1.786 -3.984,-3.984 0,-2.198 1.786,-3.984 3.984,-3.984 z"
       id="path45"
       inkscape:connector-curvature="0"
       style="fill:#3b4654" /><path
       d="m 175.321,15.98 -7.969,0 0,-3.985 c 0,-6.601 -5.354,-11.954 -11.954,-11.954 -6.603,0 -11.954,5.352 -11.954,11.954 l 0,3.985 -95.63,0 0,-3.985 C 47.814,5.394 42.46,0.041 35.86,0.041 c -6.603,0 -11.954,5.352 -11.954,11.954 l 0,3.985 -7.969,0 C 7.136,15.98 0,23.116 0,31.918 l 0,15.854 0,7.969 0,119.537 c 0,8.802 7.136,15.938 15.938,15.938 l 159.382,0 c 8.802,0 15.938,-7.136 15.938,-15.938 l 0,-119.536 0,-7.969 0,-15.855 C 191.259,23.116 184.123,15.98 175.321,15.98 Z m -23.908,7.969 0,-7.969 0,-3.985 c 0,-2.201 1.782,-3.985 3.985,-3.985 2.198,0 3.984,1.784 3.984,3.985 l 0,3.985 0,7.969 0,3.984 c 0,2.2 -1.786,3.985 -3.984,3.985 -2.202,0 -3.985,-1.784 -3.985,-3.985 l 0,-3.984 z m -119.537,0 0,-7.969 0,-3.985 c 0,-2.201 1.782,-3.985 3.985,-3.985 2.199,0 3.985,1.784 3.985,3.985 l 0,3.985 0,7.969 0,3.984 c 0,2.2 -1.786,3.985 -3.985,3.985 -2.202,0 -3.985,-1.784 -3.985,-3.985 l 0,-3.984 z m 151.414,151.33 c 0,4.399 -3.564,7.969 -7.969,7.969 l -159.383,0 c -4.405,0 -7.969,-3.57 -7.969,-7.969 l 0,-119.537 175.321,0 0,119.537 z m 0,-127.506 -175.321,0 0,-15.855 c 0,-4.403 3.564,-7.969 7.969,-7.969 l 7.969,0 0,3.984 c 0,6.601 5.35,11.954 11.954,11.954 6.6,0 11.954,-5.352 11.954,-11.954 l 0,-3.984 95.63,0 0,3.984 c 0,6.601 5.35,11.954 11.954,11.954 6.599,0 11.954,-5.352 11.954,-11.954 l 0,-3.984 7.969,0 c 4.405,0 7.969,3.566 7.969,7.969 l 0,15.855 z"
       id="path47"
       inkscape:connector-curvature="0"
       style="fill:#3b4654" /></g><g
     id="g49"
     transform="translate(0,-183.78797)" /><g
     id="g51"
     transform="translate(0,-183.78797)" /><g
     id="g53"
     transform="translate(0,-183.78797)" /><g
     id="g55"
     transform="translate(0,-183.78797)" /><g
     id="g57"
     transform="translate(0,-183.78797)" /><g
     id="g59"
     transform="translate(0,-183.78797)" /><g
     id="g61"
     transform="translate(0,-183.78797)" /><g
     id="g63"
     transform="translate(0,-183.78797)" /><g
     id="g65"
     transform="translate(0,-183.78797)" /><g
     id="g67"
     transform="translate(0,-183.78797)" /><g
     id="g69"
     transform="translate(0,-183.78797)" /><g
     id="g71"
     transform="translate(0,-183.78797)" /><g
     id="g73"
     transform="translate(0,-183.78797)" /><g
     id="g75"
     transform="translate(0,-183.78797)" /><g
     id="g77"
     transform="translate(0,-183.78797)" /></svg>