<?xml version="1.0" encoding="UTF-8" standalone="no"?>
<!-- Generator: Adobe Illustrator 16.0.0, SVG Export Plug-In . SVG Version: 6.00 Build 0)  -->

<svg
   xmlns:dc="http://purl.org/dc/elements/1.1/"
   xmlns:cc="http://creativecommons.org/ns#"
   xmlns:rdf="http://www.w3.org/1999/02/22-rdf-syntax-ns#"
   xmlns:svg="http://www.w3.org/2000/svg"
   xmlns="http://www.w3.org/2000/svg"
   xmlns:sodipodi="http://sodipodi.sourceforge.net/DTD/sodipodi-0.dtd"
   xmlns:inkscape="http://www.inkscape.org/namespaces/inkscape"
   version="1.1"
   id="Capa_1"
   x="0px"
   y="0px"
   width="26"
   height="24"
   viewBox="0 0 2.3094804 2.1318281"
   xml:space="preserve"
   inkscape:version="0.91 r13725"
   sodipodi:docname="qr-code.svg"><metadata
     id="metadata65"><rdf:RDF><cc:Work
         rdf:about=""><dc:format>image/svg+xml</dc:format><dc:type
           rdf:resource="http://purl.org/dc/dcmitype/StillImage" /><dc:title></dc:title></cc:Work></rdf:RDF></metadata><defs
     id="defs63" /><sodipodi:namedview
     pagecolor="#ffffff"
     bordercolor="#666666"
     borderopacity="1"
     objecttolerance="10"
     gridtolerance="10"
     guidetolerance="10"
     inkscape:pageopacity="0"
     inkscape:pageshadow="2"
     inkscape:window-width="1680"
     inkscape:window-height="988"
     id="namedview61"
     showgrid="false"
     inkscape:zoom="10.429825"
     inkscape:cx="-24.563808"
     inkscape:cy="12.133612"
     inkscape:window-x="1358"
     inkscape:window-y="-8"
     inkscape:window-maximized="1"
     inkscape:current-layer="Capa_1" /><g
     id="g3"
     transform="matrix(0.04687524,0,0,0.04763208,0,-0.01724311)"><g
       id="g5"><path
         d="m 9.563,0.362 -7.179,0 C 1.062,0.362 0,1.421 0,2.742 l 0,7.181 c 0,1.321 1.062,2.403 2.384,2.403 l 7.18,0 c 1.322,0 2.399,-1.082 2.399,-2.403 l 0,-7.181 c 0,-1.321 -1.078,-2.38 -2.4,-2.38 z m 0.24,9.521 c 0,0.157 -0.127,0.284 -0.285,0.284 l -7.166,0 c -0.157,0 -0.284,-0.127 -0.284,-0.284 l 0,-7.168 c 0,-0.157 0.127,-0.284 0.284,-0.284 l 7.167,0 c 0.158,0 0.285,0.127 0.285,0.284 l -10e-4,7.168 0,0 z"
         id="path7"
         inkscape:connector-curvature="0"
         style="fill:#3b4654" /><rect
         x="3.687"
         y="4.0500002"
         width="4.5879998"
         height="4.5869999"
         id="rect9"
         style="fill:#3b4654" /><path
         d="m 9.563,19.072 -7.179,0 C 1.062,19.072 0,20.126 0,21.447 l 0,7.182 c 0,1.32 1.062,2.408 2.384,2.408 l 7.18,0 c 1.322,0 2.399,-1.088 2.399,-2.408 l 0,-7.182 c 0,-1.321 -1.078,-2.375 -2.4,-2.375 z m 0.24,9.552 c 0,0.158 -0.112,0.254 -0.269,0.254 l -7.161,0 c -0.157,0 -0.305,-0.096 -0.305,-0.254 l 0,-7.163 c 0,-0.157 0.147,-0.32 0.305,-0.32 l 7.162,0 c 0.156,0 0.269,0.164 0.269,0.32 l -10e-4,7.163 0,0 z"
         id="path11"
         inkscape:connector-curvature="0"
         style="fill:#3b4654" /><rect
         x="3.687"
         y="22.76"
         width="4.5879998"
         height="4.5879998"
         id="rect13"
         style="fill:#3b4654" /><path
         d="m 20.991,12.326 7.181,0 c 1.32,0 2.411,-1.082 2.411,-2.403 l 0,-7.181 c 0,-1.321 -1.091,-2.38 -2.411,-2.38 l -7.181,0 c -1.322,0 -2.372,1.059 -2.372,2.38 l 0,7.181 c 0,1.321 1.05,2.403 2.372,2.403 z M 20.688,2.715 c 0,-0.157 0.127,-0.284 0.284,-0.284 l 7.168,0 c 0.156,0 0.283,0.127 0.283,0.284 l 0,7.168 c 0,0.157 -0.127,0.284 -0.283,0.284 l -7.168,0 c -0.157,0 -0.284,-0.127 -0.284,-0.284 l 0,-7.168 z"
         id="path15"
         inkscape:connector-curvature="0"
         style="fill:#3b4654" /><rect
         x="22.218"
         y="4.0500002"
         width="4.6760001"
         height="4.5869999"
         id="rect17"
         style="fill:#3b4654" /><path
         d="m 4.299,13.675 -1.583,0 c -0.345,0 -0.647,0.288 -0.647,0.633 l 0,1.583 c 0,0.345 0.302,0.663 0.647,0.663 l 1.511,0 0,0.02 c 0,0.345 0.244,0.609 0.589,0.609 l 3.549,0 0,0.075 c 0,0.345 0.306,0.645 0.651,0.645 l 1.583,0 c 0.346,0 0.644,-0.299 0.644,-0.645 l 0,-1.534 c 0,-0.345 -0.298,-0.61 -0.644,-0.61 l -0.795,0 0,-0.806 c 0,-0.345 -0.275,-0.633 -0.621,-0.633 l -0.851,0 c -0.345,0 -0.597,0.288 -0.597,0.633 l 0,0.807 -2.789,0 0,-0.807 c 0,-0.346 -0.302,-0.633 -0.647,-0.633 z"
         id="path19"
         inkscape:connector-curvature="0"
         style="fill:#3b4654" /><path
         d="m 14.391,7.108 0,3.508 c 0,0.345 0.237,0.63 0.583,0.63 l 2.267,0 c 0.345,0 0.659,-0.285 0.659,-0.63 l 0,-1.583 c 0,-0.345 -0.314,-0.666 -0.659,-0.666 l -0.78,0 0,-4.857 0.096,0 c 0.345,0 0.624,-0.266 0.624,-0.611 l 0,-0.85 c 0,-0.345 -0.278,-0.607 -0.624,-0.607 l -2.999,0 c -0.346,0 -0.606,0.263 -0.606,0.607 l 0,0.85 c 0,0.345 0.26,0.611 0.606,0.611 l 0.833,0 0,2.249 -0.833,0 c -0.346,0 -0.606,0.291 -0.606,0.636 l 0,0.118 c 0,0.345 0.26,0.595 0.606,0.595 l 0.833,0 z"
         id="path21"
         inkscape:connector-curvature="0"
         style="fill:#3b4654" /><path
         d="m 16.101,14.399 0,-1.539 c 0,-0.345 -0.28,-0.625 -0.625,-0.625 l -1.539,0 c -0.345,0 -0.625,0.28 -0.625,0.625 l 0,1.539 c 0,0.345 0.28,0.625 0.625,0.625 l 1.539,0 c 0.345,0 0.625,-0.279 0.625,-0.625 z"
         id="path23"
         inkscape:connector-curvature="0"
         style="fill:#3b4654" /><path
         d="m 18.832,14.935 c -0.345,0 -0.662,0.298 -0.662,0.643 l 0,0.618 c 0.54,-0.457 1.131,-0.901 1.716,-1.261 l -1.054,0 z"
         id="path25"
         inkscape:connector-curvature="0"
         style="fill:#3b4654" /><path
         d="m 18.008,16.374 -2.692,0 c -0.345,0 -0.654,0.274 -0.654,0.62 l 0,3.605 c 0.72,-1.299 1.577,-2.514 2.666,-3.603 0.215,-0.215 0.452,-0.442 0.68,-0.622 z"
         id="path27"
         inkscape:connector-curvature="0"
         style="fill:#3b4654" /><path
         d="M 44.627,40.194 38.74,34.308 c 3.094,-4.955 2.503,-11.611 -1.812,-15.927 -5.019,-5.018 -13.184,-5.019 -18.202,0 -5.019,5.018 -5.009,13.175 0.009,18.194 4.316,4.314 10.935,4.943 15.935,1.803 l 5.887,5.888 c 1.129,1.13 2.951,1.139 4.08,0.01 1.129,-1.132 1.119,-2.951 -0.01,-4.082 z m -10.15,-6.067 c -3.666,3.666 -9.629,3.666 -13.294,0 -3.667,-3.666 -3.667,-9.631 0,-13.295 3.666,-3.665 9.628,-3.665 13.294,0 3.664,3.665 3.664,9.629 0,13.295 z"
         id="path29"
         inkscape:connector-curvature="0"
         style="fill:#3b4654" /></g></g><g
     id="g31"
     transform="translate(0,-43.347172)" /><g
     id="g33"
     transform="translate(0,-43.347172)" /><g
     id="g35"
     transform="translate(0,-43.347172)" /><g
     id="g37"
     transform="translate(0,-43.347172)" /><g
     id="g39"
     transform="translate(0,-43.347172)" /><g
     id="g41"
     transform="translate(0,-43.347172)" /><g
     id="g43"
     transform="translate(0,-43.347172)" /><g
     id="g45"
     transform="translate(0,-43.347172)" /><g
     id="g47"
     transform="translate(0,-43.347172)" /><g
     id="g49"
     transform="translate(0,-43.347172)" /><g
     id="g51"
     transform="translate(0,-43.347172)" /><g
     id="g53"
     transform="translate(0,-43.347172)" /><g
     id="g55"
     transform="translate(0,-43.347172)" /><g
     id="g57"
     transform="translate(0,-43.347172)" /><g
     id="g59"
     transform="translate(0,-43.347172)" /></svg>