<?xml version="1.0" encoding="utf-8"?>
<!-- Generator: Adobe Illustrator 20.0.0, SVG Export Plug-In . SVG Version: 6.00 Build 0)  -->
<svg version="1.1" id="Ebene_1" xmlns="http://www.w3.org/2000/svg" xmlns:xlink="http://www.w3.org/1999/xlink" x="0px" y="0px"
	 width="38px" height="38px" viewBox="0 0 38 38" style="enable-background:new 0 0 38 38;" xml:space="preserve">
<style type="text/css">
	.st0{fill:none;}
	.st1{fill:#3B4654;}
</style>
<g>
	<rect class="st0" width="38" height="38"/>
	<g>
		<path class="st1" d="M19,29c0,0.8,0.2,1.6,0.5,2.3l4.5-8.2C21.2,23.6,19,26,19,29z"/>
		<path class="st1" d="M25,25l-4.5,8c0.9,1,2.1,1.7,3.5,1.9V38h2v-3.1c1.2-0.2,2.3-0.7,3.2-1.6L25,25z"/>
		<path class="st1" d="M26,23.1l4.4,8.6C30.8,30.9,31,30,31,29C31,26,28.8,23.6,26,23.1z"/>
		<path class="st1" d="M26,18h-2h-9v-2h3.6c0.2,0,0.3-0.1,0.4-0.2c0.1-0.1,0.1-0.3,0-0.4l-4.5-5.9l4.4-5.8C19,3.5,19,3.4,19,3.2
			C18.9,3.1,18.7,3,18.6,3H15V0h-2v3H9.4C9.3,3,9.1,3.1,9,3.2c0,0.2,0,0.3,0.1,0.5l4.4,5.8l-4.4,5.8C9,15.5,9,15.6,9,15.8
			C9.1,15.9,9.3,16,9.4,16H13v2H3v3h21v2h2v-2h10v-3H26z"/>
	</g>
</g>
</svg>
