<?xml version="1.0" encoding="UTF-8" standalone="no"?>
<!-- Generator: Adobe Illustrator 19.2.1, SVG Export Plug-In . SVG Version: 6.00 Build 0)  -->

<svg
   xmlns:dc="http://purl.org/dc/elements/1.1/"
   xmlns:cc="http://creativecommons.org/ns#"
   xmlns:rdf="http://www.w3.org/1999/02/22-rdf-syntax-ns#"
   xmlns:svg="http://www.w3.org/2000/svg"
   xmlns="http://www.w3.org/2000/svg"
   xmlns:sodipodi="http://sodipodi.sourceforge.net/DTD/sodipodi-0.dtd"
   xmlns:inkscape="http://www.inkscape.org/namespaces/inkscape"
   version="1.1"
   id="Ebene_1"
   x="0px"
   y="0px"
   width="38"
   height="45"
   viewBox="0 0 38 45"
   xml:space="preserve"
   inkscape:version="0.91 r13725"
   sodipodi:docname="autoturnon.svg"><metadata
     id="metadata21"><rdf:RDF><cc:Work
         rdf:about=""><dc:format>image/svg+xml</dc:format><dc:type
           rdf:resource="http://purl.org/dc/dcmitype/StillImage" /><dc:title></dc:title></cc:Work></rdf:RDF></metadata><defs
     id="defs19" /><sodipodi:namedview
     pagecolor="#ffffff"
     bordercolor="#666666"
     borderopacity="1"
     objecttolerance="10"
     gridtolerance="10"
     guidetolerance="10"
     inkscape:pageopacity="0"
     inkscape:pageshadow="2"
     inkscape:window-width="1636"
     inkscape:window-height="773"
     id="namedview17"
     showgrid="false"
     inkscape:zoom="6.2105263"
     inkscape:cx="19"
     inkscape:cy="19"
     inkscape:window-x="76"
     inkscape:window-y="161"
     inkscape:window-maximized="0"
     inkscape:current-layer="Ebene_1" /><style
     type="text/css"
     id="style3">
	.st0{fill:none;}
	.st1{fill:#3B4654;}
</style><g
     id="g5"><rect
       class="st0"
       width="38"
       height="38"
       id="rect7"
       x="0"
       y="0"
       style="fill:none" /><path
       class="st1"
       d="m 22.5,9.4 c 2.6,1.1 4.5,3.2 5.3,5.6 l 3.8,0 C 30.6,11.1 27.9,7.6 23.8,6 21.6,5.1 19.3,4.9 17.2,5.2 l 1.6,3.5 c 1.2,0 2.5,0.2 3.7,0.7 z M 6.9,13.2 c -1.8,4.4 -1,9.2 1.7,12.7 L 11,23 C 9.5,20.6 9.1,17.4 10.3,14.6 10.9,13.2 11.8,12 12.9,11 L 11.3,7.6 C 9.4,9 7.8,10.8 6.9,13.2 Z m 9.1,13.7 -2.4,2.9 c 0.2,0.1 0.3,0.2 0.5,0.2 6.7,2.7 14.2,-0.5 16.9,-7.2 0.1,-0.3 0.2,-0.6 0.3,-0.9 l -3.9,0 c -2,4.4 -6.9,6.5 -11.4,5 z"
       id="path9"
       inkscape:connector-curvature="0"
       style="fill:#3b4654" /><polygon
       class="st1"
       points="24,14 35.4,14 29.9,20 "
       id="polygon11"
       style="fill:#3b4654" /><polygon
       class="st1"
       points="19,24.4 12.7,34.3 11,25.9 "
       id="polygon13"
       style="fill:#3b4654" /><polygon
       class="st1"
       points="13.5,15 7.5,5.7 15.5,7.2 "
       id="polygon15"
       style="fill:#3b4654" /></g><style
     id="style3350"
     type="text/css">
	.st0{fill:#485767;}
</style><polygon
     id="polygon3352"
     points="0,4 17,4 8.5,0 "
     class="st0"
     style="fill:#89b9d2;fill-opacity:1"
     transform="translate(11.144068,40.745762)" /></svg>