<?xml version="1.0" encoding="utf-8"?>
<!-- Generator: Adobe Illustrator 19.2.1, SVG Export Plug-In . SVG Version: 6.00 Build 0)  -->
<svg version="1.1" id="Ebene_1" xmlns="http://www.w3.org/2000/svg" xmlns:xlink="http://www.w3.org/1999/xlink" x="0px" y="0px"
	 width="38px" height="38px" viewBox="0 0 38 38" style="enable-background:new 0 0 38 38;" xml:space="preserve">
<style type="text/css">
	.st0{fill:none;}
	.st1{fill:#3B4654;}
</style>
<g>
	<rect class="st0" width="38" height="38"/>
	<path class="st1" d="M22.5,9.4c2.6,1.1,4.5,3.2,5.3,5.6h3.8c-1-3.9-3.7-7.4-7.8-9c-2.2-0.9-4.5-1.1-6.6-0.8l1.6,3.5
		C20,8.7,21.3,8.9,22.5,9.4z M6.9,13.2c-1.8,4.4-1,9.2,1.7,12.7L11,23c-1.5-2.4-1.9-5.6-0.7-8.4c0.6-1.4,1.5-2.6,2.6-3.6l-1.6-3.4
		C9.4,9,7.8,10.8,6.9,13.2z M16,26.9l-2.4,2.9c0.2,0.1,0.3,0.2,0.5,0.2c6.7,2.7,14.2-0.5,16.9-7.2c0.1-0.3,0.2-0.6,0.3-0.9h-3.9
		C25.4,26.3,20.5,28.4,16,26.9z"/>
	<polygon class="st1" points="29.9,20 24,14 35.4,14 	"/>
	<polygon class="st1" points="11,25.9 19,24.4 12.7,34.3 	"/>
	<polygon class="st1" points="15.5,7.2 13.5,15 7.5,5.7 	"/>
</g>
</svg>
