<?xml version="1.0" encoding="utf-8"?>
<!-- Generator: Adobe Illustrator 20.0.0, SVG Export Plug-In . SVG Version: 6.00 Build 0)  -->
<svg version="1.1" id="Ebene_1" xmlns="http://www.w3.org/2000/svg" xmlns:xlink="http://www.w3.org/1999/xlink" x="0px" y="0px"
	 width="38px" height="38px" viewBox="0 0 38 38" style="enable-background:new 0 0 38 38;" xml:space="preserve">
<style type="text/css">
	.st0{fill:none;}
	.st1{fill:#3B4654;}
</style>
<g>
	<rect class="st0" width="38" height="38"/>
	<path class="st1" d="M29.6,15.1c-0.1,0-0.2-0.1-0.3-0.1L30,9H6l3,25h18l1.1-9.4c-2.1-0.8-5.2-2.4-9.4-5.4c-0.2,0.1-0.5,0.1-0.7,0.1
		c-1.8,0-3.2-1.5-3.2-3.2c0-1.7,1.5-3.2,3.2-3.2c1.6,0,2.9,1.1,3.2,2.7c2.7,1.9,5.5,3.6,7.5,4.6l0.4-3.1c1.1,0.7,3.7,2.5,2.7,4.7
		c0,0.1-0.1,0.1-0.2,0.2c-1.8,0.5-7.6-3-11.6-5.9c0,0,0-0.1,0-0.1c0-1.1-0.9-2-2-2s-2,0.9-2,2s0.9,2,2,2c0.3,0,0.6-0.1,0.9-0.2
		c2.6,1.9,8.9,6.2,12.3,6.2c0.3,0,0.5,0,0.8-0.1c0.7-0.2,1.3-0.6,1.6-1.3C35.6,18.3,29.8,15.2,29.6,15.1z"/>
	<path class="st1" d="M9,8c0.1-0.2,0.4-0.9,1.6-1.4C12.2,6,14,6.7,14.1,6.7c0.3,0.1,0.6,0.1,0.8,0c0.3-0.1,0.5-0.4,0.5-0.7
		c0,0,0.6-2.2,3.7-2.1c3.1,0.1,3.6,2.4,3.6,2.6c0,0.3,0.2,0.5,0.4,0.6c0.2,0.1,0.5,0.2,0.8,0.1c0,0,1.3-0.3,2.3,0
		c0.4,0.1,0.5,0.4,0.6,0.6H29c0-0.1,0-0.2,0-0.3c-0.2-0.6-0.7-1.9-2.2-2.3C26,5,25.1,5.1,24.5,5.1c-0.6-1.4-2.2-3.2-5.2-3.3
		c-3-0.1-4.6,1.3-5.3,2.6c-1-0.3-2.5-0.5-4.1,0.1C7.4,5.8,7,7.5,7,7.7C7,7.8,7,7.9,7,8H9z"/>
</g>
</svg>
