<?xml version="1.0" encoding="utf-8"?>
<!-- Generator: Adobe Illustrator 20.0.0, SVG Export Plug-In . SVG Version: 6.00 Build 0)  -->
<svg version="1.1" id="Ebene_1" xmlns="http://www.w3.org/2000/svg" xmlns:xlink="http://www.w3.org/1999/xlink" x="0px" y="0px"
	 width="38px" height="38px" viewBox="0 0 38 38" style="enable-background:new 0 0 38 38;" xml:space="preserve">
<style type="text/css">
	.st0{fill:none;}
	.st1{fill:#3B4654;}
</style>
<g>
	<rect class="st0" width="38" height="38"/>
	<polygon class="st1" points="34,20 34,18 29,18 27,18 20,18 20,14 25,14 25,5 13,5 13,14 18,14 18,18 11,18 9,18 4,18 4,20 9,20 
		9,23 4,23 4,32 16,32 16,23 11,23 11,20 18,20 20,20 27,20 27,23 22,23 22,32 34,32 34,23 29,23 29,20 	"/>
</g>
</svg>
