<?xml version="1.0" encoding="utf-8"?>
<!-- Generator: Adobe Illustrator 20.0.0, SVG Export Plug-In . SVG Version: 6.00 Build 0)  -->
<svg version="1.1" id="Ebene_1" xmlns="http://www.w3.org/2000/svg" xmlns:xlink="http://www.w3.org/1999/xlink" x="0px" y="0px"
	 width="38px" height="38px" viewBox="0 0 38 38" style="enable-background:new 0 0 38 38;" xml:space="preserve">
<style type="text/css">
	.st0{fill:none;}
	.st1{fill:#3B4654;}
</style>
<g>
	<rect class="st0" width="38" height="38"/>
	<g>
		<path class="st1" d="M31.9,16.7c-0.2-0.3-0.3-0.6-0.7-0.7c-0.4-0.1-1-0.1-1.5,0.1s-0.3,1.3-0.3,1.3l0,0c-1-1.6-2.5-3.4-3-4.1
			c-0.8-1-1.3-1.4-2.9-1.4H14c-1.3,0-2,0.9-2.6,1.7c-0.4,0.5-1.7,2.3-2.6,3.8l-0.1-0.1c0,0,0.2-1.1-0.3-1.3s-1-0.2-1.5-0.1
			c-0.4,0.1-0.6,0.4-0.7,0.7c-0.2,0.3-0.1,0.9,0.3,1c0.5,0.1,1.2,0.1,1.7,0.2c0.1,0,0.2,0.1,0.3,0.1c-0.4,0.7-0.8,1.3-1,1.7
			c-0.6,1.5-0.3,8-0.3,9s0,1.4,0.7,1.4h1.9c0.5,0,0.5-0.4,0.6-0.9s0.3-0.9,0.8-0.9h2.1c0.7,0,0.6,0.8,1.2,0.8h8.4
			c0.9,0,0.7-0.9,1.3-0.9h2.5c0.5,0,1,0.3,1.1,1c0,0.7,0.3,0.9,0.7,0.9h1.8c0.5,0,0.7-0.6,0.7-1.8s0.1-2.4,0.1-3.9s-0.1-3.4-0.5-4.9
			c-0.1-0.4-0.4-0.9-0.7-1.4c0.1,0,0.1-0.1,0.2-0.1c0.4-0.1,1.1-0.1,1.7-0.2C32,17.7,32.1,17,31.9,16.7z M14,13.4h10l3,3.6H11
			L14,13.4z M10.8,23.2C8.8,23,8,22.6,8,22.6l0.6-1.9l4.2,0.4l1.2,2C14,23.2,12.8,23.3,10.8,23.2z M25,26H13l-1-1h14L25,26z
			 M30,22.6c0,0-0.8,0.4-2.8,0.6s-3.2,0-3.2,0l1.2-2l4.2-0.4L30,22.6z"/>
		<polygon class="st1" points="34,4 25,4 25,3 13,3 13,4 4,4 0,4 0,32 3,32 3,19 11,7 13,7 13,8 25,8 25,7 27,7 35,19 35,32 38,32 
			38,4 		"/>
	</g>
</g>
</svg>
