<?xml version="1.0" encoding="utf-8"?>
<!-- Generator: Adobe Illustrator 20.0.0, SVG Export Plug-In . SVG Version: 6.00 Build 0)  -->
<svg version="1.1" id="Ebene_1" xmlns="http://www.w3.org/2000/svg" xmlns:xlink="http://www.w3.org/1999/xlink" x="0px" y="0px"
	 width="38px" height="38px" viewBox="0 0 38 38" style="enable-background:new 0 0 38 38;" xml:space="preserve">
<style type="text/css">
	.st0{fill:none;}
	.st1{fill:#3B4654;}
</style>
<g>
	<rect class="st0" width="38" height="38"/>
	<path class="st1" d="M34,31.4c-0.2-0.3-3.1-3.8-4.2-6c-1.1-2.1-1.6-8.3-1.9-10.8s-1-5.9-2-7.3C24.8,6,23.6,4,19.5,4
		c-4,0-4.8,1-6.2,2.6s-1.9,4.3-2.4,8c0,0.4-0.1,0.8-0.1,1.2l-0.3,3.4c-0.2,3.1-0.6,6.6-1.7,8.6C7.1,30.9,5,31,5,31.5
		s0.9,0.5,1.7,0.6C7.5,32.2,8.1,33,9.4,33c1.2,0,1.9-2,3-1.9S13.5,33,15,33c1.5-0.1,2.1-1.8,3.1-1.9c1,0,1.5,1.9,2.9,1.9
		c0.6,0,1-0.3,1.3-0.6l1-0.8c0.1,0,0.2-0.1,0.4-0.1c1.2-0.1,2.8,1.5,4.7,1s0.9-1.6,1.5-1.7c0.6-0.2,1.2,1.1,2.1,1.4
		C32.9,32.3,34.2,31.8,34,31.4z M14.4,11c0-1.4,0.9-2.5,2-2.5s2,1.1,2,2.5s-0.9,2.5-2,2.5S14.4,12.4,14.4,11z M21.3,18h-3.6
		c-0.4,0-0.7-0.4-0.7-1s0.3-1,0.7-1h3.6c0.4,0,0.7,0.4,0.7,1S21.7,18,21.3,18z M22.6,13.5c-1.1,0-2-1.1-2-2.5s0.9-2.5,2-2.5
		s2,1.1,2,2.5S23.7,13.5,22.6,13.5z"/>
</g>
</svg>
