<?xml version="1.0" encoding="UTF-8" standalone="no"?>
<!-- Generator: Adobe Illustrator 19.2.1, SVG Export Plug-In . SVG Version: 6.00 Build 0)  -->

<svg
   xmlns:dc="http://purl.org/dc/elements/1.1/"
   xmlns:cc="http://creativecommons.org/ns#"
   xmlns:rdf="http://www.w3.org/1999/02/22-rdf-syntax-ns#"
   xmlns:svg="http://www.w3.org/2000/svg"
   xmlns="http://www.w3.org/2000/svg"
   xmlns:sodipodi="http://sodipodi.sourceforge.net/DTD/sodipodi-0.dtd"
   xmlns:inkscape="http://www.inkscape.org/namespaces/inkscape"
   version="1.1"
   id="Ebene_1"
   x="0px"
   y="0px"
   width="38"
   height="45"
   viewBox="0 0 38 45"
   xml:space="preserve"
   inkscape:version="0.91 r13725"
   sodipodi:docname="handModeturnon.svg"><metadata
     id="metadata3380"><rdf:RDF><cc:Work
         rdf:about=""><dc:format>image/svg+xml</dc:format><dc:type
           rdf:resource="http://purl.org/dc/dcmitype/StillImage" /><dc:title></dc:title></cc:Work></rdf:RDF></metadata><defs
     id="defs3378" /><sodipodi:namedview
     pagecolor="#ffffff"
     bordercolor="#666666"
     borderopacity="1"
     objecttolerance="10"
     gridtolerance="10"
     guidetolerance="10"
     inkscape:pageopacity="0"
     inkscape:pageshadow="2"
     inkscape:window-width="1677"
     inkscape:window-height="984"
     id="namedview3376"
     showgrid="false"
     showguides="false"
     inkscape:guide-bbox="true"
     inkscape:zoom="17.566021"
     inkscape:cx="18.177582"
     inkscape:cy="27.414152"
     inkscape:window-x="0"
     inkscape:window-y="0"
     inkscape:window-maximized="0"
     inkscape:current-layer="Ebene_1"><sodipodi:guide
       position="19.64019,36.377048"
       orientation="1,0"
       id="guide3395" /></sodipodi:namedview><style
     type="text/css"
     id="style3368">
	.st0{fill:none;}
	.st1{fill:#3B4654;}
</style><rect
     style="fill:none"
     y="7"
     x="0"
     id="rect3372"
     height="38"
     width="38"
     class="st0" /><path
     inkscape:connector-curvature="0"
     id="path3374"
     d="m 29,12.752703 c 0,-0.7 -0.3,-1.9 -1.5,-1.9 -1.2,0 -1.5,1.2 -1.5,1.7 l 0,4.5 c -0.2,-0.1 -0.7,-0.1 -0.9,-0.1 -0.1,0 -0.1,0 -0.1,0 l 0,-8.3000006 c 0,-0.5 -0.3,-1.8 -1.5,-1.8 -1.2,0 -1.5,1.3 -1.5,1.8 l 0,7.8000006 c -0.2,-0.1 -0.7,-0.1 -1,-0.1 l 0,-9.7000006 c 0,-0.5 -0.3,-1.8 -1.5,-1.8 -1.2,0 -1.5,1.3 -1.5,1.8 l 0,10.1000006 c -0.3,0.1 -0.8,0.2 -1,0.4 l 0,-7.5000006 c 0,-0.5 -0.3,-1.8 -1.5,-1.8 -1.2,0 -1.5,1.3 -1.5,1.8 l 0,11.5000006 c -0.3,-0.6 -1.7,-3 -2,-3.9 -0.3,-0.9 -0.8,-1.2 -1.2,-1.2 -1,-0.1 -1.8,0.6 -1.8,1.3 0,0.6 1.2,4.8 2.5,6.8 1.5,2.6 2.8,8.8 9.5,8.8 4.9,0.5 6.4,-3.1 6.9,-4.4 1.2,-3.5 1.1,-6.4 1.1,-6.4 l 0,-9.4 z"
     class="st1" /><style
     id="style3383"
     type="text/css">
	.st0{fill:#485767;}
</style><polygon
     id="polygon3385"
     points="17,4 8.5,0 0,4 "
     class="st0"
     style="fill:#89b9d2;fill-rule:nonzero;fill-opacity:1"
     transform="translate(11.071,41.067797)" /></svg>