<?xml version="1.0" encoding="utf-8"?>
<!-- Generator: Adobe Illustrator 19.2.1, SVG Export Plug-In . SVG Version: 6.00 Build 0)  -->
<svg version="1.1" id="Ebene_1" xmlns="http://www.w3.org/2000/svg" xmlns:xlink="http://www.w3.org/1999/xlink" x="0px" y="0px"
	 width="38px" height="38px" viewBox="0 0 38 38" style="enable-background:new 0 0 38 38;" xml:space="preserve">
<style type="text/css">
	.st0{fill:none;}
	.st1{fill:#3B4654;}
</style>
<g>
	<rect class="st0" width="38" height="38"/>
	<path class="st1" d="M29,12.7c0-0.7-0.3-1.9-1.5-1.9c-1.2,0-1.5,1.2-1.5,1.7V17c-0.2-0.1-0.7-0.1-0.9-0.1c-0.1,0-0.1,0-0.1,0V8.6
		c0-0.5-0.3-1.8-1.5-1.8c-1.2,0-1.5,1.3-1.5,1.8v7.8c-0.2-0.1-0.7-0.1-1-0.1V6.6c0-0.5-0.3-1.8-1.5-1.8S18,6.1,18,6.6v10.1
		c-0.3,0.1-0.8,0.2-1,0.4V9.6c0-0.5-0.3-1.8-1.5-1.8S14,9.1,14,9.6v11.5c-0.3-0.6-1.7-3-2-3.9c-0.3-0.9-0.8-1.2-1.2-1.2
		c-1-0.1-1.8,0.6-1.8,1.3c0,0.6,1.2,4.8,2.5,6.8c1.5,2.6,2.8,8.8,9.5,8.8c4.9,0.5,6.4-3.1,6.9-4.4c1.2-3.5,1.1-6.4,1.1-6.4V12.7z"/>
</g>
</svg>
