<?xml version="1.0" encoding="utf-8"?>
<!-- Generator: Adobe Illustrator 19.2.1, SVG Export Plug-In . SVG Version: 6.00 Build 0)  -->
<svg version="1.1" id="Ebene_1" xmlns="http://www.w3.org/2000/svg" xmlns:xlink="http://www.w3.org/1999/xlink" x="0px" y="0px"
	 width="38px" height="38px" viewBox="0 0 38 38" style="enable-background:new 0 0 38 38;" xml:space="preserve">
<style type="text/css">
	.st0{fill:none;}
	.st1{fill:#3B4654;}
</style>
<g>
	<rect class="st0" width="38" height="38"/>
	<path class="st1" d="M36,23.2c0-4.2-4-6.8-4-6.8v0.1c-0.1,0.7-0.4,1.5-0.8,2.1c-0.9,1.3-2.7,2.4-4.3,2.4c-0.7,0-1.4-0.2-2-0.4
		c0,0-0.8,3-0.8,5.3s0,5,0,5h12C36,31,36,27.4,36,23.2z"/>
	<path class="st1" d="M13.3,12.3c-0.7-0.5-1.3-1.2-1.6-2c-1.1,1.4-5.2,6.4-5.5,6.7c-0.3,0.4-0.5,1.5,0.4,2.2c1.1,0.7,2.2,0.3,2.5,0
		C9.4,19,12.7,15,14.2,13L13.3,12.3z"/>
	<path class="st1" d="M28.6,13.3L17.9,5.7c-1.3-1-3.2-0.6-4.2,0.7l0,0c-0.9,1.4-0.6,3.2,0.7,4.2l10.7,7.6c1.3,1,3.2,0.6,4.2-0.7l0,0
		C30.2,16.1,29.9,14.2,28.6,13.3z M16,10.1c-1.2,0-2.1-0.9-2.1-2.1s0.9-2.1,2.1-2.1s2.1,0.9,2.1,2.1S17.2,10.1,16,10.1z"/>
	<rect y="19" class="st1" width="6" height="2"/>
	<rect x="5" y="20" class="st1" width="2" height="6"/>
	<rect x="0.5" y="20.2" transform="matrix(0.7071 -0.7071 0.7071 0.7071 -13.6348 9.5826)" class="st1" width="8.5" height="2.1"/>
</g>
</svg>
