<?xml version="1.0" encoding="utf-8"?>
<!-- Generator: Adobe Illustrator 20.0.0, SVG Export Plug-In . SVG Version: 6.00 Build 0)  -->
<svg version="1.1" id="Ebene_1" xmlns="http://www.w3.org/2000/svg" xmlns:xlink="http://www.w3.org/1999/xlink" x="0px" y="0px"
	 width="38px" height="38px" viewBox="0 0 38 38" style="enable-background:new 0 0 38 38;" xml:space="preserve">
<style type="text/css">
	.st0{fill:none;}
	.st1{fill:#3B4654;}
</style>
<g>
	<rect class="st0" width="38" height="38"/>
	<path class="st1" d="M32.9637,26.8578l-0.0008-0.0245l-0.0166-0.1043c-0.0213-0.1674-0.0584-0.3605-0.1075-0.5524
		c-0.0125-0.0579-0.0271-0.1126-0.0444-0.1661c-0.1089-0.3971-0.2802-0.812-0.498-1.1966c-0.0161-0.0302-0.0418-0.072-0.0678-0.1132
		l-0.0062-0.0105l-0.0229-0.0367c-0.0886-0.1416-0.1816-0.2809-0.2836-0.4168c-0.0311-0.0429-0.0715-0.0959-0.1122-0.1473
		c-0.0497-0.0623-0.121-0.1437-0.1919-0.2223l-0.3017-0.3218c0,0-0.3285-0.2916-0.5027-0.4222
		c-0.0567-0.0419-0.1067-0.0782-0.1573-0.1132c-0.1392-0.0971-0.2835-0.191-0.4297-0.2762l-0.0013-0.0007l-0.0568-0.0319
		c-0.0374-0.0217-0.075-0.0428-0.1132-0.062c-0.3729-0.2008-0.7933-0.3654-1.2297-0.4788
		c-0.0342-0.0105-0.0697-0.0198-0.1054-0.0283c-0.2315-0.0535-0.4257-0.0892-0.608-0.1127l-0.0632-0.0133l-0.0498-0.0015
		c-1.6767-0.12-2.1387,0.2947-2.3124,0.3402L14.7024,11.9136c0.0502-0.1611,0.7336-0.6265,0.5769-2.0718l-0.0029-0.0225
		l-0.0099-0.0571c-0.0206-0.1617-0.0607-0.3673-0.1142-0.5782c-0.0081-0.0384-0.0165-0.0743-0.0266-0.1094
		c-0.1165-0.4231-0.29-0.8408-0.5132-1.2328l-0.0495-0.0832l-0.0305-0.0511c-0.1057-0.1671-0.1982-0.3088-0.3015-0.4444
		l-0.0391-0.0515l-0.0701-0.0915c-0.1294-0.161-0.2485-0.2967-0.3691-0.4204l-0.0051-0.009L13.6514,6.598
		c-0.1551-0.148-0.33-0.2959-0.5199-0.4396c-0.024-0.0192-0.0644-0.048-0.1056-0.0766l-0.0141-0.0105l-0.0469-0.0329
		c-0.142-0.0976-0.285-0.1904-0.4354-0.2753c-0.0232-0.0157-0.085-0.0516-0.1493-0.0856c-0.3855-0.2083-0.8052-0.373-1.2407-0.486
		C11.1009,5.1804,11.061,5.1708,11.02,5.1619c-0.2075-0.0494-0.4087-0.0864-0.6101-0.1126l-0.0402-0.0058
		C10.1148,5.0131,9.8896,5,9.6672,5c-0.2264,0-0.455,0.0136-0.6805,0.0405H8.9462L8.8726,5.0547
		c-0.1875,0.0255-0.372,0.0598-0.5504,0.1022H8.3193L8.2052,5.1853c-0.2403,0.0614-0.4837,0.1432-0.744,0.2498L7.0601,5.6128
		l3.7954,3.715l-2.5287,2.1066L4.5649,8.0168L4.4526,8.3565C4.3404,8.6111,4.2544,8.8506,4.1898,9.0884l-0.1469,0.741L4.0414,9.8401
		L4.0411,9.8534c-0.0532,0.4297-0.0548,0.8628-0.0048,1.2888l0.0008,0.0245l0.0166,0.1043
		c0.0213,0.1674,0.0584,0.3605,0.1075,0.5524c0.0125,0.0579,0.0271,0.1126,0.0444,0.1661c0.1089,0.3971,0.2802,0.812,0.498,1.1966
		c0.0162,0.0302,0.0418,0.072,0.0678,0.1132l0.0062,0.0105l0.0229,0.0367c0.0886,0.1416,0.1816,0.2809,0.2836,0.4168
		c0.0311,0.0429,0.0715,0.0959,0.1122,0.1473c0.0497,0.0623,0.121,0.1437,0.1919,0.2223l0.3017,0.3218
		c0,0,0.3285,0.2916,0.5027,0.4222c0.0567,0.0419,0.1067,0.0782,0.1573,0.1132c0.1392,0.0971,0.2835,0.191,0.4297,0.2762
		l0.0013,0.0007l0.0568,0.0319c0.0374,0.0217,0.075,0.0428,0.1132,0.062c0.3729,0.2008,0.7933,0.3654,1.2297,0.4788
		c0.0342,0.0105,0.0697,0.0198,0.1054,0.0283c0.2315,0.0535,0.4257,0.0892,0.608,0.1127l0.113,0.0149
		c1.3584,0.0228,2.1869-0.6253,2.1869-0.6253l10.9783,10.4309c0,0-0.6782,1.171-0.4513,2.357l0.0029,0.0225l0.0099,0.0571
		c0.0206,0.1617,0.0607,0.3673,0.1142,0.5782c0.0081,0.0384,0.0165,0.0743,0.0266,0.1094c0.1165,0.4231,0.29,0.8408,0.5132,1.2328
		l0.0495,0.0832l0.0305,0.0511c0.1057,0.1671,0.1982,0.3088,0.3015,0.4444l0.0391,0.0515l0.0701,0.0915
		c0.1294,0.161,0.2485,0.2967,0.3691,0.4204l0.0051,0.009l0.0962,0.0927c0.1551,0.148,0.33,0.2959,0.5199,0.4396
		c0.024,0.0192,0.0644,0.048,0.1056,0.0766l0.0141,0.0105l0.0469,0.0329c0.142,0.0976,0.285,0.1904,0.4354,0.2753
		c0.0232,0.0157,0.085,0.0516,0.1493,0.0856c0.3855,0.2083,0.8052,0.373,1.2407,0.486c0.0385,0.0112,0.0783,0.0208,0.1193,0.0297
		c0.2075,0.0494,0.4087,0.0864,0.6101,0.1126l0.0402,0.0058C26.8852,32.9869,27.1104,33,27.3328,33
		c0.2264,0,0.455-0.0136,0.6805-0.0405h0.0405l0.0736-0.0142c0.1875-0.0255,0.372-0.0598,0.5504-0.1022h0.0029l0.1141-0.0284
		c0.2403-0.0614,0.4837-0.1432,0.744-0.2498l0.3954-0.1519l-3.7606-3.7497l2.4176-2.0753l3.7967,3.348l0.1594-0.2925
		c0.1122-0.2546,0.1982-0.4941,0.2628-0.7319l0.1469-0.741l0.0015-0.0106l0.0003-0.0133
		C33.0121,27.7169,33.0137,27.2838,32.9637,26.8578z"/>
</g>
</svg>
