<?xml version="1.0" encoding="UTF-8" standalone="no"?>
<!-- Generator: Adobe Illustrator 19.0.0, SVG Export Plug-In . SVG Version: 6.00 Build 0)  -->

<svg
   xmlns:dc="http://purl.org/dc/elements/1.1/"
   xmlns:cc="http://creativecommons.org/ns#"
   xmlns:rdf="http://www.w3.org/1999/02/22-rdf-syntax-ns#"
   xmlns:svg="http://www.w3.org/2000/svg"
   xmlns="http://www.w3.org/2000/svg"
   xmlns:sodipodi="http://sodipodi.sourceforge.net/DTD/sodipodi-0.dtd"
   xmlns:inkscape="http://www.inkscape.org/namespaces/inkscape"
   version="1.1"
   id="Capa_1"
   x="0px"
   y="0px"
   viewBox="0 0 20 16"
   xml:space="preserve"
   sodipodi:docname="acknowledge.svg"
   width="20"
   height="16"
   inkscape:version="0.92.3 (2405546, 2018-03-11)"><metadata
   id="metadata47"><rdf:RDF><cc:Work
       rdf:about=""><dc:format>image/svg+xml</dc:format><dc:type
         rdf:resource="http://purl.org/dc/dcmitype/StillImage" /><dc:title></dc:title></cc:Work></rdf:RDF></metadata><defs
   id="defs45" /><sodipodi:namedview
   pagecolor="#ffffff"
   bordercolor="#666666"
   borderopacity="1"
   objecttolerance="10"
   gridtolerance="10"
   guidetolerance="10"
   inkscape:pageopacity="0"
   inkscape:pageshadow="2"
   inkscape:window-width="1920"
   inkscape:window-height="1017"
   id="namedview43"
   showgrid="false"
   inkscape:zoom="29.5"
   inkscape:cx="17.103897"
   inkscape:cy="10.794217"
   inkscape:window-x="-8"
   inkscape:window-y="-8"
   inkscape:window-maximized="1"
   inkscape:current-layer="g6" />
<g
   transform="matrix(0.09277344,0,0,-0.09277344,0,-18.660156)"
   id="g10">
	<g
   id="g8">
		<g
   id="g6">
			<path
   style="fill:#3b4654;fill-opacity:1;stroke-width:0.47075117"
   d="m 215.57894,-354.43747 c 0,-10.58274 -10.72526,-19.16253 -23.95316,-19.16253 H 23.953157 C 10.725263,-373.6 0,-365.01979 0,-354.43747 v 134.1381 c 0,10.58231 10.725263,19.16252 23.953157,19.16252 H 191.62578 c 13.2279,0 23.95316,-8.58021 23.95316,-19.16252 z"
   id="path2"
   inkscape:connector-curvature="0" />
			
		<path
   inkscape:connector-curvature="0"
   style="fill:#ffffff;stroke-width:0.30122501"
   d="m 32.753405,-294.36417 h 20.189906 l -9.880777,30.81773 h -0.212368 z m -1.168747,38.57728 c 1.806135,4.88738 5.949791,8.81835 11.371545,8.81835 5.631084,0 9.565393,-3.71861 11.368223,-8.81835 l 20.83091,-57.80779 c 0.634083,-1.6998 0.850066,-3.19086 0.850066,-3.9346 0,-4.14365 -3.403242,-7.01222 -7.330924,-7.01222 -4.46565,0 -6.696823,2.33751 -7.759248,5.52477 l -3.187259,9.99043 h -29.54294 l -3.187276,-9.8844 c -1.062408,-3.29358 -3.296903,-5.6311 -7.653212,-5.6311 -4.249684,0 -7.8622761,3.18726 -7.8622761,7.43725 0,1.69982 0.5313591,2.9749 0.7437281,3.50957 z"
   id="path4-4" /><path
   inkscape:connector-curvature="0"
   style="fill:#ffffff;stroke-width:0.29765615"
   d="m 115.82037,-247.27176 c 7.66732,0 22.57543,-2.51965 22.57543,-11.76187 0,-3.77965 -2.62473,-7.03421 -6.50914,-7.03421 -4.3044,0 -7.24407,3.67456 -16.06629,3.67456 -13.01828,0 -19.740851,-11.02697 -19.740851,-23.83541 0,-12.49351 6.824061,-23.20556 19.740851,-23.20556 8.82222,0 12.38845,4.40589 16.69612,4.40589 4.72768,0 6.93242,-4.72112 6.93242,-7.1357 0,-10.0822 -15.85643,-12.39172 -23.62884,-12.39172 -21.315751,0 -36.122052,16.90627 -36.122052,38.64171 0,21.84111 14.701531,38.64231 36.122352,38.64231"
   id="path4-8" /><path
   inkscape:connector-curvature="0"
   style="fill:#ffffff;stroke-width:0.30241573"
   d="m 147.17585,-255.01967 c 0,4.37322 3.19986,7.89334 7.99981,7.89334 4.58674,0 7.9998,-2.98666 7.9998,-7.89334 v -23.04319 l 26.24665,27.94987 c 1.17671,1.28014 3.19988,2.98666 6.19016,2.98666 4.04995,0 7.89667,-3.08978 7.89667,-7.67985 0,-2.77315 -1.70653,-5.01314 -5.22997,-8.53327 l -20.16659,-19.84662 24.64325,-25.70986 c 2.55994,-2.55997 4.48331,-4.90671 4.48331,-8.10991 0,-5.01313 -3.94652,-7.35655 -8.31976,-7.35655 -3.09341,0 -5.12352,1.80995 -8.10987,5.01315 l -27.63325,29.8696 v -27.20322 c 0,-4.16333 -3.19653,-7.67983 -7.99981,-7.67983 -4.58673,0 -7.99979,2.98333 -7.99979,7.67983 z"
   id="path4-0" /></g>
	</g>
</g>
<g
   id="g12"
   transform="matrix(0.07421875,0,0,0.07421875,0,-22)">
</g>
<g
   id="g14"
   transform="matrix(0.07421875,0,0,0.07421875,0,-22)">
</g>
<g
   id="g16"
   transform="matrix(0.07421875,0,0,0.07421875,0,-22)">
</g>
<g
   id="g18"
   transform="matrix(0.07421875,0,0,0.07421875,0,-22)">
</g>
<g
   id="g20"
   transform="matrix(0.07421875,0,0,0.07421875,0,-22)">
</g>
<g
   id="g22"
   transform="matrix(0.07421875,0,0,0.07421875,0,-22)">
</g>
<g
   id="g24"
   transform="matrix(0.07421875,0,0,0.07421875,0,-22)">
</g>
<g
   id="g26"
   transform="matrix(0.07421875,0,0,0.07421875,0,-22)">
</g>
<g
   id="g28"
   transform="matrix(0.07421875,0,0,0.07421875,0,-22)">
</g>
<g
   id="g30"
   transform="matrix(0.07421875,0,0,0.07421875,0,-22)">
</g>
<g
   id="g32"
   transform="matrix(0.07421875,0,0,0.07421875,0,-22)">
</g>
<g
   id="g34"
   transform="matrix(0.07421875,0,0,0.07421875,0,-22)">
</g>
<g
   id="g36"
   transform="matrix(0.07421875,0,0,0.07421875,0,-22)">
</g>
<g
   id="g38"
   transform="matrix(0.07421875,0,0,0.07421875,0,-22)">
</g>
<g
   id="g40"
   transform="matrix(0.07421875,0,0,0.07421875,0,-22)">
</g>
</svg>