<?xml version="1.0" encoding="UTF-8" standalone="no"?>
<!-- Generator: Adobe Illustrator 19.2.1, SVG Export Plug-In . SVG Version: 6.00 Build 0)  -->

<svg
   xmlns:dc="http://purl.org/dc/elements/1.1/"
   xmlns:cc="http://creativecommons.org/ns#"
   xmlns:rdf="http://www.w3.org/1999/02/22-rdf-syntax-ns#"
   xmlns:svg="http://www.w3.org/2000/svg"
   xmlns="http://www.w3.org/2000/svg"
   xmlns:sodipodi="http://sodipodi.sourceforge.net/DTD/sodipodi-0.dtd"
   xmlns:inkscape="http://www.inkscape.org/namespaces/inkscape"
   version="1.1"
   id="Ebene_1"
   x="0px"
   y="0px"
   width="38px"
   height="38px"
   viewBox="0 0 38 38"
   style="enable-background:new 0 0 38 38;"
   xml:space="preserve"
   inkscape:version="0.91 r13725"
   sodipodi:docname="alarmLogbookDisabled.svg"><metadata
     id="metadata21"><rdf:RDF><cc:Work
         rdf:about=""><dc:format>image/svg+xml</dc:format><dc:type
           rdf:resource="http://purl.org/dc/dcmitype/StillImage" /><dc:title></dc:title></cc:Work></rdf:RDF></metadata><defs
     id="defs19" /><sodipodi:namedview
     pagecolor="#ffffff"
     bordercolor="#666666"
     borderopacity="1"
     objecttolerance="10"
     gridtolerance="10"
     guidetolerance="10"
     inkscape:pageopacity="0"
     inkscape:pageshadow="2"
     inkscape:window-width="1432"
     inkscape:window-height="787"
     id="namedview17"
     showgrid="false"
     inkscape:zoom="6.2105263"
     inkscape:cx="19"
     inkscape:cy="19"
     inkscape:window-x="3200"
     inkscape:window-y="189"
     inkscape:window-maximized="0"
     inkscape:current-layer="g5" /><style
     type="text/css"
     id="style3">
	.st0{fill:none;}
	.st1{fill:#3B4654;}
</style><g
     id="g5"><rect
       class="st0"
       width="38"
       height="38"
       id="rect7" /><path
       class="st1"
       d="m 1,7 0,4 26,0 0,-4 -26,0 z m 0,12 12.1,0 c 1.3,-1 3.2,-2.1 5.9,-2.1 2.4,0 4,0.9 5,1.7 0.7,-0.6 1.7,-1.2 3,-1.5 L 27,15 1,15 1,19 Z m 0,8 10,0 0,-4 -10,0 0,4 z"
       id="path9"
       style="opacity:0.5;fill:#3b4654"
       inkscape:connector-curvature="0" /><g
       id="g11"
       style="opacity:0.5"><path
         class="st1"
         d="m 23,20.6 c -0.8,-0.8 -2,-1.5 -4,-1.5 -4,0 -6,3 -6,3 l 0,11 c 0,0 1.9,-1.3 6,-1.3 2,0 3.3,0.5 4,0.8 l 0,-12 z"
         id="path13"
         inkscape:connector-curvature="0"
         style="fill:#3b4654" /><path
         class="st1"
         d="m 29,19.1 c -2,0 -3.2,0.8 -4,1.5 l 0,12 c 0.7,-0.2 2,-0.8 4,-0.8 4,0 6,1.3 6,1.3 l 0,-11 c 0,0 -2,-3 -6,-3 z"
         id="path15"
         inkscape:connector-curvature="0"
         style="fill:#3b4654" /></g></g></svg>