<?xml version="1.0" encoding="UTF-8" standalone="no"?>
<!-- Generator: Adobe Illustrator 19.2.1, SVG Export Plug-In . SVG Version: 6.00 Build 0)  -->

<svg
   xmlns:dc="http://purl.org/dc/elements/1.1/"
   xmlns:cc="http://creativecommons.org/ns#"
   xmlns:rdf="http://www.w3.org/1999/02/22-rdf-syntax-ns#"
   xmlns:svg="http://www.w3.org/2000/svg"
   xmlns="http://www.w3.org/2000/svg"
   xmlns:sodipodi="http://sodipodi.sourceforge.net/DTD/sodipodi-0.dtd"
   xmlns:inkscape="http://www.inkscape.org/namespaces/inkscape"
   version="1.1"
   id="Ebene_1"
   x="0px"
   y="0px"
   width="20px"
   height="16px"
   viewBox="0 0 20 16"
   style="enable-background:new 0 0 20 16;"
   xml:space="preserve"
   inkscape:version="0.91 r13725"
   sodipodi:docname="linestop.svg"><metadata
     id="metadata21"><rdf:RDF><cc:Work
         rdf:about=""><dc:format>image/svg+xml</dc:format><dc:type
           rdf:resource="http://purl.org/dc/dcmitype/StillImage" /><dc:title></dc:title></cc:Work></rdf:RDF></metadata><defs
     id="defs19" /><sodipodi:namedview
     pagecolor="#ffffff"
     bordercolor="#666666"
     borderopacity="1"
     objecttolerance="10"
     gridtolerance="10"
     guidetolerance="10"
     inkscape:pageopacity="0"
     inkscape:pageshadow="2"
     inkscape:window-width="1680"
     inkscape:window-height="988"
     id="namedview17"
     showgrid="false"
     inkscape:zoom="14.75"
     inkscape:cx="11.893484"
     inkscape:cy="2.0997018"
     inkscape:window-x="1358"
     inkscape:window-y="-8"
     inkscape:window-maximized="1"
     inkscape:current-layer="Ebene_1" /><style
     type="text/css"
     id="style3">
	.st0{fill:none;}
	.st1{fill:#F27019;}
	.st2{fill:#FFFFFF;}
</style><rect
     class="st0"
     width="20"
     height="16"
     id="rect5" /><g
     id="g7"><path
       class="st1"
       d="M20,12c0,2.2-1.8,4-4,4H4c-2.2,0-4-1.8-4-4V4c0-2.2,1.8-4,4-4h12c2.2,0,4,1.8,4,4V12z"
       id="path9"
       style="fill:#3b4654;fill-opacity:1" /></g><path
     inkscape:connector-curvature="0"
     class="st1"
     d="m 14.898898,4.7099883 c 0,-0.3730375 -0.161984,-1.0125305 -0.809917,-1.0125305 -0.647935,0 -0.809918,0.639493 -0.809918,0.9059484 l 0,2.3980991 c -0.107989,-0.053287 -0.377962,-0.053287 -0.48595,-0.053287 -0.05399,0 -0.05399,0 -0.05399,0 l 0,-4.4231601 c 0,-0.2664555 -0.161983,-0.9592396 -0.809918,-0.9592396 -0.647933,0 -0.809917,0.6927841 -0.809917,0.9592396 l 0,4.1567047 C 11.0113,6.6284749 10.741327,6.6284749 10.579343,6.6284749 l 0,-5.1692352 c -4e-6,-0.2664554 -0.161986,-0.95923947 -0.8099206,-0.95923947 -0.6479341,0 -0.8099175,0.69278407 -0.8099175,0.95923947 l 0,5.3823993 C 8.7975205,6.8949265 8.527548,6.9482215 8.4195591,7.054804 l 0,-3.9968318 c 0,-0.2664554 -0.1619835,-0.9592395 -0.8099174,-0.9592395 -0.6479338,0 -0.8099172,0.6927841 -0.8099172,0.9592395 l 0,6.1284743 C 6.6377409,8.8667 5.881818,7.5877146 5.7198347,7.1080943 5.5578511,6.6284749 5.2878787,6.4686012 5.0719008,6.4686012 4.5319559,6.4153137 4.1,6.7883478 4.1,7.1613856 c 0,0.3197465 0.6479338,2.557972 1.3498622,3.6237934 0.8099172,1.385569 1.5118456,4.689616 5.1294758,4.689616 2.64573,0.266456 3.455648,-1.652024 3.72562,-2.344807 0.647934,-1.865188 0.59394,-3.4106304 0.59394,-3.4106304 l 0,-5.0093618 z"
     id="path9-1"
     style="fill:#ffffff;fill-opacity:1" /></svg>