<?xml version="1.0" encoding="UTF-8" standalone="no"?>
<!-- Generator: Adobe Illustrator 19.2.1, SVG Export Plug-In . SVG Version: 6.00 Build 0)  -->

<svg
   xmlns:dc="http://purl.org/dc/elements/1.1/"
   xmlns:cc="http://creativecommons.org/ns#"
   xmlns:rdf="http://www.w3.org/1999/02/22-rdf-syntax-ns#"
   xmlns:svg="http://www.w3.org/2000/svg"
   xmlns="http://www.w3.org/2000/svg"
   xmlns:sodipodi="http://sodipodi.sourceforge.net/DTD/sodipodi-0.dtd"
   xmlns:inkscape="http://www.inkscape.org/namespaces/inkscape"
   version="1.1"
   id="Ebene_1"
   x="0px"
   y="0px"
   width="20px"
   height="16px"
   viewBox="0 0 20 16"
   style="enable-background:new 0 0 20 16;"
   xml:space="preserve"
   inkscape:version="0.91 r13725"
   sodipodi:docname="eight.svg"><metadata
     id="metadata21"><rdf:RDF><cc:Work
         rdf:about=""><dc:format>image/svg+xml</dc:format><dc:type
           rdf:resource="http://purl.org/dc/dcmitype/StillImage" /><dc:title /></cc:Work></rdf:RDF></metadata><defs
     id="defs19" /><sodipodi:namedview
     pagecolor="#ffffff"
     bordercolor="#666666"
     borderopacity="1"
     objecttolerance="10"
     gridtolerance="10"
     guidetolerance="10"
     inkscape:pageopacity="0"
     inkscape:pageshadow="2"
     inkscape:window-width="1680"
     inkscape:window-height="988"
     id="namedview17"
     showgrid="false"
     inkscape:zoom="18.097514"
     inkscape:cx="10.43367"
     inkscape:cy="10.019259"
     inkscape:window-x="1358"
     inkscape:window-y="-8"
     inkscape:window-maximized="1"
     inkscape:current-layer="Ebene_1" /><style
     type="text/css"
     id="style3">
	.st0{fill:none;}
	.st1{fill:#F27019;}
	.st2{fill:#FFFFFF;}
</style><rect
     class="st0"
     width="20"
     height="16"
     id="rect5" /><g
     id="g7"><path
       class="st1"
       d="m 20,12 c 0,2.2 -1.8,4 -4,4 L 4,16 C 1.8,16 0,14.2 0,12 L 0,4 C 0,1.8 1.8,0 4,0 l 12,0 c 2.2,0 4,1.8 4,4 l 0,8 z"
       id="path9"
       style="fill:#3b4654;fill-opacity:1"
       inkscape:connector-curvature="0" /></g><path
     inkscape:connector-curvature="0"
     style="fill:#ffffff;fill-opacity:1"
     d="M 13.5,4.8339541 C 13.5,2.9956154 11.929894,1.5 9.9999998,1.5 8.0701064,1.5 6.5,2.9956154 6.5,4.8339541 l 0,0.7915094 C 6.5,6.5540622 6.9009961,7.3948848 7.5463141,8.0000002 6.9009961,8.6051155 6.5,9.445938 6.5,10.374537 l 0,0.791509 C 6.5,13.004385 8.0701064,14.5 9.9999998,14.5 11.929894,14.5 13.5,13.004385 13.5,11.166046 l 0,-0.791509 C 13.5,9.445938 13.099004,8.6051155 12.453686,8.0000002 13.099004,7.3948848 13.5,6.5540622 13.5,5.6254635 l 0,-0.7915094 z m -2.014414,6.3320919 c 0,0.780329 -0.666387,1.415102 -1.4855862,1.415102 -0.8191984,0 -1.4855856,-0.634773 -1.4855856,-1.415102 l 0,-0.791509 c 0,-0.780338 0.6663872,-1.4151108 1.4855856,-1.4151108 0.8191992,0 1.4855862,0.6347728 1.4855862,1.4151108 l 0,0.791509 z m 0,-5.5405825 c 0,0.780338 -0.666387,1.4151107 -1.4855862,1.4151107 -0.8191984,0 -1.4855856,-0.6347727 -1.4855856,-1.4151107 l 0,-0.7915094 c 0,-0.7803293 0.6663872,-1.415102 1.4855856,-1.415102 0.8191992,0 1.4855862,0.6347727 1.4855862,1.415102 l 0,0.7915094 z"
     id="path11" /></svg>