<?xml version="1.0" encoding="UTF-8" standalone="no"?>
<!-- Generator: Adobe Illustrator 19.2.1, SVG Export Plug-In . SVG Version: 6.00 Build 0)  -->

<svg
   xmlns:dc="http://purl.org/dc/elements/1.1/"
   xmlns:cc="http://creativecommons.org/ns#"
   xmlns:rdf="http://www.w3.org/1999/02/22-rdf-syntax-ns#"
   xmlns:svg="http://www.w3.org/2000/svg"
   xmlns="http://www.w3.org/2000/svg"
   xmlns:sodipodi="http://sodipodi.sourceforge.net/DTD/sodipodi-0.dtd"
   xmlns:inkscape="http://www.inkscape.org/namespaces/inkscape"
   version="1.1"
   id="Ebene_1"
   x="0px"
   y="0px"
   width="20px"
   height="16px"
   viewBox="0 0 20 16"
   style="enable-background:new 0 0 20 16;"
   xml:space="preserve"
   inkscape:version="0.91 r13725"
   sodipodi:docname="nine.svg"><metadata
     id="metadata21"><rdf:RDF><cc:Work
         rdf:about=""><dc:format>image/svg+xml</dc:format><dc:type
           rdf:resource="http://purl.org/dc/dcmitype/StillImage" /><dc:title /></cc:Work></rdf:RDF></metadata><defs
     id="defs19" /><sodipodi:namedview
     pagecolor="#ffffff"
     bordercolor="#666666"
     borderopacity="1"
     objecttolerance="10"
     gridtolerance="10"
     guidetolerance="10"
     inkscape:pageopacity="0"
     inkscape:pageshadow="2"
     inkscape:window-width="1680"
     inkscape:window-height="988"
     id="namedview17"
     showgrid="false"
     inkscape:zoom="36.195028"
     inkscape:cx="5.898653"
     inkscape:cy="7.0491711"
     inkscape:window-x="1358"
     inkscape:window-y="-8"
     inkscape:window-maximized="1"
     inkscape:current-layer="Ebene_1" /><style
     type="text/css"
     id="style3">
	.st0{fill:none;}
	.st1{fill:#F27019;}
	.st2{fill:#FFFFFF;}
</style><rect
     class="st0"
     width="20"
     height="16"
     id="rect5" /><g
     id="g7"><path
       class="st1"
       d="m 20,12 c 0,2.2 -1.8,4 -4,4 L 4,16 C 1.8,16 0,14.2 0,12 L 0,4 C 0,1.8 1.8,0 4,0 l 12,0 c 2.2,0 4,1.8 4,4 l 0,8 z"
       id="path9"
       style="fill:#3b4654;fill-opacity:1"
       inkscape:connector-curvature="0" /></g><path
     inkscape:connector-curvature="0"
     style="fill:#ffffff;fill-opacity:1"
     d="m 10,14.5 c -1.929893,0 -3.5,-1.495615 -3.5,-3.333945 0,-0.529863 0.4509068,-0.959418 1.0072073,-0.959418 0.5562515,0 1.0072063,0.429512 1.0072063,0.959418 0,0.780286 0.6663878,1.415102 1.4855864,1.415102 0.819199,0 1.485586,-0.634816 1.485586,-1.415102 l 0,-2.5220872 C 11.034436,8.8461958 10.530783,8.9593998 10,8.9593998 c -1.929893,0 -3.5,-1.4956153 -3.5,-3.3339453 l 0,-0.7915093 C 6.5,2.9956153 8.070107,1.5 10,1.5 c 1.929893,0 3.5,1.4956153 3.5,3.3339452 l 0,6.3320658 C 13.5,13.004385 11.929893,14.5 10,14.5 Z M 10,3.4188866 c -0.8191986,0 -1.4855864,0.634816 -1.4855864,1.415102 l 0,0.7915093 c 0,0.7802859 0.6663878,1.4151019 1.4855864,1.4151019 0.819199,0 1.485586,-0.634816 1.485586,-1.4151019 l 0,-0.7915093 c 0,-0.780286 -0.666387,-1.415102 -1.485586,-1.415102 z"
     id="path11" /></svg>