<?xml version="1.0" encoding="UTF-8" standalone="no"?>
<!-- Generator: Adobe Illustrator 19.2.1, SVG Export Plug-In . SVG Version: 6.00 Build 0)  -->

<svg
   xmlns:dc="http://purl.org/dc/elements/1.1/"
   xmlns:cc="http://creativecommons.org/ns#"
   xmlns:rdf="http://www.w3.org/1999/02/22-rdf-syntax-ns#"
   xmlns:svg="http://www.w3.org/2000/svg"
   xmlns="http://www.w3.org/2000/svg"
   xmlns:sodipodi="http://sodipodi.sourceforge.net/DTD/sodipodi-0.dtd"
   xmlns:inkscape="http://www.inkscape.org/namespaces/inkscape"
   version="1.1"
   id="Ebene_1"
   x="0px"
   y="0px"
   width="20px"
   height="16px"
   viewBox="0 0 20 16"
   style="enable-background:new 0 0 20 16;"
   xml:space="preserve"
   inkscape:version="0.91 r13725"
   sodipodi:docname="eleven.svg"><metadata
     id="metadata21"><rdf:RDF><cc:Work
         rdf:about=""><dc:format>image/svg+xml</dc:format><dc:type
           rdf:resource="http://purl.org/dc/dcmitype/StillImage" /><dc:title /></cc:Work></rdf:RDF></metadata><defs
     id="defs19" /><sodipodi:namedview
     pagecolor="#ffffff"
     bordercolor="#666666"
     borderopacity="1"
     objecttolerance="10"
     gridtolerance="10"
     guidetolerance="10"
     inkscape:pageopacity="0"
     inkscape:pageshadow="2"
     inkscape:window-width="1680"
     inkscape:window-height="988"
     id="namedview17"
     showgrid="false"
     inkscape:zoom="14.481547"
     inkscape:cx="-20.180035"
     inkscape:cy="11.373952"
     inkscape:window-x="1358"
     inkscape:window-y="-8"
     inkscape:window-maximized="1"
     inkscape:current-layer="Ebene_1" /><style
     type="text/css"
     id="style3">
	.st0{fill:none;}
	.st1{fill:#F27019;}
	.st2{fill:#FFFFFF;}
</style><rect
     class="st0"
     width="20"
     height="16"
     id="rect5" /><g
     id="g7"><path
       class="st1"
       d="m 20,12 c 0,2.2 -1.8,4 -4,4 L 4,16 C 1.8,16 0,14.2 0,12 L 0,4 C 0,1.8 1.8,0 4,0 l 12,0 c 2.2,0 4,1.8 4,4 l 0,8 z"
       id="path9"
       style="fill:#3b4654;fill-opacity:1"
       inkscape:connector-curvature="0" /></g><path
     inkscape:connector-curvature="0"
     style="fill:#ffffff;fill-opacity:1"
     d="M 7.8183823,1.5500067 C 7.7136934,1.5162933 7.6063351,1.5 7.5000449,1.5 7.1929189,1.5 6.8954995,1.63611 6.7028662,1.8801113 L 4.2029529,5.0461486 c -0.3334796,0.422396 -0.2469914,1.0241053 0.1932642,1.3441047 0.1806453,0.1313086 0.3926925,0.1947746 0.6030891,0.1947313 0.3023703,0 0.6011968,-0.1310313 0.7978585,-0.3801113 l 0.7028271,-0.8901794 0,8.2258801 C 6.4999918,14.070437 6.9476743,14.5 7.4999963,14.5 8.0522698,14.5 8.5,14.070489 8.5,13.540574 L 8.5,2.459426 C 8.4998551,2.0473694 8.2255864,1.6812807 7.8183823,1.5500067 Z"
     id="path11-2" /><path
     inkscape:connector-curvature="0"
     style="fill:#ffffff;fill-opacity:1"
     d="M 14.318382,1.5500067 C 14.213693,1.5162933 14.106335,1.5 14.000045,1.5 c -0.307126,0 -0.604546,0.13611 -0.797179,0.3801113 l -2.499913,3.1660373 c -0.33348,0.422396 -0.246992,1.0241056 0.193264,1.3441049 0.180645,0.1313087 0.392692,0.1947747 0.603089,0.1947314 0.30237,0 0.601197,-0.1310314 0.797858,-0.3801113 l 0.702828,-0.8901797 0,8.2258801 c 0,0.529863 0.447682,0.959426 1.000004,0.959426 C 14.552269,14.5 15,14.070489 15,13.540574 L 15,2.459426 C 14.999855,2.0473693 14.725586,1.6812807 14.318382,1.5500067 Z"
     id="path11-2-6" /></svg>