<?xml version="1.0" encoding="UTF-8" standalone="no"?>
<!-- Generator: Adobe Illustrator 19.2.1, SVG Export Plug-In . SVG Version: 6.00 Build 0)  -->

<svg
   xmlns:dc="http://purl.org/dc/elements/1.1/"
   xmlns:cc="http://creativecommons.org/ns#"
   xmlns:rdf="http://www.w3.org/1999/02/22-rdf-syntax-ns#"
   xmlns:svg="http://www.w3.org/2000/svg"
   xmlns="http://www.w3.org/2000/svg"
   xmlns:sodipodi="http://sodipodi.sourceforge.net/DTD/sodipodi-0.dtd"
   xmlns:inkscape="http://www.inkscape.org/namespaces/inkscape"
   version="1.1"
   id="Ebene_1"
   x="0px"
   y="0px"
   width="20px"
   height="16px"
   viewBox="0 0 20 16"
   style="enable-background:new 0 0 20 16;"
   xml:space="preserve"
   inkscape:version="0.91 r13725"
   sodipodi:docname="operating.svg"><metadata
     id="metadata21"><rdf:RDF><cc:Work
         rdf:about=""><dc:format>image/svg+xml</dc:format><dc:type
           rdf:resource="http://purl.org/dc/dcmitype/StillImage" /><dc:title /></cc:Work></rdf:RDF></metadata><defs
     id="defs19" /><sodipodi:namedview
     pagecolor="#ffffff"
     bordercolor="#666666"
     borderopacity="1"
     objecttolerance="10"
     gridtolerance="10"
     guidetolerance="10"
     inkscape:pageopacity="0"
     inkscape:pageshadow="2"
     inkscape:window-width="1680"
     inkscape:window-height="988"
     id="namedview17"
     showgrid="false"
     inkscape:zoom="20.85965"
     inkscape:cx="8.5775275"
     inkscape:cy="9.2726384"
     inkscape:window-x="1358"
     inkscape:window-y="-8"
     inkscape:window-maximized="1"
     inkscape:current-layer="g5" /><style
     type="text/css"
     id="style3">
	.st0{fill:none;}
	.st1{fill:#F27019;}
	.st2{fill:#FFFFFF;}
</style><rect
     class="st0"
     width="20"
     height="16"
     id="rect5" /><g
     id="g7"><path
       class="st1"
       d="M20,12c0,2.2-1.8,4-4,4H4c-2.2,0-4-1.8-4-4V4c0-2.2,1.8-4,4-4h12c2.2,0,4,1.8,4,4V12z"
       id="path9"
       style="fill:#3b4654;fill-opacity:1" /><g
       id="g5"
       transform="matrix(0.42105263,0,0,0.42105263,19.661017,-2.8474576)"><rect
         class="st0"
         width="38"
         height="38"
         id="rect7"
         x="-41.944916"
         y="6.762712"
         style="fill:none" /><g
         id="g9"
         transform="matrix(1.18997,0,0,1.18997,4.2626112,-4.7979074)"><g
           id="g11"
           transform="translate(-41.944916,6.762712)"><path
             class="st1"
             d="M 19.5,9 C 24.7,9 29,13.3 29,18.5 29,23.7 24.7,28 19.5,28 14.3,28 10,23.7 10,18.5 10,13.3 14.3,9 19.5,9 m 0,-3 C 12.6,6 7,11.6 7,18.5 7,25.4 12.6,31 19.5,31 26.4,31 32,25.4 32,18.5 32,11.6 26.4,6 19.5,6 l 0,0 z"
             id="path13"
             inkscape:connector-curvature="0"
             style="fill:#ffffff;fill-opacity:1" /></g><rect
           x="-23.944916"
           y="19.762711"
           class="st1"
           width="3"
           height="11"
           id="rect15"
           style="fill:#ffffff;fill-opacity:1" /></g></g></g></svg>