<?xml version="1.0" encoding="UTF-8" standalone="no"?>
<!-- Generator: Adobe Illustrator 19.2.1, SVG Export Plug-In . SVG Version: 6.00 Build 0)  -->

<svg
   xmlns:dc="http://purl.org/dc/elements/1.1/"
   xmlns:cc="http://creativecommons.org/ns#"
   xmlns:rdf="http://www.w3.org/1999/02/22-rdf-syntax-ns#"
   xmlns:svg="http://www.w3.org/2000/svg"
   xmlns="http://www.w3.org/2000/svg"
   xmlns:sodipodi="http://sodipodi.sourceforge.net/DTD/sodipodi-0.dtd"
   xmlns:inkscape="http://www.inkscape.org/namespaces/inkscape"
   version="1.1"
   id="Ebene_1"
   x="0px"
   y="0px"
   width="20px"
   height="16px"
   viewBox="0 0 20 16"
   style="enable-background:new 0 0 20 16;"
   xml:space="preserve"
   inkscape:version="0.91 r13725"
   sodipodi:docname="thirteen.svg"><metadata
     id="metadata21"><rdf:RDF><cc:Work
         rdf:about=""><dc:format>image/svg+xml</dc:format><dc:type
           rdf:resource="http://purl.org/dc/dcmitype/StillImage" /><dc:title /></cc:Work></rdf:RDF></metadata><defs
     id="defs19" /><sodipodi:namedview
     pagecolor="#ffffff"
     bordercolor="#666666"
     borderopacity="1"
     objecttolerance="10"
     gridtolerance="10"
     guidetolerance="10"
     inkscape:pageopacity="0"
     inkscape:pageshadow="2"
     inkscape:window-width="1680"
     inkscape:window-height="988"
     id="namedview17"
     showgrid="false"
     inkscape:zoom="20.48"
     inkscape:cx="-6.3499991"
     inkscape:cy="7.2926341"
     inkscape:window-x="1358"
     inkscape:window-y="-8"
     inkscape:window-maximized="1"
     inkscape:current-layer="Ebene_1" /><style
     type="text/css"
     id="style3">
	.st0{fill:none;}
	.st1{fill:#F27019;}
	.st2{fill:#FFFFFF;}
</style><rect
     class="st0"
     width="20"
     height="16"
     id="rect5" /><g
     id="g7"><path
       class="st1"
       d="m 20,12 c 0,2.2 -1.8,4 -4,4 L 4,16 C 1.8,16 0,14.2 0,12 L 0,4 C 0,1.8 1.8,0 4,0 l 12,0 c 2.2,0 4,1.8 4,4 l 0,8 z"
       id="path9"
       style="fill:#3b4654;fill-opacity:1"
       inkscape:connector-curvature="0" /></g><path
     inkscape:connector-curvature="0"
     style="fill:#ffffff;fill-opacity:1"
     d="M 6.8183821,1.5500067 C 6.7136932,1.5162933 6.6063349,1.5 6.5000449,1.5 6.1929189,1.5 5.8954995,1.63611 5.7028662,1.8801113 L 3.2029529,5.0461486 c -0.3334797,0.422396 -0.2469915,1.0241056 0.1932643,1.3441049 0.1806453,0.1313087 0.3926925,0.1947747 0.6030891,0.1947314 0.3023703,0 0.6011965,-0.1310314 0.7978582,-0.3801113 l 0.7028272,-0.8901797 0,8.2258801 C 5.4999917,14.070437 5.9476743,14.5 6.4999963,14.5 7.0522697,14.5 7.5,14.070489 7.5,13.540574 L 7.5,2.459426 C 7.4998551,2.0473693 7.2255863,1.6812807 6.8183821,1.5500067 Z"
     id="path11-2-6" /><path
     inkscape:connector-curvature="0"
     style="fill:#ffffff;fill-opacity:1"
     d="m 13,14.5 c -1.929893,0 -3.5,-1.495615 -3.5,-3.333954 0,-0.529863 0.4509068,-0.959426 1.007207,-0.959426 0.556252,0 1.007207,0.429511 1.007207,0.959426 0,0.780286 0.666436,1.415102 1.485586,1.415102 0.819199,0 1.485586,-0.634816 1.485586,-1.415102 l 0,-0.79151 c 0,-0.780294 -0.666387,-1.4151096 -1.485586,-1.4151096 -0.556251,0 -1.007207,-0.42952 -1.007207,-0.959426 0,-0.5298627 0.450906,-0.9594261 1.007207,-0.9594261 0.819199,0 1.485586,-0.634816 1.485586,-1.4151107 l 0,-0.7915094 c 0,-0.7802861 -0.666387,-1.4151021 -1.485586,-1.4151021 -0.81915,0 -1.485586,0.634816 -1.485586,1.4151021 0,0.5298627 -0.450906,0.9594261 -1.007207,0.9594261 C 9.9509558,5.7933803 9.5,5.3638689 9.5,4.8339542 9.5,2.9956154 11.070107,1.5 13,1.5 c 1.929893,0 3.5,1.4956154 3.5,3.3339542 l 0,0.7915094 c 0,0.92846 -0.40041,1.7694214 -1.045532,2.3745368 C 16.09959,8.6051158 16.5,9.446077 16.5,10.374536 l 0,0.79151 C 16.5,13.004385 14.929893,14.5 13,14.5 Z"
     id="path11" /></svg>