<?xml version="1.0" encoding="UTF-8" standalone="no"?>
<!-- Generator: Adobe Illustrator 19.2.1, SVG Export Plug-In . SVG Version: 6.00 Build 0)  -->

<svg
   xmlns:dc="http://purl.org/dc/elements/1.1/"
   xmlns:cc="http://creativecommons.org/ns#"
   xmlns:rdf="http://www.w3.org/1999/02/22-rdf-syntax-ns#"
   xmlns:svg="http://www.w3.org/2000/svg"
   xmlns="http://www.w3.org/2000/svg"
   xmlns:sodipodi="http://sodipodi.sourceforge.net/DTD/sodipodi-0.dtd"
   xmlns:inkscape="http://www.inkscape.org/namespaces/inkscape"
   version="1.1"
   id="Ebene_1"
   x="0px"
   y="0px"
   width="20px"
   height="16px"
   viewBox="0 0 20 16"
   style="enable-background:new 0 0 20 16;"
   xml:space="preserve"
   inkscape:version="0.91 r13725"
   sodipodi:docname="fourteen.svg"><metadata
     id="metadata21"><rdf:RDF><cc:Work
         rdf:about=""><dc:format>image/svg+xml</dc:format><dc:type
           rdf:resource="http://purl.org/dc/dcmitype/StillImage" /><dc:title /></cc:Work></rdf:RDF></metadata><defs
     id="defs19" /><sodipodi:namedview
     pagecolor="#ffffff"
     bordercolor="#666666"
     borderopacity="1"
     objecttolerance="10"
     gridtolerance="10"
     guidetolerance="10"
     inkscape:pageopacity="0"
     inkscape:pageshadow="2"
     inkscape:window-width="1680"
     inkscape:window-height="988"
     id="namedview17"
     showgrid="false"
     inkscape:zoom="20.48"
     inkscape:cx="-6.3499991"
     inkscape:cy="7.2926341"
     inkscape:window-x="1358"
     inkscape:window-y="-8"
     inkscape:window-maximized="1"
     inkscape:current-layer="Ebene_1" /><style
     type="text/css"
     id="style3">
	.st0{fill:none;}
	.st1{fill:#F27019;}
	.st2{fill:#FFFFFF;}
</style><rect
     class="st0"
     width="20"
     height="16"
     id="rect5" /><g
     id="g7"><path
       class="st1"
       d="m 20,12 c 0,2.2 -1.8,4 -4,4 L 4,16 C 1.8,16 0,14.2 0,12 L 0,4 C 0,1.8 1.8,0 4,0 l 12,0 c 2.2,0 4,1.8 4,4 l 0,8 z"
       id="path9"
       style="fill:#3b4654;fill-opacity:1"
       inkscape:connector-curvature="0" /></g><path
     inkscape:connector-curvature="0"
     style="fill:#ffffff;fill-opacity:1"
     d="M 7.0183822,1.5500067 C 6.9136932,1.5162933 6.8063349,1.5 6.7000449,1.5 6.392919,1.5 6.0954995,1.63611 5.9028662,1.8801113 L 3.4029529,5.0461486 c -0.3334797,0.422396 -0.2469915,1.0241056 0.1932642,1.3441049 0.1806454,0.1313087 0.3926926,0.1947747 0.6030892,0.1947314 0.3023704,0 0.6011965,-0.1310314 0.7978582,-0.3801113 l 0.7028273,-0.8901797 0,8.2258801 C 5.6999918,14.070437 6.1476743,14.5 6.6999963,14.5 7.2522697,14.5 7.7,14.070489 7.7,13.540574 L 7.7,2.459426 C 7.6998551,2.0473693 7.4255863,1.6812807 7.0183822,1.5500067 Z"
     id="path11-2-6" /><path
     inkscape:connector-curvature="0"
     style="fill:#ffffff;fill-opacity:1"
     d="m 15.469112,9.825642 0,-7.366086 c 0,-0.448422 -0.326058,-0.8370007 -0.785278,-0.9358093 C 14.609678,1.5078 14.535177,1.5 14.461606,1.5 14.079868,1.5 13.72223,1.707636 13.552503,2.0469967 L 9.3978223,10.357827 c -0.1485601,0.297224 -0.1268059,0.646326 0.057733,0.92469 0.1845384,0.278365 0.5060027,0.447157 0.8516147,0.447157 l 3.147468,0 0,1.810909 c 0,0.529854 0.45091,0.959417 1.007214,0.959417 0.556304,0 1.007213,-0.429511 1.007213,-0.959417 l 0,-1.82553 C 15.941287,11.635667 16.3,11.242885 16.3,10.7703 16.3,10.297759 15.941336,9.904942 15.469112,9.825599 Z m -2.014426,-0.01465 -1.552274,0 1.552274,-3.105171 0,3.105171 z"
     id="path11" /></svg>