<?xml version="1.0" encoding="UTF-8" standalone="no"?>
<!-- Generator: Adobe Illustrator 19.2.1, SVG Export Plug-In . SVG Version: 6.00 Build 0)  -->

<svg
   xmlns:dc="http://purl.org/dc/elements/1.1/"
   xmlns:cc="http://creativecommons.org/ns#"
   xmlns:rdf="http://www.w3.org/1999/02/22-rdf-syntax-ns#"
   xmlns:svg="http://www.w3.org/2000/svg"
   xmlns="http://www.w3.org/2000/svg"
   xmlns:sodipodi="http://sodipodi.sourceforge.net/DTD/sodipodi-0.dtd"
   xmlns:inkscape="http://www.inkscape.org/namespaces/inkscape"
   version="1.1"
   id="Ebene_1"
   x="0px"
   y="0px"
   width="20px"
   height="16px"
   viewBox="0 0 20 16"
   style="enable-background:new 0 0 20 16;"
   xml:space="preserve"
   inkscape:version="0.91 r13725"
   sodipodi:docname="seventeen.svg"><metadata
     id="metadata21"><rdf:RDF><cc:Work
         rdf:about=""><dc:format>image/svg+xml</dc:format><dc:type
           rdf:resource="http://purl.org/dc/dcmitype/StillImage" /><dc:title /></cc:Work></rdf:RDF></metadata><defs
     id="defs19" /><sodipodi:namedview
     pagecolor="#ffffff"
     bordercolor="#666666"
     borderopacity="1"
     objecttolerance="10"
     gridtolerance="10"
     guidetolerance="10"
     inkscape:pageopacity="0"
     inkscape:pageshadow="2"
     inkscape:window-width="1680"
     inkscape:window-height="988"
     id="namedview17"
     showgrid="false"
     inkscape:zoom="20.48"
     inkscape:cx="-2.6717094"
     inkscape:cy="9.3439984"
     inkscape:window-x="1358"
     inkscape:window-y="-8"
     inkscape:window-maximized="1"
     inkscape:current-layer="Ebene_1" /><style
     type="text/css"
     id="style3">
	.st0{fill:none;}
	.st1{fill:#F27019;}
	.st2{fill:#FFFFFF;}
</style><rect
     class="st0"
     width="20"
     height="16"
     id="rect5" /><g
     id="g7"><path
       class="st1"
       d="m 20,12 c 0,2.2 -1.8,4 -4,4 L 4,16 C 1.8,16 0,14.2 0,12 L 0,4 C 0,1.8 1.8,0 4,0 l 12,0 c 2.2,0 4,1.8 4,4 l 0,8 z"
       id="path9"
       style="fill:#3b4654;fill-opacity:1"
       inkscape:connector-curvature="0" /></g><path
     inkscape:connector-curvature="0"
     style="fill:#ffffff;fill-opacity:1"
     d="m 15.492791,7.0405493 -0.965313,0 1.891031,-4.2032584 C 16.551864,2.5409086 16.519992,2.2004304 16.333599,1.9312354 16.147204,1.6619971 15.831315,1.5 15.492745,1.5 l -4.985538,0 C 9.9509558,1.5 9.5,1.9295108 9.5,2.4594247 9.5,2.98933 9.9509068,3.4188408 10.507207,3.4188408 l 3.458155,0 -1.629452,3.6217518 -1.828703,0 C 9.9509558,7.0405926 9.5,7.470112 9.5,8.0000173 c 0,0.529862 0.4509068,0.9594161 1.007207,0.9594161 l 0.96546,0 -1.8909332,4.2029806 c -0.2190983,0.487014 0.017745,1.051014 0.5289742,1.259759 0.129397,0.05278 0.263876,0.07783 0.396254,0.07783 0.390731,0 0.762543,-0.217923 0.926206,-0.581689 l 2.231019,-4.9588603 1.828606,0 C 16.049044,8.9594507 16.5,8.52994 16.5,8.0000347 16.5,7.4701294 16.049044,7.0405666 15.492793,7.0405666 Z"
     id="path11" /><path
     inkscape:connector-curvature="0"
     style="fill:#ffffff;fill-opacity:1"
     d="M 6.3183822,1.5500067 C 6.2136933,1.5162933 6.106335,1.5 6.000045,1.5 5.692919,1.5 5.3954996,1.63611 5.2028663,1.8801114 L 2.7029529,5.0461488 c -0.3334796,0.422396 -0.2469914,1.0241053 0.1932642,1.3441047 0.1806454,0.1313086 0.3926926,0.1947746 0.6030893,0.1947313 0.3023704,0 0.6011965,-0.1310313 0.7978582,-0.3801113 l 0.7028272,-0.8901794 0,8.2258799 C 4.9999918,14.070437 5.4476744,14.5 5.9999964,14.5 6.5522698,14.5 7,14.070489 7,13.540574 L 7,2.459426 C 6.9998551,2.0473694 6.7255864,1.6812807 6.3183822,1.5500067 Z"
     id="path11-2" /></svg>