<?xml version="1.0" encoding="UTF-8" standalone="no"?>
<!-- Generator: Adobe Illustrator 19.2.1, SVG Export Plug-In . SVG Version: 6.00 Build 0)  -->

<svg
   xmlns:dc="http://purl.org/dc/elements/1.1/"
   xmlns:cc="http://creativecommons.org/ns#"
   xmlns:rdf="http://www.w3.org/1999/02/22-rdf-syntax-ns#"
   xmlns:svg="http://www.w3.org/2000/svg"
   xmlns="http://www.w3.org/2000/svg"
   xmlns:sodipodi="http://sodipodi.sourceforge.net/DTD/sodipodi-0.dtd"
   xmlns:inkscape="http://www.inkscape.org/namespaces/inkscape"
   version="1.1"
   id="Ebene_1"
   x="0px"
   y="0px"
   width="20px"
   height="16px"
   viewBox="0 0 20 16"
   style="enable-background:new 0 0 20 16;"
   xml:space="preserve"
   inkscape:version="0.91 r13725"
   sodipodi:docname="eighteen.svg"><metadata
     id="metadata21"><rdf:RDF><cc:Work
         rdf:about=""><dc:format>image/svg+xml</dc:format><dc:type
           rdf:resource="http://purl.org/dc/dcmitype/StillImage" /><dc:title /></cc:Work></rdf:RDF></metadata><defs
     id="defs19" /><sodipodi:namedview
     pagecolor="#ffffff"
     bordercolor="#666666"
     borderopacity="1"
     objecttolerance="10"
     gridtolerance="10"
     guidetolerance="10"
     inkscape:pageopacity="0"
     inkscape:pageshadow="2"
     inkscape:window-width="1680"
     inkscape:window-height="988"
     id="namedview17"
     showgrid="false"
     inkscape:zoom="18.097514"
     inkscape:cx="-5.7438318"
     inkscape:cy="6.4531427"
     inkscape:window-x="1358"
     inkscape:window-y="-8"
     inkscape:window-maximized="1"
     inkscape:current-layer="Ebene_1" /><style
     type="text/css"
     id="style3">
	.st0{fill:none;}
	.st1{fill:#F27019;}
	.st2{fill:#FFFFFF;}
</style><rect
     class="st0"
     width="20"
     height="16"
     id="rect5" /><g
     id="g7"><path
       class="st1"
       d="m 20,12 c 0,2.2 -1.8,4 -4,4 L 4,16 C 1.8,16 0,14.2 0,12 L 0,4 C 0,1.8 1.8,0 4,0 l 12,0 c 2.2,0 4,1.8 4,4 l 0,8 z"
       id="path9"
       style="fill:#3b4654;fill-opacity:1"
       inkscape:connector-curvature="0" /></g><path
     inkscape:connector-curvature="0"
     style="fill:#ffffff;fill-opacity:1"
     d="M 16.5,4.8339541 C 16.5,2.9956154 14.929891,1.5 13,1.5 11.070109,1.5 9.5,2.9956154 9.5,4.8339541 l 0,0.7915094 c 0,0.9285987 0.400995,1.7694213 1.046316,2.3745367 C 9.900995,8.6051155 9.5,9.445938 9.5,10.374537 l 0,0.791509 C 9.5,13.004385 11.070109,14.5 13,14.5 c 1.929891,0 3.5,-1.495615 3.5,-3.333954 l 0,-0.791509 C 16.5,9.445938 16.099005,8.6051155 15.453684,8.0000002 16.099005,7.3948848 16.5,6.5540622 16.5,5.6254635 l 0,-0.7915094 z m -2.014416,6.3320919 c 0,0.780329 -0.666383,1.415102 -1.485584,1.415102 -0.819201,0 -1.485584,-0.634773 -1.485584,-1.415102 l 0,-0.791509 c 0,-0.780338 0.666383,-1.4151108 1.485584,-1.4151108 0.819201,0 1.485584,0.6347728 1.485584,1.4151108 l 0,0.791509 z m 0,-5.5405825 c 0,0.780338 -0.666383,1.4151107 -1.485584,1.4151107 -0.819201,0 -1.485584,-0.6347727 -1.485584,-1.4151107 l 0,-0.7915094 c 0,-0.7803293 0.666383,-1.415102 1.485584,-1.415102 0.819201,0 1.485584,0.6347727 1.485584,1.415102 l 0,0.7915094 z"
     id="path11" /><path
     inkscape:connector-curvature="0"
     style="fill:#ffffff;fill-opacity:1"
     d="M 6.8183821,1.5500067 C 6.7136932,1.5162933 6.6063349,1.5 6.5000449,1.5 6.1929189,1.5 5.8954995,1.63611 5.7028661,1.8801114 L 3.2029528,5.0461487 C 2.8694732,5.4685447 2.9559614,6.070254 3.396217,6.3902534 3.5768624,6.521562 3.7889096,6.585028 3.9993062,6.5849847 c 0.3023704,0 0.6011965,-0.1310313 0.7978583,-0.3801113 l 0.7028272,-0.8901794 0,8.22588 c 0,0.529863 0.4476826,0.959426 1.0000046,0.959426 0.5522734,0 1.0000036,-0.429511 1.0000036,-0.959426 l 0,-11.081148 C 7.499855,2.0473694 7.2255863,1.6812807 6.8183821,1.5500067 Z"
     id="path11-2" /></svg>