<?xml version="1.0" encoding="UTF-8" standalone="no"?>
<!-- Generator: Adobe Illustrator 19.2.1, SVG Export Plug-In . SVG Version: 6.00 Build 0)  -->

<svg
   xmlns:dc="http://purl.org/dc/elements/1.1/"
   xmlns:cc="http://creativecommons.org/ns#"
   xmlns:rdf="http://www.w3.org/1999/02/22-rdf-syntax-ns#"
   xmlns:svg="http://www.w3.org/2000/svg"
   xmlns="http://www.w3.org/2000/svg"
   xmlns:sodipodi="http://sodipodi.sourceforge.net/DTD/sodipodi-0.dtd"
   xmlns:inkscape="http://www.inkscape.org/namespaces/inkscape"
   version="1.1"
   id="Ebene_1"
   x="0px"
   y="0px"
   width="20px"
   height="16px"
   viewBox="0 0 20 16"
   style="enable-background:new 0 0 20 16;"
   xml:space="preserve"
   inkscape:version="0.91 r13725"
   sodipodi:docname="twentyone.svg"><metadata
     id="metadata21"><rdf:RDF><cc:Work
         rdf:about=""><dc:format>image/svg+xml</dc:format><dc:type
           rdf:resource="http://purl.org/dc/dcmitype/StillImage" /><dc:title /></cc:Work></rdf:RDF></metadata><defs
     id="defs19" /><sodipodi:namedview
     pagecolor="#ffffff"
     bordercolor="#666666"
     borderopacity="1"
     objecttolerance="10"
     gridtolerance="10"
     guidetolerance="10"
     inkscape:pageopacity="0"
     inkscape:pageshadow="2"
     inkscape:window-width="1680"
     inkscape:window-height="988"
     id="namedview17"
     showgrid="false"
     inkscape:zoom="14.481547"
     inkscape:cx="-8.8829122"
     inkscape:cy="11.373399"
     inkscape:window-x="1358"
     inkscape:window-y="-8"
     inkscape:window-maximized="1"
     inkscape:current-layer="Ebene_1" /><style
     type="text/css"
     id="style3">
	.st0{fill:none;}
	.st1{fill:#F27019;}
	.st2{fill:#FFFFFF;}
</style><rect
     class="st0"
     width="20"
     height="16"
     id="rect5" /><g
     id="g7"><path
       class="st1"
       d="m 20,12 c 0,2.2 -1.8,4 -4,4 L 4,16 C 1.8,16 0,14.2 0,12 L 0,4 C 0,1.8 1.8,0 4,0 l 12,0 c 2.2,0 4,1.8 4,4 l 0,8 z"
       id="path9"
       style="fill:#3b4654;fill-opacity:1"
       inkscape:connector-curvature="0" /></g><path
     inkscape:connector-curvature="0"
     style="fill:#ffffff;fill-opacity:1"
     d="M 15.518382,1.5500067 C 15.413693,1.5162933 15.306335,1.5 15.200045,1.5 c -0.307126,0 -0.604546,0.13611 -0.79718,0.3801113 l -2.499912,3.1660373 c -0.33348,0.422396 -0.246992,1.0241056 0.193264,1.3441049 0.180645,0.1313087 0.392692,0.1947747 0.603089,0.1947314 0.30237,0 0.601196,-0.1310314 0.797858,-0.3801113 l 0.702827,-0.8901797 0,8.2258801 c 0,0.529863 0.447683,0.959426 1.000005,0.959426 C 15.75227,14.5 16.2,14.070489 16.2,13.540574 l 0,-11.081148 C 16.199855,2.0473693 15.925586,1.6812807 15.518382,1.5500067 Z"
     id="path11-2-6" /><path
     inkscape:connector-curvature="0"
     style="fill:#ffffff;fill-opacity:1"
     d="m 8.9927146,14.5 -4.9855326,0 C 3.6457374,14.5 3.3120094,14.315513 3.1327051,14.016608 2.9534008,13.717703 2.9559426,13.350167 3.1394426,13.053551 L 7.7806395,5.5508347 c 0.134087,-0.2166666 0.2049192,-0.4644813 0.2049192,-0.71682 0,-0.7802947 -0.6664289,-1.4151107 -1.4855698,-1.4151107 -0.8191418,0 -1.4855706,0.6347727 -1.4855706,1.4150674 0,0.5298627 -0.4509011,0.959426 -1.0071961,0.959426 -0.5562451,0 -1.0071961,-0.42952 -1.0071961,-0.959426 C 3.0000261,2.995624 4.5701165,1.5 6.4999889,1.5 c 1.9298726,0 3.4999621,1.495624 3.4999621,3.3339714 0,0.5948193 -0.1673282,1.1795853 -0.4838974,1.6911007 l -3.7462872,6.0561189 3.2230375,0 C 9.5490499,12.581191 10,13.010711 10,13.540617 10,14.070532 9.5489519,14.5 8.9927059,14.5 Z"
     id="path11-2" /></svg>