<?xml version="1.0" encoding="UTF-8" standalone="no"?>
<!-- Generator: Adobe Illustrator 19.2.1, SVG Export Plug-In . SVG Version: 6.00 Build 0)  -->

<svg
   xmlns:dc="http://purl.org/dc/elements/1.1/"
   xmlns:cc="http://creativecommons.org/ns#"
   xmlns:rdf="http://www.w3.org/1999/02/22-rdf-syntax-ns#"
   xmlns:svg="http://www.w3.org/2000/svg"
   xmlns="http://www.w3.org/2000/svg"
   xmlns:sodipodi="http://sodipodi.sourceforge.net/DTD/sodipodi-0.dtd"
   xmlns:inkscape="http://www.inkscape.org/namespaces/inkscape"
   version="1.1"
   id="Ebene_1"
   x="0px"
   y="0px"
   width="20px"
   height="16px"
   viewBox="0 0 20 16"
   style="enable-background:new 0 0 20 16;"
   xml:space="preserve"
   inkscape:version="0.91 r13725"
   sodipodi:docname="twentytwo.svg"><metadata
     id="metadata21"><rdf:RDF><cc:Work
         rdf:about=""><dc:format>image/svg+xml</dc:format><dc:type
           rdf:resource="http://purl.org/dc/dcmitype/StillImage" /><dc:title /></cc:Work></rdf:RDF></metadata><defs
     id="defs19" /><sodipodi:namedview
     pagecolor="#ffffff"
     bordercolor="#666666"
     borderopacity="1"
     objecttolerance="10"
     gridtolerance="10"
     guidetolerance="10"
     inkscape:pageopacity="0"
     inkscape:pageshadow="2"
     inkscape:window-width="1680"
     inkscape:window-height="988"
     id="namedview17"
     showgrid="false"
     inkscape:zoom="12.796875"
     inkscape:cx="-12.051568"
     inkscape:cy="11.87912"
     inkscape:window-x="1358"
     inkscape:window-y="-8"
     inkscape:window-maximized="1"
     inkscape:current-layer="Ebene_1" /><style
     type="text/css"
     id="style3">
	.st0{fill:none;}
	.st1{fill:#F27019;}
	.st2{fill:#FFFFFF;}
</style><rect
     class="st0"
     width="20"
     height="16"
     id="rect5" /><g
     id="g7"><path
       class="st1"
       d="m 20,12 c 0,2.2 -1.8,4 -4,4 L 4,16 C 1.8,16 0,14.2 0,12 L 0,4 C 0,1.8 1.8,0 4,0 l 12,0 c 2.2,0 4,1.8 4,4 l 0,8 z"
       id="path9"
       style="fill:#3b4654;fill-opacity:1"
       inkscape:connector-curvature="0" /></g><path
     inkscape:connector-curvature="0"
     style="fill:#ffffff;fill-opacity:1"
     d="m 8.2927143,14.5 -4.9855326,0 c -0.3614446,0 -0.6951726,-0.184487 -0.8744769,-0.483392 -0.1793043,-0.298905 -0.1767625,-0.666441 0.00674,-0.963057 l 4.641197,-7.5027163 c 0.1340869,-0.2166666 0.2049191,-0.4644813 0.2049191,-0.71682 0,-0.7802947 -0.6664288,-1.4151107 -1.4855697,-1.4151107 -0.8191418,0 -1.4855706,0.6347727 -1.4855706,1.4150674 0,0.5298627 -0.4509012,0.959426 -1.0071962,0.959426 -0.5562451,0 -1.0071961,-0.42952 -1.0071961,-0.959426 C 2.3000283,2.995624 3.8701187,1.5 5.7999912,1.5 c 1.9298724,0 3.499962,1.495624 3.499962,3.3339714 0,0.5948193 -0.1673282,1.1795853 -0.4838974,1.6911007 l -3.7462871,6.0561189 3.2230373,0 c 0.5562436,0 1.0071937,0.42952 1.0071937,0.959426 0,0.529915 -0.4510481,0.959383 -1.0072942,0.959383 z"
     id="path11-2" /><path
     inkscape:connector-curvature="0"
     style="fill:#ffffff;fill-opacity:1"
     d="m 16.292719,14.5 -4.985533,0 c -0.361444,0 -0.695172,-0.184487 -0.874477,-0.483392 -0.179304,-0.298905 -0.176762,-0.666441 0.0067,-0.963057 l 4.641235,-7.5027166 c 0.134087,-0.2166667 0.204919,-0.4644814 0.204919,-0.7168196 0,-0.7802947 -0.666429,-1.4151107 -1.48557,-1.4151107 -0.819142,0 -1.48557,0.6347727 -1.48557,1.4150673 0,0.5298623 -0.450902,0.9594256 -1.007197,0.9594256 -0.556245,0 -1.007196,-0.42952 -1.007196,-0.9594256 C 10.30003,2.995624 11.870121,1.5 13.799993,1.5 c 1.929873,0 3.499962,1.495624 3.499962,3.3339714 0,0.594819 -0.167328,1.179585 -0.483897,1.6911003 l -3.746287,6.0561193 3.223037,0 c 0.556246,0 1.007196,0.42952 1.007196,0.959426 0,0.529915 -0.451048,0.959383 -1.007294,0.959383 z"
     id="path11-2-8" /></svg>