<?xml version="1.0" encoding="UTF-8" standalone="no"?>
<!-- Generator: Adobe Illustrator 19.2.1, SVG Export Plug-In . SVG Version: 6.00 Build 0)  -->

<svg
   xmlns:dc="http://purl.org/dc/elements/1.1/"
   xmlns:cc="http://creativecommons.org/ns#"
   xmlns:rdf="http://www.w3.org/1999/02/22-rdf-syntax-ns#"
   xmlns:svg="http://www.w3.org/2000/svg"
   xmlns="http://www.w3.org/2000/svg"
   xmlns:sodipodi="http://sodipodi.sourceforge.net/DTD/sodipodi-0.dtd"
   xmlns:inkscape="http://www.inkscape.org/namespaces/inkscape"
   version="1.1"
   id="Ebene_1"
   x="0px"
   y="0px"
   width="20px"
   height="16px"
   viewBox="0 0 20 16"
   style="enable-background:new 0 0 20 16;"
   xml:space="preserve"
   inkscape:version="0.91 r13725"
   sodipodi:docname="twentythree.svg"><metadata
     id="metadata21"><rdf:RDF><cc:Work
         rdf:about=""><dc:format>image/svg+xml</dc:format><dc:type
           rdf:resource="http://purl.org/dc/dcmitype/StillImage" /><dc:title /></cc:Work></rdf:RDF></metadata><defs
     id="defs19" /><sodipodi:namedview
     pagecolor="#ffffff"
     bordercolor="#666666"
     borderopacity="1"
     objecttolerance="10"
     gridtolerance="10"
     guidetolerance="10"
     inkscape:pageopacity="0"
     inkscape:pageshadow="2"
     inkscape:window-width="1680"
     inkscape:window-height="988"
     id="namedview17"
     showgrid="false"
     inkscape:zoom="25.59375"
     inkscape:cx="-3.8972122"
     inkscape:cy="3.8910957"
     inkscape:window-x="1358"
     inkscape:window-y="-8"
     inkscape:window-maximized="1"
     inkscape:current-layer="Ebene_1" /><style
     type="text/css"
     id="style3">
	.st0{fill:none;}
	.st1{fill:#F27019;}
	.st2{fill:#FFFFFF;}
</style><rect
     class="st0"
     width="20"
     height="16"
     id="rect5" /><g
     id="g7"><path
       class="st1"
       d="m 20,12 c 0,2.2 -1.8,4 -4,4 L 4,16 C 1.8,16 0,14.2 0,12 L 0,4 C 0,1.8 1.8,0 4,0 l 12,0 c 2.2,0 4,1.8 4,4 l 0,8 z"
       id="path9"
       style="fill:#3b4654;fill-opacity:1"
       inkscape:connector-curvature="0" /></g><path
     inkscape:connector-curvature="0"
     style="fill:#ffffff;fill-opacity:1"
     d="m 8.2927144,14.5 -4.9855324,0 C 2.9457374,14.5 2.6120094,14.315513 2.4327051,14.016608 2.2534008,13.717703 2.2559426,13.350167 2.4394426,13.053551 L 7.0806395,5.5508344 C 7.2147264,5.3341677 7.2855586,5.086353 7.2855586,4.8340148 c 0,-0.7802947 -0.6664288,-1.4151107 -1.4855697,-1.4151107 -0.8191418,0 -1.4855706,0.6347727 -1.4855706,1.4150673 0,0.5298623 -0.4509011,0.9594256 -1.0071961,0.9594256 -0.5562451,0 -1.0071961,-0.42952 -1.0071961,-0.9594256 C 2.3000261,2.995624 3.8701165,1.5 5.7999889,1.5 c 1.9298724,0 3.4999621,1.495624 3.4999621,3.3339714 0,0.594819 -0.1673282,1.179585 -0.4838976,1.6911003 l -3.746287,6.0561193 3.2230373,0 C 8.8490497,12.581191 9.3,13.010711 9.3,13.540617 9.3,14.070532 8.8489517,14.5 8.2927057,14.5 Z"
     id="path11-2-8" /><path
     inkscape:connector-curvature="0"
     style="fill:#ffffff;fill-opacity:1"
     d="m 14,14.5 c -1.929893,0 -3.5,-1.495615 -3.5,-3.333954 0,-0.529863 0.450907,-0.959426 1.007207,-0.959426 0.556252,0 1.007207,0.429511 1.007207,0.959426 0,0.780286 0.666436,1.415102 1.485586,1.415102 0.819199,0 1.485586,-0.634816 1.485586,-1.415102 l 0,-0.79151 c 0,-0.7802935 -0.666387,-1.4151095 -1.485586,-1.4151095 -0.556251,0 -1.007207,-0.42952 -1.007207,-0.9594261 0,-0.5298627 0.450906,-0.959426 1.007207,-0.959426 0.819199,0 1.485586,-0.6348161 1.485586,-1.4151108 l 0,-0.7915094 c 0,-0.780286 -0.666387,-1.4151021 -1.485586,-1.4151021 -0.81915,0 -1.485586,0.6348161 -1.485586,1.4151021 0,0.5298627 -0.450906,0.9594261 -1.007207,0.9594261 C 10.950956,5.7933803 10.5,5.3638689 10.5,4.8339542 10.5,2.9956154 12.070107,1.5 14,1.5 c 1.929893,0 3.5,1.4956154 3.5,3.3339542 l 0,0.7915094 c 0,0.9284601 -0.40041,1.7694215 -1.045532,2.3745368 C 17.09959,8.6051158 17.5,9.4460772 17.5,10.374536 l 0,0.79151 C 17.5,13.004385 15.929893,14.5 14,14.5 Z"
     id="path11" /></svg>