<?xml version="1.0" encoding="UTF-8" standalone="no"?>
<!-- Generator: Adobe Illustrator 19.2.1, SVG Export Plug-In . SVG Version: 6.00 Build 0)  -->

<svg
   xmlns:dc="http://purl.org/dc/elements/1.1/"
   xmlns:cc="http://creativecommons.org/ns#"
   xmlns:rdf="http://www.w3.org/1999/02/22-rdf-syntax-ns#"
   xmlns:svg="http://www.w3.org/2000/svg"
   xmlns="http://www.w3.org/2000/svg"
   xmlns:sodipodi="http://sodipodi.sourceforge.net/DTD/sodipodi-0.dtd"
   xmlns:inkscape="http://www.inkscape.org/namespaces/inkscape"
   version="1.1"
   id="Ebene_1"
   x="0px"
   y="0px"
   width="20px"
   height="16px"
   viewBox="0 0 20 16"
   style="enable-background:new 0 0 20 16;"
   xml:space="preserve"
   inkscape:version="0.91 r13725"
   sodipodi:docname="twentyeight.svg"><metadata
     id="metadata21"><rdf:RDF><cc:Work
         rdf:about=""><dc:format>image/svg+xml</dc:format><dc:type
           rdf:resource="http://purl.org/dc/dcmitype/StillImage" /><dc:title /></cc:Work></rdf:RDF></metadata><defs
     id="defs19" /><sodipodi:namedview
     pagecolor="#ffffff"
     bordercolor="#666666"
     borderopacity="1"
     objecttolerance="10"
     gridtolerance="10"
     guidetolerance="10"
     inkscape:pageopacity="0"
     inkscape:pageshadow="2"
     inkscape:window-width="1680"
     inkscape:window-height="988"
     id="namedview17"
     showgrid="false"
     inkscape:zoom="25.59375"
     inkscape:cx="2.4715302"
     inkscape:cy="3.8910957"
     inkscape:window-x="1358"
     inkscape:window-y="-8"
     inkscape:window-maximized="1"
     inkscape:current-layer="Ebene_1" /><style
     type="text/css"
     id="style3">
	.st0{fill:none;}
	.st1{fill:#F27019;}
	.st2{fill:#FFFFFF;}
</style><rect
     class="st0"
     width="20"
     height="16"
     id="rect5" /><g
     id="g7"><path
       class="st1"
       d="m 20,12 c 0,2.2 -1.8,4 -4,4 L 4,16 C 1.8,16 0,14.2 0,12 L 0,4 C 0,1.8 1.8,0 4,0 l 12,0 c 2.2,0 4,1.8 4,4 l 0,8 z"
       id="path9"
       style="fill:#3b4654;fill-opacity:1"
       inkscape:connector-curvature="0" /></g><path
     inkscape:connector-curvature="0"
     style="fill:#ffffff;fill-opacity:1"
     d="M 17.5,4.8339541 C 17.5,2.9956154 15.929891,1.5 14,1.5 c -1.929891,0 -3.5,1.4956154 -3.5,3.3339541 l 0,0.7915094 c 0,0.9285987 0.400995,1.7694213 1.046316,2.3745367 C 10.900995,8.6051155 10.5,9.445938 10.5,10.374537 l 0,0.791509 C 10.5,13.004385 12.070109,14.5 14,14.5 c 1.929891,0 3.5,-1.495615 3.5,-3.333954 l 0,-0.791509 C 17.5,9.445938 17.099005,8.6051155 16.453684,8.0000002 17.099005,7.3948848 17.5,6.5540622 17.5,5.6254635 l 0,-0.7915094 z m -2.014416,6.3320919 c 0,0.780329 -0.666383,1.415102 -1.485584,1.415102 -0.819201,0 -1.485584,-0.634773 -1.485584,-1.415102 l 0,-0.791509 c 0,-0.780338 0.666383,-1.4151108 1.485584,-1.4151108 0.819201,0 1.485584,0.6347728 1.485584,1.4151108 l 0,0.791509 z m 0,-5.5405825 c 0,0.780338 -0.666383,1.4151107 -1.485584,1.4151107 -0.819201,0 -1.485584,-0.6347727 -1.485584,-1.4151107 l 0,-0.7915094 c 0,-0.7803293 0.666383,-1.415102 1.485584,-1.415102 0.819201,0 1.485584,0.6347727 1.485584,1.415102 l 0,0.7915094 z"
     id="path11" /><path
     inkscape:connector-curvature="0"
     style="fill:#ffffff;fill-opacity:1"
     d="m 7.992681,14.5 -4.98553,0 c -0.36144,0 -0.69517,-0.184487 -0.87448,-0.483392 -0.1793,-0.298905 -0.17676,-0.666441 0.007,-0.963057 l 4.6412,-7.5027163 c 0.13409,-0.2166666 0.20492,-0.4644813 0.20492,-0.71682 0,-0.7802947 -0.66643,-1.4151107 -1.48557,-1.4151107 -0.81914,0 -1.48557,0.6347727 -1.48557,1.4150674 0,0.5298627 -0.4509,0.959426 -1.0072,0.959426 -0.55624,0 -1.00719,-0.42952 -1.00719,-0.959426 C 2.000261,2.995624 3.570351,1.5 5.500221,1.5 c 1.92987,0 3.49996,1.495624 3.49996,3.3339714 0,0.5948193 -0.16732,1.1795853 -0.48389,1.6911007 l -3.74629,6.0561189 3.22304,0 c 0.55624,0 1.00719,0.42952 1.00719,0.959426 C 8.999971,14.070532 8.548921,14.5 7.992681,14.5 Z"
     id="path11-2" /></svg>