<?xml version="1.0" encoding="UTF-8" standalone="no"?>
<!-- Generator: Adobe Illustrator 19.2.1, SVG Export Plug-In . SVG Version: 6.00 Build 0)  -->

<svg
   xmlns:dc="http://purl.org/dc/elements/1.1/"
   xmlns:cc="http://creativecommons.org/ns#"
   xmlns:rdf="http://www.w3.org/1999/02/22-rdf-syntax-ns#"
   xmlns:svg="http://www.w3.org/2000/svg"
   xmlns="http://www.w3.org/2000/svg"
   xmlns:sodipodi="http://sodipodi.sourceforge.net/DTD/sodipodi-0.dtd"
   xmlns:inkscape="http://www.inkscape.org/namespaces/inkscape"
   version="1.1"
   id="Ebene_1"
   x="0px"
   y="0px"
   width="20px"
   height="16px"
   viewBox="0 0 20 16"
   style="enable-background:new 0 0 20 16;"
   xml:space="preserve"
   inkscape:version="0.91 r13725"
   sodipodi:docname="twentynine.svg"><metadata
     id="metadata21"><rdf:RDF><cc:Work
         rdf:about=""><dc:format>image/svg+xml</dc:format><dc:type
           rdf:resource="http://purl.org/dc/dcmitype/StillImage" /><dc:title /></cc:Work></rdf:RDF></metadata><defs
     id="defs19" /><sodipodi:namedview
     pagecolor="#ffffff"
     bordercolor="#666666"
     borderopacity="1"
     objecttolerance="10"
     gridtolerance="10"
     guidetolerance="10"
     inkscape:pageopacity="0"
     inkscape:pageshadow="2"
     inkscape:window-width="1680"
     inkscape:window-height="988"
     id="namedview17"
     showgrid="false"
     inkscape:zoom="13.65"
     inkscape:cx="-15.741916"
     inkscape:cy="9.7672143"
     inkscape:window-x="1358"
     inkscape:window-y="-8"
     inkscape:window-maximized="1"
     inkscape:current-layer="Ebene_1" /><style
     type="text/css"
     id="style3">
	.st0{fill:none;}
	.st1{fill:#F27019;}
	.st2{fill:#FFFFFF;}
</style><rect
     class="st0"
     width="20"
     height="16"
     id="rect5" /><g
     id="g7"><path
       class="st1"
       d="m 20,12 c 0,2.2 -1.8,4 -4,4 L 4,16 C 1.8,16 0,14.2 0,12 L 0,4 C 0,1.8 1.8,0 4,0 l 12,0 c 2.2,0 4,1.8 4,4 l 0,8 z"
       id="path9"
       style="fill:#3b4654;fill-opacity:1"
       inkscape:connector-curvature="0" /></g><path
     inkscape:connector-curvature="0"
     style="fill:#ffffff;fill-opacity:1"
     d="m 14,14.5 c -1.929893,0 -3.5,-1.495615 -3.5,-3.333945 0,-0.529863 0.450907,-0.959418 1.007207,-0.959418 0.556252,0 1.007207,0.429512 1.007207,0.959418 0,0.780286 0.666387,1.415102 1.485586,1.415102 0.819199,0 1.485586,-0.634816 1.485586,-1.415102 l 0,-2.5220872 C 15.034436,8.8461958 14.530783,8.9593998 14,8.9593998 c -1.929893,0 -3.5,-1.4956153 -3.5,-3.3339453 l 0,-0.7915093 C 10.5,2.9956153 12.070107,1.5 14,1.5 c 1.929893,0 3.5,1.4956153 3.5,3.3339452 l 0,6.3320658 C 17.5,13.004385 15.929893,14.5 14,14.5 Z M 14,3.4188866 c -0.819199,0 -1.485586,0.634816 -1.485586,1.415102 l 0,0.7915093 c 0,0.7802859 0.666387,1.4151019 1.485586,1.4151019 0.819199,0 1.485586,-0.634816 1.485586,-1.4151019 l 0,-0.7915093 c 0,-0.780286 -0.666387,-1.415102 -1.485586,-1.415102 z"
     id="path11" /><path
     inkscape:connector-curvature="0"
     style="fill:#ffffff;fill-opacity:1"
     d="m 7.9927143,14.5 -4.9855326,0 C 2.6457371,14.5 2.3120091,14.315513 2.1327048,14.016608 1.9534005,13.717703 1.9559423,13.350167 2.1394448,13.053551 L 6.7806418,5.5508346 C 6.9147287,5.334168 6.9855609,5.0863533 6.9855609,4.8340146 6.9855609,4.05372 6.3191321,3.418904 5.4999912,3.418904 c -0.8191418,0 -1.4855706,0.6347727 -1.4855706,1.4150673 0,0.5298627 -0.4509012,0.959426 -1.0071962,0.959426 -0.5562451,0 -1.0071961,-0.42952 -1.0071961,-0.959426 C 2.0000283,2.995624 3.5701187,1.5 5.4999912,1.5 c 1.9298724,0 3.499962,1.495624 3.499962,3.3339713 0,0.5948193 -0.1673282,1.1795853 -0.4838974,1.6911006 l -3.7462871,6.0561191 3.2230373,0 c 0.5562436,0 1.0071937,0.42952 1.0071937,0.959426 0,0.529915 -0.4510481,0.959383 -1.0072942,0.959383 z"
     id="path11-2" /></svg>