<?xml version="1.0" encoding="UTF-8" standalone="no"?>
<!-- Generator: Adobe Illustrator 19.2.1, SVG Export Plug-In . SVG Version: 6.00 Build 0)  -->

<svg
   xmlns:dc="http://purl.org/dc/elements/1.1/"
   xmlns:cc="http://creativecommons.org/ns#"
   xmlns:rdf="http://www.w3.org/1999/02/22-rdf-syntax-ns#"
   xmlns:svg="http://www.w3.org/2000/svg"
   xmlns="http://www.w3.org/2000/svg"
   xmlns:sodipodi="http://sodipodi.sourceforge.net/DTD/sodipodi-0.dtd"
   xmlns:inkscape="http://www.inkscape.org/namespaces/inkscape"
   version="1.1"
   id="Ebene_1"
   x="0px"
   y="0px"
   width="20px"
   height="16px"
   viewBox="0 0 20 16"
   style="enable-background:new 0 0 20 16;"
   xml:space="preserve"
   inkscape:version="0.91 r13725"
   sodipodi:docname="thirty.svg"><metadata
     id="metadata21"><rdf:RDF><cc:Work
         rdf:about=""><dc:format>image/svg+xml</dc:format><dc:type
           rdf:resource="http://purl.org/dc/dcmitype/StillImage" /><dc:title /></cc:Work></rdf:RDF></metadata><defs
     id="defs19" /><sodipodi:namedview
     pagecolor="#ffffff"
     bordercolor="#666666"
     borderopacity="1"
     objecttolerance="10"
     gridtolerance="10"
     guidetolerance="10"
     inkscape:pageopacity="0"
     inkscape:pageshadow="2"
     inkscape:window-width="1680"
     inkscape:window-height="988"
     id="namedview17"
     showgrid="false"
     inkscape:zoom="20.48"
     inkscape:cx="-2.6717094"
     inkscape:cy="9.3439984"
     inkscape:window-x="1358"
     inkscape:window-y="-8"
     inkscape:window-maximized="1"
     inkscape:current-layer="Ebene_1" /><style
     type="text/css"
     id="style3">
	.st0{fill:none;}
	.st1{fill:#F27019;}
	.st2{fill:#FFFFFF;}
</style><rect
     class="st0"
     width="20"
     height="16"
     id="rect5" /><g
     id="g7"><path
       class="st1"
       d="m 20,12 c 0,2.2 -1.8,4 -4,4 L 4,16 C 1.8,16 0,14.2 0,12 L 0,4 C 0,1.8 1.8,0 4,0 l 12,0 c 2.2,0 4,1.8 4,4 l 0,8 z"
       id="path9"
       style="fill:#3b4654;fill-opacity:1"
       inkscape:connector-curvature="0" /></g><path
     inkscape:connector-curvature="0"
     style="fill:#ffffff;fill-opacity:1"
     d="m 14.2,1.5 c -1.929893,0 -3.5,1.4956153 -3.5,3.333954 l 0,6.332092 c 0,1.838339 1.570107,3.333954 3.5,3.333954 1.929893,0 3.5,-1.495615 3.5,-3.333954 l 0,-6.332092 C 17.7,2.9956153 16.129893,1.5 14.2,1.5 Z m 1.485586,9.666046 c 0,0.780286 -0.666436,1.415102 -1.485586,1.415102 -0.81915,0 -1.485586,-0.634816 -1.485586,-1.415102 l 0,-6.332092 c 0,-0.780286 0.666436,-1.415102 1.485586,-1.415102 0.81915,0 1.485586,0.634816 1.485586,1.415102 l 0,6.332092 z"
     id="path11" /><path
     inkscape:connector-curvature="0"
     style="fill:#ffffff;fill-opacity:1"
     d="m 5.8,14.5 c -1.929893,0 -3.5,-1.495615 -3.5,-3.333954 0,-0.529863 0.4509068,-0.959426 1.0072072,-0.959426 0.5562515,0 1.0072064,0.429511 1.0072064,0.959426 0,0.780286 0.6664368,1.415102 1.4855864,1.415102 0.8191986,0 1.4855864,-0.634816 1.4855864,-1.415102 l 0,-0.791509 C 7.2855864,9.594243 6.6191986,8.9594266 5.8,8.9594266 c -0.5562515,0 -1.0072073,-0.42952 -1.0072073,-0.9594263 0,-0.5298627 0.4509068,-0.9594261 1.0072073,-0.9594261 0.8191986,0 1.4855864,-0.634816 1.4855864,-1.4151107 l 0,-0.7915094 c 0,-0.780286 -0.6663878,-1.415102 -1.4855864,-1.415102 -0.8191496,0 -1.4855864,0.634816 -1.4855864,1.415102 0,0.5298627 -0.4509058,0.9594261 -1.0072063,0.9594261 C 2.7509558,5.7933802 2.3,5.3638688 2.3,4.8339541 2.3,2.9956154 3.870107,1.5 5.8,1.5 c 1.929893,0 3.5,1.4956154 3.5,3.3339541 l 0,0.7915094 C 9.3,6.5539235 8.8995906,7.3948849 8.2544677,8.0000003 8.8995906,8.605116 9.3,9.446077 9.3,10.374537 l 0,0.791509 C 9.3,13.004385 7.729893,14.5 5.8,14.5 Z"
     id="path11-0" /></svg>