<?xml version="1.0" encoding="UTF-8" standalone="no"?>
<!-- Generator: Adobe Illustrator 19.2.1, SVG Export Plug-In . SVG Version: 6.00 Build 0)  -->

<svg
   xmlns:dc="http://purl.org/dc/elements/1.1/"
   xmlns:cc="http://creativecommons.org/ns#"
   xmlns:rdf="http://www.w3.org/1999/02/22-rdf-syntax-ns#"
   xmlns:svg="http://www.w3.org/2000/svg"
   xmlns="http://www.w3.org/2000/svg"
   xmlns:sodipodi="http://sodipodi.sourceforge.net/DTD/sodipodi-0.dtd"
   xmlns:inkscape="http://www.inkscape.org/namespaces/inkscape"
   version="1.1"
   id="Ebene_1"
   x="0px"
   y="0px"
   width="20px"
   height="16px"
   viewBox="0 0 20 16"
   style="enable-background:new 0 0 20 16;"
   xml:space="preserve"
   inkscape:version="0.91 r13725"
   sodipodi:docname="thirtyone.svg"><metadata
     id="metadata21"><rdf:RDF><cc:Work
         rdf:about=""><dc:format>image/svg+xml</dc:format><dc:type
           rdf:resource="http://purl.org/dc/dcmitype/StillImage" /><dc:title /></cc:Work></rdf:RDF></metadata><defs
     id="defs19" /><sodipodi:namedview
     pagecolor="#ffffff"
     bordercolor="#666666"
     borderopacity="1"
     objecttolerance="10"
     gridtolerance="10"
     guidetolerance="10"
     inkscape:pageopacity="0"
     inkscape:pageshadow="2"
     inkscape:window-width="1680"
     inkscape:window-height="988"
     id="namedview17"
     showgrid="false"
     inkscape:zoom="20.48"
     inkscape:cx="-6.3499991"
     inkscape:cy="7.2926341"
     inkscape:window-x="1358"
     inkscape:window-y="-8"
     inkscape:window-maximized="1"
     inkscape:current-layer="Ebene_1" /><style
     type="text/css"
     id="style3">
	.st0{fill:none;}
	.st1{fill:#F27019;}
	.st2{fill:#FFFFFF;}
</style><rect
     class="st0"
     width="20"
     height="16"
     id="rect5" /><g
     id="g7"><path
       class="st1"
       d="m 20,12 c 0,2.2 -1.8,4 -4,4 L 4,16 C 1.8,16 0,14.2 0,12 L 0,4 C 0,1.8 1.8,0 4,0 l 12,0 c 2.2,0 4,1.8 4,4 l 0,8 z"
       id="path9"
       style="fill:#3b4654;fill-opacity:1"
       inkscape:connector-curvature="0" /></g><path
     inkscape:connector-curvature="0"
     style="fill:#ffffff;fill-opacity:1"
     d="M 15.518382,1.5500067 C 15.413693,1.5162933 15.306335,1.5 15.200045,1.5 c -0.307126,0 -0.604546,0.13611 -0.797179,0.3801113 l -2.499913,3.1660373 c -0.33348,0.422396 -0.246992,1.0241056 0.193264,1.3441049 0.180645,0.1313087 0.392692,0.1947747 0.603089,0.1947314 0.30237,0 0.601197,-0.1310314 0.797858,-0.3801113 l 0.702828,-0.8901797 0,8.2258801 c 0,0.529863 0.447682,0.959426 1.000004,0.959426 C 15.752269,14.5 16.2,14.070489 16.2,13.540574 l 0,-11.081148 C 16.199855,2.0473693 15.925586,1.6812807 15.518382,1.5500067 Z"
     id="path11-2-6" /><path
     inkscape:connector-curvature="0"
     style="fill:#ffffff;fill-opacity:1"
     d="M 6.5,14.5 C 4.570107,14.5 3,13.004385 3,11.166046 3,10.636183 3.4509067,10.20662 4.0072073,10.20662 c 0.5562515,0 1.0072063,0.429511 1.0072063,0.959426 0,0.780286 0.6664368,1.415102 1.4855864,1.415102 0.8191986,0 1.4855864,-0.634816 1.4855864,-1.415102 l 0,-0.791509 C 7.9855864,9.5942422 7.3191986,8.9594262 6.5,8.9594262 c -0.5562515,0 -1.0072073,-0.42952 -1.0072073,-0.959426 0,-0.5298627 0.4509068,-0.9594261 1.0072073,-0.9594261 0.8191986,0 1.4855864,-0.634816 1.4855864,-1.4151107 l 0,-0.7915093 C 7.9855864,4.0536681 7.3191986,3.418852 6.5,3.418852 c -0.8191496,0 -1.4855864,0.6348161 -1.4855864,1.4151021 0,0.5298627 -0.4509059,0.959426 -1.0072063,0.959426 C 3.4509558,5.7933801 3,5.3638688 3,4.8339541 3,2.9956154 4.570107,1.5 6.5,1.5 8.429893,1.5 10,2.9956154 10,4.8339541 l 0,0.7915093 C 10,6.5539235 9.5995904,7.3948848 8.9544678,8.0000002 9.5995904,8.6051155 10,9.4460769 10,10.374537 l 0,0.791509 C 10,13.004385 8.429893,14.5 6.5,14.5 Z"
     id="path11" /></svg>