<?xml version="1.0" encoding="UTF-8" standalone="no"?>
<!-- Generator: Adobe Illustrator 19.0.0, SVG Export Plug-In . SVG Version: 6.00 Build 0)  -->

<svg
   xmlns:dc="http://purl.org/dc/elements/1.1/"
   xmlns:cc="http://creativecommons.org/ns#"
   xmlns:rdf="http://www.w3.org/1999/02/22-rdf-syntax-ns#"
   xmlns:svg="http://www.w3.org/2000/svg"
   xmlns="http://www.w3.org/2000/svg"
   xmlns:sodipodi="http://sodipodi.sourceforge.net/DTD/sodipodi-0.dtd"
   xmlns:inkscape="http://www.inkscape.org/namespaces/inkscape"
   version="1.1"
   id="Capa_1"
   x="0px"
   y="0px"
   viewBox="0 0 20 16"
   xml:space="preserve"
   sodipodi:docname="off.svg"
   width="20"
   height="16"
   inkscape:version="0.92.3 (2405546, 2018-03-11)"><metadata
   id="metadata47"><rdf:RDF><cc:Work
       rdf:about=""><dc:format>image/svg+xml</dc:format><dc:type
         rdf:resource="http://purl.org/dc/dcmitype/StillImage" /><dc:title></dc:title></cc:Work></rdf:RDF></metadata><defs
   id="defs45" /><sodipodi:namedview
   pagecolor="#ffffff"
   bordercolor="#666666"
   borderopacity="1"
   objecttolerance="10"
   gridtolerance="10"
   guidetolerance="10"
   inkscape:pageopacity="0"
   inkscape:pageshadow="2"
   inkscape:window-width="1920"
   inkscape:window-height="1017"
   id="namedview43"
   showgrid="false"
   inkscape:zoom="29.5"
   inkscape:cx="16.063772"
   inkscape:cy="10.48016"
   inkscape:window-x="-8"
   inkscape:window-y="-8"
   inkscape:window-maximized="1"
   inkscape:current-layer="g6" />
<g
   transform="matrix(0.09277344,0,0,-0.09277344,0,-18.660156)"
   id="g10">
	<g
   id="g8">
		<g
   id="g6">
			<path
   style="fill:#3b4654;fill-opacity:1;stroke-width:0.47075117"
   d="m 215.57894,-354.43747 c 0,-10.58274 -10.72526,-19.16253 -23.95316,-19.16253 H 23.953157 C 10.725263,-373.6 0,-365.01979 0,-354.43747 v 134.1381 c 0,10.58231 10.725263,19.16252 23.953157,19.16252 H 191.62578 c 13.2279,0 23.95316,-8.58021 23.95316,-19.16252 z"
   id="path2"
   inkscape:connector-curvature="0" />
			<path
   style="fill:#ffffff;stroke-width:0.29354727"
   d="m 74.914496,-285.8822 c 0,12.53125 -6.526143,23.81696 -19.471581,23.81696 -12.945445,0 -19.46835,-11.28571 -19.46835,-23.81696 0,-12.63163 6.31567,-23.82019 19.46835,-23.82019 13.14915,0 19.471581,11.18856 19.471581,23.82019 m -55.095307,0 c 0,21.53903 14.498598,38.10831 35.623431,38.10831 20.814265,0 35.623439,-17.08709 35.623439,-38.10831 0,-21.4357 -14.394985,-38.1083 -35.623439,-38.1083 -21.021214,0 -35.623431,16.67289 -35.623431,38.1083"
   id="path4"
   inkscape:connector-curvature="0" />
		<path
   inkscape:connector-curvature="0"
   style="fill:#ffffff;stroke-width:0.30241683"
   d="m 98.524832,-256.27943 c 0,4.37324 2.986668,8.31977 8.323418,8.31977 H 134.158 c 4.69683,0 7.15004,-3.62657 7.15004,-7.35992 0,-3.62658 -2.35009,-7.35992 -7.15004,-7.35992 h -19.62988 v -15.57656 h 16.54008 c 5.11993,0 7.67987,-3.62659 7.67987,-7.25681 0,-3.73333 -2.55994,-7.46666 -7.67987,-7.46666 H 114.52812 V -316.236 c 0,-5.33674 -3.41338,-8.31978 -7.99982,-8.31978 -4.59009,0 -8.003468,2.98334 -8.003468,8.31978 z"
   id="path4-6" /><path
   inkscape:connector-curvature="0"
   style="fill:#ffffff;stroke-width:0.30241683"
   d="m 151.83073,-256.27943 c 0,4.37324 2.98667,8.31978 8.32342,8.31978 h 27.30975 c 4.69683,0 7.15003,-3.62658 7.15003,-7.35993 0,-3.62658 -2.35008,-7.35992 -7.15003,-7.35992 h -19.62989 v -15.57656 h 16.54009 c 5.11993,0 7.67987,-3.62659 7.67987,-7.25681 0,-3.73333 -2.55994,-7.46666 -7.67987,-7.46666 H 167.83401 V -316.236 c 0,-5.33674 -3.41337,-8.31978 -7.99981,-8.31978 -4.59009,0 -8.00347,2.98334 -8.00347,8.31978 z"
   id="path4-6-1" /></g>
	</g>
</g>
<g
   id="g12"
   transform="matrix(0.07421875,0,0,0.07421875,0,-22)">
</g>
<g
   id="g14"
   transform="matrix(0.07421875,0,0,0.07421875,0,-22)">
</g>
<g
   id="g16"
   transform="matrix(0.07421875,0,0,0.07421875,0,-22)">
</g>
<g
   id="g18"
   transform="matrix(0.07421875,0,0,0.07421875,0,-22)">
</g>
<g
   id="g20"
   transform="matrix(0.07421875,0,0,0.07421875,0,-22)">
</g>
<g
   id="g22"
   transform="matrix(0.07421875,0,0,0.07421875,0,-22)">
</g>
<g
   id="g24"
   transform="matrix(0.07421875,0,0,0.07421875,0,-22)">
</g>
<g
   id="g26"
   transform="matrix(0.07421875,0,0,0.07421875,0,-22)">
</g>
<g
   id="g28"
   transform="matrix(0.07421875,0,0,0.07421875,0,-22)">
</g>
<g
   id="g30"
   transform="matrix(0.07421875,0,0,0.07421875,0,-22)">
</g>
<g
   id="g32"
   transform="matrix(0.07421875,0,0,0.07421875,0,-22)">
</g>
<g
   id="g34"
   transform="matrix(0.07421875,0,0,0.07421875,0,-22)">
</g>
<g
   id="g36"
   transform="matrix(0.07421875,0,0,0.07421875,0,-22)">
</g>
<g
   id="g38"
   transform="matrix(0.07421875,0,0,0.07421875,0,-22)">
</g>
<g
   id="g40"
   transform="matrix(0.07421875,0,0,0.07421875,0,-22)">
</g>
</svg>