<?xml version="1.0" encoding="UTF-8" standalone="no"?>
<!-- Generator: Adobe Illustrator 19.0.0, SVG Export Plug-In . SVG Version: 6.00 Build 0)  -->

<svg
   xmlns:dc="http://purl.org/dc/elements/1.1/"
   xmlns:cc="http://creativecommons.org/ns#"
   xmlns:rdf="http://www.w3.org/1999/02/22-rdf-syntax-ns#"
   xmlns:svg="http://www.w3.org/2000/svg"
   xmlns="http://www.w3.org/2000/svg"
   xmlns:sodipodi="http://sodipodi.sourceforge.net/DTD/sodipodi-0.dtd"
   xmlns:inkscape="http://www.inkscape.org/namespaces/inkscape"
   version="1.1"
   id="Capa_1"
   x="0px"
   y="0px"
   viewBox="0 0 20 16"
   xml:space="preserve"
   sodipodi:docname="On.svg"
   width="20"
   height="16"
   inkscape:version="0.92.3 (2405546, 2018-03-11)"><metadata
   id="metadata47"><rdf:RDF><cc:Work
       rdf:about=""><dc:format>image/svg+xml</dc:format><dc:type
         rdf:resource="http://purl.org/dc/dcmitype/StillImage" /><dc:title></dc:title></cc:Work></rdf:RDF></metadata><defs
   id="defs45" /><sodipodi:namedview
   pagecolor="#ffffff"
   bordercolor="#666666"
   borderopacity="1"
   objecttolerance="10"
   gridtolerance="10"
   guidetolerance="10"
   inkscape:pageopacity="0"
   inkscape:pageshadow="2"
   inkscape:window-width="1920"
   inkscape:window-height="1017"
   id="namedview43"
   showgrid="false"
   inkscape:zoom="29.5"
   inkscape:cx="11.233966"
   inkscape:cy="8.0281305"
   inkscape:window-x="-8"
   inkscape:window-y="-8"
   inkscape:window-maximized="1"
   inkscape:current-layer="g6" />
<g
   transform="matrix(0.09277344,0,0,-0.09277344,0,-18.660156)"
   id="g10">
	<g
   id="g8">
		<g
   id="g6">
			<path
   style="fill:#3b4654;fill-opacity:1;stroke-width:0.47075117"
   d="m 215.57894,-354.43747 c 0,-10.58274 -10.72526,-19.16253 -23.95316,-19.16253 H 23.953157 C 10.725263,-373.6 0,-365.01979 0,-354.43747 v 134.1381 c 0,10.58231 10.725263,19.16252 23.953157,19.16252 H 191.62578 c 13.2279,0 23.95316,-8.58021 23.95316,-19.16252 z"
   id="path2"
   inkscape:connector-curvature="0" />
			<path
   style="fill:#ffffff;stroke-width:0.29744184"
   d="m 89.274233,-285.94187 c 0,12.69748 -6.612729,24.13294 -19.729913,24.13294 -13.117192,0 -19.726638,-11.43546 -19.726638,-24.13294 0,-12.79923 6.399465,-24.13622 19.726638,-24.13622 13.323599,0 19.729913,11.33699 19.729913,24.13622 m -55.826269,0 c 0,21.82479 14.69096,38.61389 36.096055,38.61389 21.090416,0 36.096061,-17.31379 36.096061,-38.61389 0,-21.7201 -14.585955,-38.61391 -36.096061,-38.61391 -21.300104,0 -36.096055,16.89411 -36.096055,38.61391"
   id="path4"
   inkscape:connector-curvature="0" />
		<path
   inkscape:connector-curvature="0"
   style="fill:#ffffff;stroke-width:0.30228671"
   d="m 118.25277,-255.66746 c 0,5.33111 3.41192,8.3162 8.00003,8.3162 2.02593,0 5.33113,-1.59941 6.71711,-3.515 l 33.80532,-45.11387 h 0.21312 v 40.31267 c 0,5.33111 3.41524,8.3162 7.9964,8.3162 4.5881,0 8.00001,-2.98538 8.00001,-8.3162 v -60.57041 c 0,-5.33446 -3.41191,-8.31621 -8.00001,-8.31621 -2.02231,0 -5.22443,1.59939 -6.72044,3.51499 l -33.80171,44.57732 h -0.21311 v -39.7761 c 0,-5.33446 -3.41191,-8.31621 -7.99638,-8.31621 -4.58811,0 -8.00003,2.98205 -8.00003,8.31621 v 60.57041 z"
   id="path4-6" /></g>
	</g>
</g>
<g
   id="g12"
   transform="matrix(0.07421875,0,0,0.07421875,0,-22)">
</g>
<g
   id="g14"
   transform="matrix(0.07421875,0,0,0.07421875,0,-22)">
</g>
<g
   id="g16"
   transform="matrix(0.07421875,0,0,0.07421875,0,-22)">
</g>
<g
   id="g18"
   transform="matrix(0.07421875,0,0,0.07421875,0,-22)">
</g>
<g
   id="g20"
   transform="matrix(0.07421875,0,0,0.07421875,0,-22)">
</g>
<g
   id="g22"
   transform="matrix(0.07421875,0,0,0.07421875,0,-22)">
</g>
<g
   id="g24"
   transform="matrix(0.07421875,0,0,0.07421875,0,-22)">
</g>
<g
   id="g26"
   transform="matrix(0.07421875,0,0,0.07421875,0,-22)">
</g>
<g
   id="g28"
   transform="matrix(0.07421875,0,0,0.07421875,0,-22)">
</g>
<g
   id="g30"
   transform="matrix(0.07421875,0,0,0.07421875,0,-22)">
</g>
<g
   id="g32"
   transform="matrix(0.07421875,0,0,0.07421875,0,-22)">
</g>
<g
   id="g34"
   transform="matrix(0.07421875,0,0,0.07421875,0,-22)">
</g>
<g
   id="g36"
   transform="matrix(0.07421875,0,0,0.07421875,0,-22)">
</g>
<g
   id="g38"
   transform="matrix(0.07421875,0,0,0.07421875,0,-22)">
</g>
<g
   id="g40"
   transform="matrix(0.07421875,0,0,0.07421875,0,-22)">
</g>
</svg>