<?xml version="1.0" encoding="UTF-8" standalone="no"?>
<!-- Generator: Adobe Illustrator 19.2.1, SVG Export Plug-In . SVG Version: 6.00 Build 0)  -->

<svg
   xmlns:dc="http://purl.org/dc/elements/1.1/"
   xmlns:cc="http://creativecommons.org/ns#"
   xmlns:rdf="http://www.w3.org/1999/02/22-rdf-syntax-ns#"
   xmlns:svg="http://www.w3.org/2000/svg"
   xmlns="http://www.w3.org/2000/svg"
   xmlns:sodipodi="http://sodipodi.sourceforge.net/DTD/sodipodi-0.dtd"
   xmlns:inkscape="http://www.inkscape.org/namespaces/inkscape"
   version="1.1"
   id="Ebene_1"
   x="0px"
   y="0px"
   width="38px"
   height="38px"
   viewBox="0 0 38 38"
   style="enable-background:new 0 0 38 38;"
   xml:space="preserve"
   inkscape:version="0.91 r13725"
   sodipodi:docname="plantDetailsDisabled.svg"><metadata
     id="metadata17"><rdf:RDF><cc:Work
         rdf:about=""><dc:format>image/svg+xml</dc:format><dc:type
           rdf:resource="http://purl.org/dc/dcmitype/StillImage" /><dc:title></dc:title></cc:Work></rdf:RDF></metadata><defs
     id="defs15" /><sodipodi:namedview
     pagecolor="#ffffff"
     bordercolor="#666666"
     borderopacity="1"
     objecttolerance="10"
     gridtolerance="10"
     guidetolerance="10"
     inkscape:pageopacity="0"
     inkscape:pageshadow="2"
     inkscape:window-width="1429"
     inkscape:window-height="778"
     id="namedview13"
     showgrid="false"
     inkscape:zoom="6.2105263"
     inkscape:cx="19"
     inkscape:cy="19"
     inkscape:window-x="3331"
     inkscape:window-y="264"
     inkscape:window-maximized="0"
     inkscape:current-layer="g5" /><style
     type="text/css"
     id="style3">
	.st0{fill:none;}
	.st1{fill:#3B4654;opacity:0.5}
</style><g
     id="g5"><rect
       class="st0"
       width="38"
       height="38"
       id="rect7" /><path
       class="st1"
       d="m 0,32 15,0 0,-5 -15,0 0,5 z m 0,-8 15,0 0,-5 -15,0 0,5 z m 25,-9 0,-4 -6,0 0,5 6.1,0 C 25.1,15.7 25,15.3 25,15 Z m -6,17 15,0 0,-5 -15,0 0,5 z M 0,16 l 15,0 0,-5 -15,0 0,5 z m 29,3 -10,0 0,5 15,0 0,-5 -5,0 z"
       id="path9"
       style="opacity:0.5;fill:#3b4654"
       inkscape:connector-curvature="0" /><path
       class="st1"
       d="m 38,13 c 0,1.1 -0.9,2 -2,2 l -7,0 c -1.1,0 -2,-0.9 -2,-2 l 0,-5 c 0,-1.1 0.9,-2 2,-2 l 7,0 c 1.1,0 2,0.9 2,2 l 0,5 z"
       id="path11"
       style="opacity:0.5;fill:#3b4654"
       inkscape:connector-curvature="0" /></g></svg>