<?xml version="1.0" encoding="utf-8"?>
<!-- Generator: Adobe Illustrator 19.2.1, SVG Export Plug-In . SVG Version: 6.00 Build 0)  -->
<svg version="1.1" id="Ebene_1" xmlns="http://www.w3.org/2000/svg" xmlns:xlink="http://www.w3.org/1999/xlink" x="0px" y="0px"
	 width="38px" height="38px" viewBox="0 0 38 38" style="enable-background:new 0 0 38 38;" xml:space="preserve">
<style type="text/css">
	.st0{fill:none;}
	.st1{fill:#3B4654;}
</style>
<g>
	<rect class="st0" width="38" height="38"/>
	<path class="st1" d="M1,7v4h26V7H1z M1,19h12.1c1.3-1,3.2-2.1,5.9-2.1c2.4,0,4,0.9,5,1.7c0.7-0.6,1.7-1.2,3-1.5V15H1V19z M1,27h10
		v-4H1V27z"/>
	<g>
		<path class="st1" d="M23,20.6c-0.8-0.8-2-1.5-4-1.5c-4,0-6,3-6,3v11c0,0,1.9-1.3,6-1.3c2,0,3.3,0.5,4,0.8V20.6z"/>
		<path class="st1" d="M29,19.1c-2,0-3.2,0.8-4,1.5v12c0.7-0.2,2-0.8,4-0.8c4,0,6,1.3,6,1.3v-11C35,22.1,33,19.1,29,19.1z"/>
	</g>
</g>
</svg>
