<?xml version="1.0" encoding="UTF-8" standalone="no"?>
<!-- Created with Inkscape (http://www.inkscape.org/) -->

<svg
   xmlns:dc="http://purl.org/dc/elements/1.1/"
   xmlns:cc="http://creativecommons.org/ns#"
   xmlns:rdf="http://www.w3.org/1999/02/22-rdf-syntax-ns#"
   xmlns:svg="http://www.w3.org/2000/svg"
   xmlns="http://www.w3.org/2000/svg"
   xmlns:sodipodi="http://sodipodi.sourceforge.net/DTD/sodipodi-0.dtd"
   xmlns:inkscape="http://www.inkscape.org/namespaces/inkscape"
   id="svg3546"
   version="1.1"
   inkscape:version="0.91 r13725"
   width="38"
   height="38"
   viewBox="0 0 38 38"
   sodipodi:docname="close_38.svg">
  <metadata
     id="metadata3552">
    <rdf:RDF>
      <cc:Work
         rdf:about="">
        <dc:format>image/svg+xml</dc:format>
        <dc:type
           rdf:resource="http://purl.org/dc/dcmitype/StillImage" />
        <dc:title></dc:title>
      </cc:Work>
    </rdf:RDF>
  </metadata>
  <defs
     id="defs3550" />
  <sodipodi:namedview
     pagecolor="#ffffff"
     bordercolor="#666666"
     borderopacity="1"
     objecttolerance="10"
     gridtolerance="10"
     guidetolerance="10"
     inkscape:pageopacity="0"
     inkscape:pageshadow="2"
     inkscape:window-width="640"
     inkscape:window-height="480"
     id="namedview3548"
     showgrid="false"
     inkscape:zoom="16.970563"
     inkscape:cx="12.759232"
     inkscape:cy="20.325627"
     inkscape:current-layer="svg3546" />
  <g
     id="g5666">
    <path
       id="path6389"
       d="m 17.625,19 0,-12.75 1.374999,0 1.375001,0 0,12.75 0,12.75 -1.375001,0 -1.374999,0 0,-12.75 z"
       style="fill:#3b4654;fill-opacity:1"
       inkscape:connector-curvature="0" />
    <path
       id="path6387"
       d="M 28.461367,25.405827 C 25.320115,21.916544 22.75,19.03127 22.75,18.99409 c 0,-0.03719 2.570115,-2.919775 5.711367,-6.405832 L 34.172733,6.25 l 0.0547,6.444187 c 0.03008,3.544317 0.03008,9.2818 0,12.749994 L 34.172733,31.75 28.461367,25.405827 Z"
       style="fill:#3b4654;fill-opacity:1"
       inkscape:connector-curvature="0" />
    <path
       inkscape:connector-curvature="0"
       style="fill:#3b4654;fill-opacity:1"
       d="m 9.538626,12.594174 c 3.141252,3.489283 5.711367,6.374557 5.711367,6.411737 0,0.03719 -2.570115,2.919775 -5.711367,6.405832 L 3.82726,31.75 3.77256,25.305814 c -0.03008,-3.544317 -0.03008,-9.2818 0,-12.749994 l 0.0547,-6.3058192 5.711366,6.3441732 z"
       id="path5629-4" />
  </g>
</svg>
