<?xml version="1.0" encoding="UTF-8" standalone="no"?>
<!-- Generator: Adobe Illustrator 19.2.1, SVG Export Plug-In . SVG Version: 6.00 Build 0)  -->

<svg
   xmlns:dc="http://purl.org/dc/elements/1.1/"
   xmlns:cc="http://creativecommons.org/ns#"
   xmlns:rdf="http://www.w3.org/1999/02/22-rdf-syntax-ns#"
   xmlns:svg="http://www.w3.org/2000/svg"
   xmlns="http://www.w3.org/2000/svg"
   xmlns:sodipodi="http://sodipodi.sourceforge.net/DTD/sodipodi-0.dtd"
   xmlns:inkscape="http://www.inkscape.org/namespaces/inkscape"
   version="1.1"
   id="Ebene_1"
   x="0px"
   y="0px"
   width="38px"
   height="38px"
   viewBox="0 0 38 38"
   style="enable-background:new 0 0 38 38;"
   xml:space="preserve"
   inkscape:version="0.91 r13725"
   sodipodi:docname="conveyor_empty_38.svg"><metadata
   id="metadata5735"><rdf:RDF><cc:Work
       rdf:about=""><dc:format>image/svg+xml</dc:format><dc:type
         rdf:resource="http://purl.org/dc/dcmitype/StillImage" /><dc:title></dc:title></cc:Work></rdf:RDF></metadata><defs
   id="defs5733">
	
	
	
	
	
</defs><sodipodi:namedview
   pagecolor="#ffffff"
   bordercolor="#666666"
   borderopacity="1"
   objecttolerance="10"
   gridtolerance="10"
   guidetolerance="10"
   inkscape:pageopacity="0"
   inkscape:pageshadow="2"
   inkscape:window-width="640"
   inkscape:window-height="480"
   id="namedview5731"
   showgrid="false"
   inkscape:zoom="14.815789"
   inkscape:cx="17.818828"
   inkscape:cy="19"
   inkscape:current-layer="Ebene_1" />
<style
   type="text/css"
   id="style5717">
	.st0{fill:none;}
	.st1{fill:#3B4654;}
</style>
<g
   id="g5742"><rect
     class="st0"
     width="38"
     height="38"
     id="rect5721"
     x="0"
     y="0"
     style="fill:none" /><path
     class="st1"
     d="m 33,23 c 2.2,0 4,1.8 4,4 0,2.2 -1.8,4 -4,4 L 5,31 C 2.8,31 1,29.2 1,27 1,24.8 2.8,23 5,23 l 28,0 m 0,-1 -28,0 c -2.8,0 -5,2.2 -5,5 0,2.8 2.2,5 5,5 l 28,0 c 2.8,0 5,-2.2 5,-5 0,-2.8 -2.2,-5 -5,-5 l 0,0 z"
     id="path5727"
     inkscape:connector-curvature="0"
     style="fill:#3b4654" /><path
     class="st1"
     d="M 33,24 5,24 c -1.7,0 -3,1.3 -3,3 0,1.6 1.3,3 3,3 l 28,0 c 1.7,0 3,-1.4 3,-3 0,-1.7 -1.3,-3 -3,-3 z M 7,29.2 c -1.2,0 -2.2,-1 -2.2,-2.2 0,-1.2 1,-2.2 2.2,-2.2 1.2,0 2.2,1 2.2,2.2 0,1.2 -1,2.2 -2.2,2.2 z m 12,0 c -1.2,0 -2.2,-1 -2.2,-2.2 0,-1.2 1,-2.2 2.2,-2.2 1.2,0 2.2,1 2.2,2.2 0,1.2 -1,2.2 -2.2,2.2 z m 12,0 c -1.2,0 -2.2,-1 -2.2,-2.2 0,-1.2 1,-2.2 2.2,-2.2 1.2,0 2.2,1 2.2,2.2 0,1.2 -1,2.2 -2.2,2.2 z"
     id="path5729"
     inkscape:connector-curvature="0"
     style="fill:#3b4654" /></g>
</svg>