<?xml version="1.0" encoding="UTF-8" standalone="no"?>
<!-- Generator: Adobe Illustrator 19.2.1, SVG Export Plug-In . SVG Version: 6.00 Build 0)  -->

<svg
   xmlns:dc="http://purl.org/dc/elements/1.1/"
   xmlns:cc="http://creativecommons.org/ns#"
   xmlns:rdf="http://www.w3.org/1999/02/22-rdf-syntax-ns#"
   xmlns:svg="http://www.w3.org/2000/svg"
   xmlns="http://www.w3.org/2000/svg"
   xmlns:sodipodi="http://sodipodi.sourceforge.net/DTD/sodipodi-0.dtd"
   xmlns:inkscape="http://www.inkscape.org/namespaces/inkscape"
   version="1.1"
   id="Ebene_1"
   x="0px"
   y="0px"
   width="38px"
   height="38px"
   viewBox="0 0 38 38"
   style="enable-background:new 0 0 38 38;"
   xml:space="preserve"
   inkscape:version="0.91 r13725"
   sodipodi:docname="conveyor_occupied_38.svg"><metadata
   id="metadata5735"><rdf:RDF><cc:Work
       rdf:about=""><dc:format>image/svg+xml</dc:format><dc:type
         rdf:resource="http://purl.org/dc/dcmitype/StillImage" /><dc:title></dc:title></cc:Work></rdf:RDF></metadata><defs
   id="defs5733" /><sodipodi:namedview
   pagecolor="#ffffff"
   bordercolor="#666666"
   borderopacity="1"
   objecttolerance="10"
   gridtolerance="10"
   guidetolerance="10"
   inkscape:pageopacity="0"
   inkscape:pageshadow="2"
   inkscape:window-width="640"
   inkscape:window-height="480"
   id="namedview5731"
   showgrid="false"
   inkscape:zoom="14.815789"
   inkscape:cx="17.818828"
   inkscape:cy="19"
   inkscape:current-layer="Ebene_1" />
<style
   type="text/css"
   id="style5717">
	.st0{fill:none;}
	.st1{fill:#3B4654;}
</style>
<g
   id="g5719">
	<rect
   class="st0"
   width="38"
   height="38"
   id="rect5721" />
	<rect
   x="4"
   y="8"
   class="st1"
   width="13"
   height="12"
   id="rect5723" />
	<rect
   x="21"
   y="8"
   class="st1"
   width="13"
   height="12"
   id="rect5725" />
	<path
   class="st1"
   d="M33,23c2.2,0,4,1.8,4,4s-1.8,4-4,4H5c-2.2,0-4-1.8-4-4s1.8-4,4-4H33 M33,22H5c-2.8,0-5,2.2-5,5s2.2,5,5,5h28   c2.8,0,5-2.2,5-5S35.8,22,33,22L33,22z"
   id="path5727" />
	<path
   class="st1"
   d="M33,24H5c-1.7,0-3,1.3-3,3c0,1.6,1.3,3,3,3h28c1.7,0,3-1.4,3-3C36,25.3,34.7,24,33,24z M7,29.2   c-1.2,0-2.2-1-2.2-2.2s1-2.2,2.2-2.2s2.2,1,2.2,2.2S8.2,29.2,7,29.2z M19,29.2c-1.2,0-2.2-1-2.2-2.2s1-2.2,2.2-2.2s2.2,1,2.2,2.2   S20.2,29.2,19,29.2z M31,29.2c-1.2,0-2.2-1-2.2-2.2s1-2.2,2.2-2.2s2.2,1,2.2,2.2S32.2,29.2,31,29.2z"
   id="path5729" />
</g>
</svg>