<?xml version="1.0" encoding="utf-8"?>
<!-- Generator: Adobe Illustrator 19.2.1, SVG Export Plug-In . SVG Version: 6.00 Build 0)  -->
<svg version="1.1" id="Ebene_1" xmlns="http://www.w3.org/2000/svg" xmlns:xlink="http://www.w3.org/1999/xlink" x="0px" y="0px"
	 width="38px" height="38px" viewBox="0 0 38 38" style="enable-background:new 0 0 38 38;" xml:space="preserve">
<style type="text/css">
	.st0{fill:none;}
	.st1{fill:#3B4654;}
</style>
<g>
	<rect class="st0" width="38" height="38"/>
	<path class="st1" d="M33,5H19v7h4h10V5z M25,17v3h5l-3-3H25z M16,2v10h2V4h16v9h-9.3c0.2,0.3,0.3,0.6,0.3,1v1h11V2H16z"/>
	<g>
		<path class="st1" d="M21,16v11H2V16H21 M23,14H0v15h23V14L23,14z"/>
		<rect x="3" y="17" class="st1" width="17" height="9"/>
		<polygon class="st1" points="17,35 6,35 10,31 14,31 		"/>
	</g>
</g>
</svg>
