<?xml version="1.0" encoding="UTF-8" standalone="no"?>
<!-- Generator: Adobe Illustrator 19.2.1, SVG Export Plug-In . SVG Version: 6.00 Build 0)  -->

<svg
   xmlns:dc="http://purl.org/dc/elements/1.1/"
   xmlns:cc="http://creativecommons.org/ns#"
   xmlns:rdf="http://www.w3.org/1999/02/22-rdf-syntax-ns#"
   xmlns:svg="http://www.w3.org/2000/svg"
   xmlns="http://www.w3.org/2000/svg"
   xmlns:sodipodi="http://sodipodi.sourceforge.net/DTD/sodipodi-0.dtd"
   xmlns:inkscape="http://www.inkscape.org/namespaces/inkscape"
   version="1.1"
   id="Ebene_1"
   x="0px"
   y="0px"
   width="38px"
   height="38px"
   viewBox="0 0 38 38"
   style="enable-background:new 0 0 38 38;"
   xml:space="preserve"
   inkscape:version="0.91 r13725"
   sodipodi:docname="off_time_38.svg"><metadata
   id="metadata4978"><rdf:RDF><cc:Work
       rdf:about=""><dc:format>image/svg+xml</dc:format><dc:type
         rdf:resource="http://purl.org/dc/dcmitype/StillImage" /><dc:title></dc:title></cc:Work></rdf:RDF></metadata><defs
   id="defs4976"><inkscape:perspective
   sodipodi:type="inkscape:persp3d"
   inkscape:vp_x="0 : 19 : 1"
   inkscape:vp_y="0 : 1000 : 0"
   inkscape:vp_z="38 : 19 : 1"
   inkscape:persp3d-origin="19 : 12.666667 : 1"
   id="perspective4990" />
	
	

		
		
	
			
		
				
			</defs><sodipodi:namedview
   pagecolor="#ffffff"
   bordercolor="#666666"
   borderopacity="1"
   objecttolerance="10"
   gridtolerance="10"
   guidetolerance="10"
   inkscape:pageopacity="0"
   inkscape:pageshadow="2"
   inkscape:window-width="640"
   inkscape:window-height="480"
   id="namedview4974"
   showgrid="false"
   inkscape:zoom="13.394737"
   inkscape:cx="12.41587"
   inkscape:cy="19"
   inkscape:current-layer="Ebene_1" />
<style
   type="text/css"
   id="style4958">
	.st0{fill:none;}
	.st1{fill:#3B4654;}
</style>

<path
   style="fill:#3b4654"
   d="M 18 5 L 18 15 L 21 15 L 21 5 L 18 5 z M 15.199219 7.8007812 C 10.999219 9.6007813 8.0996094 13.7 8.0996094 18.5 C 8.0996094 24.9 13.299219 30.099609 19.699219 30.099609 C 20.218724 30.099609 20.726964 30.054667 21.228516 29.988281 A 8 8 0 0 1 19.822266 26.6875 C 19.747624 26.689548 19.67471 26.699219 19.599609 26.699219 C 15.099609 26.699219 11.400391 23 11.400391 18.5 C 11.400391 15.6 12.899219 13.099609 15.199219 11.599609 L 15.199219 7.8007812 z M 24 7.8007812 L 24 11.599609 C 25.97569 12.888103 27.353666 14.91684 27.705078 17.300781 A 8 8 0 0 1 31.273438 18.152344 C 30.950603 13.503697 28.097535 9.5568678 24 7.8007812 z M 27.699219 18.800781 A 6.4999948 6.4999948 0 0 0 21.199219 25.300781 A 6.4999948 6.4999948 0 0 0 27.699219 31.800781 A 6.4999948 6.4999948 0 0 0 34.199219 25.300781 A 6.4999948 6.4999948 0 0 0 27.699219 18.800781 z M 26.699219 19.800781 L 28.699219 19.800781 L 28.699219 24.300781 L 32.199219 24.300781 L 32.199219 26.300781 L 28.699219 26.300781 L 26.699219 26.300781 L 26.699219 24.300781 L 26.699219 19.800781 z "
   id="path4860" /></svg>