<?xml version="1.0" encoding="UTF-8" standalone="no"?>
<!-- Created with Inkscape (http://www.inkscape.org/) -->

<svg
   xmlns:dc="http://purl.org/dc/elements/1.1/"
   xmlns:cc="http://creativecommons.org/ns#"
   xmlns:rdf="http://www.w3.org/1999/02/22-rdf-syntax-ns#"
   xmlns:svg="http://www.w3.org/2000/svg"
   xmlns="http://www.w3.org/2000/svg"
   xmlns:sodipodi="http://sodipodi.sourceforge.net/DTD/sodipodi-0.dtd"
   xmlns:inkscape="http://www.inkscape.org/namespaces/inkscape"
   id="svg3556"
   version="1.1"
   inkscape:version="0.91 r13725"
   width="38"
   height="38"
   viewBox="0 0 38 38"
   sodipodi:docname="open_38.svg">
  <metadata
     id="metadata3562">
    <rdf:RDF>
      <cc:Work
         rdf:about="">
        <dc:format>image/svg+xml</dc:format>
        <dc:type
           rdf:resource="http://purl.org/dc/dcmitype/StillImage" />
        <dc:title></dc:title>
      </cc:Work>
    </rdf:RDF>
  </metadata>
  <defs
     id="defs3560" />
  <sodipodi:namedview
     pagecolor="#ffffff"
     bordercolor="#666666"
     borderopacity="1"
     objecttolerance="10"
     gridtolerance="10"
     guidetolerance="10"
     inkscape:pageopacity="0"
     inkscape:pageshadow="2"
     inkscape:window-width="640"
     inkscape:window-height="480"
     id="namedview3558"
     showgrid="false"
     inkscape:zoom="16.970563"
     inkscape:cx="20.962065"
     inkscape:cy="17.200184"
     inkscape:current-layer="svg3556" />
  <g
     id="g5661">
    <path
       inkscape:connector-curvature="0"
       id="path6389"
       d="m 17.625,19 0,-12.75 1.374999,0 1.375001,0 0,12.75 0,12.75 -1.375001,0 -1.374999,0 0,-12.75 z"
       style="fill:#3b4654;fill-opacity:1" />
    <path
       inkscape:connector-curvature="0"
       id="path6387"
       d="M 9.461367,25.405839 C 6.320115,21.916549 3.75,19.031268 3.75,18.994102 c 0,-0.03719 2.570115,-2.919795 5.711367,-6.405841 l 5.711366,-6.3382612 0.0547,6.4441922 c 0.03008,3.544305 0.03008,9.281805 0,12.749998 l -0.0547,6.305809 -5.711366,-6.34416 z"
       style="fill:#3b4654;fill-opacity:1" />
    <path
       inkscape:connector-curvature="0"
       id="path6387-8"
       d="m 28.538626,12.594161 c 3.141252,3.48929 5.711367,6.374571 5.711367,6.411737 0,0.03719 -2.570115,2.919795 -5.711367,6.405841 L 22.82726,31.75 22.77256,25.305808 c -0.03008,-3.544305 -0.03008,-9.281805 0,-12.749998 l 0.0547,-6.305809 5.711366,6.34416 z"
       style="fill:#3b4654;fill-opacity:1" />
  </g>
</svg>
