<?xml version="1.0" encoding="utf-8"?>
<!-- Generator: Adobe Illustrator 19.2.1, SVG Export Plug-In . SVG Version: 6.00 Build 0)  -->
<svg version="1.1" id="Ebene_1" xmlns="http://www.w3.org/2000/svg" xmlns:xlink="http://www.w3.org/1999/xlink" x="0px" y="0px"
	 width="38px" height="38px" viewBox="0 0 38 38" style="enable-background:new 0 0 38 38;" xml:space="preserve">
<style type="text/css">
	.st0{fill:none;}
	.st1{fill:#3B4654;}
</style>
<g>
	<rect class="st0" width="38" height="38"/>
	<g>
		<path class="st1" d="M35,15h-5v-4l5-5h-5c0-1.1-0.9-2-2-2H13c-1.1,0-2,0.9-2,2H6l5,5v4H6l5,5v4H6l5,5v2c0,1.1,0.9,2,2,2h15
			c1.1,0,2-0.9,2-2v-2l5-5h-5v-4L35,15z M28,31H13V6h15V31z"/>
		<path class="st1" d="M14,7v23h13V7H14z M20.5,28.3c-1.5,0-2.7-1.2-2.7-2.7s1.2-2.7,2.7-2.7s2.7,1.2,2.7,2.7S22,28.3,20.5,28.3z
			 M20.5,21.2c-1.5,0-2.7-1.2-2.7-2.7s1.2-2.7,2.7-2.7s2.7,1.2,2.7,2.7S22,21.2,20.5,21.2z M20.5,14.1c-1.5,0-2.7-1.2-2.7-2.7
			s1.2-2.7,2.7-2.7s2.7,1.2,2.7,2.7S22,14.1,20.5,14.1z"/>
	</g>
</g>
</svg>
