<?xml version="1.0" encoding="utf-8"?>
<!-- Generator: Adobe Illustrator 19.2.1, SVG Export Plug-In . SVG Version: 6.00 Build 0)  -->
<svg version="1.1" id="Ebene_1" xmlns="http://www.w3.org/2000/svg" xmlns:xlink="http://www.w3.org/1999/xlink" x="0px" y="0px"
	 width="38px" height="38px" viewBox="0 0 38 38" style="enable-background:new 0 0 38 38;" xml:space="preserve">
<style type="text/css">
	.st0{fill:none;}
	.st1{fill:#3B4654;}
</style>
<g>
	<rect class="st0" width="38" height="38"/>
	<g>
		<path class="st1" d="M19,6.2c0.2,0.1,0.5,0.3,0.7,0.5c2,1.3,5.6,3.7,10.1,4.2c0.3,2.4,0.4,7.6-3.2,12.9c-2.7,3.9-5.4,6.1-7.7,6.1
			c-2.2,0-5-2.2-7.7-6.1C7.6,18.5,7.7,13.3,8,10.9c4.5-0.5,8.1-2.9,10.1-4.2C18.5,6.5,18.8,6.3,19,6.2 M19,4c-1.1,0-6,5-12.6,5
			c0,0-2.2,7.9,3.2,15.9c2.7,4,6,7,9.3,7s6.6-3,9.3-7c5.5-8,3.4-15.9,3.4-15.9C25,9,20.1,4,19,4L19,4z"/>
		<path class="st1" d="M19,16.9h12.4c0.5-4.1,0.2-8,0.2-8C26,8.9,20.6,5,19,4.1V16.9z"/>
		<path class="st1" d="M19,17H7.4c0.4,2.4,1.4,5.1,3.2,7.9c4.1,6.3,7.3,6.4,8.5,7V17H19z"/>
	</g>
</g>
</svg>
