<?xml version="1.0" encoding="utf-8"?>
<!-- Generator: Adobe Illustrator 20.0.0, SVG Export Plug-In . SVG Version: 6.00 Build 0)  -->
<svg version="1.1" id="Ebene_1" xmlns="http://www.w3.org/2000/svg" xmlns:xlink="http://www.w3.org/1999/xlink" x="0px" y="0px"
	 width="38px" height="38px" viewBox="0 0 38 38" style="enable-background:new 0 0 38 38;" xml:space="preserve">
<style type="text/css">
	.st0{fill:none;}
	.st1{fill:#3B4654;}
</style>
<g>
	<rect class="st0" width="38" height="38"/>
	<path class="st1" d="M0,8v21h38V8H0z M4,27v-4H2v-9h2v-4h12v4h2v9h-2v4H4z M36,23h-2v4H22v-4h-2v-9h2v-4h12v4h2V23z"/>
	<g>
		<path class="st1" d="M14,20v3H7v-3H5v4.6c0,0,1.3,2.4,5,2.4s5-2.4,5-2.4V20H14z"/>
		<polygon class="st1" points="12,18 12,14 10,14 10,18 8,18 8,22 13,22 13,18 		"/>
	</g>
	<g>
		<rect x="22" y="16" transform="matrix(0.7071 -0.7071 0.7071 0.7071 -5.9915 21.5353)" class="st1" width="2" height="4"/>
		<path class="st1" d="M29.9,18c0.2-1,0-2-0.7-2.7c-0.5-0.5-1.2-0.8-1.9-0.8c-0.4,0-0.9,0.1-1.3,0.3V9h7c0,0,0,1,0,4.8
			C33,16.9,29.9,18,29.9,18z"/>
		<path class="st1" d="M28.4,16.4L28,16c-0.4-0.4-1-0.4-1.4,0l-3.3,3.3c-0.4,0.4-0.4,1,0,1.4l0.4,0.4c0.4,0.4,1,0.4,1.4,0l3.3-3.3
			C28.8,17.4,28.8,16.8,28.4,16.4z"/>
	</g>
</g>
</svg>
