<?xml version="1.0" encoding="utf-8"?>
<!-- Generator: Adobe Illustrator 19.2.1, SVG Export Plug-In . SVG Version: 6.00 Build 0)  -->
<svg version="1.1" id="Ebene_1" xmlns="http://www.w3.org/2000/svg" xmlns:xlink="http://www.w3.org/1999/xlink" x="0px" y="0px"
	 width="38px" height="38px" viewBox="0 0 38 38" style="enable-background:new 0 0 38 38;" xml:space="preserve">
<style type="text/css">
	.st0{fill:none;}
	.st1{fill:#3B4654;}
</style>
<g>
	<rect class="st0" width="38" height="38"/>
	<rect x="4" y="8" class="st1" width="13" height="12"/>
	<rect x="21" y="8" class="st1" width="13" height="12"/>
	<path class="st1" d="M33,23c2.2,0,4,1.8,4,4s-1.8,4-4,4H5c-2.2,0-4-1.8-4-4s1.8-4,4-4H33 M33,22H5c-2.8,0-5,2.2-5,5s2.2,5,5,5h28
		c2.8,0,5-2.2,5-5S35.8,22,33,22L33,22z"/>
	<path class="st1" d="M33,24H5c-1.7,0-3,1.3-3,3c0,1.6,1.3,3,3,3h28c1.7,0,3-1.4,3-3C36,25.3,34.7,24,33,24z M7,29.2
		c-1.2,0-2.2-1-2.2-2.2s1-2.2,2.2-2.2s2.2,1,2.2,2.2S8.2,29.2,7,29.2z M19,29.2c-1.2,0-2.2-1-2.2-2.2s1-2.2,2.2-2.2s2.2,1,2.2,2.2
		S20.2,29.2,19,29.2z M31,29.2c-1.2,0-2.2-1-2.2-2.2s1-2.2,2.2-2.2s2.2,1,2.2,2.2S32.2,29.2,31,29.2z"/>
</g>
</svg>
