<?xml version="1.0" encoding="utf-8"?>
<!-- Generator: Adobe Illustrator 19.2.1, SVG Export Plug-In . SVG Version: 6.00 Build 0)  -->
<svg version="1.1" id="Ebene_1" xmlns="http://www.w3.org/2000/svg" xmlns:xlink="http://www.w3.org/1999/xlink" x="0px" y="0px"
	 width="38px" height="38px" viewBox="0 0 38 38" style="enable-background:new 0 0 38 38;" xml:space="preserve">
<style type="text/css">
	.st0{fill:none;}
	.st1{fill:#3B4654;}
	.st2{fill:none;stroke:#3B4654;stroke-width:3;stroke-linecap:round;stroke-linejoin:round;stroke-miterlimit:10;}
</style>
<g>
	<rect x="0.1" class="st0" width="38" height="38"/>
	<g>
		<path class="st1" d="M16,9.1c-0.6,0.1-1.1,0.5-1.2,1L9.9,20.2l-4.2-4.7c-0.5-0.5-1.3-0.6-1.9-0.2l-2.7,3.4c0,0-1.7,1.7-0.8,2.5
			s2.4-0.8,2.4-0.8l1.7-2L9.5,24c0.4,0.4,0.9,0.5,1.4,0.4s0.9-0.5,1.1-1l0.9-1.8l0,0c0-4.1,2.6-7.6,6.3-8.9l-1.8-2.8
			C17.1,9.3,16.5,9,16,9.1z M32.6,11h-7c-0.7,0-1.3,0.5-1.4,1.1c1.6,0.3,3.1,0.9,4.3,1.9h4.2c0.8,0,1.5-0.7,1.5-1.5S33.4,11,32.6,11
			z"/>
		<path class="st1" d="M33.4,34.6c0.7,0.7,1.4,0.4,2-0.2s0.9-1.3,0.2-2l-4.9-4.9l-2.2,2.2L33.4,34.6z"/>
		<path class="st1" d="M22.6,14c-4.1,0-7.5,3.4-7.5,7.5s3.4,7.5,7.5,7.5s7.5-3.4,7.5-7.5S26.7,14,22.6,14z M22.6,26.8
			c-2.9,0-5.2-2.4-5.2-5.2c0-2.9,2.4-5.2,5.2-5.2s5.2,2.4,5.2,5.2C27.9,24.5,25.5,26.8,22.6,26.8z"/>
		<polyline class="st2" points="19.7,16.5 23.6,23.4 25.6,16.3 		"/>
	</g>
</g>
</svg>
