<?xml version="1.0" encoding="utf-8"?>
<!-- Generator: Adobe Illustrator 20.0.0, SVG Export Plug-In . SVG Version: 6.00 Build 0)  -->
<svg version="1.1" id="Ebene_1" xmlns="http://www.w3.org/2000/svg" xmlns:xlink="http://www.w3.org/1999/xlink" x="0px" y="0px"
	 width="38px" height="38px" viewBox="0 0 38 38" style="enable-background:new 0 0 38 38;" xml:space="preserve">
<style type="text/css">
	.st0{fill:none;}
	.st1{fill:#3B4654;}
	.st2{font-family:'Roboto-Bold';}
	.st3{font-size:12.5px;}
</style>
<g>
	<rect class="st0" width="38" height="38"/>
	<path class="st1" d="M31.6,16c0.4,1.6,0,3.3-1.2,4.5c-0.9,0.9-2,1.3-3.3,1.3c-0.8,0-1.5-0.2-2.2-0.5v3.8c0.3-0.1,0.7-0.1,1-0.1
		c1.1,0,2.1,0.3,3,0.8c0.4,0.2,0.7,0.5,1.1,0.9c0.5-0.5,1-0.9,1.7-1.2c0.8-0.3,1.6-0.5,2.5-0.5s1.8,0.2,2.5,0.5
		c0.1,0,0.1,0.1,0.2,0.1V23C37,17.9,31.6,16,31.6,16z M14,10l-5.7,5.8c-0.8,0.8-0.8,2.1,0,2.9l0,0c0.8,0.8,2.1,0.8,2.9,0l5.7-5.8
		l-2.3-2.1C14.4,10.6,14.2,10.3,14,10z M25,18.9c1.2,1.2,3,1.3,4.1,0.2c1.1-1.1,1-2.9-0.2-4.1L20,6.1c-1.2-1.2-3-1.3-4.1-0.2
		C14.9,7,15,8.8,16.1,10L25,18.9z M18,6c1.1,0,2,0.9,2,2s-0.9,2-2,2s-2-0.9-2-2S16.9,6,18,6z M1,19v2h3.5L2,23.5L3.5,25L6,22.5V26
		h0.6c0.3-0.2,0.5-0.4,0.8-0.5c0.2-0.1,0.3-0.1,0.5-0.2V20l-1-1H1z"/>
	<text transform="matrix(1 0 0 1 6.3903 36)" class="st1 st2 st3">3DOS</text>
</g>
</svg>
