<?xml version="1.0" encoding="utf-8"?>
<!-- Generator: Adobe Illustrator 19.2.1, SVG Export Plug-In . SVG Version: 6.00 Build 0)  -->
<svg version="1.1" id="Ebene_1" xmlns="http://www.w3.org/2000/svg" xmlns:xlink="http://www.w3.org/1999/xlink" x="0px" y="0px"
	 width="38px" height="38px" viewBox="0 0 38 38" style="enable-background:new 0 0 38 38;" xml:space="preserve">
<style type="text/css">
	.st0{fill:none;}
	.st1{fill:#3B4654;}
</style>
<g>
	<rect class="st0" width="38" height="38"/>
	<g>
		<path class="st1" d="M26,23.1l4.4,8.6C30.8,30.9,31,30,31,29C31,26,28.8,23.6,26,23.1z M19,29c0,0.8,0.2,1.6,0.5,2.3l4.5-8.2
			C21.2,23.6,19,26,19,29z M20.5,33c1.1,1.2,2.7,2,4.5,2c1.6,0,3.1-0.6,4.2-1.7L25,25L20.5,33z"/>
		<path class="st1" d="M14.5,9.5l4.4-5.8C19,3.5,19,3.4,19,3.2C18.9,3.1,18.7,3,18.6,3H9.4C9.3,3,9.1,3.1,9,3.2c0,0.2,0,0.3,0.1,0.5
			l4.4,5.8l-4.4,5.8C9,15.5,9,15.6,9,15.8C9.1,15.9,9.3,16,9.4,16h9.2c0.2,0,0.3-0.1,0.4-0.2c0.1-0.1,0.1-0.3,0-0.4L14.5,9.5z"/>
		<rect x="3" y="18" class="st1" width="33" height="3"/>
		<rect x="13" y="0" class="st1" width="2" height="4"/>
		<rect x="13" y="16" class="st1" width="2" height="2"/>
		<rect x="24" y="18" class="st1" width="2" height="5"/>
		<rect x="24" y="33" class="st1" width="2" height="5"/>
	</g>
</g>
</svg>
