<?xml version="1.0" encoding="utf-8"?>
<!-- Generator: Adobe Illustrator 20.0.0, SVG Export Plug-In . SVG Version: 6.00 Build 0)  -->
<svg version="1.1" id="Ebene_1" xmlns="http://www.w3.org/2000/svg" xmlns:xlink="http://www.w3.org/1999/xlink" x="0px" y="0px"
	 width="38px" height="38px" viewBox="0 0 38 38" style="enable-background:new 0 0 38 38;" xml:space="preserve">
<style type="text/css">
	.st0{fill:none;}
	.st1{fill:#3B4654;}
</style>
<g>
	<rect class="st0" width="38" height="38"/>
	<g>
		<polygon class="st1" points="31,3 7,3 4,3 4,6 4,14 7,14 7,6 31,6 31,14 34,14 34,6 34,3 		"/>
		<polygon class="st1" points="31,32 7,32 7,24 4,24 4,32 4,35 7,35 31,35 34,35 34,32 34,24 31,24 		"/>
	</g>
	<g>
		<rect x="18" y="13" transform="matrix(0.7071 -0.7071 0.7071 0.7071 -5.0417 17.8278)" class="st1" width="2" height="4"/>
		<path class="st1" d="M25.9,15c0.2-1,0-2-0.7-2.7c-0.5-0.5-1.2-0.8-1.9-0.8c-0.4,0-0.9,0.1-1.3,0.3V6h7c0,0,0,1,0,4.8
			C29,13.9,25.9,15,25.9,15z"/>
		<path class="st1" d="M24.4,13.4L24,13c-0.4-0.4-1-0.4-1.4,0l-3.3,3.3c-0.4,0.4-0.4,1,0,1.4l0.4,0.4c0.4,0.4,1,0.4,1.4,0l3.3-3.3
			C24.8,14.4,24.8,13.8,24.4,13.4z"/>
	</g>
	<g>
		<path class="st1" d="M17,25v3h-7v-3H8v4.6c0,0,1.3,2.4,5,2.4s5-2.4,5-2.4V25H17z"/>
		<polygon class="st1" points="15,23 15,19 13,19 13,23 11,23 11,27 16,27 16,23 		"/>
	</g>
</g>
</svg>
