<?xml version="1.0" encoding="utf-8"?>
<!-- Generator: Adobe Illustrator 19.2.1, SVG Export Plug-In . SVG Version: 6.00 Build 0)  -->
<svg version="1.1" id="Ebene_1" xmlns="http://www.w3.org/2000/svg" xmlns:xlink="http://www.w3.org/1999/xlink" x="0px" y="0px"
	 width="38px" height="38px" viewBox="0 0 38 38" style="enable-background:new 0 0 38 38;" xml:space="preserve">
<style type="text/css">
	.st0{fill:none;}
	.st1{fill:#3B4654;}
	.st2{font-family:'Roboto-Bold';}
	.st3{font-size:12.5px;}
</style>
<g>
	<rect class="st0" width="38" height="38"/>
	<path class="st1" d="M2,5v20h9v-2H4V7h25v11.9h0.9c0.4,0,0.7,0.1,1.1,0.3V5H2z M6,21h5c0.1-1.2,1-2.1,2.1-2.1h2
		c0.9,0,1.7,0.6,2,1.4l0.2,0.7H18l0.2-0.7c0.3-0.8,1.1-1.4,2-1.4h2c0.3,0,0.6,0.1,0.9,0.2c0.3-0.1,0.6-0.2,0.9-0.2h3V9H6V21z M11,27
		h-1l-4,5h5.5c-0.3-0.5-0.5-1.1-0.5-1.6V27z"/>
	<text transform="matrix(1 0 0 1 12.2507 30)" class="st1 st2 st3">MES</text>
</g>
</svg>
