<?xml version="1.0" encoding="utf-8"?>
<!-- Generator: Adobe Illustrator 19.2.1, SVG Export Plug-In . SVG Version: 6.00 Build 0)  -->
<svg version="1.1" id="Ebene_1" xmlns="http://www.w3.org/2000/svg" xmlns:xlink="http://www.w3.org/1999/xlink" x="0px" y="0px"
	 width="20px" height="16px" viewBox="0 0 20 16" style="enable-background:new 0 0 20 16;" xml:space="preserve">
<style type="text/css">
	.st0{fill:none;}
	.st1{fill:#A5B200;}
	.st2{fill:#FFFFFF;}
</style>
<rect class="st0" width="20" height="16"/>
<g>
	<path class="st1" d="M20,13c0,1.6-1.4,3-3,3H3c-1.6,0-3-1.4-3-3V3c0-1.6,1.4-3,3-3h14c1.6,0,3,1.4,3,3V13z"/>
	<path class="st2" d="M9.6,12c-0.2,0-0.5-0.1-0.7-0.2L5,8.6l1.3-1.4l3,2.4l4-5.6L15,5l-4.5,6.6c-0.2,0.2-0.4,0.4-0.7,0.4
		C9.7,12,9.7,12,9.6,12L9.6,12z"/>
</g>
</svg>
