<?xml version="1.0" encoding="UTF-8" standalone="no"?>
<!-- Generator: Adobe Illustrator 19.2.1, SVG Export Plug-In . SVG Version: 6.00 Build 0)  -->

<svg
   xmlns:dc="http://purl.org/dc/elements/1.1/"
   xmlns:cc="http://creativecommons.org/ns#"
   xmlns:rdf="http://www.w3.org/1999/02/22-rdf-syntax-ns#"
   xmlns:svg="http://www.w3.org/2000/svg"
   xmlns="http://www.w3.org/2000/svg"
   xmlns:sodipodi="http://sodipodi.sourceforge.net/DTD/sodipodi-0.dtd"
   xmlns:inkscape="http://www.inkscape.org/namespaces/inkscape"
   version="1.1"
   id="Ebene_1"
   x="0px"
   y="0px"
   width="38px"
   height="38px"
   viewBox="0 0 38 38"
   style="enable-background:new 0 0 38 38;"
   xml:space="preserve"
   inkscape:version="0.91 r13725"
   sodipodi:docname="duerr_ico_historicalTrending_Management_38.svg"><metadata
   id="metadata3355"><rdf:RDF><cc:Work
       rdf:about=""><dc:format>image/svg+xml</dc:format><dc:type
         rdf:resource="http://purl.org/dc/dcmitype/StillImage" /><dc:title></dc:title></cc:Work></rdf:RDF></metadata><defs
   id="defs3353"><marker
   inkscape:stockid="TriangleOutL"
   orient="auto"
   refY="0.0"
   refX="0.0"
   id="TriangleOutL"
   style="overflow:visible"
   inkscape:isstock="true"><path
     id="path4296"
     d="M 5.77,0.0 L -2.88,5.0 L -2.88,-5.0 L 5.77,0.0 z "
     style="fill-rule:evenodd;stroke:#3b4654;stroke-width:1pt;stroke-opacity:1;fill:#3b4654;fill-opacity:1"
     transform="scale(0.8)" /></marker><marker
   inkscape:isstock="true"
   style="overflow:visible"
   id="marker10895"
   refX="0.0"
   refY="0.0"
   orient="auto"
   inkscape:stockid="Arrow2Lstart"><path
     transform="scale(1.1) translate(1,0)"
     d="M 8.7185878,4.0337352 L -2.2072895,0.016013256 L 8.7185884,-4.0017078 C 6.9730900,-1.6296469 6.9831476,1.6157441 8.7185878,4.0337352 z "
     style="fill-rule:evenodd;stroke-width:0.625;stroke-linejoin:round;stroke:#3b4654;stroke-opacity:1;fill:#3b4654;fill-opacity:1"
     id="path10897" /></marker><marker
   inkscape:stockid="Arrow2Lstart"
   orient="auto"
   refY="0.0"
   refX="0.0"
   id="Arrow2Lstart"
   style="overflow:visible"
   inkscape:isstock="true"
   inkscape:collect="always"><path
     id="path4172"
     style="fill-rule:evenodd;stroke-width:0.625;stroke-linejoin:round;stroke:#3b4654;stroke-opacity:1;fill:#3b4654;fill-opacity:1"
     d="M 8.7185878,4.0337352 L -2.2072895,0.016013256 L 8.7185884,-4.0017078 C 6.9730900,-1.6296469 6.9831476,1.6157441 8.7185878,4.0337352 z "
     transform="scale(1.1) translate(1,0)" /></marker><marker
   inkscape:stockid="Arrow2Lend"
   orient="auto"
   refY="0.0"
   refX="0.0"
   id="marker4424"
   style="overflow:visible;"
   inkscape:isstock="true"><path
     id="path4426"
     style="fill-rule:evenodd;stroke-width:0.625;stroke-linejoin:round;stroke:#3b4654;stroke-opacity:1;fill:#3b4654;fill-opacity:1"
     d="M 8.7185878,4.0337352 L -2.2072895,0.016013256 L 8.7185884,-4.0017078 C 6.9730900,-1.6296469 6.9831476,1.6157441 8.7185878,4.0337352 z "
     transform="scale(1.1) rotate(180) translate(1,0)" /></marker><marker
   inkscape:stockid="Arrow1Lstart"
   orient="auto"
   refY="0.0"
   refX="0.0"
   id="Arrow1Lstart"
   style="overflow:visible"
   inkscape:isstock="true"><path
     id="path4154"
     d="M 0.0,0.0 L 5.0,-5.0 L -12.5,0.0 L 5.0,5.0 L 0.0,0.0 z "
     style="fill-rule:evenodd;stroke:#000000;stroke-width:1.0pt"
     transform="scale(0.8) translate(12.5,0)" /></marker><marker
   inkscape:stockid="Arrow2Lend"
   orient="auto"
   refY="0.0"
   refX="0.0"
   id="marker4416"
   style="overflow:visible;"
   inkscape:isstock="true"><path
     id="path4418"
     style="fill-rule:evenodd;stroke-width:0.62500000;stroke-linejoin:round;"
     d="M 8.7185878,4.0337352 L -2.2072895,0.016013256 L 8.7185884,-4.0017078 C 6.9730900,-1.6296469 6.9831476,1.6157441 8.7185878,4.0337352 z "
     transform="scale(1.1) rotate(180) translate(1,0)" /></marker><marker
   inkscape:stockid="Arrow2Lend"
   orient="auto"
   refY="0.0"
   refX="0.0"
   id="marker4412"
   style="overflow:visible;"
   inkscape:isstock="true"><path
     id="path4414"
     style="fill-rule:evenodd;stroke-width:0.62500000;stroke-linejoin:round;"
     d="M 8.7185878,4.0337352 L -2.2072895,0.016013256 L 8.7185884,-4.0017078 C 6.9730900,-1.6296469 6.9831476,1.6157441 8.7185878,4.0337352 z "
     transform="scale(1.1) rotate(180) translate(1,0)" /></marker><marker
   inkscape:stockid="Arrow2Lend"
   orient="auto"
   refY="0.0"
   refX="0.0"
   id="Arrow2Lend"
   style="overflow:visible;"
   inkscape:isstock="true"><path
     id="path4175"
     style="fill-rule:evenodd;stroke-width:0.625;stroke-linejoin:round;stroke:#3b4654;stroke-opacity:1;fill:#3b4654;fill-opacity:1"
     d="M 8.7185878,4.0337352 L -2.2072895,0.016013256 L 8.7185884,-4.0017078 C 6.9730900,-1.6296469 6.9831476,1.6157441 8.7185878,4.0337352 z "
     transform="scale(1.1) rotate(180) translate(1,0)" /></marker>
	
	
	
	
	
<marker
   inkscape:stockid="Arrow2Lend"
   orient="auto"
   refY="0"
   refX="0"
   id="marker4424-5"
   style="overflow:visible"
   inkscape:isstock="true"><path
     inkscape:connector-curvature="0"
     id="path4426-1"
     style="fill:#3b4654;fill-opacity:1;fill-rule:evenodd;stroke:#3b4654;stroke-width:0.625;stroke-linejoin:round;stroke-opacity:1"
     d="M 8.7185878,4.0337352 -2.2072895,0.01601326 8.7185884,-4.0017078 c -1.7454984,2.3720609 -1.7354408,5.6174519 -6e-7,8.035443 z"
     transform="matrix(-1.1,0,0,-1.1,-1.1,0)" /></marker></defs><sodipodi:namedview
   pagecolor="#ffffff"
   bordercolor="#666666"
   borderopacity="1"
   objecttolerance="10"
   gridtolerance="10"
   guidetolerance="10"
   inkscape:pageopacity="0"
   inkscape:pageshadow="2"
   inkscape:window-width="640"
   inkscape:window-height="480"
   id="namedview3351"
   showgrid="false"
   inkscape:zoom="18.026316"
   inkscape:cx="22.092984"
   inkscape:cy="19"
   inkscape:current-layer="Ebene_1"
   inkscape:snap-nodes="true" />
<style
   type="text/css"
   id="style3337">
	.st0{fill:none;}
	.st1{fill:#3B4654;}
	.st2{fill:none;stroke:#3B4654;stroke-width:2;stroke-linecap:round;stroke-linejoin:round;stroke-miterlimit:10;}
	.st3{fill:none;stroke:#3B4654;stroke-width:3;stroke-linecap:round;stroke-linejoin:round;stroke-miterlimit:10;}
</style>
<rect
   style="fill:none"
   y="0"
   x="0"
   id="rect3341"
   height="38"
   width="38"
   class="st0" /><rect
   style="fill:#3b4654"
   id="rect3343"
   height="13.459854"
   width="3"
   class="st1"
   y="17.540146"
   x="2" /><rect
   style="fill:#3b4654"
   id="rect3345"
   height="30"
   width="3"
   class="st1"
   transform="matrix(0,1,-1,0,0,0)"
   y="-34"
   x="28" />
<rect
   style="fill:#3b4654"
   id="rect3343-0"
   height="13.459854"
   width="3"
   class="st1"
   y="17.540146"
   x="32" /><rect
   x="2"
   y="17.540146"
   class="st1"
   width="3"
   height="13.459854"
   id="rect4284"
   style="fill:#3b4654" /><g
   id="g11635"><rect
     x="11.019282"
     y="9.0802917"
     class="st1"
     width="3"
     height="13.459854"
     id="rect3343-5"
     style="fill:#3b4654" /><path
     inkscape:connector-curvature="0"
     id="path4422"
     d="m 12.537227,22 c 0,-0.08101 -0.01152,-0.163107 0,-0.243008 0.0064,-0.04466 0.03504,-0.08101 0.05256,-0.121503 0.01752,-0.06076 0.04473,-0.118861 0.05256,-0.182256 0.02231,-0.180424 -0.01569,-0.365415 0,-0.546767 0.0089,-0.102746 0.03504,-0.202507 0.05256,-0.30376 0.01752,-0.283509 0.03893,-0.566733 0.05256,-0.850526 0.0087,-0.181976 0,-0.364512 0,-0.546769 0,-0.101256 -0.01087,-0.203287 0,-0.303759 0.0068,-0.06354 0.04346,-0.119089 0.05256,-0.182255 0.0086,-0.05993 0,-0.121504 0,-0.182256 0,-0.162005 0.0046,-0.3241 0,-0.486016 -0.01286,-0.445727 -0.04051,-0.890786 -0.05256,-1.336542 -0.05663,-2.094151 0.08727,1.188461 -0.05256,-1.397294 -0.0055,-0.101059 0,-0.202507 0,-0.30376 0,-0.182256 0,-0.364511 0,-0.546768 0,-0.06075 0,-0.121504 0,-0.182255 0,-0.0405 0.0058,-0.08156 0,-0.121504 -0.01187,-0.08236 -0.04069,-0.160648 -0.05256,-0.243008 -0.01095,-0.07598 0,-0.356524 0,-0.425263 0,-0.202507 0,-0.405013 0,-0.60752 0,-0.04195 0.008,-0.224536 0,-0.243007 -0.01108,-0.02562 -0.04473,-0.03359 -0.05256,-0.06075 -0.01862,-0.06456 0.01862,-0.178452 0,-0.243008 -0.01239,-0.04296 -0.04018,-0.07854 -0.05256,-0.121503 -0.0097,-0.0335 0.01124,-0.230019 0,-0.243008 -0.01239,-0.01432 -0.04018,0.01431 -0.05256,0 -0.01075,-0.01242 0.01042,-0.158168 0,-0.182256 -0.01108,-0.02562 -0.04149,-0.03513 -0.05257,-0.06075 -0.01679,-0.03882 0.0141,-0.194109 0,-0.243008 -0.01239,-0.04296 -0.04018,-0.07854 -0.05256,-0.121504 -0.0055,-0.01921 0,-0.0405 0,-0.06075 0,-0.0405 0,-0.08101 0,-0.121504 0,-0.101256 0,-0.202507 0,-0.303759 0,-0.04195 0.008,-0.224538 0,-0.243008 -0.01108,-0.02562 -0.04148,-0.03514 -0.05256,-0.06076 -0.0079,-0.01811 0,-0.0405 0,-0.06075 0,-0.02025 0,-0.0405 0,-0.06075 0,-0.101256 0,-0.202506 0,-0.30376 0,-0.0405 0.01108,-0.08308 0,-0.121504 -0.01239,-0.04296 -0.04018,-0.07854 -0.05256,-0.121504 -0.01021,-0.03537 0,-0.322709 0,-0.36451 0,-0.101256 0,-0.202507 0,-0.303761 0,-0.0405 0,-0.08101 0,-0.121504 0,-0.02025 -0.0079,-0.04264 0,-0.06075 0.01108,-0.02562 0.04148,-0.03513 0.05256,-0.06075 0.02103,-0.0486 -0.02103,-0.133654 0,-0.182256 0.01108,-0.02561 0.04148,-0.03513 0.05256,-0.06075 0.01567,-0.03623 -0.01108,-0.08308 0,-0.121504 0.01239,-0.04296 0.04018,-0.07854 0.05256,-0.121504 0.0056,-0.01921 -0.0055,-0.04154 0,-0.06075 0.01239,-0.04296 0.04307,-0.07758 0.05257,-0.121504 0.01158,-0.05354 -0.01555,-0.328571 0,-0.364513 0.01108,-0.02562 0.04148,-0.03513 0.05256,-0.06075 0.008,-0.01849 0,-0.154895 0,-0.182255 0,-0.121504 0,-0.243008 0,-0.3645119 0,-0.283508 0,-0.567017 0,-0.850527"
     style="fill:#3b4654;fill-opacity:1;fill-rule:evenodd;stroke:#3b4654;stroke-width:1.01868582px;stroke-linecap:butt;stroke-linejoin:miter;stroke-opacity:1;marker-end:url(#Arrow2Lend)" /></g><g
   id="g11645"><rect
     x="22.888515"
     y="4.8401461"
     class="st1"
     width="3"
     height="13.459854"
     id="rect3343-5-8"
     style="fill:#3b4654" /><path
     inkscape:connector-curvature="0"
     id="path4422-2"
     d="m 24.3709,20.928297 c 0,-0.07397 -0.01216,-0.148938 0,-0.221898 0.0068,-0.04078 0.03698,-0.07397 0.05547,-0.110948 0.01849,-0.05548 0.04721,-0.108536 0.05547,-0.166424 0.02354,-0.164751 -0.01656,-0.333672 0,-0.49927 0.0094,-0.09382 0.03698,-0.184915 0.05547,-0.277372 0.01849,-0.258881 0.04108,-0.517502 0.05547,-0.776642 0.0092,-0.166168 0,-0.332847 0,-0.499271 0,-0.09246 -0.01147,-0.185628 0,-0.277372 0.0072,-0.05802 0.04586,-0.108744 0.05547,-0.166423 0.0091,-0.05472 0,-0.110949 0,-0.166423 0,-0.147932 0.0049,-0.295946 0,-0.443796 -0.01357,-0.407007 -0.04275,-0.813404 -0.05547,-1.220438 -0.05976,-1.912234 0.0921,1.08522 -0.05547,-1.275912 -0.0058,-0.09228 0,-0.184915 0,-0.277373 0,-0.166423 0,-0.332846 0,-0.49927 0,-0.05547 0,-0.110949 0,-0.166423 0,-0.03698 0.0061,-0.07447 0,-0.110949 -0.01253,-0.07521 -0.04294,-0.146693 -0.05547,-0.221898 -0.01156,-0.06938 0,-0.325553 0,-0.388321 0,-0.184915 0,-0.36983 0,-0.554745 0,-0.03831 0.0084,-0.205031 0,-0.221897 -0.01169,-0.02339 -0.0472,-0.03067 -0.05547,-0.05547 -0.01965,-0.05895 0.01965,-0.16295 0,-0.221898 -0.01308,-0.03923 -0.0424,-0.07172 -0.05547,-0.110948 -0.01019,-0.03059 0.01186,-0.210038 0,-0.221898 -0.01308,-0.01308 -0.0424,0.01307 -0.05547,0 -0.01134,-0.01134 0.011,-0.144428 0,-0.166424 -0.01169,-0.02339 -0.04378,-0.03208 -0.05548,-0.05547 -0.01772,-0.03545 0.01488,-0.177247 0,-0.221898 -0.01308,-0.03923 -0.0424,-0.07172 -0.05547,-0.110949 -0.0058,-0.01754 0,-0.03698 0,-0.05547 0,-0.03698 0,-0.07397 0,-0.110949 0,-0.09246 0,-0.184915 0,-0.277372 0,-0.03831 0.0084,-0.205032 0,-0.221898 -0.01169,-0.02339 -0.04378,-0.03209 -0.05547,-0.05548 -0.0083,-0.01654 0,-0.03698 0,-0.05547 0,-0.01849 0,-0.03698 0,-0.05547 0,-0.09246 0,-0.184914 0,-0.277372 0,-0.03698 0.01169,-0.07586 0,-0.1109493 -0.01308,-0.03923 -0.0424,-0.07172 -0.05547,-0.1109503 -0.01077,-0.0323 0,-0.2946779 0,-0.3328479 0,-0.09246 0,-0.1849146 0,-0.2773726 0,-0.03698 0,-0.07397 0,-0.110949 0,-0.01849 -0.0083,-0.03894 0,-0.05547 0.01169,-0.02339 0.04378,-0.03208 0.05547,-0.05547 0.02219,-0.04438 -0.02219,-0.122044 0,-0.166424 0.01169,-0.02339 0.04378,-0.03208 0.05547,-0.05547 0.01654,-0.03308 -0.01169,-0.07586 0,-0.110949 0.01308,-0.03923 0.0424,-0.07172 0.05547,-0.110949 0.0059,-0.01754 -0.0058,-0.03793 0,-0.05547 0.01308,-0.03923 0.04545,-0.07084 0.05548,-0.110949 0.01222,-0.04889 -0.01641,-0.300028 0,-0.332847 0.01169,-0.02339 0.04378,-0.03208 0.05547,-0.05547 0.0084,-0.01688 0,-0.14144 0,-0.166423 0,-0.110949 0,-0.221898 0,-0.332847 0,-0.25888 0,-0.517761 0,-0.776642"
     style="fill:#3b4654;fill-opacity:1;fill-rule:evenodd;stroke:#3b4654;stroke-width:1px;stroke-linecap:butt;stroke-linejoin:miter;stroke-opacity:1;marker-start:url(#Arrow2Lstart)" /></g></svg>