<?xml version="1.0" encoding="UTF-8" standalone="no"?>
<!-- Generator: Adobe Illustrator 19.2.1, SVG Export Plug-In . SVG Version: 6.00 Build 0)  -->

<svg
   xmlns:dc="http://purl.org/dc/elements/1.1/"
   xmlns:cc="http://creativecommons.org/ns#"
   xmlns:rdf="http://www.w3.org/1999/02/22-rdf-syntax-ns#"
   xmlns:svg="http://www.w3.org/2000/svg"
   xmlns="http://www.w3.org/2000/svg"
   xmlns:sodipodi="http://sodipodi.sourceforge.net/DTD/sodipodi-0.dtd"
   xmlns:inkscape="http://www.inkscape.org/namespaces/inkscape"
   version="1.1"
   id="Ebene_1"
   x="0px"
   y="0px"
   width="38px"
   height="38px"
   viewBox="0 0 38 38"
   style="enable-background:new 0 0 38 38;"
   xml:space="preserve"
   inkscape:version="0.91 r13725"
   sodipodi:docname="duerr_ico_historicalTrending_25_Export_38.svg"><metadata
   id="metadata3355"><rdf:RDF><cc:Work
       rdf:about=""><dc:format>image/svg+xml</dc:format><dc:type
         rdf:resource="http://purl.org/dc/dcmitype/StillImage" /><dc:title></dc:title></cc:Work></rdf:RDF></metadata><defs
   id="defs3353"><marker
   inkscape:stockid="Arrow2Lend"
   orient="auto"
   refY="0.0"
   refX="0.0"
   id="marker16273"
   style="overflow:visible;"
   inkscape:isstock="true"><path
     id="path16275"
     style="fill-rule:evenodd;stroke-width:0.625;stroke-linejoin:round;stroke:#3b4654;stroke-opacity:1;fill:#3b4654;fill-opacity:1"
     d="M 8.7185878,4.0337352 L -2.2072895,0.016013256 L 8.7185884,-4.0017078 C 6.9730900,-1.6296469 6.9831476,1.6157441 8.7185878,4.0337352 z "
     transform="scale(1.1) rotate(180) translate(1,0)" /></marker><marker
   inkscape:stockid="TriangleOutL"
   orient="auto"
   refY="0.0"
   refX="0.0"
   id="TriangleOutL"
   style="overflow:visible"
   inkscape:isstock="true"><path
     id="path4296"
     d="M 5.77,0.0 L -2.88,5.0 L -2.88,-5.0 L 5.77,0.0 z "
     style="fill-rule:evenodd;stroke:#3b4654;stroke-width:1pt;stroke-opacity:1;fill:#3b4654;fill-opacity:1"
     transform="scale(0.8)" /></marker><marker
   inkscape:isstock="true"
   style="overflow:visible"
   id="marker10895"
   refX="0.0"
   refY="0.0"
   orient="auto"
   inkscape:stockid="Arrow2Lstart"><path
     transform="scale(1.1) translate(1,0)"
     d="M 8.7185878,4.0337352 L -2.2072895,0.016013256 L 8.7185884,-4.0017078 C 6.9730900,-1.6296469 6.9831476,1.6157441 8.7185878,4.0337352 z "
     style="fill-rule:evenodd;stroke-width:0.625;stroke-linejoin:round;stroke:#3b4654;stroke-opacity:1;fill:#3b4654;fill-opacity:1"
     id="path10897" /></marker><marker
   inkscape:stockid="Arrow2Lend"
   orient="auto"
   refY="0.0"
   refX="0.0"
   id="marker4424"
   style="overflow:visible;"
   inkscape:isstock="true"><path
     id="path4426"
     style="fill-rule:evenodd;stroke-width:0.625;stroke-linejoin:round;stroke:#3b4654;stroke-opacity:1;fill:#3b4654;fill-opacity:1"
     d="M 8.7185878,4.0337352 L -2.2072895,0.016013256 L 8.7185884,-4.0017078 C 6.9730900,-1.6296469 6.9831476,1.6157441 8.7185878,4.0337352 z "
     transform="scale(1.1) rotate(180) translate(1,0)" /></marker><marker
   inkscape:stockid="Arrow1Lstart"
   orient="auto"
   refY="0.0"
   refX="0.0"
   id="Arrow1Lstart"
   style="overflow:visible"
   inkscape:isstock="true"><path
     id="path4154"
     d="M 0.0,0.0 L 5.0,-5.0 L -12.5,0.0 L 5.0,5.0 L 0.0,0.0 z "
     style="fill-rule:evenodd;stroke:#000000;stroke-width:1.0pt"
     transform="scale(0.8) translate(12.5,0)" /></marker><marker
   inkscape:stockid="Arrow2Lend"
   orient="auto"
   refY="0.0"
   refX="0.0"
   id="marker4416"
   style="overflow:visible;"
   inkscape:isstock="true"><path
     id="path4418"
     style="fill-rule:evenodd;stroke-width:0.62500000;stroke-linejoin:round;"
     d="M 8.7185878,4.0337352 L -2.2072895,0.016013256 L 8.7185884,-4.0017078 C 6.9730900,-1.6296469 6.9831476,1.6157441 8.7185878,4.0337352 z "
     transform="scale(1.1) rotate(180) translate(1,0)" /></marker><marker
   inkscape:stockid="Arrow2Lend"
   orient="auto"
   refY="0.0"
   refX="0.0"
   id="marker4412"
   style="overflow:visible;"
   inkscape:isstock="true"><path
     id="path4414"
     style="fill-rule:evenodd;stroke-width:0.62500000;stroke-linejoin:round;"
     d="M 8.7185878,4.0337352 L -2.2072895,0.016013256 L 8.7185884,-4.0017078 C 6.9730900,-1.6296469 6.9831476,1.6157441 8.7185878,4.0337352 z "
     transform="scale(1.1) rotate(180) translate(1,0)" /></marker><marker
   inkscape:stockid="Arrow2Lend"
   orient="auto"
   refY="0.0"
   refX="0.0"
   id="Arrow2Lend"
   style="overflow:visible;"
   inkscape:isstock="true"><path
     id="path4175"
     style="fill-rule:evenodd;stroke-width:0.625;stroke-linejoin:round;stroke:#3b4654;stroke-opacity:1;fill:#3b4654;fill-opacity:1"
     d="M 8.7185878,4.0337352 L -2.2072895,0.016013256 L 8.7185884,-4.0017078 C 6.9730900,-1.6296469 6.9831476,1.6157441 8.7185878,4.0337352 z "
     transform="scale(1.1) rotate(180) translate(1,0)" /></marker>
	
	
	
	
	
<marker
   inkscape:stockid="Arrow2Lend"
   orient="auto"
   refY="0"
   refX="0"
   id="marker4424-5"
   style="overflow:visible"
   inkscape:isstock="true"><path
     inkscape:connector-curvature="0"
     id="path4426-1"
     style="fill:#3b4654;fill-opacity:1;fill-rule:evenodd;stroke:#3b4654;stroke-width:0.625;stroke-linejoin:round;stroke-opacity:1"
     d="M 8.7185878,4.0337352 -2.2072895,0.01601326 8.7185884,-4.0017078 c -1.7454984,2.3720609 -1.7354408,5.6174519 -6e-7,8.035443 z"
     transform="matrix(-1.1,0,0,-1.1,-1.1,0)" /></marker><marker
   inkscape:stockid="Arrow2Lend"
   orient="auto"
   refY="0"
   refX="0"
   id="Arrow2Lend-7"
   style="overflow:visible"
   inkscape:isstock="true"><path
     inkscape:connector-curvature="0"
     id="path4175-8"
     style="fill:#3b4654;fill-opacity:1;fill-rule:evenodd;stroke:#3b4654;stroke-width:0.625;stroke-linejoin:round;stroke-opacity:1"
     d="M 8.7185878,4.0337352 -2.2072895,0.01601326 8.7185884,-4.0017078 c -1.7454984,2.3720609 -1.7354408,5.6174519 -6e-7,8.035443 z"
     transform="matrix(-1.1,0,0,-1.1,-1.1,0)" /></marker></defs><sodipodi:namedview
   pagecolor="#ffffff"
   bordercolor="#666666"
   borderopacity="1"
   objecttolerance="10"
   gridtolerance="10"
   guidetolerance="10"
   inkscape:pageopacity="0"
   inkscape:pageshadow="2"
   inkscape:window-width="640"
   inkscape:window-height="480"
   id="namedview3351"
   showgrid="false"
   inkscape:zoom="18.026316"
   inkscape:cx="20.038452"
   inkscape:cy="19"
   inkscape:current-layer="Ebene_1"
   inkscape:snap-nodes="true" />
<style
   type="text/css"
   id="style3337">
	.st0{fill:none;}
	.st1{fill:#3B4654;}
	.st2{fill:none;stroke:#3B4654;stroke-width:2;stroke-linecap:round;stroke-linejoin:round;stroke-miterlimit:10;}
	.st3{fill:none;stroke:#3B4654;stroke-width:3;stroke-linecap:round;stroke-linejoin:round;stroke-miterlimit:10;}
</style>
<rect
   style="fill:none"
   y="0"
   x="0"
   id="rect3341"
   height="38"
   width="38"
   class="st0" />
<g
   id="g17918"><rect
     x="2"
     y="17.540146"
     class="st1"
     width="3"
     height="13.459854"
     id="rect3343"
     style="fill:#3b4654" /><rect
     x="28"
     y="-34"
     transform="matrix(0,1,-1,0,0,0)"
     class="st1"
     width="3"
     height="30"
     id="rect3345"
     style="fill:#3b4654" /><rect
     x="32"
     y="17.540146"
     class="st1"
     width="3"
     height="13.459854"
     id="rect3343-0"
     style="fill:#3b4654" /><rect
     style="fill:#3b4654"
     id="rect4284"
     height="13.459854"
     width="3"
     class="st1"
     y="17.540146"
     x="2" /><rect
     transform="matrix(0,1,-1,0,0,0)"
     x="8.1477976"
     y="-27.459999"
     class="st1"
     width="2.9999826"
     height="8.96"
     id="rect3343-5"
     style="fill:#3b4654" /><path
     inkscape:connector-curvature="0"
     id="path4422"
     d="m 17.540152,9.6657334 c 0.08101,0 0.163109,-0.01152 0.24301,0 0.04466,0.0064 0.08101,0.03504 0.121505,0.05256 0.06076,0.01752 0.118862,0.04473 0.182258,0.05256 0.180426,0.02231 0.365419,-0.01569 0.546773,0 0.102747,0.0089 0.202509,0.03504 0.303763,0.05256 0.283512,0.01752 0.56674,0.03893 0.850536,0.05256 0.181978,0.0087 0.364516,0 0.546775,0 0.101257,0 0.203289,-0.01087 0.303762,0 0.06354,0.0068 0.119091,0.04346 0.182257,0.05256 0.05993,0.0086 0.121506,0 0.182258,0 0.162007,0 0.324104,0.0046 0.486022,0 0.445732,-0.01286 0.890796,-0.04051 1.336556,-0.05256 2.094175,-0.05663 -1.188474,0.087269 1.39731,-0.05256 0.10106,-0.0055 0.202509,0 0.303763,0 0.182258,0 0.364515,0 0.546774,0 0.06075,0 0.121506,0 0.182257,0 0.0405,0 0.08156,0.0058 0.121506,0 0.08236,-0.01187 0.16065,-0.04069 0.24301,-0.05256 0.07598,-0.01095 0.356528,0 0.425268,0 0.202509,0 0.405018,0 0.607527,0 0.04195,0 0.224538,0.008 0.24301,0 0.02562,-0.01108 0.03359,-0.04473 0.06075,-0.05256 0.06456,-0.01862 0.178454,0.01862 0.243011,0 0.04296,-0.01239 0.07854,-0.04018 0.121504,-0.05256 0.0335,-0.0097 0.230022,0.01124 0.243011,0 0.01432,-0.01239 -0.01431,-0.04018 0,-0.05256 0.01242,-0.01075 0.15817,0.01042 0.182258,0 0.02562,-0.01108 0.03513,-0.04149 0.06075,-0.05257 0.03882,-0.01679 0.194111,0.0141 0.24301,0 0.04296,-0.01239 0.07854,-0.04018 0.121506,-0.05256 0.01921,-0.0055 0.0405,0 0.06075,0 0.0405,0 0.08101,0 0.121506,0 0.101257,0 0.202509,0 0.303762,0 0.04195,0 0.224541,0.008 0.243011,0 0.02562,-0.01108 0.03514,-0.04148 0.06076,-0.05256 0.01811,-0.0079 0.0405,0 0.06075,0 0.02025,0 0.0405,0 0.06075,0 0.101257,0 0.202508,0 0.303763,0 0.0405,0 0.08308,0.01108 0.121506,0 0.04296,-0.01239 0.07854,-0.04018 0.121505,-0.05256 0.03537,-0.01021 0.322713,0 0.364514,0 0.101257,0 0.202509,0 0.303764,0 0.0405,0 0.08101,0 0.121506,0 0.02025,0 0.04264,-0.0079 0.06075,0 0.02562,0.01108 0.03513,0.04148 0.06075,0.05256 0.0486,0.02103 0.133656,-0.02103 0.182258,0 0.02561,0.01108 0.03513,0.04148 0.06075,0.05256 0.03623,0.01567 0.08308,-0.01108 0.121505,0 0.04296,0.01239 0.07854,0.04018 0.121506,0.05256 0.01921,0.0056 0.04154,-0.0055 0.06075,0 0.04296,0.01239 0.07758,0.04307 0.121506,0.05257 0.05354,0.01158 0.328574,-0.01555 0.364517,0 0.02562,0.01108 0.03513,0.04148 0.06075,0.05256 0.01849,0.008 0.154897,0 0.182257,0 0.121506,0 0.243011,0 0.364516,0 0.283511,0 0.567024,0 0.850537,0"
     style="fill:#3b4654;fill-opacity:1;fill-rule:evenodd;stroke:#3b4654;stroke-width:1.01868582px;stroke-linecap:butt;stroke-linejoin:miter;stroke-opacity:1;marker-end:url(#Arrow2Lend)" /><rect
     x="16.977211"
     y="9.6800003"
     class="st1"
     width="3"
     height="12.86"
     id="rect3343-5-5"
     style="fill:#3b4654" /><rect
     rx="1.5"
     y="8.1830006"
     x="17.003658"
     height="2.6109982"
     width="3.9209974"
     id="rect17904"
     style="opacity:1;fill:#3b4654;fill-opacity:1;fill-rule:evenodd;stroke:#3b4654;stroke-width:0.04600257;stroke-miterlimit:4;stroke-dasharray:none;stroke-opacity:1" /></g></svg>