<?xml version="1.0" encoding="UTF-8" standalone="no"?>
<!-- Generator: Adobe Illustrator 19.2.1, SVG Export Plug-In . SVG Version: 6.00 Build 0)  -->

<svg
   xmlns:dc="http://purl.org/dc/elements/1.1/"
   xmlns:cc="http://creativecommons.org/ns#"
   xmlns:rdf="http://www.w3.org/1999/02/22-rdf-syntax-ns#"
   xmlns:svg="http://www.w3.org/2000/svg"
   xmlns="http://www.w3.org/2000/svg"
   xmlns:sodipodi="http://sodipodi.sourceforge.net/DTD/sodipodi-0.dtd"
   xmlns:inkscape="http://www.inkscape.org/namespaces/inkscape"
   version="1.1"
   id="Ebene_1"
   x="0px"
   y="0px"
   width="38px"
   height="38px"
   viewBox="0 0 38 38"
   style="enable-background:new 0 0 38 38;"
   xml:space="preserve"
   inkscape:version="0.91 r13725"
   sodipodi:docname="duerr_ico_historicalTrending_43_editNoAction_38.svg"><metadata
     id="metadata19"><rdf:RDF><cc:Work
         rdf:about=""><dc:format>image/svg+xml</dc:format><dc:type
           rdf:resource="http://purl.org/dc/dcmitype/StillImage" /><dc:title></dc:title></cc:Work></rdf:RDF></metadata><defs
     id="defs17" /><sodipodi:namedview
     pagecolor="#ffffff"
     bordercolor="#666666"
     borderopacity="1"
     objecttolerance="10"
     gridtolerance="10"
     guidetolerance="10"
     inkscape:pageopacity="0"
     inkscape:pageshadow="2"
     inkscape:window-width="1549"
     inkscape:window-height="849"
     id="namedview15"
     showgrid="false"
     inkscape:zoom="6.2105263"
     inkscape:cx="19"
     inkscape:cy="19"
     inkscape:window-x="3200"
     inkscape:window-y="189"
     inkscape:window-maximized="0"
     inkscape:current-layer="Ebene_1" /><style
     type="text/css"
     id="style3">
	.st0{fill:none;}
	.st1{fill:#3B4654;}
</style><rect
     class="st0"
     width="38"
     height="38"
     id="rect5" /><g
     id="g7"
     style="opacity:0.5"><polygon
       class="st1"
       points="9,30 14.6,28.1 10.9,24.4 "
       id="polygon9"
       style="fill:#3b4654" /><polygon
       class="st1"
       points="24.6,10.7 24.4,10.5 12.2,22.8 16.3,26.8 28.4,14.8 "
       id="polygon11"
       style="fill:#3b4654" /><path
       class="st1"
       d="m 25.9,9.1 0.2,0.2 3.8,4 c 0.4,-0.4 0.7,-0.7 0.9,-0.9 0.3,-0.3 0.3,-1.7 0,-2.1 C 30.5,10 29.1,8.6 28.7,8.2 28.3,7.8 27.1,7.7 26.6,8.2 26.4,8.6 26.1,8.8 25.9,9.1 l 0,0 z"
       id="path13"
       inkscape:connector-curvature="0"
       style="fill:#3b4654" /></g></svg>