<?xml version="1.0" encoding="utf-8"?>
<!-- Generator: Adobe Illustrator 19.2.1, SVG Export Plug-In . SVG Version: 6.00 Build 0)  -->
<svg version="1.1" id="Ebene_1" xmlns="http://www.w3.org/2000/svg" xmlns:xlink="http://www.w3.org/1999/xlink" x="0px" y="0px"
	 width="38px" height="38px" viewBox="0 0 38 38" style="enable-background:new 0 0 38 38;" xml:space="preserve">
<style type="text/css">
	.st0{fill:none;}
	.st1{fill:#3B4654;}
</style>
<rect class="st0" width="38" height="38"/>
<g>
	<polygon class="st1" points="10.9,24.4 9,30 14.6,28.1 	"/>
	<polygon class="st1" points="28.4,14.8 24.6,10.7 24.4,10.5 12.2,22.8 16.3,26.8 	"/>
	<path class="st1" d="M25.9,9.1l0.2,0.2l3.8,4c0.4-0.4,0.7-0.7,0.9-0.9c0.3-0.3,0.3-1.7,0-2.1c-0.3-0.3-1.7-1.7-2.1-2.1
		c-0.4-0.4-1.6-0.5-2.1,0C26.4,8.6,26.1,8.8,25.9,9.1L25.9,9.1z"/>
</g>
</svg>
