<?xml version="1.0" encoding="UTF-8" standalone="no"?>
<!-- Created with Inkscape (http://www.inkscape.org/) -->

<svg
   xmlns:dc="http://purl.org/dc/elements/1.1/"
   xmlns:cc="http://creativecommons.org/ns#"
   xmlns:rdf="http://www.w3.org/1999/02/22-rdf-syntax-ns#"
   xmlns:svg="http://www.w3.org/2000/svg"
   xmlns="http://www.w3.org/2000/svg"
   xmlns:sodipodi="http://sodipodi.sourceforge.net/DTD/sodipodi-0.dtd"
   xmlns:inkscape="http://www.inkscape.org/namespaces/inkscape"
   width="38"
   height="38"
   viewBox="0 0 38 38"
   id="svg4796"
   version="1.1"
   inkscape:version="0.91 r13725"
   sodipodi:docname="plant.svg">
  <defs
     id="defs4798" />
  <sodipodi:namedview
     id="base"
     pagecolor="#ffffff"
     bordercolor="#666666"
     borderopacity="1.0"
     inkscape:pageopacity="0.0"
     inkscape:pageshadow="2"
     inkscape:zoom="7.9195959"
     inkscape:cx="11.456521"
     inkscape:cy="38.662422"
     inkscape:document-units="px"
     inkscape:current-layer="layer1"
     showgrid="false"
     units="px"
     inkscape:window-width="1920"
     inkscape:window-height="1017"
     inkscape:window-x="1272"
     inkscape:window-y="-8"
     inkscape:window-maximized="1" />
  <metadata
     id="metadata4801">
    <rdf:RDF>
      <cc:Work
         rdf:about="">
        <dc:format>image/svg+xml</dc:format>
        <dc:type
           rdf:resource="http://purl.org/dc/dcmitype/StillImage" />
        <dc:title></dc:title>
      </cc:Work>
    </rdf:RDF>
  </metadata>
  <g
     inkscape:label="Ebene 1"
     inkscape:groupmode="layer"
     id="layer1"
     transform="translate(0,-1014.3622)">
    <g
       transform="matrix(0.42553191,0,0,0.42553191,-12.918191,1013.3841)"
       id="g5359"
       style="fill:#3b4654;fill-opacity:1">
      <g
         id="g5361"
         style="fill:#3b4654;fill-opacity:1">
        <path
           inkscape:connector-curvature="0"
           class="st1"
           d="m 76,14 0,40.5 c 4.2,2.2 7,6.5 7,11.5 0,7.2 -5.8,13 -13,13 -7.2,0 -13,-5.8 -13,-13 0,-5 2.8,-9.4 7,-11.5 L 64,14 76,14 m 0,-4 -12,0 c -2.2,0 -4,1.8 -4,4 l 0,38.3 c -4.4,3.2 -7,8.2 -7,13.7 0,9.4 7.6,17 17,17 9.4,0 17,-7.6 17,-17 0,-5.5 -2.6,-10.6 -7,-13.7 L 80,14 c 0,-2.2 -1.8,-4 -4,-4 l 0,0 z"
           id="path5363"
           style="fill:#3b4654;fill-opacity:1" />
        <circle
           class="st2"
           cx="70"
           cy="66"
           r="11"
           id="circle5365"
           style="fill:#3b4654;fill-opacity:1" />
        <rect
           x="66"
           y="32"
           class="st2"
           width="8"
           height="31"
           id="rect5367"
           style="fill:#3b4654;fill-opacity:1" />
      </g>
      <g
         id="g5369"
         style="fill:#3b4654;fill-opacity:1">
        <rect
           x="84"
           y="13"
           class="st1"
           width="16"
           height="4"
           id="rect5371"
           style="fill:#3b4654;fill-opacity:1" />
        <rect
           x="84"
           y="29"
           class="st1"
           width="16"
           height="4"
           id="rect5373"
           style="fill:#3b4654;fill-opacity:1" />
        <rect
           x="84"
           y="21"
           class="st1"
           width="10"
           height="4"
           id="rect5375"
           style="fill:#3b4654;fill-opacity:1" />
        <rect
           x="84"
           y="45"
           class="st1"
           width="16"
           height="4"
           id="rect5377"
           style="fill:#3b4654;fill-opacity:1" />
        <rect
           x="84"
           y="37"
           class="st1"
           width="10"
           height="4"
           id="rect5379"
           style="fill:#3b4654;fill-opacity:1" />
      </g>
    </g>
  </g>
</svg>
