<?xml version="1.0" encoding="UTF-8" standalone="no"?>
<!-- Generator: Adobe Illustrator 19.2.1, SVG Export Plug-In . SVG Version: 6.00 Build 0)  -->

<svg
   xmlns:dc="http://purl.org/dc/elements/1.1/"
   xmlns:cc="http://creativecommons.org/ns#"
   xmlns:rdf="http://www.w3.org/1999/02/22-rdf-syntax-ns#"
   xmlns:svg="http://www.w3.org/2000/svg"
   xmlns="http://www.w3.org/2000/svg"
   xmlns:sodipodi="http://sodipodi.sourceforge.net/DTD/sodipodi-0.dtd"
   xmlns:inkscape="http://www.inkscape.org/namespaces/inkscape"
   version="1.1"
   id="Ebene_1"
   x="0px"
   y="0px"
   width="38px"
   height="38px"
   viewBox="0 0 38 38"
   style="enable-background:new 0 0 38 38;"
   xml:space="preserve"
   inkscape:version="0.91 r13725"
   sodipodi:docname="process_kl.svg"><metadata
     id="metadata29"><rdf:RDF><cc:Work
         rdf:about=""><dc:format>image/svg+xml</dc:format><dc:type
           rdf:resource="http://purl.org/dc/dcmitype/StillImage" /><dc:title></dc:title></cc:Work></rdf:RDF></metadata><defs
     id="defs27" /><sodipodi:namedview
     pagecolor="#ffffff"
     bordercolor="#666666"
     borderopacity="1"
     objecttolerance="10"
     gridtolerance="10"
     guidetolerance="10"
     inkscape:pageopacity="0"
     inkscape:pageshadow="2"
     inkscape:window-width="1005"
     inkscape:window-height="556"
     id="namedview25"
     showgrid="false"
     inkscape:zoom="6.2105263"
     inkscape:cx="19"
     inkscape:cy="19"
     inkscape:window-x="3532"
     inkscape:window-y="327"
     inkscape:window-maximized="0"
     inkscape:current-layer="Ebene_1" /><style
     type="text/css"
     id="style3">
	.st0{fill:none;}
	.st1{fill:#3B4654;}
</style><g
     id="g5"
     transform="matrix(0.60526315,0,0,0.60526315,7.4067797,7.4322034)"><rect
       class="st0"
       width="38"
       height="38"
       id="rect7"
       x="0"
       y="0"
       style="fill:none" /><g
       id="g9"><path
         class="st1"
         d="m 26,23.1 4.4,8.6 C 30.8,30.9 31,30 31,29 31,26 28.8,23.6 26,23.1 Z M 19,29 c 0,0.8 0.2,1.6 0.5,2.3 L 24,23.1 C 21.2,23.6 19,26 19,29 Z m 1.5,4 c 1.1,1.2 2.7,2 4.5,2 1.6,0 3.1,-0.6 4.2,-1.7 L 25,25 20.5,33 Z"
         id="path11"
         inkscape:connector-curvature="0"
         style="fill:#3b4654" /><path
         class="st1"
         d="M 14.5,9.5 18.9,3.7 C 19,3.5 19,3.4 19,3.2 18.9,3.1 18.7,3 18.6,3 L 9.4,3 C 9.3,3 9.1,3.1 9,3.2 9,3.4 9,3.5 9.1,3.7 l 4.4,5.8 -4.4,5.8 C 9,15.5 9,15.6 9,15.8 9.1,15.9 9.3,16 9.4,16 l 9.2,0 c 0.2,0 0.3,-0.1 0.4,-0.2 0.1,-0.1 0.1,-0.3 0,-0.4 L 14.5,9.5 Z"
         id="path13"
         inkscape:connector-curvature="0"
         style="fill:#3b4654" /><rect
         x="3"
         y="18"
         class="st1"
         width="33"
         height="3"
         id="rect15"
         style="fill:#3b4654" /><rect
         x="13"
         y="0"
         class="st1"
         width="2"
         height="4"
         id="rect17"
         style="fill:#3b4654" /><rect
         x="13"
         y="16"
         class="st1"
         width="2"
         height="2"
         id="rect19"
         style="fill:#3b4654" /><rect
         x="24"
         y="18"
         class="st1"
         width="2"
         height="5"
         id="rect21"
         style="fill:#3b4654" /><rect
         x="24"
         y="33"
         class="st1"
         width="2"
         height="5"
         id="rect23"
         style="fill:#3b4654" /></g></g></svg>