<?xml version="1.0" encoding="UTF-8" standalone="no"?>
<!-- Generator: Adobe Illustrator 18.0.0, SVG Export Plug-In . SVG Version: 6.00 Build 0)  -->

<svg
   xmlns:dc="http://purl.org/dc/elements/1.1/"
   xmlns:cc="http://creativecommons.org/ns#"
   xmlns:rdf="http://www.w3.org/1999/02/22-rdf-syntax-ns#"
   xmlns:svg="http://www.w3.org/2000/svg"
   xmlns="http://www.w3.org/2000/svg"
   xmlns:sodipodi="http://sodipodi.sourceforge.net/DTD/sodipodi-0.dtd"
   xmlns:inkscape="http://www.inkscape.org/namespaces/inkscape"
   version="1.1"
   id="Capa_1"
   x="0px"
   y="0px"
   viewBox="0 0 80 80"
   xml:space="preserve"
   inkscape:version="0.91 r13725"
   sodipodi:docname="server_add.svg"
   width="80"
   height="80"><metadata
   id="metadata7303"><rdf:RDF><cc:Work
       rdf:about=""><dc:format>image/svg+xml</dc:format><dc:type
         rdf:resource="http://purl.org/dc/dcmitype/StillImage" /><dc:title></dc:title></cc:Work></rdf:RDF></metadata><defs
   id="defs7301" /><sodipodi:namedview
   pagecolor="#ffffff"
   bordercolor="#666666"
   borderopacity="1"
   objecttolerance="10"
   gridtolerance="10"
   guidetolerance="10"
   inkscape:pageopacity="0"
   inkscape:pageshadow="2"
   inkscape:window-width="640"
   inkscape:window-height="480"
   id="namedview7299"
   showgrid="false"
   inkscape:zoom="8.0833333"
   inkscape:cx="30"
   inkscape:cy="43.098986"
   inkscape:current-layer="Capa_1" />
<g
   id="g7261"
   style="fill:#3b4654;fill-opacity:1;stroke:#3b4654;stroke-opacity:1"
   transform="matrix(0.91596966,0,0,0.91596966,5.4579848,1.7941062)">
	<path
   d="m 43.188,40.863 -1.444,-0.277 c -0.677,-0.13 -1.21,-0.573 -1.462,-1.216 -0.253,-0.642 -0.163,-1.329 0.245,-1.885 l 0.907,-1.236 c 0.292,-0.398 0.25,-0.95 -0.1,-1.299 l -1.959,-1.958 c -0.339,-0.339 -0.872,-0.389 -1.268,-0.121 l -1.217,0.824 c -0.57,0.389 -1.262,0.452 -1.895,0.175 -0.632,-0.275 -1.055,-0.825 -1.16,-1.508 L 33.602,30.847 C 33.528,30.36 33.108,30 32.615,30 l -2.77,0 c -0.479,0 -0.892,0.341 -0.982,0.812 l -0.358,1.865 c -0.127,0.662 -0.558,1.19 -1.181,1.448 -0.624,0.26 -1.302,0.189 -1.86,-0.189 l -1.572,-1.064 c -0.397,-0.268 -0.928,-0.218 -1.268,0.121 l -1.959,1.958 c -0.35,0.349 -0.392,0.9 -0.1,1.299 l 0.907,1.236 c 0.408,0.556 0.498,1.243 0.245,1.885 -0.252,0.643 -0.785,1.086 -1.462,1.216 l -1.444,0.277 C 18.341,40.954 18,41.366 18,41.846 l 0,2.77 c 0,0.493 0.36,0.913 0.848,0.988 l 1.515,0.233 c 0.683,0.105 1.232,0.528 1.508,1.16 0.276,0.633 0.212,1.323 -0.175,1.895 l -0.824,1.217 c -0.269,0.396 -0.218,0.929 0.121,1.268 l 1.958,1.959 c 0.348,0.348 0.899,0.391 1.299,0.1 l 1.236,-0.907 c 0.555,-0.408 1.245,-0.498 1.885,-0.245 0.643,0.252 1.086,0.785 1.216,1.462 l 0.277,1.444 c 0.09,0.469 0.502,0.81 0.982,0.81 l 2.77,0 c 0.493,0 0.913,-0.36 0.988,-0.848 l 0.164,-1.065 c 0.105,-0.688 0.552,-1.256 1.193,-1.522 0.643,-0.266 1.361,-0.179 1.921,0.232 l 0.869,0.638 c 0.399,0.292 0.951,0.249 1.299,-0.1 l 1.958,-1.959 c 0.339,-0.339 0.39,-0.871 0.121,-1.268 l -0.824,-1.217 c -0.387,-0.571 -0.451,-1.262 -0.175,-1.895 0.275,-0.632 0.825,-1.055 1.508,-1.16 l 1.515,-0.233 C 43.64,45.528 44,45.108 44,44.615 l 0,-2.77 c 0,-0.479 -0.341,-0.891 -0.812,-0.982 z M 42,43.758 41.333,43.861 c -1.354,0.208 -2.489,1.082 -3.036,2.337 -0.548,1.256 -0.416,2.682 0.352,3.815 l 0.361,0.533 -0.768,0.768 -0.177,-0.13 c -1.13,-0.828 -2.574,-1.002 -3.869,-0.467 -1.294,0.536 -2.192,1.682 -2.405,3.065 L 31.758,54 30.672,54 30.551,53.367 c -0.259,-1.346 -1.175,-2.447 -2.449,-2.947 -1.276,-0.5 -2.696,-0.314 -3.8,0.494 l -0.544,0.399 -0.768,-0.768 0.361,-0.533 c 0.768,-1.134 0.899,-2.56 0.352,-3.815 C 23.156,44.942 22.02,44.068 20.667,43.86 L 20,43.758 l 0,-1.086 0.633,-0.121 c 1.346,-0.259 2.447,-1.175 2.947,-2.449 0.5,-1.275 0.315,-2.695 -0.494,-3.8 l -0.399,-0.544 0.768,-0.768 0.889,0.602 c 1.108,0.752 2.511,0.893 3.747,0.381 1.237,-0.513 2.127,-1.604 2.38,-2.919 L 30.672,32 l 1.086,0 0.103,0.667 c 0.208,1.354 1.082,2.489 2.337,3.036 1.256,0.548 2.682,0.416 3.815,-0.352 l 0.533,-0.361 0.768,0.768 -0.399,0.544 c -0.81,1.104 -0.994,2.524 -0.494,3.8 0.5,1.274 1.602,2.19 2.947,2.449 l 0.632,0.121 0,1.086 z"
   id="path7263"
   style="fill:#3b4654;fill-opacity:1;stroke:#3b4654;stroke-opacity:1"
   inkscape:connector-curvature="0" />
	<path
   d="m 31,38 c -2.757,0 -5,2.243 -5,5 0,2.757 2.243,5 5,5 2.757,0 5,-2.243 5,-5 0,-2.757 -2.243,-5 -5,-5 z m 0,8 c -1.654,0 -3,-1.346 -3,-3 0,-1.654 1.346,-3 3,-3 1.654,0 3,1.346 3,3 0,1.654 -1.346,3 -3,3 z"
   id="path7265"
   style="fill:#3b4654;fill-opacity:1;stroke:#3b4654;stroke-opacity:1"
   inkscape:connector-curvature="0" />
	<path
   d="M 50.976,20.194 C 50.447,11.194 43.028,4 34.084,4 28.654,4 23.396,6.663 20.139,11.008 20.064,10.969 19.985,10.942 19.909,10.906 19.711,10.81 19.51,10.719 19.305,10.637 19.191,10.592 19.077,10.551 18.962,10.511 18.759,10.44 18.553,10.377 18.343,10.32 18.228,10.289 18.114,10.257 17.998,10.231 17.773,10.18 17.543,10.141 17.311,10.106 17.21,10.091 17.111,10.071 17.009,10.06 16.677,10.023 16.341,10 16,10 11.037,10 7,14.037 7,19 7,19.129 7.008,19.255 7.017,19.381 2.857,21.648 0,26.399 0,31.154 0,38.237 5.762,44 12.845,44 c 0.553,0 1,-0.447 1,-1 0,-0.553 -0.447,-1 -1,-1 C 6.865,42 2,37.135 2,31.154 2,27 4.705,22.688 8.433,20.901 L 9,20.63 9,20 C 9,19.88 9.008,19.758 9.015,19.635 L 9.026,19.45 9.013,19.256 C 9.007,19.171 9,19.086 9,19 c 0,-3.859 3.141,-7 7,-7 0.309,0 0.614,0.027 0.917,0.067 0.078,0.01 0.156,0.023 0.233,0.036 0.267,0.044 0.53,0.102 0.789,0.177 0.035,0.01 0.071,0.017 0.106,0.027 0.285,0.087 0.563,0.197 0.835,0.321 0.071,0.032 0.14,0.067 0.21,0.101 0.24,0.119 0.475,0.249 0.702,0.396 C 21.719,14.373 23,16.538 23,19 c 0,0.553 0.447,1 1,1 0.553,0 1,-0.447 1,-1 0,-2.754 -1.246,-5.219 -3.2,-6.871 C 24.667,8.379 29.388,6 34.084,6 c 7.745,0 14.178,6.135 14.849,13.888 -1.021,-0.072 -2.552,-0.109 -4.083,0.124 -0.546,0.083 -0.921,0.593 -0.838,1.139 0.075,0.495 0.501,0.85 0.987,0.85 0.05,0 0.101,-0.004 0.151,-0.012 2.228,-0.336 4.548,-0.021 4.684,-0.002 C 54.49,22.872 58,27.161 58,31.972 58,37.501 53.501,42 47.972,42 c -0.553,0 -1,0.447 -1,1 0,0.553 0.447,1 1,1 C 54.604,44 60,38.604 60,31.972 60,26.483 56.173,21.56 50.976,20.194 Z"
   id="path7267"
   style="fill:#3b4654;fill-opacity:1;stroke:#3b4654;stroke-opacity:1"
   inkscape:connector-curvature="0" />
</g>
<g
   id="g7269"
   transform="translate(0,20)">
</g>
<g
   id="g7271"
   transform="translate(0,20)">
</g>
<g
   id="g7273"
   transform="translate(0,20)">
</g>
<g
   id="g7275"
   transform="translate(0,20)">
</g>
<g
   id="g7277"
   transform="translate(0,20)">
</g>
<g
   id="g7279"
   transform="translate(0,20)">
</g>
<g
   id="g7281"
   transform="translate(0,20)">
</g>
<g
   id="g7283"
   transform="translate(0,20)">
</g>
<g
   id="g7285"
   transform="translate(0,20)">
</g>
<g
   id="g7287"
   transform="translate(0,20)">
</g>
<g
   id="g7289"
   transform="translate(0,20)">
</g>
<g
   id="g7291"
   transform="translate(0,20)">
</g>
<g
   id="g7293"
   transform="translate(0,20)">
</g>
<g
   id="g7295"
   transform="translate(0,20)">
</g>
<g
   id="g7297"
   transform="translate(0,20)">
</g>
<g
   id="g18116"
   transform="matrix(1.7777778,0,0,1.7777778,8.7909711,9.5159361)"><rect
     style="fill:#3b4654"
     id="rect4284"
     height="18"
     width="6"
     class="st1"
     y="18.834785"
     x="25.242579" /><rect
     style="fill:#3b4654"
     id="rect4284-9"
     height="6"
     width="18"
     class="st1"
     y="24.834785"
     x="19.242579" /></g></svg>