<?xml version="1.0" encoding="UTF-8" standalone="no"?>
<!-- Generator: Adobe Illustrator 19.2.1, SVG Export Plug-In . SVG Version: 6.00 Build 0)  -->

<svg
   xmlns:dc="http://purl.org/dc/elements/1.1/"
   xmlns:cc="http://creativecommons.org/ns#"
   xmlns:rdf="http://www.w3.org/1999/02/22-rdf-syntax-ns#"
   xmlns:svg="http://www.w3.org/2000/svg"
   xmlns="http://www.w3.org/2000/svg"
   xmlns:sodipodi="http://sodipodi.sourceforge.net/DTD/sodipodi-0.dtd"
   xmlns:inkscape="http://www.inkscape.org/namespaces/inkscape"
   version="1.1"
   id="Ebene_1"
   x="0px"
   y="0px"
   width="38px"
   height="38px"
   viewBox="0 0 38 38"
   style="enable-background:new 0 0 38 38;"
   xml:space="preserve"
   inkscape:version="0.91 r13725"
   sodipodi:docname="acknowledgeNoAction.svg"><metadata
     id="metadata17"><rdf:RDF><cc:Work
         rdf:about=""><dc:format>image/svg+xml</dc:format><dc:type
           rdf:resource="http://purl.org/dc/dcmitype/StillImage" /><dc:title></dc:title></cc:Work></rdf:RDF></metadata><defs
     id="defs15" /><sodipodi:namedview
     pagecolor="#ffffff"
     bordercolor="#666666"
     borderopacity="1"
     objecttolerance="10"
     gridtolerance="10"
     guidetolerance="10"
     inkscape:pageopacity="0"
     inkscape:pageshadow="2"
     inkscape:window-width="1590"
     inkscape:window-height="785"
     id="namedview13"
     showgrid="false"
     inkscape:zoom="6.2105263"
     inkscape:cx="-3.3008475"
     inkscape:cy="19"
     inkscape:window-x="0"
     inkscape:window-y="0"
     inkscape:window-maximized="0"
     inkscape:current-layer="g5" /><style
     type="text/css"
     id="style3">
	.st0{fill:none;}
	.st1{fill:#3B4654;}
</style><g
     id="g5"><rect
       class="st0"
       width="38"
       height="38"
       id="rect7" /><path
       class="st1"
       d="M31.8,12.5C30.6,10.8,28.7,9,26.7,8L25,9.7c0.8,0.3,1.9,1.1,2.4,1.6c2,1.6,3.3,3.7,3.9,6l0.4-0.5   c0.4-0.6,1-0.9,1.7-0.9C32.9,14.7,32.4,13.5,31.8,12.5z M24.3,13l-1.6,1.6c0.3,0.2,0.8,0.4,1.1,0.6c1.6,1.2,2.5,2.2,2.8,4.2   c0.2,1.4-0.2,2.9-1.1,4.1l1.1,0.9l1.9-2.9c0.4-1.9,0-4-1.3-5.7C26.6,14.9,25.5,13.5,24.3,13z M10,24l10,7v-2.7l-1.4-1.2   c-0.4-0.4-0.7-0.9-0.7-1.5s0.2-1.1,0.6-1.5l1.6-1.7V9l-10,7v8H10z M2,24h6v-8H2V24z"
       id="path9"
       style="opacity:0.5" /><path
       class="st1"
       d="M27.4,31c-0.4,0-0.8-0.1-1.1-0.4L20,25.5l2.2-2.2l4.9,3.9l6.2-9.2l2.8,1.6l-7.2,10.7c-0.3,0.4-0.7,0.6-1.1,0.7   C27.5,31,27.5,31,27.4,31L27.4,31z"
       id="path11"
       style="opacity:0.5" /></g></svg>