<?xml version="1.0" encoding="UTF-8" standalone="no"?>
<!-- Generator: Adobe Illustrator 19.2.1, SVG Export Plug-In . SVG Version: 6.00 Build 0)  -->

<svg
   xmlns:dc="http://purl.org/dc/elements/1.1/"
   xmlns:cc="http://creativecommons.org/ns#"
   xmlns:rdf="http://www.w3.org/1999/02/22-rdf-syntax-ns#"
   xmlns:svg="http://www.w3.org/2000/svg"
   xmlns="http://www.w3.org/2000/svg"
   xmlns:sodipodi="http://sodipodi.sourceforge.net/DTD/sodipodi-0.dtd"
   xmlns:inkscape="http://www.inkscape.org/namespaces/inkscape"
   version="1.1"
   id="Ebene_1"
   x="0px"
   y="0px"
   width="45"
   height="38"
   viewBox="0 0 45 38"
   xml:space="preserve"
   inkscape:version="0.91 r13725"
   sodipodi:docname="acknowledgeMulti.svg"><metadata
     id="metadata17"><rdf:RDF><cc:Work
         rdf:about=""><dc:format>image/svg+xml</dc:format><dc:type
           rdf:resource="http://purl.org/dc/dcmitype/StillImage" /><dc:title></dc:title></cc:Work></rdf:RDF></metadata><defs
     id="defs15" /><sodipodi:namedview
     pagecolor="#ffffff"
     bordercolor="#666666"
     borderopacity="1"
     objecttolerance="10"
     gridtolerance="10"
     guidetolerance="10"
     inkscape:pageopacity="0"
     inkscape:pageshadow="2"
     inkscape:window-width="1444"
     inkscape:window-height="776"
     id="namedview13"
     showgrid="false"
     inkscape:zoom="6.2105263"
     inkscape:cx="19"
     inkscape:cy="19"
     inkscape:window-x="3200"
     inkscape:window-y="189"
     inkscape:window-maximized="0"
     inkscape:current-layer="Ebene_1" /><style
     type="text/css"
     id="style3">
	.st0{fill:none;}
	.st1{fill:#3B4654;}
</style><g
     id="g5"><rect
       class="st0"
       width="38"
       height="38"
       id="rect7"
       x="0"
       y="0"
       style="fill:none" /><path
       class="st1"
       d="M 31.8,12.5 C 30.6,10.8 28.7,9 26.7,8 L 25,9.7 c 0.8,0.3 1.9,1.1 2.4,1.6 2,1.6 3.3,3.7 3.9,6 l 0.4,-0.5 c 0.4,-0.6 1,-0.9 1.7,-0.9 -0.5,-1.2 -1,-2.4 -1.6,-3.4 z m -7.5,0.5 -1.6,1.6 c 0.3,0.2 0.8,0.4 1.1,0.6 1.6,1.2 2.5,2.2 2.8,4.2 0.2,1.4 -0.2,2.9 -1.1,4.1 l 1.1,0.9 1.9,-2.9 c 0.4,-1.9 0,-4 -1.3,-5.7 C 26.6,14.9 25.5,13.5 24.3,13 Z M 10,24 l 10,7 0,-2.7 -1.4,-1.2 c -0.4,-0.4 -0.7,-0.9 -0.7,-1.5 0,-0.6 0.2,-1.1 0.6,-1.5 l 1.6,-1.7 0,-13.4 -10,7 0,8 -0.1,0 z m -8,0 6,0 0,-8 -6,0 0,8 z"
       id="path9"
       inkscape:connector-curvature="0"
       style="fill:#3b4654" /><path
       class="st1"
       d="M 27.4,31 C 27,31 26.6,30.9 26.3,30.6 l -6.3,-5.1 2.2,-2.2 4.9,3.9 6.2,-9.2 2.8,1.6 -7.2,10.7 c -0.3,0.4 -0.7,0.6 -1.1,0.7 -0.3,0 -0.3,0 -0.4,0 l 0,0 z"
       id="path11"
       inkscape:connector-curvature="0"
       style="fill:#3b4654" /></g><polygon
     transform="translate(-0.097,-2.963)"
     class="st1"
     points="36,29 44,29 40,34 "
     id="polygon9"
     style="fill:#3b4654" /></svg>