<?xml version="1.0" encoding="UTF-8" standalone="no"?>
<!-- Generator: Adobe Illustrator 19.2.1, SVG Export Plug-In . SVG Version: 6.00 Build 0)  -->

<svg
   xmlns:dc="http://purl.org/dc/elements/1.1/"
   xmlns:cc="http://creativecommons.org/ns#"
   xmlns:rdf="http://www.w3.org/1999/02/22-rdf-syntax-ns#"
   xmlns:svg="http://www.w3.org/2000/svg"
   xmlns="http://www.w3.org/2000/svg"
   xmlns:sodipodi="http://sodipodi.sourceforge.net/DTD/sodipodi-0.dtd"
   xmlns:inkscape="http://www.inkscape.org/namespaces/inkscape"
   version="1.1"
   id="Ebene_1"
   x="0px"
   y="0px"
   width="38px"
   height="38px"
   viewBox="0 0 38 38"
   style="enable-background:new 0 0 38 38;"
   xml:space="preserve"
   inkscape:version="0.91 r13725"
   sodipodi:docname="resetNoAction.svg"><metadata
     id="metadata3364"><rdf:RDF><cc:Work
         rdf:about=""><dc:format>image/svg+xml</dc:format><dc:type
           rdf:resource="http://purl.org/dc/dcmitype/StillImage" /><dc:title></dc:title></cc:Work></rdf:RDF></metadata><defs
     id="defs3362" /><sodipodi:namedview
     pagecolor="#ffffff"
     bordercolor="#666666"
     borderopacity="1"
     objecttolerance="10"
     gridtolerance="10"
     guidetolerance="10"
     inkscape:pageopacity="0"
     inkscape:pageshadow="2"
     inkscape:window-width="1509"
     inkscape:window-height="752"
     id="namedview3360"
     showgrid="false"
     inkscape:zoom="6.2105263"
     inkscape:cx="-15.29661"
     inkscape:cy="19"
     inkscape:window-x="0"
     inkscape:window-y="0"
     inkscape:window-maximized="0"
     inkscape:current-layer="g3352" /><style
     type="text/css"
     id="style3350">
	.st0{fill:none;}
	.st1{fill:#3B4654;}
</style><g
     id="g3352"><rect
       class="st0"
       width="38"
       height="38"
       id="rect3354" /><path
       class="st1"
       d="m 8,29 0,3 16.8,0 -3.7,-3 -0.1,0 0,-0.1 -2.2,-1.8 c -0.4,-0.4 -0.7,-0.9 -0.7,-1.5 0,-0.6 0.2,-1.1 0.6,-1.5 l 1.4,-1.5 0,-13.6 4,0 0,13.1 1.1,0.9 0.9,0 0,-14 4,0 0,10.5 1.8,-2.7 c 0,-0.1 0.1,-0.1 0.2,-0.2 L 32.1,7 6,7 l 0,19 10,0 0,3 -8,0 z m 6,-5 0,-15 4,0 0,15 -2,0 -2,0 z"
       id="path3356"
       inkscape:connector-curvature="0"
       style="fill:#3b4654;opacity:0.5" /><path
       class="st1"
       d="M27.6,31c-0.4,0-0.8-0.1-1.1-0.4l-6.3-5.1l2.2-2.2l4.9,3.9l6.2-9.2l2.8,1.6L29,30.3c-0.3,0.4-0.7,0.6-1.1,0.7   C27.7,31,27.7,31,27.6,31L27.6,31z"
       id="path3358"
       style="opacity:0.5" /></g></svg>