<?xml version="1.0" encoding="utf-8"?>
<!-- Generator: Adobe Illustrator 19.2.1, SVG Export Plug-In . SVG Version: 6.00 Build 0)  -->
<svg version="1.1" id="Ebene_1" xmlns="http://www.w3.org/2000/svg" xmlns:xlink="http://www.w3.org/1999/xlink" x="0px" y="0px"
	 width="38px" height="38px" viewBox="0 0 38 38" style="enable-background:new 0 0 38 38;" xml:space="preserve">
<style type="text/css">
	.st0{fill:none;}
	.st1{fill:#3B4654;}
</style>
<g>
	<rect class="st0" width="38" height="38"/>
	<path class="st1" d="M8,29v3h16.8l-3.7-3H21v-0.1l-2.2-1.8c-0.4-0.4-0.7-0.9-0.7-1.5s0.2-1.1,0.6-1.5l1.4-1.5V9h4v13.1l1.1,0.9h0.9
		V9h4v10.5l1.8-2.7c0-0.1,0.1-0.1,0.2-0.2V7H6v19h10v3H8z M14,24V9h4v15h-2H14z"/>
	<path class="st1" d="M27.6,31c-0.4,0-0.8-0.1-1.1-0.4l-6.3-5.1l2.2-2.2l4.9,3.9l6.2-9.2l2.8,1.6L29,30.3c-0.3,0.4-0.7,0.6-1.1,0.7
		C27.7,31,27.7,31,27.6,31L27.6,31z"/>
</g>
</svg>
