<?xml version="1.0" encoding="utf-8"?>
<!-- Generator: Adobe Illustrator 19.2.1, SVG Export Plug-In . SVG Version: 6.00 Build 0)  -->
<svg version="1.1" id="Ebene_1" xmlns="http://www.w3.org/2000/svg" xmlns:xlink="http://www.w3.org/1999/xlink" x="0px" y="0px"
	 viewBox="0 0 140 90" style="enable-background:new 0 0 140 90;" xml:space="preserve">
<style type="text/css">
	.st0{fill:#3B4654;}
	.st1{fill:#196FA3;}
</style>
<path class="st0" d="M54.1,51.1l-0.2-0.8c-2-3.1-3.2-6.8-3.2-10.8c0-9.5,6.5-17.4,15.3-19.6l0.3-2.8l-5.9-2.4l5.1-3.7h-7
	c-2.2,0-4.9,1.6-6,3.5L40.1,36c-1.1,1.9-1.1,5,0,6.9l3.8,6.7l2.6,1.6l1.8-1.7L54.1,51.1z M101.9,36L89.5,14.5
	c-1.1-1.9-3.8-3.5-6-3.5H70.6l-4,3l2.9,1.2l-0.2,2.5l4.7,1.2l-0.3,0.6c9.9,1.3,17.6,9.8,17.6,20.1c0,11.2-9.1,20.3-20.3,20.3
	c-4.6,0-8.8-1.6-12.2-4.1l-9.6-2.7L47,55l5.5,9.6c1.1,1.9,3.8,3.5,6,3.5h24.9c2.2,0,4.9-1.6,6-3.5L101.9,43
	C103,41.1,103,37.9,101.9,36z"/>
<path class="st1" d="M55.8,39.5c0-7.2,5-13.2,11.7-14.8l1.5-2.8c-8.8,1-15.7,8.5-15.7,17.6c0,2.7,0.6,5.3,1.7,7.6l3.1,0.5
	C56.6,45.3,55.8,42.5,55.8,39.5z M72.4,21.8l-1.3,2.4c8.4,0.1,15.1,6.9,15.1,15.2c0,8.4-6.8,15.3-15.3,15.3c-3.7,0-7.1-1.4-9.8-3.6
	l-4.2-0.7c3.3,4.1,8.3,6.8,13.9,6.8c9.8,0,17.8-7.9,17.8-17.8C88.8,30.2,81.5,22.5,72.4,21.8z"/>
</svg>
