<?xml version="1.0" encoding="utf-8"?>
<!-- Generator: Adobe Illustrator 19.2.1, SVG Export Plug-In . SVG Version: 6.00 Build 0)  -->
<svg version="1.1" id="Ebene_1" xmlns="http://www.w3.org/2000/svg" xmlns:xlink="http://www.w3.org/1999/xlink" x="0px" y="0px"
	 viewBox="0 0 140 90" style="enable-background:new 0 0 140 90;" xml:space="preserve">
<style type="text/css">
	.st0{fill:#196FA3;}
	.st1{fill:#3B4654;}
</style>
<path class="st0" d="M104.8,64.5c-0.6-4.8-4.4-8.4-9-8.8l9.1,10.4C104.9,65.6,104.9,65,104.8,64.5z M49.9,21l8-11.8
	c0.2-0.2,0.2-0.5,0-0.8C57.8,8.2,57.5,8,57.3,8H40.8c-0.3,0-0.5,0.2-0.7,0.4c-0.1,0.2-0.1,0.5,0,0.8l8,11.8l-8,11.8
	c-0.2,0.2-0.2,0.5,0,0.8c0.1,0.2,0.4,0.4,0.7,0.4h16.5c0.3,0,0.5-0.2,0.7-0.4c0.1-0.2,0.1-0.5,0-0.8L49.9,21z M85,67.1
	c0.1,0.6,0.2,1.1,0.4,1.6l6.1-12.4C87.2,57.8,84.4,62.3,85,67.1z M87.1,72c2.1,2.7,5.5,4.3,9.2,3.8s6.6-2.9,7.9-6.1L94,58L87.1,72z"
	/>
<path class="st1" d="M41.1,45.2l2-2.8L26.3,38l-2,7.7l2.7,0.8l6.9-1.3l-0.4-4.5L41.1,45.2z M51,38.8V34h-4v7.5l2.6-3.4L51,38.8z
	 M51,0h-4v8h4V0z M96.2,75.8c-0.7,0.1-1.4,0.1-2,0V76l1,7.9l4-0.5l-1-8.1C97.6,75.5,96.9,75.7,96.2,75.8z M95.6,55.7l-1-7.9
	l19.8-2.6l-1-7.9l-30.4,4l4.3,2.3l-1.5,1.9L90,47l0.1,1.4l0.5-0.1l1,7.9c0.9-0.3,1.9-0.5,3-0.5H95.6z M83.7,45.2L79.1,42H57.5
	L54,43.7l-3.6-1.8L47.3,46l-2.6-1.7l-1.8,4.5l-5.5-1.6v0.1l0.5,1.2L34.8,50h51.8l-5.1-2.6L83.7,45.2z"/>
</svg>
