<?xml version="1.0" encoding="UTF-8" standalone="no"?>
<!-- Generator: Adobe Illustrator 19.2.1, SVG Export Plug-In . SVG Version: 6.00 Build 0)  -->

<svg
   xmlns:dc="http://purl.org/dc/elements/1.1/"
   xmlns:cc="http://creativecommons.org/ns#"
   xmlns:rdf="http://www.w3.org/1999/02/22-rdf-syntax-ns#"
   xmlns:svg="http://www.w3.org/2000/svg"
   xmlns="http://www.w3.org/2000/svg"
   xmlns:sodipodi="http://sodipodi.sourceforge.net/DTD/sodipodi-0.dtd"
   xmlns:inkscape="http://www.inkscape.org/namespaces/inkscape"
   version="1.1"
   id="Ebene_1"
   x="0px"
   y="0px"
   width="140"
   height="100"
   viewBox="0 0 140 100"
   xml:space="preserve"
   inkscape:version="0.91 r13725"
   sodipodi:docname="pvcSupply.svg"><metadata
     id="metadata3471"><rdf:RDF><cc:Work
         rdf:about=""><dc:format>image/svg+xml</dc:format><dc:type
           rdf:resource="http://purl.org/dc/dcmitype/StillImage" /><dc:title></dc:title></cc:Work></rdf:RDF></metadata><defs
     id="defs3469" /><sodipodi:namedview
     pagecolor="#ffffff"
     bordercolor="#666666"
     borderopacity="1"
     objecttolerance="10"
     gridtolerance="10"
     guidetolerance="10"
     inkscape:pageopacity="0"
     inkscape:pageshadow="2"
     inkscape:window-width="640"
     inkscape:window-height="480"
     id="namedview3467"
     showgrid="false"
     fit-margin-top="10"
     fit-margin-left="0"
     fit-margin-right="0"
     fit-margin-bottom="0"
     inkscape:zoom="2.5"
     inkscape:cx="70"
     inkscape:cy="45"
     inkscape:window-x="0"
     inkscape:window-y="0"
     inkscape:window-maximized="0"
     inkscape:current-layer="Ebene_1" /><style
     type="text/css"
     id="style3451">
	.st0{fill:none;}
	.st1{fill:#3B4654;}
	.st2{fill:#196FA3;}
</style><rect
     class="st0"
     width="140"
     height="90"
     id="rect3453"
     x="0"
     y="10"
     style="fill:none" /><g
     id="g3455"
     transform="translate(0,10)"><path
       class="st1"
       d="m 98,18 c 0,1.1 -0.9,2 -2,2 l -52,0 c -1.1,0 -2,-0.9 -2,-2 l 0,0 c 0,-1.1 0.9,-2 2,-2 l 52,0 c 1.1,0 2,0.9 2,2 l 0,0 z"
       id="path3457"
       inkscape:connector-curvature="0"
       style="fill:#3b4654" /><path
       class="st1"
       d="m 49,67 42,0 0,-4 -42,0 0,4 z m 0,6 42,0 0,-5 -42,0 0,5 z m 0,-11 42,0 0,-16 -42,0 0,16 z M 91,35.6 c -0.9,0.1 -2.2,0.3 -3.5,0.3 -1.1,0 -2.3,-0.1 -3.1,-0.5 -2.5,-1.3 -3.8,-2.7 -7.1,-3.2 -0.3,0 -0.6,-0.1 -0.9,-0.1 -3.6,0 -10.7,1.9 -13.7,2.2 -0.1,0 -0.3,0 -0.4,0 C 59.4,34.3 57.1,32 54.8,32 54.4,32 54,32.1 53.7,32.2 52.2,32.7 50,33 49,33.3 l 0,6.7 42,0 0,-4.4 z m -42,9.4 42,0 0,-4 -42,0 0,4 z m -1,-4 -3,0 0,4 3,0 0,-4 z m 0,5 -3,0 0,16 3,0 0,-16 z m -3,-33 0,2 50,0 0,-2 -50,0 z m 47,32 3,0 0,-4 -3,0 0,4 z m -47,-5 3,0 0,-6.7 c 0,-0.4 0.3,-0.8 0.7,-1 0.4,-0.1 0.9,-0.2 1.6,-0.3 1,-0.2 2.2,-0.4 3,-0.7 0.5,-0.2 1,-0.3 1.5,-0.3 1.3,0 2.6,0.6 3.8,1.2 1.2,0.6 2.4,1.1 3.7,1.1 0.1,0 0.2,0 0.3,0 1.2,-0.1 3.2,-0.5 5.2,-0.9 3,-0.6 6.3,-1.3 8.5,-1.3 0.4,0 0.8,0 1.1,0.1 2.7,0.4 4.1,1.3 5.7,2.2 0.5,0.3 1.1,0.7 1.8,1 0.4,0.2 1.1,0.4 2.6,0.4 1.1,0 2.3,-0.1 3.2,-0.2 l 0.2,0 0.1,0 c 0.2,0 0.5,0.1 0.7,0.3 0.2,0.2 0.3,0.5 0.3,0.7 l 0,4.4 3,0 0,-19 -50,0 0,19 z m 0,-20 50,0 0,-4 -50,0 0,4 z m 3,43 -3,0 0,4 3,0 0,-4 z m 44,-1 3,0 0,-16 -3,0 0,16 z m 0,11 c 0,0.6 -0.4,1 -1,1 l -42,0 c -0.6,0 -1,-0.4 -1,-1 l 0,-5 -3,0 0,9 50,0 0,-9 -3,0 0,5 z m 0,-6 3,0 0,-4 -3,0 0,4 z"
       id="path3459"
       inkscape:connector-curvature="0"
       style="fill:#3b4654" /><path
       class="st2"
       d="m 49,45 42,0 0,-4 -42,0 0,4 z M 84.5,35.4 C 82,34.1 80.7,32.7 77.4,32.2 74.2,31.8 66,34.1 62.7,34.3 59.2,34.6 56.5,31.1 53.7,32.2 52.2,32.7 50,33 49,33.3 l 0,6.7 42,0 0,-4.4 c -1.6,0.2 -4.8,0.6 -6.5,-0.2 z M 49,62 l 42,0 0,-16 -42,0 0,16 z m 0,11 42,0 0,-5 -42,0 0,5 z m 0,-6 42,0 0,-4 -42,0 0,4 z"
       id="path3461"
       inkscape:connector-curvature="0"
       style="fill:#196fa3" /><path
       class="st1"
       d="m 98,65 c 0,1.1 -0.9,2 -2,2 l -52,0 c -1.1,0 -2,-0.9 -2,-2 l 0,0 c 0,-1.1 0.9,-2 2,-2 l 52,0 c 1.1,0 2,0.9 2,2 l 0,0 z"
       id="path3463"
       inkscape:connector-curvature="0"
       style="fill:#3b4654" /><path
       class="st1"
       d="m 98,43 c 0,1.1 -0.9,2 -2,2 l -52,0 c -1.1,0 -2,-0.9 -2,-2 l 0,0 c 0,-1.1 0.9,-2 2,-2 l 52,0 c 1.1,0 2,0.9 2,2 l 0,0 z"
       id="path3465"
       inkscape:connector-curvature="0"
       style="fill:#3b4654" /></g></svg>