<?xml version="1.0" encoding="utf-8"?>
<!-- Generator: Adobe Illustrator 19.2.1, SVG Export Plug-In . SVG Version: 6.00 Build 0)  -->
<svg version="1.1" id="Ebene_1" xmlns="http://www.w3.org/2000/svg" xmlns:xlink="http://www.w3.org/1999/xlink" x="0px" y="0px"
	 viewBox="0 0 140 90" style="enable-background:new 0 0 140 90;" xml:space="preserve">
<style type="text/css">
	.st0{fill:#3B4654;}
	.st1{fill:#196FA3;}
</style>
<path class="st0" d="M108,39H96V22c0-1.7-1.3-3-3-3H48c-1.7,0-3,1.3-3,3v7H33v4h12v16H33v4h12v7c0,1.6,1.3,3,3,3h45c1.7,0,3-1.4,3-3
	V43h12V39z M83.8,53.3L83.8,53.3c-0.5,1.2-1.6,2-2.8,2h-5.6c-0.6,0-1.3-0.2-1.8-0.6c-0.4,0.2-0.8,0.3-1.1,0.4
	c-1.1,0.3-2.4,0.5-3.7,0.5c-3,0-5.4-0.8-7.3-2.5s-3-4.1-3-6.8c0-1.8,0.5-3.5,1.5-4.8c0.4-0.5,0.9-1,1.4-1.6
	c-0.1-0.2-0.2-0.5-0.3-0.7c-0.5-1.1-0.7-2.3-0.7-3.5c0-2.6,0.9-4.8,2.6-6.5c1.7-1.7,4-2.5,6.6-2.5c2.4,0,4.5,0.8,6.1,2.5
	c1.5,1.6,2.4,3.6,2.4,5.9c0,1.1-0.2,2.1-0.5,3.1h2.1c1.7,0,3,1.3,3,3c0,1.7-0.2,3.3-0.6,4.7c-0.2,0.7-0.4,1.4-0.7,2.1l1.9,2.2
	C84,51,84.2,52.2,83.8,53.3z"/>
<path class="st1" d="M126,33h-12c-2.2,0-4,1.8-4,4v8c0,2.2,1.8,4,4,4h12c2.2,0,4-1.8,4-4v-8C130,34.8,128.2,33,126,33z M121,46h-3
	v-3h3V46z M121,41h-3v-5h3V41z M78.9,45.2c0.3-1.2,0.5-2.6,0.5-4h-3.6c0,0.7-0.1,1.4-0.3,2.1c-0.2,0.7-0.4,1.3-0.8,1.9L71,40.9
	l1.3-0.9c0.8-0.5,1.4-1.2,1.9-2.1c0.5-0.9,0.7-1.8,0.7-2.8c0-1.5-0.5-2.8-1.5-3.8c-1-1.1-2.3-1.6-3.9-1.6c-1.8,0-3.4,0.6-4.5,1.7
	c-1.1,1.1-1.7,2.5-1.7,4.3c0,0.8,0.2,1.5,0.5,2.3c0.4,0.7,0.9,1.6,1.5,2.5c-1.4,1-2.3,1.9-3.2,3c-0.6,0.8-0.9,1.8-0.9,3
	c0,1.8,0.7,3.3,2,4.5c1.3,1.1,3.1,1.7,5.3,1.7c1.1,0,2-0.1,2.9-0.4c0.8-0.2,1.7-0.7,2.6-1.2l1.1,1.3h5.6v-0.1l-3.3-3.9
	C78.1,47.5,78.6,46.4,78.9,45.2z M68.3,34.3c0.3-0.4,0.7-0.6,1.3-0.6c0.5,0,0.9,0.1,1.2,0.5c0.3,0.4,0.5,0.8,0.5,1.2
	c0,0.4-0.1,0.8-0.3,1.1c-0.2,0.4-0.5,0.7-1.1,1.1L69,38.2c-0.4-0.4-0.7-0.9-0.9-1.3c-0.2-0.4-0.3-0.8-0.3-1.2
	C67.8,35.1,68,34.6,68.3,34.3z M70.3,48.5c-0.4,0.1-0.9,0.1-1.3,0.1c-0.7,0-1.3-0.3-1.8-0.7c-0.5-0.5-0.7-1.1-0.7-1.9
	c0-0.5,0.1-0.9,0.2-1.3c0.2-0.3,0.4-0.7,0.7-1.1l0.1-0.1l4.1,4.6C71.2,48.3,70.7,48.4,70.3,48.5z M28,23H14c-1.7,0-3,1.3-3,3v10
	c0,1.6,1.3,3,3,3h14c1.7,0,3-1.4,3-3V26C31,24.3,29.7,23,28,23z M21.5,34.6c-0.2,0.2-0.4,0.4-0.7,0.4h-0.1c-0.2,0-0.5-0.1-0.7-0.2
	l-4-3.2l1.3-1.4l3,2.4l3.9-5.7l1.7,1L21.5,34.6z M27,43H15c-2.2,0-4,1.8-4,4v8c0,2.2,1.8,4,4,4h12c2.2,0,4-1.8,4-4v-8
	C31,44.8,29.2,43,27,43z M22,56h-3v-3h3V56z M22,51h-3v-5h3V51z"/>
</svg>
